<svg id="Icon_camera" data-name="Icon/camera" xmlns="http://www.w3.org/2000/svg" width="16" height="16" viewBox="0 0 16 16">
  <g id="グループ_1894" data-name="グループ 1894" transform="translate(-2.681 -342.298)">
    <g id="パス_1029" data-name="パス 1029" fill="none" stroke-miterlimit="10">
      <path d="M17.874,345.545h-1.63l-1.491-2.806a.781.781,0,0,0-.679-.442l-6.8.006a.782.782,0,0,0-.679.443L5.11,345.555H3.48a.879.879,0,0,0-.8.942l.006,10.861a.877.877,0,0,0,.8.939l14.395-.01a.88.88,0,0,0,.8-.942l-.006-10.861A.88.88,0,0,0,17.874,345.545Z" stroke="none"/>
      <path d="M 13.91701316833496 343.2981262207031 L 7.434872627258301 343.3035888671875 L 5.993599891662598 346.0233764648438 L 5.712029457092285 346.5547180175781 L 5.110689163208008 346.5551452636719 L 3.681032180786133 346.5561218261719 L 3.686965942382812 357.2978515625 L 17.68096733093262 357.2878723144531 L 17.6750316619873 346.5450134277344 L 16.24470901489258 346.5460205078125 L 15.64320945739746 346.5464477539062 L 15.36093997955322 346.0152893066406 L 13.91701316833496 343.2981262207031 M 14.07399940490723 342.2980041503906 C 14.35000038146973 342.2980041503906 14.60700035095215 342.46484375 14.75300025939941 342.7402954101562 L 16.24399948120117 345.5460205078125 L 17.87400054931641 345.5448608398438 C 18.31599998474121 345.5448608398438 18.67399978637695 345.9653930664062 18.67499923706055 346.4854431152344 L 18.68099975585938 357.3460083007812 C 18.68099975585938 357.8659973144531 18.32299995422363 358.2865295410156 17.88199996948242 358.2877197265625 L 3.48699951171875 358.2980041503906 C 3.486379623413086 358.2980041503906 3.485801696777344 358.2980041503906 3.485179901123047 358.2980041503906 C 3.044036865234375 358.2980041503906 2.687000274658203 357.8766784667969 2.687000274658203 357.3585815429688 L 2.680999755859375 346.4979858398438 C 2.680999755859375 345.9779968261719 3.038000106811523 345.5562744140625 3.479999542236328 345.5562744140625 L 5.110000610351562 345.5551452636719 L 6.597999572753906 342.7471618652344 C 6.743999481201172 342.4717102050781 7.000999450683594 342.3037109375 7.276999473571777 342.3037109375 L 14.07399940490723 342.2980041503906 Z" stroke="none" fill="#7e8195"/>
    </g>
    <g id="パス_1030" data-name="パス 1030" transform="translate(-1.006 -0.079)" fill="none" stroke-miterlimit="10">
      <path d="M11.69,356.377a5,5,0,1,1,5-5A5.007,5.007,0,0,1,11.69,356.377Z" stroke="none"/>
      <path d="M 11.6892557144165 355.3770141601562 C 12.75576591491699 355.3760986328125 13.75961589813232 354.9586181640625 14.51587581634521 354.2015380859375 C 15.27205562591553 353.4445190429688 15.68796634674072 352.4406433105469 15.68699550628662 351.3744201660156 C 15.68599605560303 349.1702575683594 13.89221572875977 347.3770141601562 11.68429565429688 347.3770141601562 C 10.61829566955566 347.3774719238281 9.614815711975098 347.7947387695312 8.858716011047363 348.5519409179688 C 8.102636337280273 349.3091125488281 7.686515808105469 350.3133239746094 7.687005996704102 351.3791198730469 C 7.689005851745605 353.5835876464844 9.483785629272461 355.3770141601562 11.68787574768066 355.3770141601562 L 11.6892557144165 355.3770141601562 M 11.68787670135498 356.3770141601562 C 8.931819915771484 356.3770141601562 6.689505100250244 354.1357727050781 6.687005996704102 351.3800354003906 C 6.685745716094971 348.6236877441406 8.926885604858398 346.3782043457031 11.68386554718018 346.3770141601562 C 11.68521213531494 346.3770141601562 11.68701648712158 346.3770141601562 11.68836212158203 346.3770141601562 C 14.44349575042725 346.3770141601562 16.68574714660645 348.6177368164062 16.68699645996094 351.3739624023438 C 16.68950653076172 354.13037109375 14.44710636138916 356.3746032714844 11.69012546539307 356.3770141601562 C 11.689453125 356.3770141601562 11.68854904174805 356.3770141601562 11.68787670135498 356.3770141601562 Z" stroke="none" fill="#7e8195"/>
    </g>
    <g id="パス_1031" data-name="パス 1031" transform="translate(-0.606 0.274)" fill="none" stroke-miterlimit="10">
      <path d="M11.284,348.023a3,3,0,1,0,3,3A3,3,0,0,0,11.284,348.023Z" stroke="none"/>
      <path d="M 11.28522968292236 349.0230102539062 C 10.75232982635498 349.0234069824219 10.25065994262695 349.2321166992188 9.872659683227539 349.6107482910156 C 9.494589805603027 349.9894409179688 9.286600112915039 350.4916076660156 9.286999702453613 351.0247497558594 C 9.287829399108887 352.1265869140625 10.18457984924316 353.0230102539062 11.28754997253418 353.0230102539062 C 11.82061958312988 353.0226440429688 12.32259941101074 352.8138732910156 12.70102977752686 352.4351501464844 C 13.07929992675781 352.0566101074219 13.28739929199219 351.554931640625 13.28699970245361 351.0225524902344 C 13.28617000579834 349.9200744628906 12.38882923126221 349.0230712890625 11.28673934936523 349.0230102539062 L 11.28522968292236 349.0230102539062 M 11.2867374420166 348.0230102539062 C 12.93976974487305 348.0231018066406 14.28575038909912 349.3680114746094 14.28699970245361 351.0217895507812 C 14.28824996948242 352.6752319335938 12.94238948822021 354.0218505859375 11.28824996948242 354.0230102539062 C 11.28744220733643 354.0230102539062 11.2868070602417 354.0230102539062 11.2859992980957 354.0230102539062 C 9.632978439331055 354.0230102539062 8.288249015808105 352.6792297363281 8.286999702453613 351.0255126953125 C 8.285749435424805 349.370849609375 9.630359649658203 348.0242309570312 11.28448963165283 348.0230102539062 C 11.28529739379883 348.0230102539062 11.28593063354492 348.0230102539062 11.2867374420166 348.0230102539062 Z" stroke="none" fill="#7e8195"/>
    </g>
  </g>
</svg>
