<svg xmlns="http://www.w3.org/2000/svg" width="15.5" height="15.5" viewBox="0 0 15.5 15.5">
  <g id="グループ_8313" data-name="グループ 8313" transform="translate(-341 -92)">
    <g id="パス_787" data-name="パス 787" transform="translate(287 -202)" fill="none">
      <path d="M61.75,294A7.6,7.6,0,0,0,54,301.442a7.247,7.247,0,0,0,1.885,4.863l-.571,3.195,3.175-1.306a8,8,0,0,0,3.261.691,7.449,7.449,0,1,0,0-14.885Z" stroke="none"/>
      <path d="M 61.75000381469727 294.9999694824219 C 58.02804565429688 294.9999694824219 55 297.8898315429688 55 301.4419555664062 C 55 302.9784851074219 55.57846069335938 304.4681091308594 56.62883758544922 305.6364440917969 L 56.95551300048828 305.9998168945312 L 56.86960601806641 306.4808349609375 L 56.61937713623047 307.8819580078125 L 58.10877227783203 307.269287109375 L 58.50478363037109 307.1064147949219 L 58.89596557617188 307.2805786132812 C 59.79636383056641 307.6815185546875 60.75659561157227 307.8847961425781 61.75000381469727 307.8847961425781 C 65.47196197509766 307.8847961425781 68.5 304.9945373535156 68.5 301.4419555664062 C 68.5 297.8898315429688 65.47196197509766 294.9999694824219 61.75000381469727 294.9999694824219 M 61.75000381469727 293.9999694824219 C 66.02993774414062 293.9999694824219 69.5 297.3324584960938 69.5 301.4419555664062 C 69.5 305.5523376464844 66.02993774414062 308.8847961425781 61.75000381469727 308.8847961425781 C 60.5845947265625 308.8847961425781 59.48118591308594 308.6358337402344 58.48919677734375 308.1941223144531 L 55.31459045410156 309.4999694824219 L 55.88518524169922 306.3050231933594 C 54.7120361328125 305.0001220703125 54 303.3019409179688 54 301.4419555664062 C 54 297.3324584960938 57.47006225585938 293.9999694824219 61.75000381469727 293.9999694824219 Z" stroke="none" fill="#fff"/>
    </g>
    <line id="線_398" data-name="線 398" x1="6.687" transform="translate(345.406 96.947)" fill="none" stroke="#fff" stroke-linecap="round" stroke-miterlimit="10" stroke-width="1"/>
    <line id="線_399" data-name="線 399" x1="6.687" transform="translate(345.406 99.75)" fill="none" stroke="#fff" stroke-linecap="round" stroke-miterlimit="10" stroke-width="1"/>
    <line id="線_400" data-name="線 400" x1="6.687" transform="translate(345.406 102.553)" fill="none" stroke="#fff" stroke-linecap="round" stroke-miterlimit="10" stroke-width="1"/>
  </g>
</svg>
