<svg xmlns="http://www.w3.org/2000/svg" width="16" height="16" viewBox="0 0 16 16">
  <g id="パス_13" data-name="パス 13" transform="translate(-264.438 -331.073)" fill="none">
    <path d="M272.438,331.073a7.846,7.846,0,0,0-8,7.682,7.477,7.477,0,0,0,1.946,5.019l-.589,3.3,3.278-1.348a8.236,8.236,0,0,0,3.366.713,7.689,7.689,0,1,0,0-15.365Z" stroke="none"/>
    <path d="M 272.43798828125 332.072998046875 C 268.5781860351562 332.072998046875 265.43798828125 335.0707092285156 265.43798828125 338.7554016113281 C 265.43798828125 340.3500061035156 266.037841796875 341.89501953125 267.1270446777344 343.1058044433594 L 267.4539184570312 343.4691772460938 L 267.3680114746094 343.9503173828125 L 267.0993957519531 345.4551696777344 L 268.6920166015625 344.8001708984375 L 269.0885314941406 344.6370849609375 L 269.4800415039062 344.8118591308594 C 270.410400390625 345.2272033691406 271.4056091308594 345.4378051757812 272.43798828125 345.4378051757812 C 276.2977905273438 345.4378051757812 279.43798828125 342.4400939941406 279.43798828125 338.7554016113281 C 279.43798828125 335.0707092285156 276.2977905273438 332.072998046875 272.43798828125 332.072998046875 M 272.43798828125 331.072998046875 C 276.8563842773438 331.072998046875 280.43798828125 334.5130004882812 280.43798828125 338.7554016113281 C 280.43798828125 342.9985961914062 276.8563842773438 346.4378051757812 272.43798828125 346.4378051757812 C 271.2347717285156 346.4378051757812 270.0955810546875 346.1817932128906 269.0723876953125 345.7250061035156 L 265.7947998046875 347.072998046875 L 266.3835754394531 343.7745971679688 C 265.1723937988281 342.4281921386719 264.43798828125 340.6746215820312 264.43798828125 338.7554016113281 C 264.43798828125 334.5130004882812 268.0195922851562 331.072998046875 272.43798828125 331.072998046875 Z" stroke="none" fill="#7e8195"/>
  </g>
</svg>
