<svg xmlns="http://www.w3.org/2000/svg" width="16" height="16.001" viewBox="0 0 16 16.001">
  <g id="グループ_4804" data-name="グループ 4804" transform="translate(-5 -6)">
    <g id="グループ_4523" data-name="グループ 4523" transform="translate(-193.389 -523.52)">
      <g id="パス_1853" data-name="パス 1853" fill="none" stroke-linecap="round" stroke-miterlimit="10">
        <path d="M204.762,535.138c-.013-1.368-.712-4.177-3.709-3.519s-3.242,5.872-1.851,8.818l4.927-.241A23.2,23.2,0,0,0,204.762,535.138Z" stroke="none"/>
        <path d="M 201.9020080566406 532.5206909179688 C 201.7078704833984 532.5206909179688 201.4943695068359 532.5458984375 201.2669372558594 532.5958251953125 C 200.7046356201172 532.718994140625 200.2527618408203 533.12060546875 199.9238433837891 533.7894287109375 C 199.2295379638672 535.201416015625 199.2230682373047 537.5886840820312 199.8589782714844 539.4036865234375 L 203.3167419433594 539.2344970703125 C 203.4999847412109 538.3253784179688 203.77587890625 536.6910400390625 203.7620391845703 535.1475219726562 C 203.7573547363281 534.6560668945312 203.6375427246094 533.9295043945312 203.3152465820312 533.3642578125 C 202.9871826171875 532.7887573242188 202.5382080078125 532.520751953125 201.9021759033203 532.5206909179688 L 201.9020080566406 532.5206909179688 M 201.9023895263672 531.5206909179688 C 204.1855163574219 531.5209350585938 204.7503204345703 533.9100341796875 204.7619934082031 535.1380004882812 C 204.7839965820312 537.5919799804688 204.1289978027344 540.1959838867188 204.1289978027344 540.1959838867188 L 199.2019958496094 540.43701171875 C 197.8110046386719 537.4910278320312 198.0670013427734 532.2730102539062 201.0529937744141 531.6190185546875 C 201.3597564697266 531.5516357421875 201.6420440673828 531.5206298828125 201.9023895263672 531.5206909179688 Z" stroke="none" fill="#7e8195"/>
      </g>
      <g id="パス_1854" data-name="パス 1854" fill="none" stroke-linecap="round" stroke-miterlimit="10">
        <path d="M199.418,541.764c0,.584.425,4.04,3.1,3.738s2.038-3.046,1.845-3.98Z" stroke="none"/>
        <path d="M 203.5366821289062 542.5637817382812 L 200.5674285888672 542.708984375 C 200.6930999755859 543.2007446289062 200.9140319824219 543.7709350585938 201.2873840332031 544.1455688476562 C 201.5424194335938 544.4014892578125 201.8318939208984 544.5206909179688 202.1983489990234 544.5206909179688 C 202.2659912109375 544.5206909179688 202.3372039794922 544.5165405273438 202.4099426269531 544.50830078125 C 203.0873413085938 544.4319458007812 203.2775268554688 544.169189453125 203.3400268554688 544.0828247070312 C 203.6064147949219 543.7147827148438 203.6023254394531 543.096435546875 203.5366821289062 542.5637817382812 M 204.3670043945312 541.52197265625 C 204.5599975585938 542.4559936523438 205.1999969482422 545.2000122070312 202.5220031738281 545.5020141601562 C 202.41015625 545.5146484375 202.3024749755859 545.5206909179688 202.1983489990234 545.5206909179688 C 199.8083343505859 545.5206909179688 199.4160766601562 542.3236694335938 199.4179992675781 541.7639770507812 L 204.3670043945312 541.52197265625 Z" stroke="none" fill="#7e8195"/>
      </g>
    </g>
    <g id="グループ_4524" data-name="グループ 4524" transform="translate(-193.389 -523.52)">
      <g id="パス_1855" data-name="パス 1855" fill="none" stroke-linecap="round" stroke-miterlimit="10">
        <path d="M208.017,533.138c.012-1.368.711-4.177,3.709-3.52s3.241,5.873,1.851,8.819l-4.927-.241A23.136,23.136,0,0,1,208.017,533.138Z" stroke="none"/>
        <path d="M 210.8773956298828 530.5198974609375 C 210.2406616210938 530.5198974609375 209.791259765625 530.7880249023438 209.4631042480469 531.3636474609375 C 209.1407318115234 531.9291381835938 209.0212707519531 532.655517578125 209.0169525146484 533.1473999023438 C 209.0024871826172 534.6911010742188 209.2786254882812 536.3256225585938 209.4620208740234 537.2344970703125 L 212.9198150634766 537.4036865234375 C 213.5553588867188 535.5882568359375 213.5485534667969 533.2007446289062 212.8542327880859 531.78857421875 C 212.525390625 531.1197509765625 212.0736846923828 530.7180786132812 211.5119171142578 530.5947875976562 C 211.2851867675781 530.5451049804688 211.0717010498047 530.5198974609375 210.8773956298828 530.5198974609375 M 210.8773956298828 529.5198974609375 C 211.1374359130859 529.5198974609375 211.419677734375 529.5508422851562 211.7259979248047 529.6179809570312 C 214.7109985351562 530.2730102539062 214.9669952392578 535.4910278320312 213.5769958496094 538.43701171875 L 208.6499938964844 538.1959838867188 C 208.6499938964844 538.1959838867188 207.9940032958984 535.5919799804688 208.0169982910156 533.1380004882812 C 208.0277862548828 531.9097900390625 208.5923919677734 529.5198974609375 210.8773956298828 529.5198974609375 Z" stroke="none" fill="#7e8195"/>
      </g>
      <g id="パス_1856" data-name="パス 1856" fill="none" stroke-linecap="round" stroke-miterlimit="10">
        <path d="M213.36,539.763c0,.585-.425,4.041-3.1,3.739s-2.039-3.047-1.846-3.981Z" stroke="none"/>
        <path d="M 209.2413482666016 540.5628051757812 C 209.1756896972656 541.0956420898438 209.171630859375 541.7141723632812 209.438232421875 542.08251953125 C 209.5007781982422 542.1688842773438 209.6911315917969 542.431884765625 210.3690795898438 542.50830078125 C 210.4417877197266 542.5165405273438 210.5129241943359 542.5206909179688 210.5805358886719 542.5206909179688 C 210.9465789794922 542.5206909179688 211.2357482910156 542.401611328125 211.4905548095703 542.1459350585938 C 211.8641052246094 541.7710571289062 212.0850830078125 541.2002563476562 212.2107238769531 540.7080078125 L 209.2413482666016 540.5628051757812 M 208.4109954833984 539.52099609375 L 213.3600006103516 539.7630004882812 C 213.3619232177734 540.3236083984375 212.9696655273438 543.5206909179688 210.5805206298828 543.5206909179688 C 210.4764404296875 543.5206909179688 210.3688049316406 543.5146484375 210.2570037841797 543.5020141601562 C 207.5780029296875 543.2000122070312 208.2180023193359 540.4550170898438 208.4109954833984 539.52099609375 Z" stroke="none" fill="#7e8195"/>
      </g>
    </g>
  </g>
</svg>
