<svg xmlns="http://www.w3.org/2000/svg" width="32" height="32" viewBox="0 0 32 32">
  <g id="icon_send" transform="translate(-722 -1024)">
    <circle id="Ellipse_4440" data-name="Ellipse 4440" cx="16" cy="16" r="16" transform="translate(722 1024)" fill="#f09c9c"/>
    <path id="Path_6189" data-name="Path 6189" d="M-379.407-216.231l-15.38,8.651a.31.31,0,0,0,.045.561l4.656,1.725,8.151-7.642-6.2,8.364.005,0-.006,0v3.716a.31.31,0,0,0,.546.2l2.418-2.821,3.406,1.262a.31.31,0,0,0,.413-.236l2.4-13.457A.31.31,0,0,0-379.407-216.231Z" transform="translate(1123.945 1248.272)" fill="#fff"/>
  </g>
</svg>
