<svg xmlns="http://www.w3.org/2000/svg" width="13.535" height="15.868" viewBox="0 0 13.535 15.868">
  <g id="Group_1400" data-name="Group 1400" transform="translate(-392.507 -244.784)">
    <g id="Group_4125" data-name="Group 4125" transform="translate(2.003 2.988)">
      <g id="Ellipse_218" data-name="Ellipse 218" transform="translate(397.197 245.289)" fill="#7e8195" stroke="#7e8195" stroke-width="1">
        <ellipse cx="2.838" cy="2.675" rx="2.838" ry="2.675" stroke="none"/>
        <ellipse cx="2.838" cy="2.675" rx="2.338" ry="2.175" fill="none"/>
      </g>
      <g id="Path_761" data-name="Path 761" transform="translate(0 3.211)" fill="#7e8195">
        <path d="M 396.5406799316406 253.9532775878906 L 396.5390930175781 252.1460876464844 C 396.5390930175781 250.3437347412109 398.1082763671875 248.8770599365234 400.0370483398438 248.8770599365234 C 401.9688415527344 248.8770599365234 403.5370483398438 250.3428344726563 403.5370483398438 252.1445159912109 L 403.5386352539063 253.94970703125 L 396.5406799316406 253.9532775878906 Z" stroke="none"/>
        <path d="M 397.0402221679688 253.4530334472656 L 403.0382080078125 253.4499664306641 L 403.0370483398438 252.1445159912109 C 403.0370483398438 250.6185455322266 401.6931457519531 249.3770599365234 400.0370483398438 249.3770599365234 C 398.3839721679688 249.3770599365234 397.0390930175781 250.6194458007813 397.0390930175781 252.1456604003906 L 397.0402221679688 253.4530334472656 M 396.0411071777344 254.4535369873047 L 396.0390930175781 252.1465301513672 C 396.0390930175781 250.0659637451172 397.8278198242188 248.3770599365234 400.0370483398438 248.3770599365234 C 400.0383911132813 248.3770599365234 400.0399169921875 248.3770599365234 400.041259765625 248.3770599365234 C 402.2483825683594 248.3770599365234 404.0370483398438 250.0631713867188 404.0370483398438 252.1445159912109 L 404.0390930175781 254.4494476318359 L 396.0411071777344 254.4535369873047 Z" stroke="none" fill="#7e8195"/>
      </g>
    </g>
    <g id="Group_4124" data-name="Group 4124" transform="translate(391.093 245.516) rotate(45)">
      <line id="Line_373" data-name="Line 373" y2="5" transform="translate(5.466 -5.5)" fill="#fff" stroke="#7e8195" stroke-linecap="round" stroke-miterlimit="10" stroke-width="1"/>
      <line id="Line_374" data-name="Line 374" x2="2.966" transform="translate(2.5 -0.5)" fill="#fff" stroke="#7e8195" stroke-linecap="round" stroke-miterlimit="10" stroke-width="1"/>
    </g>
  </g>
</svg>
