<svg xmlns="http://www.w3.org/2000/svg" width="20" height="17" viewBox="0 0 20 17">
  <g id="Group_4742" data-name="Group 4742" transform="translate(-333.593 -1698.141)">
    <path id="Path_1513" data-name="Path 1513" d="M352.331,1702.494H348.7v1.169h.418v3.718a1.876,1.876,0,0,1-1.875,1.872h-.012a1.876,1.876,0,0,1-1.875-1.872v-3.718h.409v-1.169h-4.347v1.169h.369v3.718a1.876,1.876,0,0,1-1.875,1.872H339.9a1.876,1.876,0,0,1-1.875-1.872v-3.718h.457v-1.169h-3.629a1.262,1.262,0,0,0-1.263,1.261v10.125a1.263,1.263,0,0,0,1.263,1.261h17.475a1.262,1.262,0,0,0,1.262-1.261v-10.125A1.261,1.261,0,0,0,352.331,1702.494Z" fill="#7e8195"/>
    <path id="Path_1514" data-name="Path 1514" d="M340.687,1702.494v-.016a2.907,2.907,0,0,1,5.814,0v1.185h1.469v-1.185a4.376,4.376,0,0,0-8.751,0v1.185h1.468Z" fill="#7e8195"/>
    <path id="Path_1515" data-name="Path 1515" d="M339.9,1708.254h.012a.876.876,0,0,0,.875-.873v-2.72h-1.762v2.72A.876.876,0,0,0,339.9,1708.254Z" fill="#7e8195"/>
    <path id="Path_1516" data-name="Path 1516" d="M346.5,1704.661h-.142v2.72a.876.876,0,0,0,.875.873h.012a.875.875,0,0,0,.875-.873v-2.72H346.5Z" fill="#7e8195"/>
  </g>
</svg>
