<svg xmlns="http://www.w3.org/2000/svg" width="19" height="23" viewBox="0 0 19 23">
  <g id="Group_4723" data-name="Group 4723" transform="translate(-105.245 -694.503)">
    <path id="Path_1881" data-name="Path 1881" d="M105.745,715.034h0a2,2,0,0,1,2.029-1.968l15.236.047a.723.723,0,0,0,.735-.712V695.715a.723.723,0,0,0-.732-.712H107.532a1.763,1.763,0,0,0-1.787,1.739v18.292" fill="#7e8195"/>
    <path id="Path_1882" data-name="Path 1882" d="M122.881,712.711v2.854A1.459,1.459,0,0,1,121.4,717H107.768a2,2,0,0,1-2.023-1.969h0a2,2,0,0,1,2.029-1.968l15.236.047a.723.723,0,0,0,.735-.712V695.715a.723.723,0,0,0-.732-.712H107.532a1.763,1.763,0,0,0-1.787,1.739v18.292" fill="none" stroke="#7e8195" stroke-miterlimit="10" stroke-width="1"/>
    <line id="Line_1165" data-name="Line 1165" x1="14.194" transform="translate(108.579 714.429)" fill="none" stroke="#7e8195" stroke-linecap="round" stroke-miterlimit="10" stroke-width="0.75"/>
    <line id="Line_1166" data-name="Line 1166" x1="14.194" transform="translate(108.579 715.743)" fill="none" stroke="#7e8195" stroke-linecap="round" stroke-miterlimit="10" stroke-width="0.75"/>
    <rect id="Rectangle_3722" data-name="Rectangle 3722" width="9.275" height="4.964" rx="1" transform="translate(110.107 698.91)" fill="#fff"/>
  </g>
</svg>
