<svg xmlns="http://www.w3.org/2000/svg" width="32" height="32" viewBox="0 0 32 32">
  <g id="icon" transform="translate(-327 -30)">
    <circle id="Ellipse_2999" data-name="Ellipse 2999" cx="16" cy="16" r="16" transform="translate(327 30)" fill="#89d3ca"/>
    <g id="Path_787" data-name="Path 787" transform="translate(280 -257)" fill="none">
      <path d="M63.25,294A9.072,9.072,0,0,0,54,302.882a8.649,8.649,0,0,0,2.25,5.8l-.681,3.813,3.789-1.559a9.544,9.544,0,0,0,3.892.824,8.89,8.89,0,1,0,0-17.766Z" stroke="none"/>
      <path d="M 63.25 294.9999694824219 C 58.700927734375 294.9999694824219 55 298.5359497070312 55 302.8822937011719 C 55 304.7640991210938 55.70805358886719 306.5880126953125 56.99371337890625 308.01806640625 L 57.32038879394531 308.3814392089844 L 57.23448181152344 308.8624572753906 L 56.87380981445312 310.8819274902344 L 58.97763061523438 310.0165100097656 L 59.37368011474609 309.8535766601562 L 59.76487731933594 310.0278015136719 C 60.86435699462891 310.5174560546875 62.03692626953125 310.7657165527344 63.25 310.7657165527344 C 67.799072265625 310.7657165527344 71.5 307.2292175292969 71.5 302.8822937011719 C 71.5 298.5359497070312 67.799072265625 294.9999694824219 63.25 294.9999694824219 M 63.25 293.9999694824219 C 68.35830688476562 293.9999694824219 72.5 297.9774475097656 72.5 302.8822937011719 C 72.5 307.7882385253906 68.35830688476562 311.7657165527344 63.25 311.7657165527344 C 61.85903167724609 311.7657165527344 60.54206848144531 311.4685974121094 59.35806274414062 310.9413146972656 L 55.56902313232422 312.4999694824219 L 56.25006103515625 308.6866455078125 C 54.849853515625 307.1291809082031 54 305.102294921875 54 302.8822937011719 C 54 297.9774475097656 58.14169311523438 293.9999694824219 63.25 293.9999694824219 Z" stroke="none" fill="#fff"/>
    </g>
    <g id="Group_1350" data-name="Group 1350" transform="translate(339 42)">
      <line id="Line_373" data-name="Line 373" y2="8" transform="translate(4)" fill="#fff" stroke="#fff" stroke-linecap="round" stroke-miterlimit="10" stroke-width="1"/>
      <line id="Line_374" data-name="Line 374" x2="8" transform="translate(0 4)" fill="#fff" stroke="#fff" stroke-linecap="round" stroke-miterlimit="10" stroke-width="1"/>
    </g>
  </g>
</svg>
