<svg
  xmlns="http://www.w3.org/2000/svg"
  width="16"
  height="16"
  viewBox="0 0 16 16"
>
  <g
    id="グループ_3740"
    data-name="グループ 3740"
    transform="translate(-55.116 -101.717)"
  >
    <g id="グループ_3739" data-name="グループ 3739">
      <line
        id="線_1040"
        data-name="線 1040"
        x2="8.216"
        transform="translate(59.021 111.064)"
        fill="none"
        stroke="#7e8195"
        stroke-linecap="round"
        stroke-miterlimit="10"
        stroke-width="1"
      />
      <line
        id="線_1041"
        data-name="線 1041"
        x2="8.216"
        transform="translate(59.021 114.145)"
        fill="none"
        stroke="#7e8195"
        stroke-linecap="round"
        stroke-miterlimit="10"
        stroke-width="1"
      />
    </g>
    <path
      id="パス_1630"
      data-name="パス 1630"
      d="M70.116,103.221H67.034v-.958a.566.566,0,0,0-1.131,0v.958H60.329v-.958a.566.566,0,0,0-1.131,0v.958H56.116a.983.983,0,0,0-1,.966v12.564a.983.983,0,0,0,1,.966h14a.983.983,0,0,0,1-.966V104.187A.983.983,0,0,0,70.116,103.221ZM65.9,105.258v.766a.566.566,0,0,0,1.131,0v-.766a.922.922,0,0,1,.488.784,1.059,1.059,0,0,1-2.107,0A.922.922,0,0,1,65.9,105.258Zm-6.7,0v.766a.566.566,0,0,0,1.131,0v-.767a.925.925,0,0,1,.488.785,1.059,1.059,0,0,1-2.107,0A.922.922,0,0,1,59.2,105.258Zm10.918,11.493h-14v-8.3h14Z"
      fill="#7e8195"
    />
  </g>
</svg>
