<svg xmlns="http://www.w3.org/2000/svg" width="28" height="28" viewBox="0 0 28 28">
  <g id="グループ_6478" data-name="グループ 6478" transform="translate(-321 -26)">
    <rect id="長方形_4915" data-name="長方形 4915" width="28" height="28" rx="11" transform="translate(321 26)" fill="#7e8195" opacity="0.5"/>
    <g id="Icon_pen_white" data-name="Icon/pen_white" transform="translate(321 26)">
      <g id="グループ_6477" data-name="グループ 6477">
        <rect id="長方形_3989" data-name="長方形 3989" width="28" height="28" fill="red" opacity="0"/>
      </g>
      <g id="パス_1038" data-name="パス 1038" transform="translate(-95.374 -336.301)" fill="none" stroke-miterlimit="10">
        <path d="M117.094,344.939l-2.384-2.364a.945.945,0,0,0-1.332,0l-12,11.977.012,3.749,3.7-.04,12.008-11.981A.943.943,0,0,0,117.094,344.939Z" stroke="none"/>
        <path d="M 114.0441207885742 343.3230285644531 L 102.3753280639648 354.9655456542969 L 102.3827667236328 357.2901611328125 L 104.6679763793945 357.2654418945312 L 116.3500823974609 345.609619140625 L 114.0441207885742 343.3230285644531 M 114.0443801879883 342.3005065917969 C 114.2852554321289 342.3005065917969 114.5260009765625 342.3920288085938 114.7099990844727 342.5750122070312 L 117.0940017700195 344.9389953613281 C 117.4670028686523 345.3089904785156 117.4670028686523 345.9100036621094 117.0940017700195 346.2799987792969 L 105.0859985351562 358.260986328125 L 101.3860015869141 358.3009948730469 L 101.3740005493164 354.552001953125 L 113.3779983520508 342.5750122070312 C 113.5625 342.3920288085938 113.8035049438477 342.3005065917969 114.0443801879883 342.3005065917969 Z" stroke="none" fill="#fff"/>
      </g>
      <line id="線_665" data-name="線 665" x2="2.828" y2="2.825" transform="translate(16.393 8.645)" fill="none" stroke="#fff" stroke-miterlimit="10" stroke-width="1"/>
      <line id="線_666" data-name="線 666" x2="2.828" y2="2.825" transform="translate(6.981 18.045)" fill="none" stroke="#fff" stroke-miterlimit="10" stroke-width="1"/>
    </g>
  </g>
</svg>
