<svg id="info_blood" data-name="info/blood" xmlns="http://www.w3.org/2000/svg" width="28" height="28" viewBox="0 0 28 28">
  <rect id="Rectangle_3984" data-name="Rectangle 3984" width="28" height="28" fill="red" opacity="0"/>
  <g id="Path_1281" data-name="Path 1281" transform="translate(-227.15 -633.625)" fill="none">
    <path d="M241.15,655.625a6.185,6.185,0,0,0,6-6.29c0-4.821-6-9.71-6-9.71s-6,4.924-6,9.71A6.1,6.1,0,0,0,241.15,655.625Z" stroke="none"/>
    <path d="M 241.1499938964844 654.625 C 242.4697113037109 654.625 243.71875 654.07421875 244.6670074462891 653.0740356445312 C 245.6233367919922 652.0654296875 246.1499938964844 650.7374267578125 246.1499938964844 649.3346557617188 C 246.1499938964844 647.1502685546875 244.6545867919922 644.8661499023438 243.4001007080078 643.3346557617188 C 242.5592956542969 642.3081665039062 241.7088165283203 641.4725341796875 241.1519470214844 640.959228515625 C 240.5947113037109 641.4755859375 239.7429656982422 642.316162109375 238.9009857177734 643.346435546875 C 237.64599609375 644.882080078125 236.1499938964844 647.16748046875 236.1499938964844 649.3346557617188 C 236.1499938964844 652.3012084960938 238.3462524414062 654.625 241.1499938964844 654.625 M 241.1499938964844 655.625 C 237.8361511230469 655.625 235.1499938964844 652.8907470703125 235.1499938964844 649.3346557617188 C 235.1499938964844 644.548828125 241.1499938964844 639.625 241.1499938964844 639.625 C 241.1499938964844 639.625 247.1499938964844 644.5140380859375 247.1499938964844 649.3346557617188 C 247.1499938964844 652.7539672851562 244.4638671875 655.625 241.1499938964844 655.625 Z" stroke="none" fill="#7e8195"/>
  </g>
</svg>
