<svg xmlns="http://www.w3.org/2000/svg" xmlns:xlink="http://www.w3.org/1999/xlink" width="44" height="44" viewBox="0 0 44 44"><defs><linearGradient id="a" x1="0.865" x2="0.142" y2="1" gradientUnits="objectBoundingBox"><stop offset="0" stop-color="#fdf0f0"/><stop offset="1" stop-color="#ededef"/></linearGradient></defs><g transform="translate(0 -9)"><rect width="44" height="44" rx="17" transform="translate(0 9)" fill="url(#a)"/><g transform="translate(14 23)"><path d="M451.735,299.716h0a1.619,1.619,0,0,1,1.577,1.658V308.2a2.7,2.7,0,0,1-2.629,2.766H439.057a1.792,1.792,0,0,1-1.745-1.836V296.054a1.056,1.056,0,0,1,1.028-1.083h12.367a1.056,1.056,0,0,1,1.028,1.083v11.87" transform="translate(-437.312 -294.971)" fill="none" stroke="#90747f" stroke-linecap="round" stroke-miterlimit="10" stroke-width="1"/><rect width="10.446" height="5.535" rx="1.055" transform="translate(1.856 1.759)" fill="#90747f"/><line x2="9.536" transform="translate(2.361 9.292)" fill="#898c9e" stroke="#90747f" stroke-linecap="round" stroke-miterlimit="10" stroke-width="1"/><line x2="9.536" transform="translate(2.361 11.474)" fill="#898c9e" stroke="#90747f" stroke-linecap="round" stroke-miterlimit="10" stroke-width="1"/><line x2="9.536" transform="translate(2.361 13.656)" fill="#898c9e" stroke="#90747f" stroke-linecap="round" stroke-miterlimit="10" stroke-width="1"/></g></g></svg>