<svg xmlns="http://www.w3.org/2000/svg" width="10.254" height="19.627" viewBox="0 0 10.254 19.627">
  <g id="Group_6693" data-name="Group 6693" transform="translate(-127 -2544.658)">
    <ellipse id="Ellipse_2048" data-name="Ellipse 2048" cx="1.218" cy="1.218" rx="1.218" ry="1.218" transform="translate(130.738 2545.218) rotate(-13.283)" fill="#7e8195"/>
    <path id="Path_1399" data-name="Path 1399" d="M-136.691,1117.292l-3.806-5.978a1.47,1.47,0,0,0-1.251-.675h-.005a1.47,1.47,0,0,0-1.252.683l-3.744,5.974a.632.632,0,0,0,.2.871.628.628,0,0,0,.335.1.632.632,0,0,0,.536-.3l2.317-3.7v5.458h.005v6.309a.723.723,0,0,0,.723.723.722.722,0,0,0,.722-.717s0,0,0-.006v-7.164a.211.211,0,0,1,.211-.206.211.211,0,0,1,.191.122v7.248a.725.725,0,0,0,.02.164.722.722,0,0,0,.7.559.723.723,0,0,0,.723-.723v-6.309h.007v-5.369l2.3,3.611a.632.632,0,0,0,.872.194A.632.632,0,0,0-136.691,1117.292Z" transform="translate(273.846 1437.524)" fill="#7e8195"/>
  </g>
</svg>
