<svg xmlns="http://www.w3.org/2000/svg" xmlns:xlink="http://www.w3.org/1999/xlink" width="44" height="44" viewBox="0 0 44 44"><defs><linearGradient id="a" x1="0.865" x2="0.142" y2="1" gradientUnits="objectBoundingBox"><stop offset="0" stop-color="#fdf0f0"/><stop offset="1" stop-color="#ededef"/></linearGradient><clipPath id="b"><path d="M42.571,738.307h1.753c.388,0,.7-.458.7-1.022V728.8c0-.564-.314-1.022-.7-1.022H42.571c-.388,0-.7.458-.7,1.022v8.482c0,.564.314,1.022.7,1.022" transform="translate(-41.869 -727.781)" fill="none" stroke="#90747f" stroke-width="1" clip-rule="evenodd"/></clipPath><clipPath id="c"><path d="M56.641,726.446a1.3,1.3,0,0,0,0-2.6l-.372-.007v-.007H51.8v-2.176a4.892,4.892,0,0,0-1.107-3.115.721.721,0,0,0-.555-.266.761.761,0,0,0-.738.782v.725a6.5,6.5,0,0,1-1.066,3.582l-1.367,2.071a2.164,2.164,0,0,0-.354,1.194l.011,5.451a1.5,1.5,0,0,0,.938,1.4,11.057,11.057,0,0,0,4.04.767H55.52a1.263,1.263,0,0,0,1.231-1.262c.014-.734-.351-1.337-1.04-1.337h.554a1.262,1.262,0,0,0,1.231-1.261c.013-.735-.351-1.337-1.04-1.337h.186a1.3,1.3,0,0,0,0-2.6" transform="translate(-46.612 -718.275)" fill="none" stroke="#7e8195" stroke-width="1" clip-rule="evenodd"/></clipPath></defs><g transform="translate(-1)"><rect width="44" height="44" rx="17" transform="translate(1)" fill="url(#a)"/><g transform="translate(15 14)"><g transform="translate(0 5.474)"><path d="M42.571,738.307h1.753c.388,0,.7-.458.7-1.022V728.8c0-.564-.314-1.022-.7-1.022H42.571c-.388,0-.7.458-.7,1.022v8.482c0,.564.314,1.022.7,1.022" transform="translate(-41.869 -727.781)" fill="#7e8195" fill-rule="evenodd"/><g clip-path="url(#b)"><rect width="13.158" height="20.526" transform="translate(-5 -5)" fill="#90747f"/></g></g><g transform="translate(4.743)"><path d="M56.641,726.446a1.3,1.3,0,0,0,0-2.6l-.372-.007v-.007H51.8v-2.176a4.892,4.892,0,0,0-1.107-3.115.721.721,0,0,0-.555-.266.761.761,0,0,0-.738.782v.725a6.5,6.5,0,0,1-1.066,3.582l-1.367,2.071a2.164,2.164,0,0,0-.354,1.194l.011,5.451a1.5,1.5,0,0,0,.938,1.4,11.057,11.057,0,0,0,4.04.767H55.52a1.263,1.263,0,0,0,1.231-1.262c.014-.734-.351-1.337-1.04-1.337h.554a1.262,1.262,0,0,0,1.231-1.261c.013-.735-.351-1.337-1.04-1.337h.186a1.3,1.3,0,0,0,0-2.6" transform="translate(-46.612 -718.275)" fill="none" stroke="#90747f" stroke-width="1" fill-rule="evenodd"/><g clip-path="url(#c)"><rect width="18.895" height="23.952" transform="translate(-3.82 -3.992)" fill="none" stroke="#7e8195" stroke-width="1"/></g></g></g></g></svg>