<svg xmlns="http://www.w3.org/2000/svg" xmlns:xlink="http://www.w3.org/1999/xlink" width="28" height="28" viewBox="0 0 28 28">
  <defs>
    <linearGradient id="linear-gradient" x1="0.865" x2="0.142" y2="1" gradientUnits="objectBoundingBox">
      <stop offset="0" stop-color="#f09c9c"/>
      <stop offset="1" stop-color="#7e8195"/>
    </linearGradient>
  </defs>
  <g id="Group_8329" data-name="Group 8329" transform="translate(-423 -385)">
    <g id="Icon_people_3" data-name="Icon/people_3" transform="translate(423 385)">
      <rect id="Rectangle_3971" data-name="Rectangle 3971" width="28" height="28" fill="red" opacity="0"/>
      <g id="Group_4813" data-name="Group 4813" transform="translate(0 -1)">
        <ellipse id="Ellipse_2178" data-name="Ellipse 2178" cx="2.416" cy="2.382" rx="2.416" ry="2.382" transform="translate(11.584 9)" fill="none" stroke="#90747f" stroke-linecap="round" stroke-miterlimit="10" stroke-width="1"/>
        <path id="Path_1618" data-name="Path 1618" d="M248.285,501.466v-2.137a3.307,3.307,0,0,1,3.33-3.283h0a3.307,3.307,0,0,1,3.33,3.283v2.137" transform="translate(-237.615 -480.467)" fill="none" stroke="#90747f" stroke-linecap="round" stroke-miterlimit="10" stroke-width="1"/>
        <g id="Group_3714" data-name="Group 3714" transform="translate(-237.615 -480.467)">
          <ellipse id="Ellipse_2179" data-name="Ellipse 2179" cx="2.156" cy="2.126" rx="2.156" ry="2.126" transform="translate(243.431 491.368)" fill="none" stroke="#90747f" stroke-linecap="round" stroke-miterlimit="10" stroke-width="1"/>
          <path id="Path_1619" data-name="Path 1619" d="M242.615,501.466v-1.238a2.95,2.95,0,0,1,2.972-2.93h0a3,3,0,0,1,1.4.346" fill="none" stroke="#90747f" stroke-linecap="round" stroke-miterlimit="10" stroke-width="1"/>
          <ellipse id="Ellipse_2180" data-name="Ellipse 2180" cx="2.156" cy="2.126" rx="2.156" ry="2.126" transform="translate(255.487 491.368)" fill="none" stroke="#90747f" stroke-linecap="round" stroke-miterlimit="10" stroke-width="1"/>
          <path id="Path_1620" data-name="Path 1620" d="M260.615,501.466v-1.238a2.951,2.951,0,0,0-2.972-2.93h0a3,3,0,0,0-1.4.346" fill="none" stroke="#90747f" stroke-linecap="round" stroke-miterlimit="10" stroke-width="1"/>
        </g>
      </g>
    </g>
    <rect id="Rectangle_4083" data-name="Rectangle 4083" width="28" height="28" rx="11" transform="translate(423 385)" opacity="0.15" fill="url(#linear-gradient)"/>
  </g>
</svg>
