<svg xmlns="http://www.w3.org/2000/svg" xmlns:xlink="http://www.w3.org/1999/xlink" width="28" height="28" viewBox="0 0 28 28"><defs><clipPath id="a"><rect width="28" height="28" fill="none"/></clipPath><linearGradient id="b" x1="0.865" x2="0.142" y2="1" gradientUnits="objectBoundingBox"><stop offset="0" stop-color="#f09c9c"/><stop offset="1" stop-color="#7e8195"/></linearGradient></defs><g transform="translate(-211 -907)"><g transform="translate(211 907)"><rect width="28" height="28" fill="#b57b7b" opacity="0"/><g transform="translate(-48 -288)" fill="none"><path d="M61.75,294A7.6,7.6,0,0,0,54,301.442a7.247,7.247,0,0,0,1.885,4.863l-.571,3.195,3.175-1.306a8,8,0,0,0,3.261.691,7.449,7.449,0,1,0,0-14.885Z" stroke="none"/><path d="M 61.75 295 C 58.02803802490234 295 55 297.8898620605469 55 301.4419555664062 C 55 302.9784851074219 55.57846069335938 304.4681396484375 56.62882995605469 305.6365051269531 L 56.95551300048828 305.9998474121094 L 56.86959838867188 306.4808654785156 L 56.61936950683594 307.8819885253906 L 58.10875701904297 307.2693176269531 L 58.50478363037109 307.1064147949219 L 58.89597320556641 307.2806091308594 C 59.79634857177734 307.6815490722656 60.756591796875 307.8848266601562 61.75 307.8848266601562 C 65.47195434570312 307.8848266601562 68.5 304.9945678710938 68.5 301.4419555664062 C 68.5 297.8898620605469 65.47195434570312 295 61.75 295 M 61.75 294 C 66.02993774414062 294 69.5 297.3324890136719 69.5 301.4419555664062 C 69.5 305.5523376464844 66.02993774414062 308.8848266601562 61.75 308.8848266601562 C 60.58459091186523 308.8848266601562 59.48119354248047 308.6358642578125 58.48918151855469 308.1941223144531 L 55.31459045410156 309.5 L 55.88517761230469 306.3050537109375 C 54.71204376220703 305.0001525878906 54 303.3019409179688 54 301.4419555664062 C 54 297.3324890136719 57.47006225585938 294 61.75 294 Z" stroke="none" fill="#90747f"/></g></g><g transform="translate(211 907)" clip-path="url(#a)"><g transform="translate(-211 -907)"><rect width="28" height="28" rx="11" transform="translate(211 907)" opacity="0.15" fill="url(#b)"/></g></g></g></svg>