<svg xmlns="http://www.w3.org/2000/svg" xmlns:xlink="http://www.w3.org/1999/xlink" width="44" height="44" viewBox="0 0 44 44"><defs><linearGradient id="a" x1="0.865" x2="0.142" y2="1" gradientUnits="objectBoundingBox"><stop offset="0" stop-color="#fdf0f0"/><stop offset="1" stop-color="#ededef"/></linearGradient></defs><rect width="44" height="44" rx="17" fill="url(#a)"/><g transform="translate(16 14)"><g transform="translate(2.98 6.327)"><line x2="6.04" fill="#898c9e" stroke="#90747f" stroke-linecap="round" stroke-miterlimit="10" stroke-width="0.796"/><line x2="6.04" transform="translate(0 2.659)" fill="#898c9e" stroke="#90747f" stroke-linecap="round" stroke-miterlimit="10" stroke-width="0.796"/><line x2="6.04" transform="translate(0 5.317)" fill="#898c9e" stroke="#90747f" stroke-linecap="round" stroke-miterlimit="10" stroke-width="0.796"/></g><g transform="translate(-439.466 -341.587)" fill="none" stroke-miterlimit="10"><path d="M450.466,357.587h-10a1,1,0,0,1-1-1v-14a1,1,0,0,1,1-1h7.489l3.511,3.511v11.489A1,1,0,0,1,450.466,357.587Z" stroke="none"/><path d="M 450.4660034179688 356.5870056152344 L 450.4660034179688 345.51220703125 L 447.540771484375 342.5870056152344 L 440.4660034179688 342.5870056152344 L 440.4660034179688 356.5870056152344 L 450.4660034179688 356.5870056152344 M 450.4660034179688 357.5870056152344 L 440.4660034179688 357.5870056152344 C 439.9140014648438 357.5870056152344 439.4660034179688 357.1400146484375 439.4660034179688 356.5870056152344 L 439.4660034179688 342.5870056152344 C 439.4660034179688 342.0350036621094 439.9140014648438 341.5870056152344 440.4660034179688 341.5870056152344 L 447.9549865722656 341.5870056152344 L 451.4660034179688 345.0979919433594 L 451.4660034179688 356.5870056152344 C 451.4660034179688 357.1400146484375 451.0190124511719 357.5870056152344 450.4660034179688 357.5870056152344 Z" stroke="none" fill="#90747f"/></g><path d="M447.48,341.587v3.987h3.987Z" transform="translate(-439.466 -341.587)" fill="#90747f"/></g></svg>