<svg id="Icon_camera" data-name="Icon/camera" xmlns="http://www.w3.org/2000/svg" width="16" height="14" viewBox="0 0 16 14">
  <g id="Group_1894" data-name="Group 1894" transform="translate(-2.681 -342.298)">
    <g id="Path_1029" data-name="Path 1029" fill="none" stroke-miterlimit="10">
      <path d="M17.874,345.139h-1.63l-1.491-2.455a.8.8,0,0,0-.679-.387l-6.8.005a.8.8,0,0,0-.679.388L5.11,345.148H3.48a.811.811,0,0,0-.8.824l.006,9.5a.81.81,0,0,0,.8.822l14.395-.009a.813.813,0,0,0,.8-.824l-.006-9.5A.813.813,0,0,0,17.874,345.139Z" stroke="none"/>
      <path d="M 13.95537757873535 343.298095703125 L 7.396507263183594 343.3029174804688 L 5.965370178222656 345.6660461425781 L 5.673679351806641 346.1476745605469 L 5.110599517822266 346.1480102539062 L 3.681110382080078 346.1488647460938 L 3.686887741088867 355.2978820800781 L 17.68088912963867 355.2891235351562 L 17.67510986328125 346.1391296386719 L 16.24461936950684 346.1400146484375 L 15.68155956268311 346.1403503417969 L 15.38928031921387 345.6590881347656 L 13.95537757873535 343.298095703125 M 14.07399940490723 342.2980041503906 C 14.35000038146973 342.2980041503906 14.60700035095215 342.4440002441406 14.75300025939941 342.6849975585938 L 16.24399948120117 345.1400146484375 L 17.87400054931641 345.1390075683594 C 18.31599998474121 345.1390075683594 18.67399978637695 345.5069885253906 18.67499923706055 345.9620056152344 L 18.68099975585938 355.4649963378906 C 18.68099975585938 355.9200134277344 18.32299995422363 356.2879943847656 17.88199996948242 356.2890014648438 L 3.48699951171875 356.2980041503906 C 3.486379623413086 356.2980041503906 3.485809326171875 356.2980041503906 3.485189437866211 356.2980041503906 C 3.044046401977539 356.2980041503906 2.687000274658203 355.9293518066406 2.687000274658203 355.4760131835938 L 2.680999755859375 345.9729919433594 C 2.680999755859375 345.5180053710938 3.038000106811523 345.1489868164062 3.479999542236328 345.1489868164062 L 5.110000610351562 345.1480102539062 L 6.597999572753906 342.6910095214844 C 6.743999481201172 342.4500122070312 7.000999450683594 342.3030090332031 7.276999473571777 342.3030090332031 L 14.07399940490723 342.2980041503906 Z" stroke="none" fill="#7e8195"/>
    </g>
    <g id="Path_1030" data-name="Path 1030" fill="#fff" stroke-miterlimit="10">
      <path d="M 10.68254947662354 354.0979919433594 L 10.68118953704834 354.0979919433594 C 8.756239891052246 354.0979919433594 7.188759803771973 352.479248046875 7.186999797821045 350.4895629882812 C 7.186119556427002 348.49853515625 8.752279281616211 346.8778686523438 10.67821979522705 346.8770141601562 C 12.6064395904541 346.8770141601562 14.17311954498291 348.4956359863281 14.17399978637695 350.4851989746094 C 14.17575931549072 352.4756774902344 12.60949993133545 354.0962524414062 10.68254947662354 354.0979919433594 Z" stroke="none"/>
      <path d="M 10.68209934234619 353.5979919433594 C 12.33335018157959 353.5964965820312 13.67550945281982 352.2004089355469 13.67399978637695 350.4854431152344 C 13.67323970794678 348.7714538574219 12.33086013793945 347.3770141601562 10.6784496307373 347.3770141601562 C 9.028200149536133 347.3777465820312 7.686239719390869 348.7740173339844 7.686999797821045 350.4891052246094 C 7.688509941101074 352.2033386230469 9.031700134277344 353.5979919433594 10.68118953704834 353.5979919433594 L 10.68209934234619 353.5979919433594 M 10.68119049072266 354.5979919433594 C 8.479928016662598 354.5979919433594 6.688999176025391 352.7554626464844 6.686999797821045 350.489990234375 C 6.685999870300293 348.2239990234375 8.47599983215332 346.3779907226562 10.67799949645996 346.3770141601562 C 10.67907524108887 346.3770141601562 10.68052387237549 346.3770141601562 10.68159866333008 346.3770141601562 C 12.88212394714355 346.3770141601562 14.67300033569336 348.2190856933594 14.67399978637695 350.4849853515625 C 14.67599964141846 352.7510070800781 12.88500022888184 354.5960083007812 10.68299961090088 354.5979919433594 C 10.68246173858643 354.5979919433594 10.68172836303711 354.5979919433594 10.68119049072266 354.5979919433594 Z" stroke="none" fill="#7e8195"/>
    </g>
    <g id="Path_1031" data-name="Path 1031" fill="none" stroke-miterlimit="10">
      <path d="M10.679,348.023a2.465,2.465,0,1,0,2.4,2.463A2.432,2.432,0,0,0,10.679,348.023Z" stroke="none"/>
      <path d="M 10.6797399520874 349.0230102539062 C 9.911190032958984 349.0235900878906 9.286409378051758 349.680908203125 9.286999702453613 350.48828125 C 9.287590026855469 351.2948303222656 9.912579536437988 351.9509887695312 10.68126010894775 351.9509887695312 C 11.45035934448242 351.9504089355469 12.07559013366699 351.2935485839844 12.07499980926514 350.4867248535156 C 12.07440948486328 349.6796569824219 11.44894981384277 349.0230407714844 10.68080997467041 349.0230102539062 L 10.6797399520874 349.0230102539062 M 10.68080806732178 348.0230102539062 C 11.99992370605469 348.0230712890625 13.07400035858154 349.127685546875 13.07499980926514 350.4859924316406 C 13.07600021362305 351.843994140625 12.0019998550415 352.9500122070312 10.68200016021729 352.9509887695312 C 10.68135547637939 352.9509887695312 10.68083381652832 352.9509887695312 10.68019008636475 352.9509887695312 C 9.361074447631836 352.9509887695312 8.287999153137207 351.8473205566406 8.286999702453613 350.489013671875 C 8.285999298095703 349.1300048828125 9.359000205993652 348.0239868164062 10.67899990081787 348.0230102539062 C 10.67964458465576 348.0230102539062 10.68016338348389 348.0230102539062 10.68080806732178 348.0230102539062 Z" stroke="none" fill="#7e8195"/>
    </g>
  </g>
</svg>
