<svg id="グループ_5588" data-name="グループ 5588" xmlns="http://www.w3.org/2000/svg" width="33.184" height="50" viewBox="0 0 33.184 50">
  <g id="グループ_5575" data-name="グループ 5575" transform="translate(18.898 32.287)">
    <g id="グループ_5573" data-name="グループ 5573" transform="translate(0 11.041)">
      <path id="パス_2855" data-name="パス 2855" d="M-278.811,840.987c1.487,1.2,4.18,1.2,6.4.18a7.305,7.305,0,0,0,3.987-5.005c-1.487-1.195-4.18-1.2-6.4-.179A7.3,7.3,0,0,0-278.811,840.987Zm4.188-4.436,2.226,1.256,2.408-.939-2.3,1.192-.474,2.5.16-2.339-.8.417-.462,2.436.156-2.285-.8.359-.462,2.44.157-2.3-1.57.705,1.527-.964-1.977-1.45,2.257,1.275.758-.391-1.909-1.4,2.14,1.209.856-.334Z" transform="translate(278.811 -835.24)" fill="#998863"/>
    </g>
    <g id="グループ_5574" data-name="グループ 5574" transform="translate(2.465)">
      <path id="パス_2856" data-name="パス 2856" d="M-276.22,828.068c-1.227,1.461-1.292,4.154-.314,6.391a7.307,7.307,0,0,0,4.919,4.092c1.225-1.463,1.29-4.154.314-6.391A7.308,7.308,0,0,0-276.22,828.068Zm4.346,4.28-1.3,2.2.888,2.426-1.142-2.322-2.491-.526,2.334.209-.4-.813-2.426-.511,2.282.2-.342-.807-2.429-.513,2.3.2-.671-1.586.93,1.549,1.492-1.948-1.321,2.231.376.765,1.436-1.88-1.253,2.115.316.862Z" transform="translate(277.21 -828.068)" fill="#998863"/>
    </g>
  </g>
  <g id="グループ_5578" data-name="グループ 5578" transform="translate(7.992 27.004)">
    <g id="グループ_5576" data-name="グループ 5576" transform="translate(0 11.018)">
      <path id="パス_2857" data-name="パス 2857" d="M-285.895,834.8c.888,1.689,3.355,2.77,5.795,2.714a7.307,7.307,0,0,0,5.652-3c-.888-1.689-3.355-2.77-5.795-2.714A7.312,7.312,0,0,0-285.895,834.8Zm5.609-2.4,1.541,2.04,2.583.1-2.582.177-1.432,2.106,1.078-2.081-.9.062-1.393,2.051,1.053-2.034-.876.011-1.4,2.052,1.062-2.049-1.723.021,1.786-.276-1.236-2.118,1.563,2.069.85-.057-1.193-2.043,1.481,1.961.919.035Z" transform="translate(285.895 -831.793)" fill="#998863"/>
    </g>
    <g id="グループ_5577" data-name="グループ 5577" transform="translate(7.025)">
      <path id="パス_2858" data-name="パス 2858" d="M-278.495,824.636c-1.709.851-2.84,3.295-2.837,5.736a7.315,7.315,0,0,0,2.88,5.713c1.707-.851,2.84-3.295,2.836-5.736A7.309,7.309,0,0,0-278.495,824.636Zm2.28,5.658-2.074,1.5-.152,2.58-.122-2.585-2.077-1.476,2.06,1.122-.043-.9-2.021-1.436,2.012,1.095.008-.876-2.025-1.438,2.028,1.1.015-1.721.237,1.79,2.143-1.19-2.1,1.518.038.851,2.066-1.15-1.992,1.439-.054.918Z" transform="translate(281.332 -824.636)" fill="#998863"/>
    </g>
  </g>
  <g id="グループ_5581" data-name="グループ 5581" transform="translate(1.481 19.417)">
    <g id="グループ_5579" data-name="グループ 5579" transform="translate(0 8.737)">
      <path id="パス_2859" data-name="パス 2859" d="M-290.124,826.727c.294,1.886,2.279,3.7,4.606,4.442a7.312,7.312,0,0,0,6.317-1.013c-.294-1.886-2.279-3.706-4.606-4.442A7.307,7.307,0,0,0-290.124,826.727Zm6.083-.457.8,2.428,2.412.928-2.5-.667-2.034,1.53,1.692-1.623-.875-.233-1.981,1.49,1.654-1.584-.831-.274-1.984,1.493,1.666-1.6-1.635-.537,1.778.317-.485-2.4.81,2.463.824.22-.471-2.317.768,2.334.859.33Z" transform="translate(290.124 -825.383)" fill="#998863"/>
    </g>
    <g id="グループ_5580" data-name="グループ 5580" transform="translate(8.949)">
      <path id="パス_2860" data-name="パス 2860" d="M-279.4,819.708c-1.891.254-3.752,2.2-4.537,4.511a7.312,7.312,0,0,0,.879,6.338c1.892-.254,3.752-2.2,4.537-4.512A7.309,7.309,0,0,0-279.4,819.708Zm.329,6.09-2.445.748-.979,2.392.721-2.486-1.487-2.068,1.584,1.727.253-.87-1.447-2.012,1.549,1.687.289-.827-1.45-2.015,1.561,1.7.571-1.624-.354,1.771,2.414-.433-2.479.757-.239.819,2.328-.422-2.351.719-.348.85Z" transform="translate(284.311 -819.708)" fill="#998863"/>
    </g>
  </g>
  <g id="グループ_5584" data-name="グループ 5584" transform="translate(0 10.453)">
    <g id="グループ_5582" data-name="グループ 5582" transform="translate(0 3.707)">
      <path id="パス_2861" data-name="パス 2861" d="M-290.97,816.407c-.487,1.846.6,4.308,2.442,5.913a7.305,7.305,0,0,0,6.194,1.6c.487-1.844-.6-4.308-2.442-5.913A7.3,7.3,0,0,0-290.97,816.407Zm5.756,2.017-.24,2.545,1.838,1.817-2.025-1.612-2.477.587,2.2-.808-.707-.563-2.412.571,2.149-.788-.653-.583-2.417.573,2.168-.8-1.284-1.147,1.5,1,.52-2.4-.245,2.582.667.531.5-2.312-.231,2.448.653.645Z" transform="translate(291.086 -816.293)" fill="#998863"/>
    </g>
    <g id="グループ_5583" data-name="グループ 5583" transform="translate(9.074)">
      <path id="パス_2862" data-name="パス 2862" d="M-277.411,814.022c-1.835-.525-4.318.513-5.964,2.316a7.309,7.309,0,0,0-1.734,6.16c1.835.525,4.32-.514,5.964-2.317A7.307,7.307,0,0,0-277.411,814.022Zm-2.138,5.713-2.54-.3-1.854,1.8,1.655-1.989-.536-2.489.762,2.217.579-.7-.52-2.423.744,2.166.6-.64-.522-2.428.75,2.183,1.173-1.259-1.035,1.479,2.386.57-2.576-.3-.545.654,2.3.547-2.442-.282-.661.639Z" transform="translate(285.192 -813.885)" fill="#998863"/>
    </g>
  </g>
  <g id="グループ_5587" data-name="グループ 5587" transform="translate(4.866)">
    <g id="グループ_5585" data-name="グループ 5585">
      <path id="パス_2863" data-name="パス 2863" d="M-286.885,807.1c-1.249,1.443-1.356,4.134-.414,6.386a7.306,7.306,0,0,0,4.853,4.169c1.25-1.443,1.356-4.132.416-6.385A7.313,7.313,0,0,0-286.885,807.1Zm4.278,4.349-1.338,2.178.85,2.442-1.105-2.34-2.483-.565,2.331.245-.386-.819-2.417-.55,2.277.239-.328-.811-2.422-.551,2.3.242-.647-1.6.905,1.563,1.524-1.923-1.358,2.209.363.771,1.467-1.857-1.287,2.1.3.868Z" transform="translate(287.926 -807.096)" fill="#998863"/>
    </g>
    <g id="グループ_5586" data-name="グループ 5586" transform="translate(6.749 2.68)">
      <path id="パス_2864" data-name="パス 2864" d="M-272.774,810.056c-1.375-1.322-4.057-1.567-6.355-.744a7.311,7.311,0,0,0-4.412,4.633c1.376,1.322,4.057,1.567,6.355.744A7.307,7.307,0,0,0-272.774,810.056Zm-4.562,4.049-2.108-1.449-2.482.724,2.394-.984.693-2.451-.365,2.315.838-.343.673-2.386-.356,2.262.828-.286.674-2.389-.359,2.28,1.626-.565-1.606.825,1.841,1.62-2.137-1.469-.788.323,1.778,1.56-2.025-1.392-.882.257Z" transform="translate(283.542 -808.837)" fill="#998863"/>
    </g>
  </g>
  <path id="パス_2865" data-name="パス 2865" d="M-261.3,848.906A24.009,24.009,0,0,1-285.31,824.9a23.9,23.9,0,0,1,4.442-13.916" transform="translate(294.203 -805)" fill="none" stroke="#998863" stroke-linecap="round" stroke-miterlimit="10" stroke-width="0.565"/>
</svg>
