<svg xmlns="http://www.w3.org/2000/svg" xmlns:xlink="http://www.w3.org/1999/xlink" width="16.5" height="16.968" viewBox="0 0 16.5 16.968">
  <defs>
    <clipPath id="clip-path">
      <path id="パス_74" data-name="パス 74" d="M42.571,738.307h1.753c.388,0,.7-.458.7-1.022V728.8c0-.564-.314-1.022-.7-1.022H42.571c-.388,0-.7.458-.7,1.022v8.482c0,.564.314,1.022.7,1.022" transform="translate(-41.869 -727.781)" fill="#7e8195" clip-rule="evenodd"/>
    </clipPath>
  </defs>
  <g id="コンポーネント_193_1" data-name="コンポーネント 193 – 1" transform="translate(0 0.5)">
    <g id="グループ_97" data-name="グループ 97" transform="translate(0 5.473)" clip-path="url(#clip-path)">
      <rect id="長方形_55" data-name="長方形 55" width="13.158" height="20.526" transform="translate(-5 -5)" fill="#7e8195"/>
    </g>
    <path id="パス_75" data-name="パス 75" d="M56.641,726.446a1.3,1.3,0,0,0,0-2.6l-.372-.007v-.007H51.8v-2.176a4.892,4.892,0,0,0-1.107-3.115.721.721,0,0,0-.555-.266.761.761,0,0,0-.738.782v.725a6.5,6.5,0,0,1-1.066,3.582l-1.367,2.071a2.164,2.164,0,0,0-.354,1.194l.011,5.451a1.5,1.5,0,0,0,.938,1.4,11.057,11.057,0,0,0,4.04.767H55.52a1.263,1.263,0,0,0,1.231-1.262c.014-.734-.351-1.337-1.04-1.337h.554a1.262,1.262,0,0,0,1.231-1.261c.013-.735-.351-1.337-1.04-1.337h.186a1.3,1.3,0,0,0,0-2.6" transform="translate(-41.869 -718.275)" fill="none" stroke="#7e8195" stroke-width="1" fill-rule="evenodd"/>
  </g>
</svg>
