<svg id="Icon_video" data-name="Icon/video" xmlns="http://www.w3.org/2000/svg" width="20" height="16" viewBox="0 0 20 16">
  <g id="グループ_3908" data-name="グループ 3908" transform="translate(-52.807 -343.102)">
    <g id="パス_1670" data-name="パス 1670" fill="none" stroke-miterlimit="10">
      <path d="M72.807,356.847l-3.421-.932a1.115,1.115,0,0,1-.755-1.107V347.4a1.115,1.115,0,0,1,.755-1.107l3.421-.932Z" stroke="none"/>
      <path d="M 71.8712158203125 355.6221618652344 L 71.8712158203125 346.5818176269531 L 69.63889312744141 347.1900024414062 C 69.61698913574219 347.2068481445312 69.56678771972656 347.2781372070312 69.56678771972656 347.39599609375 L 69.56678771972656 354.8080139160156 C 69.56678771972656 354.9258422851562 69.61697387695312 354.9971313476562 69.63887786865234 355.0140075683594 L 71.8712158203125 355.6221618652344 M 72.8070068359375 356.8469848632812 L 69.38600158691406 355.9150085449219 C 68.94400787353516 355.7950134277344 68.63099670410156 355.3359985351562 68.63099670410156 354.8080139160156 L 68.63099670410156 347.39599609375 C 68.63099670410156 346.8680114746094 68.94400787353516 346.4089965820312 69.38600158691406 346.2890014648438 L 72.8070068359375 345.3569946289062 L 72.8070068359375 356.8469848632812 Z" stroke="none" fill="#7e8195"/>
    </g>
    <g id="長方形_2906" data-name="長方形 2906" transform="translate(52.807 343.102)" fill="none" stroke="#7e8195" stroke-miterlimit="10" stroke-width="1.001">
      <rect width="15.018" height="16" rx="2.001" stroke="none"/>
      <rect x="0.5" y="0.5" width="14.017" height="14.999" rx="1.501" fill="none"/>
    </g>
    <path id="パス_1671" data-name="パス 1671" d="M58.574,353.787v-5.369a.381.381,0,0,1,.594-.316l4,2.684a.381.381,0,0,1,0,.632l-4,2.685A.382.382,0,0,1,58.574,353.787Z" fill="#7e8195"/>
  </g>
</svg>
