<svg xmlns="http://www.w3.org/2000/svg" width="33.414" height="32.878" viewBox="0 0 33.414 32.878">
  <g id="グループ_5652" data-name="グループ 5652" transform="translate(-172.793 -545)">
    <g id="グループ_5651" data-name="グループ 5651" transform="translate(179.928 557.116)">
      <g id="グループ_5648" data-name="グループ 5648">
        <path id="パス_2908" data-name="パス 2908" d="M18.1,614.924a1.354,1.354,0,0,0-.625-.193l.063-.1a1.388,1.388,0,0,0-.462-1.906,1.368,1.368,0,0,0-.634-.193,1.385,1.385,0,0,0-2.4-1.377l-.309.508a1.377,1.377,0,0,0-2.365-.005l-3.047,5-1.012-1.3a1.217,1.217,0,0,0-1.987.1,1.225,1.225,0,0,0-.151.948L5.95,619.5a2.94,2.94,0,0,1-.338,2.25l-.095.155a1,1,0,0,0,.333,1.374l4.264,2.6a1,1,0,0,0,1.374-.333l.146-.24a4.678,4.678,0,0,1,1.858-1.654,5.53,5.53,0,0,0,2.137-2.011l2.93-4.806A1.389,1.389,0,0,0,18.1,614.924Z" transform="translate(-5.128 -610.487)" fill="#fff"/>
        <g id="グループ_5647" data-name="グループ 5647" transform="translate(0.029 0.069)">
          <path id="パス_2909" data-name="パス 2909" d="M11.127,616.616l2.392-3.924a1.067,1.067,0,0,0-.367-1.465h0a1.067,1.067,0,0,0-1.47.345l-3.5,5.735-1.44-1.829a.9.9,0,0,0-.878-.33h0a.873.873,0,0,0-.682,1.08l.856,3.276a3.437,3.437,0,0,1-.39,2.661l-.033.053a.783.783,0,0,0,.262,1.076l4.335,2.642a.781.781,0,0,0,1.076-.261h0a5.369,5.369,0,0,1,2.151-1.99h0a5.366,5.366,0,0,0,2.15-1.99l3.071-5.038a1.069,1.069,0,0,0-.366-1.466h0a1.068,1.068,0,0,0-1.471.346l-2.024,3.32" transform="translate(-5.157 -610.556)" fill="none" stroke="#7e8195" stroke-linecap="round" stroke-miterlimit="10" stroke-width="1.057"/>
          <path id="パス_2910" data-name="パス 2910" d="M12.965,617.736l3.387-5.556a1.068,1.068,0,0,0-.367-1.465h0a1.069,1.069,0,0,0-1.471.345l-1.544,2.535" transform="translate(-5.157 -610.556)" fill="none" stroke="#7e8195" stroke-linecap="round" stroke-miterlimit="10" stroke-width="1.057"/>
          <path id="パス_2911" data-name="パス 2911" d="M14.8,618.857l2.76-4.528a1.069,1.069,0,0,0-.367-1.466h0a1.069,1.069,0,0,0-1.471.346l-1.654,2.713" transform="translate(-5.157 -610.556)" fill="none" stroke="#7e8195" stroke-linecap="round" stroke-miterlimit="10" stroke-width="1.057"/>
        </g>
      </g>
      <g id="グループ_5650" data-name="グループ 5650" transform="translate(3.271 6.508)">
        <path id="パス_2912" data-name="パス 2912" d="M22.931,622.6a1.378,1.378,0,0,0-.527-.387l.093-.077a1.389,1.389,0,0,0,.185-1.953,1.371,1.371,0,0,0-.535-.389,1.385,1.385,0,0,0-1.821-2.086l-.458.379a1.372,1.372,0,0,0-.28-.591,1.39,1.39,0,0,0-1.953-.186l-4.514,3.73-.532-1.557a1.217,1.217,0,0,0-1.91-.557,1.223,1.223,0,0,0-.452.847l-.269,3.181A2.935,2.935,0,0,1,8.9,624.97l-.14.116a1,1,0,0,0-.134,1.408l3.181,3.849a1,1,0,0,0,1.407.134l.217-.179a4.672,4.672,0,0,1,2.3-.957,5.528,5.528,0,0,0,2.677-1.2l4.339-3.585A1.389,1.389,0,0,0,22.931,622.6Z" transform="translate(-8.4 -616.994)" fill="#fff"/>
        <g id="グループ_5649" data-name="グループ 5649" transform="translate(0.072 0.104)">
          <path id="パス_2913" data-name="パス 2913" d="M15.792,621.924,19.334,619a1.068,1.068,0,0,0,.133-1.505h0a1.069,1.069,0,0,0-1.5-.154l-5.178,4.278-.763-2.2a.9.9,0,0,0-.723-.6h0a.872.872,0,0,0-1,.8l-.26,3.375A3.438,3.438,0,0,1,8.8,625.379l-.048.04a.783.783,0,0,0-.1,1.1l3.235,3.914a.782.782,0,0,0,1.1.1h0a5.367,5.367,0,0,1,2.683-1.178h0a5.37,5.37,0,0,0,2.682-1.179l4.549-3.758a1.068,1.068,0,0,0,.132-1.505h0a1.068,1.068,0,0,0-1.5-.154l-3,2.476" transform="translate(-8.472 -617.098)" fill="none" stroke="#7e8195" stroke-linecap="round" stroke-miterlimit="10" stroke-width="1.057"/>
          <path id="パス_2914" data-name="パス 2914" d="M17.163,623.583l5.016-4.145a1.068,1.068,0,0,0,.132-1.5h0a1.067,1.067,0,0,0-1.5-.154l-2.288,1.89" transform="translate(-8.472 -617.098)" fill="none" stroke="#7e8195" stroke-linecap="round" stroke-miterlimit="10" stroke-width="1.057"/>
          <path id="パス_2915" data-name="パス 2915" d="M18.534,625.242l4.087-3.377a1.067,1.067,0,0,0,.132-1.505h0a1.067,1.067,0,0,0-1.5-.154L18.8,622.23" transform="translate(-8.472 -617.098)" fill="none" stroke="#7e8195" stroke-linecap="round" stroke-miterlimit="10" stroke-width="1.057"/>
        </g>
      </g>
    </g>
    <line id="線_1283" data-name="線 1283" x2="5" y2="5" transform="translate(173.5 549.5)" fill="none" stroke="#fca605" stroke-linecap="round" stroke-width="1"/>
    <line id="線_1284" data-name="線 1284" x1="5" y2="5" transform="translate(200.5 549.5)" fill="none" stroke="#fca605" stroke-linecap="round" stroke-width="1"/>
    <line id="線_1285" data-name="線 1285" y1="6" transform="translate(189.5 545.5)" fill="none" stroke="#fca605" stroke-linecap="round" stroke-width="1"/>
  </g>
</svg>
