<svg id="グループ_5636" data-name="グループ 5636" xmlns="http://www.w3.org/2000/svg" width="36.452" height="50" viewBox="0 0 36.452 50">
  <path id="パス_2876" data-name="パス 2876" d="M505.562,120.69a2.737,2.737,0,0,1,2.736-2.738,2.79,2.79,0,0,1,.41.041c0-.022-.007-.045-.007-.068a2.737,2.737,0,0,1,5.474,0c0,.023-.005.047-.007.068a2.842,2.842,0,0,1,.41-.041,2.729,2.729,0,0,1,1.256,5.157,2.7,2.7,0,0,1,.233,1.1,5,5,0,0,1-9.258,0,2.7,2.7,0,0,1,.233-1.1A2.728,2.728,0,0,1,505.562,120.69Z" transform="translate(-505.562 -76.943)" fill="#f99559"/>
  <path id="パス_2877" data-name="パス 2877" d="M501.214,107.311a2.737,2.737,0,0,1,2.738-2.736,2.566,2.566,0,0,1,.408.041c0-.023-.005-.045-.005-.068a2.737,2.737,0,1,1,5.474,0c0,.023-.005.045-.007.068a2.567,2.567,0,0,1,.41-.041,2.729,2.729,0,0,1,1.256,5.155,2.7,2.7,0,0,1,.233,1.1,4.646,4.646,0,1,1-9.027-1.1A2.729,2.729,0,0,1,501.214,107.311Z" transform="translate(-493.423 -87.535)" fill="#0b7f7e"/>
  <path id="パス_2878" data-name="パス 2878" d="M493.466,101.676a3.9,3.9,0,0,1,3.9-3.9,3.688,3.688,0,0,1,.584.059c0-.034-.011-.064-.011-.1a3.9,3.9,0,0,1,7.8,0c0,.034-.009.065-.009.1a3.689,3.689,0,0,1,.582-.059,3.885,3.885,0,0,1,1.79,7.341,3.89,3.89,0,0,1-6.26,4.37,3.891,3.891,0,0,1-6.262-4.37A3.881,3.881,0,0,1,493.466,101.676Z" transform="translate(-476.778 -93.843)" fill="#fdb8b3"/>
  <path id="パス_2879" data-name="パス 2879" d="M491.777,110.059a2.737,2.737,0,0,1,2.738-2.736,2.566,2.566,0,0,1,.408.041c0-.023-.005-.045-.005-.068a2.737,2.737,0,1,1,5.474,0c0,.023-.007.045-.007.068a2.567,2.567,0,0,1,.41-.041,2.729,2.729,0,0,1,1.256,5.155,4.646,4.646,0,1,1-8.794,0A2.729,2.729,0,0,1,491.777,110.059Z" transform="translate(-467.078 -85.359)" fill="#89dcee"/>
  <path id="パス_2880" data-name="パス 2880" d="M497.721,116.532a3.16,3.16,0,0,1,3.161-3.161,2.955,2.955,0,0,1,.473.048c0-.027-.009-.052-.009-.079a3.162,3.162,0,1,1,6.323,0c0,.027-.007.052-.007.079a2.915,2.915,0,0,1,.471-.048,3.152,3.152,0,0,1,1.453,5.954,5.367,5.367,0,1,1-10.156,0A3.146,3.146,0,0,1,497.721,116.532Z" transform="translate(-485.493 -80.91)" fill="#c7bf6a"/>
  <ellipse id="楕円形_2442" data-name="楕円形 2442" cx="1.923" cy="1.923" rx="1.923" ry="1.923" transform="translate(11.745 18.784)" fill="#f5beff"/>
  <ellipse id="楕円形_2443" data-name="楕円形 2443" cx="2.738" cy="2.738" rx="2.738" ry="2.738" transform="translate(22.318 6.421)" fill="#e66c3b"/>
  <ellipse id="楕円形_2444" data-name="楕円形 2444" cx="1.923" cy="1.923" rx="1.923" ry="1.923" transform="translate(28.653 23.707)" fill="#feb7b5"/>
  <ellipse id="楕円形_2445" data-name="楕円形 2445" cx="1.923" cy="1.923" rx="1.923" ry="1.923" transform="translate(3.953 42.756)" fill="#0c514a"/>
  <ellipse id="楕円形_2446" data-name="楕円形 2446" cx="2.221" cy="2.221" rx="2.221" ry="2.221" transform="translate(16.794 34.476)" fill="#ed7048"/>
</svg>
