<svg id="グループ_6858" data-name="グループ 6858" xmlns="http://www.w3.org/2000/svg" width="36.452" height="50" viewBox="0 0 36.452 50">
  <path id="パス_2876" data-name="パス 2876" d="M517.316,120.69a2.737,2.737,0,0,0-2.736-2.738,2.791,2.791,0,0,0-.41.041c0-.022.007-.045.007-.068a2.737,2.737,0,0,0-5.474,0c0,.023.005.047.007.068a2.842,2.842,0,0,0-.41-.041,2.729,2.729,0,0,0-1.256,5.157,2.7,2.7,0,0,0-.233,1.1,5,5,0,0,0,9.258,0,2.7,2.7,0,0,0-.233-1.1A2.728,2.728,0,0,0,517.316,120.69Z" transform="translate(-480.863 -76.943)" fill="#f99559"/>
  <path id="パス_2877" data-name="パス 2877" d="M512.968,107.311a2.737,2.737,0,0,0-2.738-2.736,2.566,2.566,0,0,0-.408.041c0-.023.005-.045.005-.068a2.737,2.737,0,1,0-5.474,0c0,.023.005.045.007.068a2.567,2.567,0,0,0-.41-.041,2.729,2.729,0,0,0-1.256,5.155,2.7,2.7,0,0,0-.233,1.1,4.646,4.646,0,1,0,9.027-1.1A2.729,2.729,0,0,0,512.968,107.311Z" transform="translate(-484.306 -87.535)" fill="#0b7f7e"/>
  <path id="パス_2878" data-name="パス 2878" d="M510.2,101.676a3.9,3.9,0,0,0-3.9-3.9,3.688,3.688,0,0,0-.584.059c0-.034.011-.064.011-.1a3.9,3.9,0,0,0-7.8,0c0,.034.009.065.009.1a3.689,3.689,0,0,0-.582-.059,3.885,3.885,0,0,0-1.79,7.341,3.89,3.89,0,0,0,6.26,4.37,3.891,3.891,0,0,0,6.262-4.37A3.881,3.881,0,0,0,510.2,101.676Z" transform="translate(-490.44 -93.843)" fill="#fdb8b3"/>
  <path id="パス_2879" data-name="パス 2879" d="M503.531,110.059a2.737,2.737,0,0,0-2.738-2.736,2.566,2.566,0,0,0-.408.041c0-.023.005-.045.005-.068a2.737,2.737,0,1,0-5.474,0c0,.023.007.045.007.068a2.567,2.567,0,0,0-.41-.041,2.729,2.729,0,0,0-1.256,5.155,4.646,4.646,0,1,0,8.794,0A2.729,2.729,0,0,0,503.531,110.059Z" transform="translate(-491.777 -85.36)" fill="#89dcee"/>
  <path id="パス_2880" data-name="パス 2880" d="M511.3,116.531a3.16,3.16,0,0,0-3.161-3.161,2.955,2.955,0,0,0-.473.048c0-.027.009-.052.009-.079a3.161,3.161,0,1,0-6.323,0c0,.027.007.052.007.079a2.915,2.915,0,0,0-.471-.048,3.152,3.152,0,0,0-1.453,5.954,5.367,5.367,0,1,0,10.155,0A3.146,3.146,0,0,0,511.3,116.531Z" transform="translate(-487.071 -80.91)" fill="#c7bf6a"/>
  <ellipse id="楕円形_2442" data-name="楕円形 2442" cx="1.923" cy="1.923" rx="1.923" ry="1.923" transform="translate(20.861 18.784)" fill="#f5beff"/>
  <ellipse id="楕円形_2443" data-name="楕円形 2443" cx="2.738" cy="2.738" rx="2.738" ry="2.738" transform="translate(8.657 6.421)" fill="#e66c3b"/>
  <ellipse id="楕円形_2444" data-name="楕円形 2444" cx="1.923" cy="1.923" rx="1.923" ry="1.923" transform="translate(3.954 23.707)" fill="#feb7b5"/>
  <ellipse id="楕円形_2445" data-name="楕円形 2445" cx="1.923" cy="1.923" rx="1.923" ry="1.923" transform="translate(28.653 42.755)" fill="#0c514a"/>
  <ellipse id="楕円形_2446" data-name="楕円形 2446" cx="2.221" cy="2.221" rx="2.221" ry="2.221" transform="translate(15.217 34.476)" fill="#ed7048"/>
</svg>
