<svg id="グループ_6601" data-name="グループ 6601" xmlns="http://www.w3.org/2000/svg" xmlns:xlink="http://www.w3.org/1999/xlink" width="203.427" height="104.693" viewBox="0 0 203.427 104.693">
  <defs>
    <clipPath id="clip-path">
      <path id="パス_3777" data-name="パス 3777" d="M2422.769,1290.532l-33.858,22.331,2.978-40.45Z" transform="translate(-2388.911 -1272.413)" fill="none"/>
    </clipPath>
    <clipPath id="clip-path-2">
      <path id="パス_3779" data-name="パス 3779" d="M2465.856,1299.671l-25.979,31.148-8.815-39.59Z" transform="translate(-2431.062 -1291.229)" fill="none"/>
    </clipPath>
    <clipPath id="clip-path-3">
      <path id="パス_3781" data-name="パス 3781" d="M2442.7,1297.028l-30.716,26.489-2.233-40.5Z" transform="translate(-2409.755 -1283.019)" fill="none"/>
    </clipPath>
    <clipPath id="clip-path-4">
      <path id="パス_3843" data-name="パス 3843" d="M2486.978,1299.111l-21.095,34.642-14.564-37.855Z" transform="translate(-2451.318 -1295.898)" fill="none"/>
    </clipPath>
  </defs>
  <g id="グループ_6600" data-name="グループ 6600" transform="translate(3.231 3.488)">
    <g id="グループ_6507" data-name="グループ 6507" transform="translate(14.805 14.089)">
      <path id="パス_3770" data-name="パス 3770" d="M2422.769,1290.532l-33.858,22.331,2.978-40.45Z" transform="translate(-2388.911 -1272.413)" fill="#134951"/>
      <g id="グループ_6506" data-name="グループ 6506">
        <g id="グループ_6505" data-name="グループ 6505" clip-path="url(#clip-path)">
          <g id="グループ_6504" data-name="グループ 6504" transform="translate(-16.35 -1.079)">
            <g id="グループ_6498" data-name="グループ 6498" transform="translate(14.747)">
              <path id="パス_3771" data-name="パス 3771" d="M2388.146,1271.9l1.5,3.778,4.027-.536,1.5,3.777,4.022-.539,1.492,3.773,4.03-.533,1.5,3.776,4.03-.534,1.5,3.78,4.029-.534,1.506,3.782,4.04-.528,1.51,3.784" transform="translate(-2388.146 -1271.899)" fill="none" stroke="#557c82" stroke-miterlimit="10" stroke-width="0.596"/>
            </g>
            <g id="グループ_6499" data-name="グループ 6499" transform="translate(11.797 5.027)">
              <path id="パス_3772" data-name="パス 3772" d="M2386.74,1274.3l1.5,3.777,4.026-.536,1.5,3.778,4.021-.539,1.492,3.774,4.031-.533,1.5,3.776,4.03-.534,1.5,3.781,4.029-.534,1.505,3.782,4.04-.528,1.51,3.785" transform="translate(-2386.74 -1274.295)" fill="none" stroke="#557c82" stroke-miterlimit="10" stroke-width="0.596"/>
            </g>
            <g id="グループ_6500" data-name="グループ 6500" transform="translate(8.848 10.054)">
              <path id="パス_3773" data-name="パス 3773" d="M2385.334,1276.692l1.5,3.777,4.027-.535,1.5,3.777,4.022-.539,1.491,3.774,4.031-.533,1.5,3.776,4.03-.534,1.5,3.78,4.029-.534,1.505,3.782,4.041-.528,1.509,3.784" transform="translate(-2385.334 -1276.692)" fill="none" stroke="#557c82" stroke-miterlimit="10" stroke-width="0.596"/>
            </g>
            <g id="グループ_6501" data-name="グループ 6501" transform="translate(5.899 15.08)">
              <path id="パス_3774" data-name="パス 3774" d="M2383.928,1279.088l1.5,3.778,4.027-.536,1.5,3.777,4.022-.539,1.492,3.774,4.031-.533,1.5,3.776,4.03-.534,1.5,3.781,4.029-.534,1.505,3.782,4.041-.528,1.51,3.784" transform="translate(-2383.928 -1279.088)" fill="none" stroke="#557c82" stroke-miterlimit="10" stroke-width="0.596"/>
            </g>
            <g id="グループ_6502" data-name="グループ 6502" transform="translate(2.949 20.107)">
              <path id="パス_3775" data-name="パス 3775" d="M2382.522,1281.485l1.5,3.777,4.027-.536,1.5,3.777,4.022-.539,1.491,3.773,4.031-.533,1.5,3.776,4.03-.534,1.5,3.78,4.03-.534,1.505,3.782,4.04-.528,1.51,3.784" transform="translate(-2382.522 -1281.485)" fill="none" stroke="#557c82" stroke-miterlimit="10" stroke-width="0.596"/>
            </g>
            <g id="グループ_6503" data-name="グループ 6503" transform="translate(0 25.134)">
              <path id="パス_3776" data-name="パス 3776" d="M2381.116,1283.881l1.5,3.778,4.027-.536,1.5,3.777,4.022-.539,1.492,3.773,4.031-.533,1.5,3.776,4.03-.534,1.5,3.781,4.029-.534,1.505,3.782,4.041-.528,1.51,3.784" transform="translate(-2381.116 -1283.881)" fill="none" stroke="#557c82" stroke-miterlimit="10" stroke-width="0.596"/>
            </g>
          </g>
        </g>
      </g>
    </g>
    <g id="グループ_6521" data-name="グループ 6521" transform="translate(103.219 53.556)">
      <path id="パス_3778" data-name="パス 3778" d="M2465.856,1299.671l-25.979,31.148-8.815-39.59Z" transform="translate(-2431.062 -1291.229)" fill="#fcd746"/>
      <g id="グループ_6520" data-name="グループ 6520">
        <g id="グループ_6519" data-name="グループ 6519" clip-path="url(#clip-path-2)">
          <g id="グループ_6518" data-name="グループ 6518" transform="translate(-20.083 -4.749)">
            <g id="グループ_6508" data-name="グループ 6508" transform="translate(14.082)">
              <circle id="楕円形_2777" data-name="楕円形 2777" cx="1.803" cy="1.803" r="1.803" fill="#fbc800"/>
              <circle id="楕円形_2778" data-name="楕円形 2778" cx="1.803" cy="1.803" r="1.803" transform="translate(6.349 1.541)" fill="#fbc800"/>
              <circle id="楕円形_2779" data-name="楕円形 2779" cx="1.803" cy="1.803" r="1.803" transform="translate(12.699 3.081)" fill="#fbc800"/>
              <circle id="楕円形_2780" data-name="楕円形 2780" cx="1.803" cy="1.803" r="1.803" transform="translate(19.049 4.622)" fill="#fbc800"/>
              <circle id="楕円形_2781" data-name="楕円形 2781" cx="1.803" cy="1.803" r="1.803" transform="translate(25.399 6.163)" fill="#fbc800"/>
              <circle id="楕円形_2782" data-name="楕円形 2782" cx="1.803" cy="1.803" r="1.803" transform="translate(31.748 7.703)" fill="#fbc800"/>
              <circle id="楕円形_2783" data-name="楕円形 2783" cx="1.803" cy="1.803" r="1.803" transform="translate(38.098 9.244)" fill="#fbc800"/>
              <circle id="楕円形_2784" data-name="楕円形 2784" cx="1.803" cy="1.803" r="1.803" transform="translate(44.448 10.785)" fill="#fbc800"/>
            </g>
            <g id="グループ_6509" data-name="グループ 6509" transform="translate(9.551 4.077)">
              <circle id="楕円形_2785" data-name="楕円形 2785" cx="1.803" cy="1.803" r="1.803" fill="#fbc800"/>
              <circle id="楕円形_2786" data-name="楕円形 2786" cx="1.803" cy="1.803" r="1.803" transform="translate(6.349 1.541)" fill="#fbc800"/>
              <circle id="楕円形_2787" data-name="楕円形 2787" cx="1.803" cy="1.803" r="1.803" transform="translate(12.699 3.081)" fill="#fbc800"/>
              <circle id="楕円形_2788" data-name="楕円形 2788" cx="1.803" cy="1.803" r="1.803" transform="translate(19.049 4.622)" fill="#fbc800"/>
              <circle id="楕円形_2789" data-name="楕円形 2789" cx="1.803" cy="1.803" r="1.803" transform="translate(25.399 6.163)" fill="#fbc800"/>
              <circle id="楕円形_2790" data-name="楕円形 2790" cx="1.803" cy="1.803" r="1.803" transform="translate(31.748 7.703)" fill="#fbc800"/>
              <circle id="楕円形_2791" data-name="楕円形 2791" cx="1.803" cy="1.803" r="1.803" transform="translate(38.098 9.244)" fill="#fbc800"/>
              <circle id="楕円形_2792" data-name="楕円形 2792" cx="1.803" cy="1.803" r="1.803" transform="translate(44.448 10.785)" fill="#fbc800"/>
            </g>
            <g id="グループ_6510" data-name="グループ 6510" transform="translate(11.694 9.842)">
              <circle id="楕円形_2793" data-name="楕円形 2793" cx="1.803" cy="1.803" r="1.803" fill="#fbc800"/>
              <circle id="楕円形_2794" data-name="楕円形 2794" cx="1.803" cy="1.803" r="1.803" transform="translate(6.349 1.541)" fill="#fbc800"/>
              <circle id="楕円形_2795" data-name="楕円形 2795" cx="1.803" cy="1.803" r="1.803" transform="translate(12.699 3.081)" fill="#fbc800"/>
              <circle id="楕円形_2796" data-name="楕円形 2796" cx="1.803" cy="1.803" r="1.803" transform="translate(19.049 4.622)" fill="#fbc800"/>
              <circle id="楕円形_2797" data-name="楕円形 2797" cx="1.803" cy="1.803" r="1.803" transform="translate(25.399 6.162)" fill="#fbc800"/>
              <circle id="楕円形_2798" data-name="楕円形 2798" cx="1.803" cy="1.803" r="1.803" transform="translate(31.748 7.703)" fill="#fbc800"/>
              <circle id="楕円形_2799" data-name="楕円形 2799" cx="1.803" cy="1.803" r="1.803" transform="translate(38.098 9.244)" fill="#fbc800"/>
              <circle id="楕円形_2800" data-name="楕円形 2800" cx="1.803" cy="1.803" r="1.803" transform="translate(44.448 10.785)" fill="#fbc800"/>
            </g>
            <g id="グループ_6511" data-name="グループ 6511" transform="translate(7.164 13.918)">
              <circle id="楕円形_2801" data-name="楕円形 2801" cx="1.803" cy="1.803" r="1.803" fill="#fbc800"/>
              <circle id="楕円形_2802" data-name="楕円形 2802" cx="1.803" cy="1.803" r="1.803" transform="translate(6.349 1.541)" fill="#fbc800"/>
              <circle id="楕円形_2803" data-name="楕円形 2803" cx="1.803" cy="1.803" r="1.803" transform="translate(12.699 3.081)" fill="#fbc800"/>
              <circle id="楕円形_2804" data-name="楕円形 2804" cx="1.803" cy="1.803" r="1.803" transform="translate(19.049 4.622)" fill="#fbc800"/>
              <circle id="楕円形_2805" data-name="楕円形 2805" cx="1.803" cy="1.803" r="1.803" transform="translate(25.399 6.162)" fill="#fbc800"/>
              <circle id="楕円形_2806" data-name="楕円形 2806" cx="1.803" cy="1.803" r="1.803" transform="translate(31.748 7.703)" fill="#fbc800"/>
              <circle id="楕円形_2807" data-name="楕円形 2807" cx="1.803" cy="1.803" r="1.803" transform="translate(38.098 9.244)" fill="#fbc800"/>
              <circle id="楕円形_2808" data-name="楕円形 2808" cx="1.803" cy="1.803" r="1.803" transform="translate(44.448 10.785)" fill="#fbc800"/>
            </g>
            <g id="グループ_6512" data-name="グループ 6512" transform="translate(9.306 19.683)">
              <circle id="楕円形_2809" data-name="楕円形 2809" cx="1.803" cy="1.803" r="1.803" fill="#fbc800"/>
              <circle id="楕円形_2810" data-name="楕円形 2810" cx="1.803" cy="1.803" r="1.803" transform="translate(6.349 1.541)" fill="#fbc800"/>
              <circle id="楕円形_2811" data-name="楕円形 2811" cx="1.803" cy="1.803" r="1.803" transform="translate(12.699 3.081)" fill="#fbc800"/>
              <circle id="楕円形_2812" data-name="楕円形 2812" cx="1.803" cy="1.803" r="1.803" transform="translate(19.049 4.622)" fill="#fbc800"/>
              <circle id="楕円形_2813" data-name="楕円形 2813" cx="1.803" cy="1.803" r="1.803" transform="translate(25.399 6.163)" fill="#fbc800"/>
              <circle id="楕円形_2814" data-name="楕円形 2814" cx="1.803" cy="1.803" r="1.803" transform="translate(31.748 7.703)" fill="#fbc800"/>
              <circle id="楕円形_2815" data-name="楕円形 2815" cx="1.803" cy="1.803" r="1.803" transform="translate(38.098 9.244)" fill="#fbc800"/>
              <circle id="楕円形_2816" data-name="楕円形 2816" cx="1.803" cy="1.803" r="1.803" transform="translate(44.448 10.785)" fill="#fbc800"/>
            </g>
            <g id="グループ_6513" data-name="グループ 6513" transform="translate(4.776 23.76)">
              <circle id="楕円形_2817" data-name="楕円形 2817" cx="1.803" cy="1.803" r="1.803" fill="#fbc800"/>
              <circle id="楕円形_2818" data-name="楕円形 2818" cx="1.803" cy="1.803" r="1.803" transform="translate(6.349 1.541)" fill="#fbc800"/>
              <circle id="楕円形_2819" data-name="楕円形 2819" cx="1.803" cy="1.803" r="1.803" transform="translate(12.699 3.081)" fill="#fbc800"/>
              <circle id="楕円形_2820" data-name="楕円形 2820" cx="1.803" cy="1.803" r="1.803" transform="translate(19.049 4.622)" fill="#fbc800"/>
              <circle id="楕円形_2821" data-name="楕円形 2821" cx="1.803" cy="1.803" r="1.803" transform="translate(25.399 6.163)" fill="#fbc800"/>
              <circle id="楕円形_2822" data-name="楕円形 2822" cx="1.803" cy="1.803" r="1.803" transform="translate(31.748 7.703)" fill="#fbc800"/>
              <circle id="楕円形_2823" data-name="楕円形 2823" cx="1.803" cy="1.803" r="1.803" transform="translate(38.098 9.244)" fill="#fbc800"/>
              <circle id="楕円形_2824" data-name="楕円形 2824" cx="1.803" cy="1.803" r="1.803" transform="translate(44.448 10.785)" fill="#fbc800"/>
            </g>
            <g id="グループ_6514" data-name="グループ 6514" transform="translate(6.918 29.524)">
              <circle id="楕円形_2825" data-name="楕円形 2825" cx="1.803" cy="1.803" r="1.803" fill="#fbc800"/>
              <circle id="楕円形_2826" data-name="楕円形 2826" cx="1.803" cy="1.803" r="1.803" transform="translate(6.349 1.541)" fill="#fbc800"/>
              <circle id="楕円形_2827" data-name="楕円形 2827" cx="1.803" cy="1.803" r="1.803" transform="translate(12.699 3.081)" fill="#fbc800"/>
              <circle id="楕円形_2828" data-name="楕円形 2828" cx="1.803" cy="1.803" r="1.803" transform="translate(19.049 4.622)" fill="#fbc800"/>
              <circle id="楕円形_2829" data-name="楕円形 2829" cx="1.803" cy="1.803" r="1.803" transform="translate(25.399 6.163)" fill="#fbc800"/>
              <circle id="楕円形_2830" data-name="楕円形 2830" cx="1.803" cy="1.803" r="1.803" transform="translate(31.748 7.703)" fill="#fbc800"/>
              <circle id="楕円形_2831" data-name="楕円形 2831" cx="1.803" cy="1.803" r="1.803" transform="translate(38.098 9.244)" fill="#fbc800"/>
              <circle id="楕円形_2832" data-name="楕円形 2832" cx="1.803" cy="1.803" r="1.803" transform="translate(44.448 10.785)" fill="#fbc800"/>
            </g>
            <g id="グループ_6515" data-name="グループ 6515" transform="translate(2.388 33.601)">
              <circle id="楕円形_2833" data-name="楕円形 2833" cx="1.803" cy="1.803" r="1.803" fill="#fbc800"/>
              <circle id="楕円形_2834" data-name="楕円形 2834" cx="1.803" cy="1.803" r="1.803" transform="translate(6.349 1.541)" fill="#fbc800"/>
              <circle id="楕円形_2835" data-name="楕円形 2835" cx="1.803" cy="1.803" r="1.803" transform="translate(12.699 3.081)" fill="#fbc800"/>
              <circle id="楕円形_2836" data-name="楕円形 2836" cx="1.803" cy="1.803" r="1.803" transform="translate(19.049 4.622)" fill="#fbc800"/>
              <circle id="楕円形_2837" data-name="楕円形 2837" cx="1.803" cy="1.803" r="1.803" transform="translate(25.399 6.162)" fill="#fbc800"/>
              <circle id="楕円形_2838" data-name="楕円形 2838" cx="1.803" cy="1.803" r="1.803" transform="translate(31.748 7.703)" fill="#fbc800"/>
              <circle id="楕円形_2839" data-name="楕円形 2839" cx="1.803" cy="1.803" r="1.803" transform="translate(38.098 9.244)" fill="#fbc800"/>
              <circle id="楕円形_2840" data-name="楕円形 2840" cx="1.803" cy="1.803" r="1.803" transform="translate(44.448 10.785)" fill="#fbc800"/>
            </g>
            <g id="グループ_6516" data-name="グループ 6516" transform="translate(4.53 39.366)">
              <circle id="楕円形_2841" data-name="楕円形 2841" cx="1.803" cy="1.803" r="1.803" fill="#fbc800"/>
              <circle id="楕円形_2842" data-name="楕円形 2842" cx="1.803" cy="1.803" r="1.803" transform="translate(6.349 1.541)" fill="#fbc800"/>
              <circle id="楕円形_2843" data-name="楕円形 2843" cx="1.803" cy="1.803" r="1.803" transform="translate(12.699 3.081)" fill="#fbc800"/>
              <circle id="楕円形_2844" data-name="楕円形 2844" cx="1.803" cy="1.803" r="1.803" transform="translate(19.049 4.622)" fill="#fbc800"/>
              <circle id="楕円形_2845" data-name="楕円形 2845" cx="1.803" cy="1.803" r="1.803" transform="translate(25.399 6.162)" fill="#fbc800"/>
              <circle id="楕円形_2846" data-name="楕円形 2846" cx="1.803" cy="1.803" r="1.803" transform="translate(31.748 7.703)" fill="#fbc800"/>
              <circle id="楕円形_2847" data-name="楕円形 2847" cx="1.803" cy="1.803" r="1.803" transform="translate(38.098 9.244)" fill="#fbc800"/>
              <circle id="楕円形_2848" data-name="楕円形 2848" cx="1.803" cy="1.803" r="1.803" transform="translate(44.448 10.784)" fill="#fbc800"/>
            </g>
            <g id="グループ_6517" data-name="グループ 6517" transform="translate(0 43.443)">
              <circle id="楕円形_2849" data-name="楕円形 2849" cx="1.803" cy="1.803" r="1.803" fill="#fbc800"/>
              <circle id="楕円形_2850" data-name="楕円形 2850" cx="1.803" cy="1.803" r="1.803" transform="translate(6.349 1.541)" fill="#fbc800"/>
              <circle id="楕円形_2851" data-name="楕円形 2851" cx="1.803" cy="1.803" r="1.803" transform="translate(12.699 3.081)" fill="#fbc800"/>
              <circle id="楕円形_2852" data-name="楕円形 2852" cx="1.803" cy="1.803" r="1.803" transform="translate(19.049 4.622)" fill="#fbc800"/>
              <circle id="楕円形_2853" data-name="楕円形 2853" cx="1.803" cy="1.803" r="1.803" transform="translate(25.399 6.163)" fill="#fbc800"/>
              <circle id="楕円形_2854" data-name="楕円形 2854" cx="1.803" cy="1.803" r="1.803" transform="translate(31.748 7.703)" fill="#fbc800"/>
              <circle id="楕円形_2855" data-name="楕円形 2855" cx="1.803" cy="1.803" r="1.803" transform="translate(38.098 9.244)" fill="#fbc800"/>
              <circle id="楕円形_2856" data-name="楕円形 2856" cx="1.803" cy="1.803" r="1.803" transform="translate(44.448 10.785)" fill="#fbc800"/>
            </g>
          </g>
        </g>
      </g>
    </g>
    <g id="グループ_6525" data-name="グループ 6525" transform="translate(58.528 36.335)">
      <path id="パス_3780" data-name="パス 3780" d="M2442.7,1297.028l-30.716,26.489-2.233-40.5Z" transform="translate(-2409.755 -1283.019)" fill="#fcc6be"/>
      <g id="グループ_6524" data-name="グループ 6524">
        <g id="グループ_6523" data-name="グループ 6523" clip-path="url(#clip-path-3)">
          <g id="グループ_6522" data-name="グループ 6522" transform="translate(-15.608 -6.056)">
            <rect id="長方形_5053" data-name="長方形 5053" width="3.187" height="52.124" transform="translate(20.395 0) rotate(23.035)" fill="#fbb3a8"/>
            <rect id="長方形_5054" data-name="長方形 5054" width="3.187" height="52.124" transform="translate(25.649 2.234) rotate(23.035)" fill="#fbb3a8"/>
            <rect id="長方形_5055" data-name="長方形 5055" width="3.187" height="52.124" transform="translate(30.903 4.468) rotate(23.035)" fill="#fbb3a8"/>
            <rect id="長方形_5056" data-name="長方形 5056" width="3.187" height="52.124" transform="translate(36.157 6.702) rotate(23.035)" fill="#fbb3a8"/>
            <rect id="長方形_5057" data-name="長方形 5057" width="3.187" height="52.124" transform="translate(41.41 8.936) rotate(23.035)" fill="#fbb3a8"/>
            <rect id="長方形_5058" data-name="長方形 5058" width="3.187" height="52.124" transform="translate(46.664 11.169) rotate(23.035)" fill="#fbb3a8"/>
          </g>
        </g>
      </g>
    </g>
    <g id="グループ_6599" data-name="グループ 6599" transform="translate(145.707 63.35)">
      <path id="パス_3782" data-name="パス 3782" d="M2486.978,1299.111l-21.095,34.642-14.564-37.855Z" transform="translate(-2451.318 -1295.898)" fill="#7498ae"/>
      <g id="グループ_6598" data-name="グループ 6598">
        <g id="グループ_6597" data-name="グループ 6597" clip-path="url(#clip-path-4)">
          <g id="グループ_6596" data-name="グループ 6596" transform="translate(-9.869 -8.227)">
            <g id="グループ_6532" data-name="グループ 6532" transform="translate(3.469)">
              <g id="グループ_6526" data-name="グループ 6526">
                <path id="パス_3783" data-name="パス 3783" d="M2451.423,1298.7a15.315,15.315,0,0,0-3.156-3.562,15.427,15.427,0,0,0,3.562-3.159,15.327,15.327,0,0,0,3.156,3.564A15.36,15.36,0,0,0,2451.423,1298.7Z" transform="translate(-2448.267 -1291.976)" fill="#53809b"/>
              </g>
              <g id="グループ_6527" data-name="グループ 6527" transform="translate(7.1 0.64)">
                <path id="パス_3784" data-name="パス 3784" d="M2454.81,1299a15.374,15.374,0,0,0-3.158-3.562,15.346,15.346,0,0,0,3.562-3.159,15.414,15.414,0,0,0,3.158,3.562A15.432,15.432,0,0,0,2454.81,1299Z" transform="translate(-2451.652 -1292.281)" fill="#53809b"/>
              </g>
              <g id="グループ_6528" data-name="グループ 6528" transform="translate(14.202 1.28)">
                <path id="パス_3785" data-name="パス 3785" d="M2458.194,1299.306a15.348,15.348,0,0,0-3.156-3.562,15.432,15.432,0,0,0,3.562-3.159,15.436,15.436,0,0,0,3.156,3.563A15.41,15.41,0,0,0,2458.194,1299.306Z" transform="translate(-2455.038 -1292.586)" fill="#53809b"/>
              </g>
              <g id="グループ_6529" data-name="グループ 6529" transform="translate(21.304 1.919)">
                <path id="パス_3786" data-name="パス 3786" d="M2461.581,1299.611a15.369,15.369,0,0,0-3.157-3.562,15.341,15.341,0,0,0,3.562-3.159,15.373,15.373,0,0,0,3.157,3.564A15.365,15.365,0,0,0,2461.581,1299.611Z" transform="translate(-2458.424 -1292.891)" fill="#53809b"/>
              </g>
              <g id="グループ_6530" data-name="グループ 6530" transform="translate(28.405 2.559)">
                <path id="パス_3787" data-name="パス 3787" d="M2464.968,1299.916a15.366,15.366,0,0,0-3.159-3.562,15.4,15.4,0,0,0,3.563-3.159,15.378,15.378,0,0,0,3.157,3.564A15.27,15.27,0,0,0,2464.968,1299.916Z" transform="translate(-2461.809 -1293.196)" fill="#53809b"/>
              </g>
              <g id="グループ_6531" data-name="グループ 6531" transform="translate(35.507 3.199)">
                <path id="パス_3788" data-name="パス 3788" d="M2468.352,1300.221a15.405,15.405,0,0,0-3.157-3.562,15.336,15.336,0,0,0,3.562-3.159,15.423,15.423,0,0,0,3.157,3.564A15.375,15.375,0,0,0,2468.352,1300.221Z" transform="translate(-2465.195 -1293.501)" fill="#53809b"/>
              </g>
            </g>
            <g id="グループ_6539" data-name="グループ 6539" transform="translate(6.444 5.12)">
              <g id="グループ_6533" data-name="グループ 6533">
                <path id="パス_3789" data-name="パス 3789" d="M2452.843,1301.137a15.4,15.4,0,0,0-3.158-3.562,15.42,15.42,0,0,0,3.562-3.159,15.322,15.322,0,0,0,3.159,3.563A15.333,15.333,0,0,0,2452.843,1301.137Z" transform="translate(-2449.685 -1294.417)" fill="#53809b"/>
              </g>
              <g id="グループ_6534" data-name="グループ 6534" transform="translate(7.102 0.642)">
                <path id="パス_3790" data-name="パス 3790" d="M2456.227,1301.441a15.308,15.308,0,0,0-3.156-3.562,15.471,15.471,0,0,0,3.562-3.157,15.405,15.405,0,0,0,3.157,3.562A15.378,15.378,0,0,0,2456.227,1301.441Z" transform="translate(-2453.071 -1294.723)" fill="#53809b"/>
              </g>
              <g id="グループ_6535" data-name="グループ 6535" transform="translate(14.204 1.279)">
                <path id="パス_3791" data-name="パス 3791" d="M2459.614,1301.747a15.41,15.41,0,0,0-3.157-3.562,15.416,15.416,0,0,0,3.562-3.159,15.376,15.376,0,0,0,3.157,3.563A15.431,15.431,0,0,0,2459.614,1301.747Z" transform="translate(-2456.457 -1295.027)" fill="#53809b"/>
              </g>
              <g id="グループ_6536" data-name="グループ 6536" transform="translate(21.304 1.921)">
                <path id="パス_3792" data-name="パス 3792" d="M2463,1302.051a15.41,15.41,0,0,0-3.157-3.562,15.426,15.426,0,0,0,3.562-3.157,15.416,15.416,0,0,0,3.159,3.562A15.391,15.391,0,0,0,2463,1302.051Z" transform="translate(-2459.842 -1295.333)" fill="#53809b"/>
              </g>
              <g id="グループ_6537" data-name="グループ 6537" transform="translate(28.407 2.561)">
                <path id="パス_3793" data-name="パス 3793" d="M2466.385,1302.356a15.41,15.41,0,0,0-3.157-3.562,15.451,15.451,0,0,0,3.562-3.157,15.412,15.412,0,0,0,3.157,3.562A15.369,15.369,0,0,0,2466.385,1302.356Z" transform="translate(-2463.228 -1295.638)" fill="#53809b"/>
              </g>
              <g id="グループ_6538" data-name="グループ 6538" transform="translate(35.509 3.201)">
                <path id="パス_3794" data-name="パス 3794" d="M2469.77,1302.661a15.419,15.419,0,0,0-3.156-3.562,15.462,15.462,0,0,0,3.562-3.157,15.421,15.421,0,0,0,3.156,3.562A15.334,15.334,0,0,0,2469.77,1302.661Z" transform="translate(-2466.614 -1295.943)" fill="#53809b"/>
              </g>
            </g>
            <g id="グループ_6546" data-name="グループ 6546" transform="translate(2.601 9.628)">
              <g id="グループ_6540" data-name="グループ 6540">
                <path id="パス_3795" data-name="パス 3795" d="M2451.012,1303.284a15.407,15.407,0,0,0-3.159-3.562,15.426,15.426,0,0,0,3.563-3.157,15.416,15.416,0,0,0,3.157,3.562A15.365,15.365,0,0,0,2451.012,1303.284Z" transform="translate(-2447.853 -1296.566)" fill="#53809b"/>
              </g>
              <g id="グループ_6541" data-name="グループ 6541" transform="translate(7.102 0.64)">
                <path id="パス_3796" data-name="パス 3796" d="M2454.4,1303.589a15.41,15.41,0,0,0-3.157-3.562,15.41,15.41,0,0,0,3.562-3.157,15.507,15.507,0,0,0,3.157,3.562A15.426,15.426,0,0,0,2454.4,1303.589Z" transform="translate(-2451.239 -1296.871)" fill="#53809b"/>
              </g>
              <g id="グループ_6542" data-name="グループ 6542" transform="translate(14.204 1.279)">
                <path id="パス_3797" data-name="パス 3797" d="M2457.781,1303.894a15.405,15.405,0,0,0-3.157-3.562,15.416,15.416,0,0,0,3.562-3.157,15.365,15.365,0,0,0,3.157,3.562A15.42,15.42,0,0,0,2457.781,1303.894Z" transform="translate(-2454.625 -1297.176)" fill="#53809b"/>
              </g>
              <g id="グループ_6543" data-name="グループ 6543" transform="translate(21.304 1.919)">
                <path id="パス_3798" data-name="パス 3798" d="M2461.169,1304.2a15.429,15.429,0,0,0-3.159-3.562,15.3,15.3,0,0,0,3.562-3.157,15.457,15.457,0,0,0,3.159,3.562A15.41,15.41,0,0,0,2461.169,1304.2Z" transform="translate(-2458.01 -1297.481)" fill="#53809b"/>
              </g>
              <g id="グループ_6544" data-name="グループ 6544" transform="translate(28.407 2.559)">
                <path id="パス_3799" data-name="パス 3799" d="M2464.552,1304.5a15.394,15.394,0,0,0-3.157-3.562,15.4,15.4,0,0,0,3.562-3.157,15.41,15.41,0,0,0,3.157,3.562A15.413,15.413,0,0,0,2464.552,1304.5Z" transform="translate(-2461.396 -1297.786)" fill="#53809b"/>
              </g>
              <g id="グループ_6545" data-name="グループ 6545" transform="translate(35.509 3.199)">
                <path id="パス_3800" data-name="パス 3800" d="M2467.939,1304.809a15.473,15.473,0,0,0-3.157-3.562,15.394,15.394,0,0,0,3.562-3.157,15.407,15.407,0,0,0,3.157,3.562A15.451,15.451,0,0,0,2467.939,1304.809Z" transform="translate(-2464.782 -1298.091)" fill="#53809b"/>
              </g>
            </g>
            <g id="グループ_6553" data-name="グループ 6553" transform="translate(5.577 14.748)">
              <g id="グループ_6547" data-name="グループ 6547">
                <path id="パス_3801" data-name="パス 3801" d="M2452.429,1305.725a15.419,15.419,0,0,0-3.157-3.562,15.35,15.35,0,0,0,3.562-3.157,15.4,15.4,0,0,0,3.157,3.562A15.451,15.451,0,0,0,2452.429,1305.725Z" transform="translate(-2449.272 -1299.007)" fill="#53809b"/>
              </g>
              <g id="グループ_6548" data-name="グループ 6548" transform="translate(7.1 0.64)">
                <path id="パス_3802" data-name="パス 3802" d="M2455.816,1306.03a15.429,15.429,0,0,0-3.159-3.562,15.266,15.266,0,0,0,3.562-3.157,15.417,15.417,0,0,0,3.159,3.562A15.37,15.37,0,0,0,2455.816,1306.03Z" transform="translate(-2452.657 -1299.312)" fill="#53809b"/>
              </g>
              <g id="グループ_6549" data-name="グループ 6549" transform="translate(14.202 1.279)">
                <path id="パス_3803" data-name="パス 3803" d="M2459.2,1306.335a15.468,15.468,0,0,0-3.159-3.562,15.4,15.4,0,0,0,3.562-3.157,15.349,15.349,0,0,0,3.159,3.562A15.376,15.376,0,0,0,2459.2,1306.335Z" transform="translate(-2456.042 -1299.617)" fill="#53809b"/>
              </g>
              <g id="グループ_6550" data-name="グループ 6550" transform="translate(21.304 1.919)">
                <path id="パス_3804" data-name="パス 3804" d="M2462.586,1306.64a15.421,15.421,0,0,0-3.157-3.562,15.355,15.355,0,0,0,3.562-3.157,15.41,15.41,0,0,0,3.157,3.562A15.451,15.451,0,0,0,2462.586,1306.64Z" transform="translate(-2459.429 -1299.922)" fill="#53809b"/>
              </g>
              <g id="グループ_6551" data-name="グループ 6551" transform="translate(28.405 2.559)">
                <path id="パス_3805" data-name="パス 3805" d="M2465.973,1306.945a15.406,15.406,0,0,0-3.159-3.562,15.371,15.371,0,0,0,3.562-3.157,15.456,15.456,0,0,0,3.159,3.562A15.352,15.352,0,0,0,2465.973,1306.945Z" transform="translate(-2462.814 -1300.227)" fill="#53809b"/>
              </g>
              <g id="グループ_6552" data-name="グループ 6552" transform="translate(35.507 3.199)">
                <path id="パス_3806" data-name="パス 3806" d="M2469.357,1307.25a15.412,15.412,0,0,0-3.157-3.562,15.314,15.314,0,0,0,3.562-3.157,15.464,15.464,0,0,0,3.159,3.562A15.419,15.419,0,0,0,2469.357,1307.25Z" transform="translate(-2466.2 -1300.532)" fill="#53809b"/>
              </g>
            </g>
            <g id="グループ_6560" data-name="グループ 6560" transform="translate(1.734 19.253)">
              <g id="グループ_6554" data-name="グループ 6554">
                <path id="パス_3807" data-name="パス 3807" d="M2450.6,1307.875a15.316,15.316,0,0,0-3.157-3.562,15.352,15.352,0,0,0,3.562-3.159,15.377,15.377,0,0,0,3.157,3.562A15.407,15.407,0,0,0,2450.6,1307.875Z" transform="translate(-2447.44 -1301.155)" fill="#53809b"/>
              </g>
              <g id="グループ_6555" data-name="グループ 6555" transform="translate(7.1 0.64)">
                <path id="パス_3808" data-name="パス 3808" d="M2453.984,1308.18a15.39,15.39,0,0,0-3.159-3.562,15.365,15.365,0,0,0,3.564-3.159,15.416,15.416,0,0,0,3.157,3.562A15.412,15.412,0,0,0,2453.984,1308.18Z" transform="translate(-2450.825 -1301.46)" fill="#53809b"/>
              </g>
              <g id="グループ_6556" data-name="グループ 6556" transform="translate(14.202 1.279)">
                <path id="パス_3809" data-name="パス 3809" d="M2457.37,1308.485a15.417,15.417,0,0,0-3.159-3.562,15.326,15.326,0,0,0,3.562-3.159,15.393,15.393,0,0,0,3.159,3.563A15.31,15.31,0,0,0,2457.37,1308.485Z" transform="translate(-2454.211 -1301.765)" fill="#53809b"/>
              </g>
              <g id="グループ_6557" data-name="グループ 6557" transform="translate(21.304 1.919)">
                <path id="パス_3810" data-name="パス 3810" d="M2460.754,1308.79a15.325,15.325,0,0,0-3.157-3.562,15.412,15.412,0,0,0,3.562-3.159,15.416,15.416,0,0,0,3.157,3.562A15.412,15.412,0,0,0,2460.754,1308.79Z" transform="translate(-2457.597 -1302.07)" fill="#53809b"/>
              </g>
              <g id="グループ_6558" data-name="グループ 6558" transform="translate(28.405 2.559)">
                <path id="パス_3811" data-name="パス 3811" d="M2464.141,1309.1a15.372,15.372,0,0,0-3.159-3.562,15.361,15.361,0,0,0,3.562-3.159,15.39,15.39,0,0,0,3.159,3.562A15.4,15.4,0,0,0,2464.141,1309.1Z" transform="translate(-2460.982 -1302.375)" fill="#53809b"/>
              </g>
              <g id="グループ_6559" data-name="グループ 6559" transform="translate(35.507 3.199)">
                <path id="パス_3812" data-name="パス 3812" d="M2467.527,1309.4a15.367,15.367,0,0,0-3.159-3.562,15.372,15.372,0,0,0,3.562-3.159,15.4,15.4,0,0,0,3.159,3.564A15.26,15.26,0,0,0,2467.527,1309.4Z" transform="translate(-2464.368 -1302.68)" fill="#53809b"/>
              </g>
            </g>
            <g id="グループ_6567" data-name="グループ 6567" transform="translate(4.709 24.373)">
              <g id="グループ_6561" data-name="グループ 6561">
                <path id="パス_3813" data-name="パス 3813" d="M2452.017,1310.317a15.365,15.365,0,0,0-3.159-3.562,15.373,15.373,0,0,0,3.562-3.159,15.391,15.391,0,0,0,3.159,3.564A15.27,15.27,0,0,0,2452.017,1310.317Z" transform="translate(-2448.858 -1303.596)" fill="#53809b"/>
              </g>
              <g id="グループ_6562" data-name="グループ 6562" transform="translate(7.102 0.64)">
                <path id="パス_3814" data-name="パス 3814" d="M2455.4,1310.621a15.371,15.371,0,0,0-3.157-3.562,15.4,15.4,0,0,0,3.562-3.159,15.45,15.45,0,0,0,3.157,3.564A15.355,15.355,0,0,0,2455.4,1310.621Z" transform="translate(-2452.244 -1303.901)" fill="#53809b"/>
              </g>
              <g id="グループ_6563" data-name="グループ 6563" transform="translate(14.204 1.28)">
                <path id="パス_3815" data-name="パス 3815" d="M2458.787,1310.927a15.363,15.363,0,0,0-3.157-3.562,15.406,15.406,0,0,0,3.562-3.159,15.389,15.389,0,0,0,3.157,3.563A15.35,15.35,0,0,0,2458.787,1310.927Z" transform="translate(-2455.63 -1304.206)" fill="#53809b"/>
              </g>
              <g id="グループ_6564" data-name="グループ 6564" transform="translate(21.304 1.919)">
                <path id="パス_3816" data-name="パス 3816" d="M2462.174,1311.231a15.417,15.417,0,0,0-3.159-3.562,15.366,15.366,0,0,0,3.562-3.159,15.4,15.4,0,0,0,3.159,3.563A15.271,15.271,0,0,0,2462.174,1311.231Z" transform="translate(-2459.015 -1304.511)" fill="#53809b"/>
              </g>
              <g id="グループ_6565" data-name="グループ 6565" transform="translate(28.407 2.559)">
                <path id="パス_3817" data-name="パス 3817" d="M2465.558,1311.536a15.311,15.311,0,0,0-3.157-3.562,15.42,15.42,0,0,0,3.562-3.159,15.378,15.378,0,0,0,3.157,3.564A15.41,15.41,0,0,0,2465.558,1311.536Z" transform="translate(-2462.401 -1304.816)" fill="#53809b"/>
              </g>
              <g id="グループ_6566" data-name="グループ 6566" transform="translate(35.509 3.199)">
                <path id="パス_3818" data-name="パス 3818" d="M2468.943,1311.841a15.421,15.421,0,0,0-3.157-3.562,15.43,15.43,0,0,0,3.562-3.159,15.36,15.36,0,0,0,3.156,3.564A15.365,15.365,0,0,0,2468.943,1311.841Z" transform="translate(-2465.787 -1305.121)" fill="#53809b"/>
              </g>
            </g>
            <g id="グループ_6574" data-name="グループ 6574" transform="translate(0.866 28.881)">
              <g id="グループ_6568" data-name="グループ 6568">
                <path id="パス_3819" data-name="パス 3819" d="M2450.185,1312.463a15.388,15.388,0,0,0-3.159-3.562,15.391,15.391,0,0,0,3.564-3.157,15.356,15.356,0,0,0,3.157,3.562A15.407,15.407,0,0,0,2450.185,1312.463Z" transform="translate(-2447.026 -1305.745)" fill="#53809b"/>
              </g>
              <g id="グループ_6569" data-name="グループ 6569" transform="translate(7.103 0.64)">
                <path id="パス_3820" data-name="パス 3820" d="M2453.568,1312.768a15.36,15.36,0,0,0-3.156-3.562,15.471,15.471,0,0,0,3.562-3.157,15.462,15.462,0,0,0,3.157,3.562A15.452,15.452,0,0,0,2453.568,1312.768Z" transform="translate(-2450.412 -1306.05)" fill="#53809b"/>
              </g>
              <g id="グループ_6570" data-name="グループ 6570" transform="translate(14.205 1.279)">
                <path id="パス_3821" data-name="パス 3821" d="M2456.955,1313.073a15.41,15.41,0,0,0-3.157-3.562,15.42,15.42,0,0,0,3.562-3.157,15.405,15.405,0,0,0,3.157,3.562A15.467,15.467,0,0,0,2456.955,1313.073Z" transform="translate(-2453.798 -1306.355)" fill="#53809b"/>
              </g>
              <g id="グループ_6571" data-name="グループ 6571" transform="translate(21.305 1.919)">
                <path id="パス_3822" data-name="パス 3822" d="M2460.342,1313.378a15.411,15.411,0,0,0-3.159-3.562,15.387,15.387,0,0,0,3.563-3.157,15.41,15.41,0,0,0,3.157,3.562A15.41,15.41,0,0,0,2460.342,1313.378Z" transform="translate(-2457.183 -1306.66)" fill="#53809b"/>
              </g>
              <g id="グループ_6572" data-name="グループ 6572" transform="translate(28.407 2.559)">
                <path id="パス_3823" data-name="パス 3823" d="M2463.726,1313.683a15.365,15.365,0,0,0-3.157-3.562,15.455,15.455,0,0,0,3.562-3.157,15.45,15.45,0,0,0,3.157,3.562A15.461,15.461,0,0,0,2463.726,1313.683Z" transform="translate(-2460.569 -1306.965)" fill="#53809b"/>
              </g>
              <g id="グループ_6573" data-name="グループ 6573" transform="translate(35.509 3.199)">
                <path id="パス_3824" data-name="パス 3824" d="M2467.111,1313.988a15.4,15.4,0,0,0-3.156-3.562,15.426,15.426,0,0,0,3.562-3.157,15.353,15.353,0,0,0,3.156,3.562A15.42,15.42,0,0,0,2467.111,1313.988Z" transform="translate(-2463.955 -1307.27)" fill="#53809b"/>
              </g>
            </g>
            <g id="グループ_6581" data-name="グループ 6581" transform="translate(3.843 34.001)">
              <g id="グループ_6575" data-name="グループ 6575">
                <path id="パス_3825" data-name="パス 3825" d="M2451.6,1314.9a15.445,15.445,0,0,0-3.157-3.562,15.427,15.427,0,0,0,3.562-3.157,15.412,15.412,0,0,0,3.157,3.562A15.46,15.46,0,0,0,2451.6,1314.9Z" transform="translate(-2448.445 -1308.186)" fill="#53809b"/>
              </g>
              <g id="グループ_6576" data-name="グループ 6576" transform="translate(7.102 0.64)">
                <path id="パス_3826" data-name="パス 3826" d="M2454.988,1315.209a15.457,15.457,0,0,0-3.157-3.562,15.415,15.415,0,0,0,3.562-3.157,15.4,15.4,0,0,0,3.157,3.562A15.391,15.391,0,0,0,2454.988,1315.209Z" transform="translate(-2451.831 -1308.491)" fill="#53809b"/>
              </g>
              <g id="グループ_6577" data-name="グループ 6577" transform="translate(14.202 1.279)">
                <path id="パス_3827" data-name="パス 3827" d="M2458.373,1315.514a15.36,15.36,0,0,0-3.157-3.562,15.335,15.335,0,0,0,3.562-3.157,15.411,15.411,0,0,0,3.159,3.562A15.391,15.391,0,0,0,2458.373,1315.514Z" transform="translate(-2455.216 -1308.796)" fill="#53809b"/>
              </g>
              <g id="グループ_6578" data-name="グループ 6578" transform="translate(21.304 1.919)">
                <path id="パス_3828" data-name="パス 3828" d="M2461.758,1315.819a15.409,15.409,0,0,0-3.156-3.562,15.42,15.42,0,0,0,3.562-3.157,15.392,15.392,0,0,0,3.156,3.562A15.477,15.477,0,0,0,2461.758,1315.819Z" transform="translate(-2458.602 -1309.101)" fill="#53809b"/>
              </g>
              <g id="グループ_6579" data-name="グループ 6579" transform="translate(28.407 2.559)">
                <path id="パス_3829" data-name="パス 3829" d="M2465.144,1316.124a15.454,15.454,0,0,0-3.156-3.562,15.41,15.41,0,0,0,3.562-3.157,15.364,15.364,0,0,0,3.156,3.562A15.39,15.39,0,0,0,2465.144,1316.124Z" transform="translate(-2461.988 -1309.406)" fill="#53809b"/>
              </g>
              <g id="グループ_6580" data-name="グループ 6580" transform="translate(35.507 3.199)">
                <path id="パス_3830" data-name="パス 3830" d="M2468.531,1316.429a15.46,15.46,0,0,0-3.158-3.562,15.425,15.425,0,0,0,3.562-3.156,15.421,15.421,0,0,0,3.159,3.562A15.337,15.337,0,0,0,2468.531,1316.429Z" transform="translate(-2465.373 -1309.711)" fill="#53809b"/>
              </g>
            </g>
            <g id="グループ_6588" data-name="グループ 6588" transform="translate(0 38.506)">
              <g id="グループ_6582" data-name="グループ 6582">
                <path id="パス_3831" data-name="パス 3831" d="M2449.77,1317.054a15.376,15.376,0,0,0-3.157-3.563,15.36,15.36,0,0,0,3.562-3.157,15.412,15.412,0,0,0,3.157,3.562A15.426,15.426,0,0,0,2449.77,1317.054Z" transform="translate(-2446.613 -1310.334)" fill="#53809b"/>
              </g>
              <g id="グループ_6583" data-name="グループ 6583" transform="translate(7.102 0.64)">
                <path id="パス_3832" data-name="パス 3832" d="M2453.156,1317.359A15.418,15.418,0,0,0,2450,1313.8a15.368,15.368,0,0,0,3.562-3.157,15.308,15.308,0,0,0,3.156,3.562A15.427,15.427,0,0,0,2453.156,1317.359Z" transform="translate(-2449.999 -1310.639)" fill="#53809b"/>
              </g>
              <g id="グループ_6584" data-name="グループ 6584" transform="translate(14.202 1.279)">
                <path id="パス_3833" data-name="パス 3833" d="M2456.542,1317.664a15.384,15.384,0,0,0-3.159-3.564,15.324,15.324,0,0,0,3.564-3.157,15.369,15.369,0,0,0,3.156,3.562A15.352,15.352,0,0,0,2456.542,1317.664Z" transform="translate(-2453.384 -1310.944)" fill="#53809b"/>
              </g>
              <g id="グループ_6585" data-name="グループ 6585" transform="translate(21.304 1.919)">
                <path id="パス_3834" data-name="パス 3834" d="M2459.926,1317.969a15.32,15.32,0,0,0-3.156-3.562,15.416,15.416,0,0,0,3.562-3.159,15.363,15.363,0,0,0,3.156,3.562A15.421,15.421,0,0,0,2459.926,1317.969Z" transform="translate(-2456.77 -1311.249)" fill="#53809b"/>
              </g>
              <g id="グループ_6586" data-name="グループ 6586" transform="translate(28.407 2.559)">
                <path id="パス_3835" data-name="パス 3835" d="M2463.312,1318.274a15.451,15.451,0,0,0-3.156-3.564,15.365,15.365,0,0,0,3.562-3.157,15.431,15.431,0,0,0,3.156,3.562A15.443,15.443,0,0,0,2463.312,1318.274Z" transform="translate(-2460.156 -1311.554)" fill="#53809b"/>
              </g>
              <g id="グループ_6587" data-name="グループ 6587" transform="translate(35.507 3.199)">
                <path id="パス_3836" data-name="パス 3836" d="M2466.7,1318.579a15.383,15.383,0,0,0-3.159-3.562,15.331,15.331,0,0,0,3.562-3.159,15.418,15.418,0,0,0,3.159,3.562A15.366,15.366,0,0,0,2466.7,1318.579Z" transform="translate(-2463.541 -1311.859)" fill="#53809b"/>
              </g>
            </g>
            <g id="グループ_6595" data-name="グループ 6595" transform="translate(2.974 43.626)">
              <g id="グループ_6589" data-name="グループ 6589">
                <path id="パス_3837" data-name="パス 3837" d="M2451.19,1319.5a15.338,15.338,0,0,0-3.159-3.562,15.312,15.312,0,0,0,3.562-3.159,15.487,15.487,0,0,0,3.159,3.564A15.31,15.31,0,0,0,2451.19,1319.5Z" transform="translate(-2448.031 -1312.775)" fill="#53809b"/>
              </g>
              <g id="グループ_6590" data-name="グループ 6590" transform="translate(7.102 0.64)">
                <path id="パス_3838" data-name="パス 3838" d="M2454.574,1319.8a15.321,15.321,0,0,0-3.157-3.562,15.423,15.423,0,0,0,3.562-3.159,15.315,15.315,0,0,0,3.157,3.562A15.407,15.407,0,0,0,2454.574,1319.8Z" transform="translate(-2451.417 -1313.08)" fill="#53809b"/>
              </g>
              <g id="グループ_6591" data-name="グループ 6591" transform="translate(14.204 1.279)">
                <path id="パス_3839" data-name="パス 3839" d="M2457.96,1320.105a15.421,15.421,0,0,0-3.157-3.562,15.407,15.407,0,0,0,3.562-3.159,15.355,15.355,0,0,0,3.157,3.562A15.4,15.4,0,0,0,2457.96,1320.105Z" transform="translate(-2454.803 -1313.385)" fill="#53809b"/>
              </g>
              <g id="グループ_6592" data-name="グループ 6592" transform="translate(21.304 1.919)">
                <path id="パス_3840" data-name="パス 3840" d="M2461.347,1320.411a15.34,15.34,0,0,0-3.159-3.562,15.321,15.321,0,0,0,3.562-3.159,15.38,15.38,0,0,0,3.159,3.564A15.3,15.3,0,0,0,2461.347,1320.411Z" transform="translate(-2458.188 -1313.69)" fill="#53809b"/>
              </g>
              <g id="グループ_6593" data-name="グループ 6593" transform="translate(28.407 2.559)">
                <path id="パス_3841" data-name="パス 3841" d="M2464.731,1320.715a15.382,15.382,0,0,0-3.157-3.562,15.406,15.406,0,0,0,3.562-3.159,15.326,15.326,0,0,0,3.157,3.562A15.4,15.4,0,0,0,2464.731,1320.715Z" transform="translate(-2461.574 -1313.995)" fill="#53809b"/>
              </g>
              <g id="グループ_6594" data-name="グループ 6594" transform="translate(35.509 3.199)">
                <path id="パス_3842" data-name="パス 3842" d="M2468.117,1321.02a15.418,15.418,0,0,0-3.157-3.562,15.407,15.407,0,0,0,3.562-3.159,15.379,15.379,0,0,0,3.157,3.564A15.31,15.31,0,0,0,2468.117,1321.02Z" transform="translate(-2464.96 -1314.3)" fill="#53809b"/>
              </g>
            </g>
          </g>
        </g>
      </g>
    </g>
    <path id="パス_3844" data-name="パス 3844" d="M2381.852,1265.7s78.732,67.469,196.688,67.469" transform="translate(-2381.852 -1265.696)" fill="none" stroke="#000" stroke-linecap="round" stroke-miterlimit="10" stroke-width="1.089"/>
  </g>
  <circle id="楕円形_2857" data-name="楕円形 2857" cx="2.717" cy="2.717" r="2.717"/>
  <circle id="楕円形_2858" data-name="楕円形 2858" cx="2.717" cy="2.717" r="2.717" transform="translate(197.993 68.017)"/>
</svg>
