<svg id="グループ_6497" data-name="グループ 6497" xmlns="http://www.w3.org/2000/svg" xmlns:xlink="http://www.w3.org/1999/xlink" width="204.114" height="102.789" viewBox="0 0 204.114 102.789">
  <defs>
    <clipPath id="clip-path">
      <path id="パス_3726" data-name="パス 3726" d="M2203.453,1290.042l-9.248,39.491-25.637-31.429Z" transform="translate(-2168.569 -1290.042)" fill="none"/>
    </clipPath>
    <clipPath id="clip-path-2">
      <path id="パス_3728" data-name="パス 3728" d="M2182.315,1294.933l-14.245,37.976-21.386-34.463Z" transform="translate(-2146.684 -1294.933)" fill="none"/>
    </clipPath>
    <clipPath id="clip-path-3">
      <path id="パス_3766" data-name="パス 3766" d="M2241.771,1271.09l2.166,40.5-33.4-23.006Z" transform="translate(-2210.533 -1271.09)" fill="none"/>
    </clipPath>
    <clipPath id="clip-path-4">
      <path id="パス_3768" data-name="パス 3768" d="M2223.135,1281.809l-3.306,40.425-30-27.293Z" transform="translate(-2189.826 -1281.809)" fill="none"/>
    </clipPath>
  </defs>
  <g id="グループ_6496" data-name="グループ 6496" transform="translate(4.6 2.716)">
    <g id="グループ_6478" data-name="グループ 6478" transform="translate(64.508 51.839)">
      <path id="パス_3677" data-name="パス 3677" d="M2203.453,1290.042l-9.248,39.491-25.637-31.429Z" transform="translate(-2168.569 -1290.042)" fill="#f84817"/>
      <g id="グループ_6477" data-name="グループ 6477">
        <g id="グループ_6476" data-name="グループ 6476" clip-path="url(#clip-path)">
          <g id="グループ_6475" data-name="グループ 6475" transform="translate(-13.77 -7.978)">
            <path id="パス_3678" data-name="パス 3678" d="M2169.511,1292.029l-2.02,8.373-5.488-6.639Z" transform="translate(-2162.003 -1279.884)" fill="#c54817"/>
            <path id="パス_3679" data-name="パス 3679" d="M2173.09,1291.2l-2.02,8.373-5.487-6.638Z" transform="translate(-2158.075 -1280.792)" fill="#c54817"/>
            <path id="パス_3680" data-name="パス 3680" d="M2176.667,1290.375l-2.018,8.373-5.487-6.638Z" transform="translate(-2154.147 -1281.699)" fill="#c54817"/>
            <path id="パス_3681" data-name="パス 3681" d="M2180.247,1289.548l-2.018,8.374-5.489-6.639Z" transform="translate(-2150.221 -1282.607)" fill="#c54817"/>
            <path id="パス_3682" data-name="パス 3682" d="M2183.826,1288.72l-2.018,8.375-5.489-6.639Z" transform="translate(-2146.292 -1283.516)" fill="#c54817"/>
            <path id="パス_3683" data-name="パス 3683" d="M2187.405,1287.893l-2.018,8.375-5.489-6.641Z" transform="translate(-2142.365 -1284.424)" fill="#c54817"/>
            <path id="パス_3684" data-name="パス 3684" d="M2190.984,1287.066l-2.018,8.375-5.489-6.641Z" transform="translate(-2138.437 -1285.331)" fill="#c54817"/>
            <path id="パス_3685" data-name="パス 3685" d="M2194.563,1286.239l-2.018,8.375-5.489-6.641Z" transform="translate(-2134.509 -1286.239)" fill="#c54817"/>
            <path id="パス_3686" data-name="パス 3686" d="M2172.127,1295.194l-2.018,8.375-5.489-6.641Z" transform="translate(-2159.132 -1276.411)" fill="#c54817"/>
            <path id="パス_3687" data-name="パス 3687" d="M2175.706,1294.367l-2.018,8.375-5.489-6.641Z" transform="translate(-2155.205 -1277.318)" fill="#c54817"/>
            <path id="パス_3688" data-name="パス 3688" d="M2179.284,1293.54l-2.018,8.375-5.489-6.641Z" transform="translate(-2151.276 -1278.226)" fill="#c54817"/>
            <path id="パス_3689" data-name="パス 3689" d="M2182.864,1292.713l-2.018,8.373-5.49-6.638Z" transform="translate(-2147.349 -1279.134)" fill="#c54817"/>
            <path id="パス_3690" data-name="パス 3690" d="M2186.443,1291.886l-2.018,8.373-5.489-6.639Z" transform="translate(-2143.42 -1280.041)" fill="#c54817"/>
            <path id="パス_3691" data-name="パス 3691" d="M2190.022,1291.059l-2.018,8.373-5.489-6.639Z" transform="translate(-2139.493 -1280.949)" fill="#c54817"/>
            <path id="パス_3692" data-name="パス 3692" d="M2193.6,1290.232l-2.018,8.373-5.489-6.639Z" transform="translate(-2135.564 -1281.856)" fill="#c54817"/>
            <path id="パス_3693" data-name="パス 3693" d="M2197.18,1289.4l-2.018,8.375-5.489-6.638Z" transform="translate(-2131.636 -1282.765)" fill="#c54817"/>
            <path id="パス_3694" data-name="パス 3694" d="M2171.165,1299.187l-2.021,8.373-5.487-6.639Z" transform="translate(-2160.188 -1272.028)" fill="#c54817"/>
            <path id="パス_3695" data-name="パス 3695" d="M2174.743,1298.36l-2.02,8.373-5.487-6.639Z" transform="translate(-2156.26 -1272.936)" fill="#c54817"/>
            <path id="パス_3696" data-name="パス 3696" d="M2178.323,1297.533l-2.02,8.374-5.487-6.639Z" transform="translate(-2152.332 -1273.844)" fill="#c54817"/>
            <path id="パス_3697" data-name="パス 3697" d="M2181.9,1296.7l-2.02,8.375-5.487-6.639Z" transform="translate(-2148.404 -1274.752)" fill="#c54817"/>
            <path id="パス_3698" data-name="パス 3698" d="M2185.481,1295.878l-2.02,8.375-5.487-6.641Z" transform="translate(-2144.476 -1275.66)" fill="#c54817"/>
            <path id="パス_3699" data-name="パス 3699" d="M2189.06,1295.051l-2.02,8.375-5.487-6.641Z" transform="translate(-2140.549 -1276.568)" fill="#c54817"/>
            <path id="パス_3700" data-name="パス 3700" d="M2192.639,1294.224l-2.02,8.375-5.487-6.641Z" transform="translate(-2136.62 -1277.475)" fill="#c54817"/>
            <path id="パス_3701" data-name="パス 3701" d="M2196.218,1293.4l-2.02,8.374-5.487-6.639Z" transform="translate(-2132.692 -1278.383)" fill="#c54817"/>
            <path id="パス_3702" data-name="パス 3702" d="M2173.781,1302.352l-2.018,8.375-5.49-6.641Z" transform="translate(-2157.317 -1268.555)" fill="#c54817"/>
            <path id="パス_3703" data-name="パス 3703" d="M2177.36,1301.525l-2.018,8.375-5.489-6.641Z" transform="translate(-2153.389 -1269.462)" fill="#c54817"/>
            <path id="パス_3704" data-name="パス 3704" d="M2180.939,1300.7l-2.018,8.375-5.489-6.641Z" transform="translate(-2149.461 -1270.37)" fill="#c54817"/>
            <path id="パス_3705" data-name="パス 3705" d="M2184.518,1299.871l-2.018,8.374-5.489-6.639Z" transform="translate(-2145.533 -1271.278)" fill="#c54817"/>
            <path id="パス_3706" data-name="パス 3706" d="M2188.1,1299.044l-2.018,8.373-5.489-6.639Z" transform="translate(-2141.605 -1272.185)" fill="#c54817"/>
            <path id="パス_3707" data-name="パス 3707" d="M2191.676,1298.217l-2.018,8.373-5.489-6.639Z" transform="translate(-2137.677 -1273.093)" fill="#c54817"/>
            <path id="パス_3708" data-name="パス 3708" d="M2195.255,1297.389l-2.018,8.375-5.489-6.638Z" transform="translate(-2133.749 -1274.002)" fill="#c54817"/>
            <path id="パス_3709" data-name="パス 3709" d="M2198.834,1296.562l-2.018,8.375-5.489-6.641Z" transform="translate(-2129.822 -1274.909)" fill="#c54817"/>
            <path id="パス_3710" data-name="パス 3710" d="M2172.819,1306.345l-2.018,8.374-5.489-6.639Z" transform="translate(-2158.373 -1264.172)" fill="#c54817"/>
            <path id="パス_3711" data-name="パス 3711" d="M2176.4,1305.518l-2.018,8.373-5.489-6.639Z" transform="translate(-2154.445 -1265.08)" fill="#c54817"/>
            <path id="パス_3712" data-name="パス 3712" d="M2179.977,1304.691l-2.018,8.373-5.489-6.639Z" transform="translate(-2150.517 -1265.987)" fill="#c54817"/>
            <path id="パス_3713" data-name="パス 3713" d="M2183.556,1303.863l-2.018,8.375-5.489-6.639Z" transform="translate(-2146.589 -1266.896)" fill="#c54817"/>
            <path id="パス_3714" data-name="パス 3714" d="M2187.135,1303.036l-2.018,8.375-5.49-6.641Z" transform="translate(-2142.661 -1267.804)" fill="#c54817"/>
            <path id="パス_3715" data-name="パス 3715" d="M2190.714,1302.209l-2.018,8.375-5.489-6.641Z" transform="translate(-2138.733 -1268.712)" fill="#c54817"/>
            <path id="パス_3716" data-name="パス 3716" d="M2194.293,1301.382l-2.02,8.375-5.487-6.641Z" transform="translate(-2134.805 -1269.619)" fill="#c54817"/>
            <path id="パス_3717" data-name="パス 3717" d="M2197.872,1300.555l-2.02,8.373-5.487-6.639Z" transform="translate(-2130.877 -1270.527)" fill="#c54817"/>
            <path id="パス_3718" data-name="パス 3718" d="M2175.436,1309.51l-2.021,8.375-5.487-6.641Z" transform="translate(-2155.501 -1260.699)" fill="#c54817"/>
            <path id="パス_3719" data-name="パス 3719" d="M2179.014,1308.683l-2.02,8.375-5.487-6.641Z" transform="translate(-2151.573 -1261.606)" fill="#c54817"/>
            <path id="パス_3720" data-name="パス 3720" d="M2182.594,1307.856l-2.02,8.373-5.487-6.639Z" transform="translate(-2147.645 -1262.514)" fill="#c54817"/>
            <path id="パス_3721" data-name="パス 3721" d="M2186.173,1307.029l-2.021,8.373-5.487-6.639Z" transform="translate(-2143.717 -1263.422)" fill="#c54817"/>
            <path id="パス_3722" data-name="パス 3722" d="M2189.752,1306.2l-2.02,8.373-5.487-6.638Z" transform="translate(-2139.789 -1264.329)" fill="#c54817"/>
            <path id="パス_3723" data-name="パス 3723" d="M2193.329,1305.375l-2.018,8.373-5.487-6.638Z" transform="translate(-2135.861 -1265.237)" fill="#c54817"/>
            <path id="パス_3724" data-name="パス 3724" d="M2196.909,1304.547l-2.018,8.375-5.489-6.639Z" transform="translate(-2131.934 -1266.146)" fill="#c54817"/>
            <path id="パス_3725" data-name="パス 3725" d="M2200.488,1303.72l-2.019,8.375-5.489-6.641Z" transform="translate(-2128.006 -1267.053)" fill="#c54817"/>
          </g>
        </g>
      </g>
    </g>
    <g id="グループ_6482" data-name="グループ 6482" transform="translate(18.604 62.097)">
      <path id="パス_3727" data-name="パス 3727" d="M2182.315,1294.933l-14.245,37.976-21.386-34.463Z" transform="translate(-2146.684 -1294.933)" fill="#c9bc70"/>
      <g id="グループ_6481" data-name="グループ 6481">
        <g id="グループ_6480" data-name="グループ 6480" clip-path="url(#clip-path-2)">
          <g id="グループ_6479" data-name="グループ 6479" transform="translate(-4.309 -1.842)">
            <rect id="長方形_5039" data-name="長方形 5039" width="44.181" height="0.907" transform="translate(0 4.334) rotate(-5.63)" fill="#e5d9a1"/>
            <rect id="長方形_5040" data-name="長方形 5040" width="44.181" height="0.907" transform="translate(0.29 7.28) rotate(-5.63)" fill="#e5d9a1"/>
            <rect id="長方形_5041" data-name="長方形 5041" width="44.181" height="0.907" transform="translate(0.581 10.226) rotate(-5.63)" fill="#e5d9a1"/>
            <rect id="長方形_5042" data-name="長方形 5042" width="44.181" height="0.907" transform="translate(0.871 13.172) rotate(-5.63)" fill="#e5d9a1"/>
            <rect id="長方形_5043" data-name="長方形 5043" width="44.181" height="0.907" transform="translate(1.161 16.118) rotate(-5.63)" fill="#e5d9a1"/>
            <rect id="長方形_5044" data-name="長方形 5044" width="44.181" height="0.907" transform="translate(1.452 19.064) rotate(-5.63)" fill="#e5d9a1"/>
            <rect id="長方形_5045" data-name="長方形 5045" width="44.181" height="0.907" transform="translate(1.743 22.01) rotate(-5.63)" fill="#e5d9a1"/>
            <rect id="長方形_5046" data-name="長方形 5046" width="44.181" height="0.907" transform="translate(2.033 24.955) rotate(-5.63)" fill="#e5d9a1"/>
            <rect id="長方形_5047" data-name="長方形 5047" width="44.181" height="0.907" transform="translate(2.323 27.901) rotate(-5.63)" fill="#e5d9a1"/>
            <rect id="長方形_5048" data-name="長方形 5048" width="44.181" height="0.907" transform="translate(2.614 30.847) rotate(-5.63)" fill="#e5d9a1"/>
            <rect id="長方形_5049" data-name="長方形 5049" width="44.181" height="0.907" transform="translate(2.904 33.793) rotate(-5.63)" fill="#e5d9a1"/>
            <rect id="長方形_5050" data-name="長方形 5050" width="44.181" height="0.907" transform="translate(3.194 36.739) rotate(-5.63)" fill="#e5d9a1"/>
            <rect id="長方形_5051" data-name="長方形 5051" width="44.181" height="0.907" transform="translate(3.485 39.685) rotate(-5.63)" fill="#e5d9a1"/>
            <rect id="長方形_5052" data-name="長方形 5052" width="44.181" height="0.907" transform="translate(3.775 42.631) rotate(-5.63)" fill="#e5d9a1"/>
          </g>
        </g>
      </g>
    </g>
    <g id="グループ_6492" data-name="グループ 6492" transform="translate(152.53 12.086)">
      <path id="パス_3729" data-name="パス 3729" d="M2241.771,1271.09l2.166,40.5-33.4-23.006Z" transform="translate(-2210.533 -1271.09)" fill="#89d9fe"/>
      <g id="グループ_6491" data-name="グループ 6491">
        <g id="グループ_6490" data-name="グループ 6490" clip-path="url(#clip-path-3)">
          <g id="グループ_6489" data-name="グループ 6489" transform="translate(0.163 -2.258)">
            <g id="グループ_6483" data-name="グループ 6483" transform="translate(0.134)">
              <path id="パス_3730" data-name="パス 3730" d="M2212.142,1279.152l1.591,1.47,1.89-1.059-.907,1.968,1.591,1.47-2.152-.254-.906,1.967-.423-2.125-2.151-.255,1.89-1.058Z" transform="translate(-2210.675 -1259.984)" fill="#5abadb"/>
              <path id="パス_3731" data-name="パス 3731" d="M2215.406,1277.325l1.591,1.47,1.89-1.059-.906,1.967,1.59,1.47-2.151-.255-.907,1.968-.422-2.125-2.151-.255,1.89-1.059Z" transform="translate(-2207.093 -1261.99)" fill="#5abadb"/>
              <path id="パス_3732" data-name="パス 3732" d="M2218.669,1275.5l1.59,1.47,1.89-1.059-.907,1.968,1.591,1.47-2.151-.254-.907,1.967-.423-2.125-2.151-.255,1.89-1.059Z" transform="translate(-2203.512 -1263.996)" fill="#5abadb"/>
              <path id="パス_3733" data-name="パス 3733" d="M2221.932,1273.669l1.591,1.47,1.89-1.059-.907,1.968,1.591,1.47-2.151-.255-.907,1.968-.423-2.125-2.151-.255,1.89-1.059Z" transform="translate(-2199.93 -1266.002)" fill="#5abadb"/>
              <path id="パス_3734" data-name="パス 3734" d="M2225.2,1271.842l1.591,1.47,1.89-1.059-.907,1.968,1.591,1.47-2.151-.255-.907,1.967-.423-2.125-2.151-.254,1.89-1.059Z" transform="translate(-2196.349 -1268.008)" fill="#5abadb"/>
              <path id="パス_3735" data-name="パス 3735" d="M2228.459,1270.014l1.591,1.47,1.89-1.059-.906,1.968,1.59,1.47-2.151-.255-.907,1.968-.422-2.125-2.151-.255,1.89-1.059Z" transform="translate(-2192.767 -1270.014)" fill="#5abadb"/>
            </g>
            <g id="グループ_6484" data-name="グループ 6484" transform="translate(0 7.853)">
              <path id="パス_3736" data-name="パス 3736" d="M2212.078,1282.9l1.591,1.47,1.89-1.059-.907,1.967,1.59,1.47-2.151-.254-.907,1.967-.422-2.125-2.151-.255,1.89-1.058Z" transform="translate(-2210.611 -1263.728)" fill="#5abadb"/>
              <path id="パス_3737" data-name="パス 3737" d="M2215.342,1281.068l1.591,1.47,1.89-1.058-.907,1.967,1.591,1.47-2.151-.254-.907,1.968-.423-2.125-2.151-.255,1.89-1.059Z" transform="translate(-2207.03 -1265.734)" fill="#5abadb"/>
              <path id="パス_3738" data-name="パス 3738" d="M2218.6,1279.241l1.591,1.47,1.89-1.059-.907,1.967,1.59,1.47-2.151-.254-.907,1.967-.422-2.125-2.151-.255,1.89-1.058Z" transform="translate(-2203.448 -1267.74)" fill="#5abadb"/>
              <path id="パス_3739" data-name="パス 3739" d="M2221.869,1277.413l1.59,1.47,1.89-1.058-.907,1.967,1.591,1.47-2.151-.254-.907,1.967-.423-2.125-2.151-.255,1.89-1.059Z" transform="translate(-2199.867 -1269.746)" fill="#5abadb"/>
              <path id="パス_3740" data-name="パス 3740" d="M2225.131,1275.585l1.591,1.47,1.89-1.059-.907,1.967,1.591,1.47-2.151-.254-.907,1.967-.423-2.125-2.151-.255,1.89-1.058Z" transform="translate(-2196.285 -1271.752)" fill="#5abadb"/>
              <path id="パス_3741" data-name="パス 3741" d="M2228.4,1273.758l1.59,1.47,1.89-1.058-.907,1.967,1.591,1.47-2.151-.255-.907,1.967-.423-2.125-2.151-.255,1.89-1.059Z" transform="translate(-2192.703 -1273.758)" fill="#5abadb"/>
            </g>
            <g id="グループ_6485" data-name="グループ 6485" transform="translate(6.717 11.753)">
              <path id="パス_3742" data-name="パス 3742" d="M2215.281,1284.756l1.591,1.47,1.89-1.059-.907,1.967,1.591,1.47-2.151-.254-.907,1.967-.422-2.125-2.151-.255,1.89-1.058Z" transform="translate(-2213.813 -1265.588)" fill="#5abadb"/>
              <path id="パス_3743" data-name="パス 3743" d="M2218.544,1282.928l1.59,1.47,1.89-1.059-.907,1.968,1.591,1.47-2.151-.255-.907,1.967-.423-2.125-2.151-.255,1.89-1.058Z" transform="translate(-2210.232 -1267.594)" fill="#5abadb"/>
              <path id="パス_3744" data-name="パス 3744" d="M2221.807,1281.1l1.591,1.47,1.89-1.059-.907,1.967,1.591,1.47-2.151-.254-.907,1.967-.422-2.125-2.151-.255,1.89-1.058Z" transform="translate(-2206.65 -1269.599)" fill="#5abadb"/>
              <path id="パス_3745" data-name="パス 3745" d="M2225.071,1279.273l1.591,1.47,1.89-1.059-.907,1.968,1.591,1.47-2.151-.254-.907,1.967-.423-2.125-2.151-.255,1.89-1.058Z" transform="translate(-2203.069 -1271.605)" fill="#5abadb"/>
              <path id="パス_3746" data-name="パス 3746" d="M2228.334,1277.445l1.591,1.47,1.89-1.059-.907,1.967,1.59,1.47-2.151-.254-.907,1.967-.422-2.125-2.151-.255,1.89-1.059Z" transform="translate(-2199.487 -1273.611)" fill="#5abadb"/>
              <path id="パス_3747" data-name="パス 3747" d="M2231.6,1275.617l1.59,1.47,1.89-1.059-.907,1.968,1.591,1.47-2.151-.254-.907,1.967-.423-2.125-2.151-.255,1.89-1.058Z" transform="translate(-2195.906 -1275.617)" fill="#5abadb"/>
            </g>
            <g id="グループ_6486" data-name="グループ 6486" transform="translate(6.582 19.606)">
              <path id="パス_3748" data-name="パス 3748" d="M2215.217,1288.5l1.591,1.47,1.89-1.058-.907,1.967,1.591,1.47-2.151-.254-.907,1.967-.423-2.125-2.151-.254,1.89-1.059Z" transform="translate(-2213.749 -1269.332)" fill="#5abadb"/>
              <path id="パス_3749" data-name="パス 3749" d="M2218.48,1286.672l1.591,1.47,1.89-1.058-.907,1.967,1.59,1.47-2.151-.255-.907,1.968-.422-2.125-2.151-.254,1.89-1.059Z" transform="translate(-2210.167 -1271.337)" fill="#5abadb"/>
              <path id="パス_3750" data-name="パス 3750" d="M2221.744,1284.844l1.59,1.47,1.89-1.058-.907,1.967,1.591,1.47-2.151-.254-.907,1.968-.423-2.125-2.151-.255,1.89-1.059Z" transform="translate(-2206.586 -1273.343)" fill="#5abadb"/>
              <path id="パス_3751" data-name="パス 3751" d="M2225.006,1283.016l1.591,1.47,1.89-1.059-.907,1.967,1.591,1.47-2.151-.254-.907,1.967-.423-2.125-2.151-.254,1.89-1.059Z" transform="translate(-2203.005 -1275.349)" fill="#5abadb"/>
              <path id="パス_3752" data-name="パス 3752" d="M2228.27,1281.189l1.59,1.47,1.89-1.058-.907,1.967,1.591,1.47-2.151-.254-.907,1.968-.423-2.125-2.151-.254,1.89-1.059Z" transform="translate(-2199.423 -1277.355)" fill="#5abadb"/>
              <path id="パス_3753" data-name="パス 3753" d="M2231.533,1279.361l1.591,1.47,1.89-1.059-.907,1.967,1.59,1.47-2.151-.254-.907,1.967-.422-2.125-2.151-.254,1.89-1.059Z" transform="translate(-2195.841 -1279.361)" fill="#5abadb"/>
            </g>
            <g id="グループ_6487" data-name="グループ 6487" transform="translate(13.299 23.507)">
              <path id="パス_3754" data-name="パス 3754" d="M2218.419,1290.359l1.59,1.47,1.89-1.058-.907,1.967,1.591,1.47-2.151-.254-.907,1.967-.423-2.125-2.151-.255,1.89-1.059Z" transform="translate(-2216.951 -1271.191)" fill="#5abadb"/>
              <path id="パス_3755" data-name="パス 3755" d="M2221.682,1288.531l1.591,1.47,1.89-1.059-.907,1.967,1.59,1.47-2.151-.254-.907,1.967-.422-2.125-2.151-.255,1.89-1.058Z" transform="translate(-2213.37 -1273.197)" fill="#5abadb"/>
              <path id="パス_3756" data-name="パス 3756" d="M2224.946,1286.7l1.591,1.47,1.89-1.058-.907,1.967,1.591,1.47-2.151-.254-.907,1.967-.423-2.125-2.151-.255,1.89-1.059Z" transform="translate(-2209.788 -1275.203)" fill="#5abadb"/>
              <path id="パス_3757" data-name="パス 3757" d="M2228.209,1284.876l1.591,1.47,1.89-1.058-.907,1.967,1.59,1.47-2.151-.254-.907,1.967-.422-2.125-2.151-.255,1.89-1.058Z" transform="translate(-2206.207 -1277.209)" fill="#5abadb"/>
              <path id="パス_3758" data-name="パス 3758" d="M2231.473,1283.048l1.59,1.47,1.89-1.058-.907,1.967,1.591,1.47-2.151-.255-.907,1.967-.423-2.125-2.151-.255,1.89-1.058Z" transform="translate(-2202.625 -1279.215)" fill="#5abadb"/>
              <path id="パス_3759" data-name="パス 3759" d="M2234.735,1281.221l1.591,1.47,1.89-1.058-.907,1.967,1.591,1.47-2.151-.254-.907,1.967-.423-2.125-2.151-.255,1.89-1.058Z" transform="translate(-2199.044 -1281.221)" fill="#5abadb"/>
            </g>
            <g id="グループ_6488" data-name="グループ 6488" transform="translate(13.165 31.36)">
              <path id="パス_3760" data-name="パス 3760" d="M2218.355,1294.1l1.591,1.47,1.89-1.058-.907,1.967,1.59,1.47-2.151-.255-.907,1.968-.422-2.125-2.151-.254,1.89-1.059Z" transform="translate(-2216.887 -1274.935)" fill="#5abadb"/>
              <path id="パス_3761" data-name="パス 3761" d="M2221.619,1292.275l1.59,1.47,1.89-1.059-.907,1.968,1.591,1.47-2.151-.255-.907,1.967-.423-2.125-2.151-.254,1.89-1.059Z" transform="translate(-2213.306 -1276.941)" fill="#5abadb"/>
              <path id="パス_3762" data-name="パス 3762" d="M2224.881,1290.447l1.591,1.47,1.89-1.058-.907,1.968,1.591,1.47-2.151-.255-.907,1.968-.423-2.125-2.151-.254,1.89-1.059Z" transform="translate(-2209.725 -1278.947)" fill="#5abadb"/>
              <path id="パス_3763" data-name="パス 3763" d="M2228.145,1288.62l1.591,1.47,1.89-1.058-.907,1.967,1.591,1.47-2.151-.255-.907,1.968-.423-2.125-2.151-.254,1.89-1.059Z" transform="translate(-2206.143 -1280.953)" fill="#5abadb"/>
              <path id="パス_3764" data-name="パス 3764" d="M2231.408,1286.792l1.591,1.47,1.89-1.058-.907,1.968,1.59,1.47-2.151-.255-.907,1.968-.422-2.125-2.151-.254,1.89-1.059Z" transform="translate(-2202.561 -1282.958)" fill="#5abadb"/>
              <path id="パス_3765" data-name="パス 3765" d="M2234.671,1284.964l1.591,1.47,1.89-1.058-.907,1.967,1.591,1.47-2.151-.254-.907,1.968-.422-2.125-2.152-.255,1.89-1.059Z" transform="translate(-2198.98 -1284.964)" fill="#5abadb"/>
            </g>
          </g>
        </g>
      </g>
    </g>
    <g id="グループ_6495" data-name="グループ 6495" transform="translate(109.096 34.568)">
      <path id="パス_3767" data-name="パス 3767" d="M2223.135,1281.809l-3.306,40.425-30-27.293Z" transform="translate(-2189.826 -1281.809)" fill="#fb904e"/>
      <g id="グループ_6494" data-name="グループ 6494">
        <g id="グループ_6493" data-name="グループ 6493" clip-path="url(#clip-path-4)">
          <line id="線_1358" data-name="線 1358" x1="23.431" y2="50.959" transform="translate(-0.199 -30.978)" fill="none" stroke="#fa7929" stroke-miterlimit="10" stroke-width="0.735"/>
          <line id="線_1359" data-name="線 1359" x1="23.431" y2="50.959" transform="translate(1.918 -25.61)" fill="none" stroke="#fa7929" stroke-miterlimit="10" stroke-width="0.735"/>
          <line id="線_1360" data-name="線 1360" x1="23.431" y2="50.959" transform="translate(4.035 -20.241)" fill="none" stroke="#fa7929" stroke-miterlimit="10" stroke-width="0.735"/>
          <line id="線_1361" data-name="線 1361" x1="23.431" y2="50.959" transform="translate(6.151 -14.872)" fill="none" stroke="#fa7929" stroke-miterlimit="10" stroke-width="0.735"/>
          <line id="線_1362" data-name="線 1362" x1="23.431" y2="50.959" transform="translate(8.268 -9.504)" fill="none" stroke="#fa7929" stroke-miterlimit="10" stroke-width="0.735"/>
          <line id="線_1363" data-name="線 1363" x1="23.431" y2="50.959" transform="translate(10.384 -4.135)" fill="none" stroke="#fa7929" stroke-miterlimit="10" stroke-width="0.735"/>
          <line id="線_1364" data-name="線 1364" x1="23.431" y2="50.959" transform="translate(12.501 1.234)" fill="none" stroke="#fa7929" stroke-miterlimit="10" stroke-width="0.735"/>
          <line id="線_1365" data-name="線 1365" x1="23.431" y2="50.959" transform="translate(14.618 6.602)" fill="none" stroke="#fa7929" stroke-miterlimit="10" stroke-width="0.735"/>
          <line id="線_1366" data-name="線 1366" x1="23.431" y2="50.959" transform="translate(16.734 11.971)" fill="none" stroke="#fa7929" stroke-miterlimit="10" stroke-width="0.735"/>
        </g>
      </g>
    </g>
    <path id="パス_3769" data-name="パス 3769" d="M2334.5,1265.328s-78.732,67.471-196.686,67.471" transform="translate(-2137.814 -1265.328)" fill="none" stroke="#000" stroke-linecap="round" stroke-miterlimit="10" stroke-width="1.089"/>
  </g>
  <circle id="楕円形_2775" data-name="楕円形 2775" cx="2.717" cy="2.717" r="2.717" transform="translate(198.681)"/>
  <circle id="楕円形_2776" data-name="楕円形 2776" cx="2.717" cy="2.717" r="2.717" transform="translate(0 67.418)"/>
</svg>
