<svg xmlns="http://www.w3.org/2000/svg" width="184.423" height="48.481" viewBox="0 0 184.423 48.481">
  <g id="Group_6777" data-name="Group 6777" transform="translate(0.216 0.199)">
    <g id="Group_6772" data-name="Group 6772">
      <g id="Group_6771" data-name="Group 6771">
        <g id="Group_6766" data-name="Group 6766">
          <path id="Path_3954" data-name="Path 3954" d="M2716.328,1504.431c-1.688,0-1.688-.061-3.375-.061s-1.688.061-3.376.061-1.684,0-3.368,0-1.684-.121-3.368-.121-1.689.107-3.378.107-1.687.007-3.373.007-1.689-.116-3.378-.116-1.691.014-3.38.014-1.689.089-3.377.089-1.691,0-3.385,0-1.694.051-3.389.051-2.541-1.544-3.437-.1c-.875,1.405.872,1.464,1.664,2.918s.786,1.458,1.578,2.915.693,1.512,1.486,2.968.9,1.4,1.694,2.852.765,1.472,1.556,2.929.821,1.449,1.615,2.91,1.6,1.284,1.535,2.945c-.076,1.793-.886,1.552-1.81,3.089s-.978,1.507-1.9,3.045-.923,1.54-1.845,3.075-.852,1.584-1.777,3.126l-1.852,3.085c-.926,1.545-2.771,1.487-1.94,3.085.8,1.533,1.77-.023,3.5-.023s1.728-.058,3.459-.058,1.726.1,3.454.1,1.73.014,3.462.014,1.732-.03,3.466-.03,1.736-.062,3.468-.062" transform="translate(-2675.504 -1503.735)" fill="#ece5db"/>
          <path id="Path_3955" data-name="Path 3955" d="M2716.328,1504.431c-1.688,0-1.688-.061-3.375-.061s-1.688.061-3.376.061-1.684,0-3.368,0-1.684-.121-3.368-.121-1.689.107-3.378.107-1.687.007-3.373.007-1.689-.116-3.378-.116-1.691.014-3.38.014-1.689.089-3.377.089-1.691,0-3.385,0-1.694.051-3.389.051-2.541-1.544-3.437-.1c-.875,1.405.872,1.464,1.664,2.918s.786,1.458,1.578,2.915.693,1.512,1.486,2.968.9,1.4,1.694,2.852.765,1.472,1.556,2.929.821,1.449,1.615,2.91,1.6,1.284,1.535,2.945c-.076,1.793-.886,1.552-1.81,3.089s-.978,1.507-1.9,3.045-.923,1.54-1.845,3.075-.852,1.584-1.777,3.126l-1.852,3.085c-.926,1.545-2.771,1.487-1.94,3.085.8,1.533,1.77-.023,3.5-.023s1.728-.058,3.459-.058,1.726.1,3.454.1,1.73.014,3.462.014,1.732-.03,3.466-.03,1.736-.062,3.468-.062" transform="translate(-2675.504 -1503.735)" fill="none" stroke="#998863" stroke-linecap="round" stroke-linejoin="round" stroke-width="0.53"/>
        </g>
        <g id="Group_6767" data-name="Group 6767" transform="translate(143.254 0.005)">
          <path id="Path_3956" data-name="Path 3956" d="M2726.769,1504.421c1.689,0,1.689-.049,3.375-.049s1.689.01,3.376.01,1.685-.056,3.368-.056,1.685.014,3.368.014,1.689.077,3.378.077,1.687-.086,3.373-.086,1.69.116,3.378.116,1.691-.063,3.38-.063,1.689,0,3.378,0,1.691.021,3.385.021,1.693-.1,3.39-.1,2.443-1.331,3.338.109c.875,1.405-.731,1.426-1.521,2.88s-.761,1.473-1.552,2.929-.846,1.428-1.64,2.887-.716,1.494-1.51,2.95-.8,1.452-1.6,2.91-.847,1.433-1.643,2.894-1.6,1.263-1.531,2.927c.077,1.791.914,1.512,1.838,3.049s.819,1.6,1.745,3.141,1.014,1.482,1.938,3.02.93,1.535,1.856,3.078.826,1.6,1.752,3.145,2.691,1.424,1.864,3.022c-.8,1.533-1.676.055-3.4.055s-1.728,0-3.459,0-1.727.051-3.455.051-1.731-.13-3.461-.13-1.734.095-3.469.095-1.733-.007-3.466-.007" transform="translate(-2726.769 -1503.737)" fill="#ece5db"/>
          <path id="Path_3957" data-name="Path 3957" d="M2726.769,1504.421c1.689,0,1.689-.049,3.375-.049s1.689.01,3.376.01,1.685-.056,3.368-.056,1.685.014,3.368.014,1.689.077,3.378.077,1.687-.086,3.373-.086,1.69.116,3.378.116,1.691-.063,3.38-.063,1.689,0,3.378,0,1.691.021,3.385.021,1.693-.1,3.39-.1,2.443-1.331,3.338.109c.875,1.405-.731,1.426-1.521,2.88s-.761,1.473-1.552,2.929-.846,1.428-1.64,2.887-.716,1.494-1.51,2.95-.8,1.452-1.6,2.91-.847,1.433-1.643,2.894-1.6,1.263-1.531,2.927c.077,1.791.914,1.512,1.838,3.049s.819,1.6,1.745,3.141,1.014,1.482,1.938,3.02.93,1.535,1.856,3.078.826,1.6,1.752,3.145,2.691,1.424,1.864,3.022c-.8,1.533-1.676.055-3.4.055s-1.728,0-3.459,0-1.727.051-3.455.051-1.731-.13-3.461-.13-1.734.095-3.469.095-1.733-.007-3.466-.007" transform="translate(-2726.769 -1503.737)" fill="none" stroke="#998863" stroke-linecap="round" stroke-linejoin="round" stroke-width="0.53"/>
        </g>
        <g id="Group_6768" data-name="Group 6768" transform="translate(22.426 0.314)">
          <path id="Path_3958" data-name="Path 3958" d="M2685.144,1511.542c1.531-.612,1.531-.609,3.062-1.221s1.551-.565,3.082-1.179,1.507-.665,3.038-1.277,1.538-.6,3.071-1.215,1.531-.625,3.066-1.242,1.779-2.231,3.075-1.206c1.439,1.145.025,1.836.034,3.676s-.018,1.842-.009,3.682" transform="translate(-2685.144 -1503.87)" fill="#af977d"/>
          <path id="Path_3959" data-name="Path 3959" d="M2685.144,1511.542c1.531-.612,1.531-.609,3.062-1.221s1.551-.565,3.082-1.179,1.507-.665,3.038-1.277,1.538-.6,3.071-1.215,1.531-.625,3.066-1.242,1.779-2.231,3.075-1.206c1.439,1.145.025,1.836.034,3.676s-.018,1.842-.009,3.682" transform="translate(-2685.144 -1503.87)" fill="none" stroke="#998863" stroke-linecap="round" stroke-linejoin="round" stroke-width="0.53"/>
        </g>
        <g id="Group_6769" data-name="Group 6769" transform="translate(142.634 0.31)">
          <path id="Path_3960" data-name="Path 3960" d="M2745.677,1511.433c-1.544-.6-1.549-.586-3.094-1.189s-1.536-.628-3.08-1.231-1.557-.565-3.1-1.166-1.545-.607-3.092-1.209-1.537-.631-3.087-1.233-1.808-2.252-3.086-1.186c-1.448,1.209.019,1.868.031,3.755s-.044,1.886-.033,3.771" transform="translate(-2726.502 -1503.868)" fill="#af977d"/>
          <path id="Path_3961" data-name="Path 3961" d="M2745.677,1511.433c-1.544-.6-1.549-.586-3.094-1.189s-1.536-.628-3.08-1.231-1.557-.565-3.1-1.166-1.545-.607-3.092-1.209-1.537-.631-3.087-1.233-1.808-2.252-3.086-1.186c-1.448,1.209.019,1.868.031,3.755s-.044,1.886-.033,3.771" transform="translate(-2726.502 -1503.868)" fill="none" stroke="#998863" stroke-linecap="round" stroke-linejoin="round" stroke-width="0.53"/>
        </g>
        <g id="Group_6770" data-name="Group 6770" transform="translate(21.252 7.557)">
          <path id="Path_3962" data-name="Path 3962" d="M2825.687,1546.946c-1.482,1.184-2.1.093-4.154.093s-2.057-.175-4.114-.175-2.057.119-4.116.119-2.061-.181-4.121-.181-2.067,0-4.134,0-2.062.247-4.122.247h-4.119c-2.062,0-2.062-.289-4.12-.289s-2.058.14-4.116.14-2.061.172-4.122.172-2.064-.3-4.128-.3-2.063-.04-4.131-.04-2.064.089-4.125.089-2.063.177-4.125.177-2.061-.323-4.124-.323-2.067.23-4.131.23-2.067.068-4.133.068-2.063-.086-4.127-.086-2.064.03-4.128.03-2.07-.216-4.136-.216-2.066.183-4.13.183-2.067.149-4.136.149-2.068-.351-4.134-.351-2.066.309-4.135.309-2.061.1-4.125.1-2.061-.27-4.125-.27-2.069.312-4.139.312-2.067-.433-4.133-.433-2.067.2-4.137.2h-4.141c-2.069,0-2.069.156-4.136.156s-2.074.056-4.147.056-2.075-.219-4.153-.219-2.515,1.077-4.021-.109c-1.429-1.128.084-1.521.084-3.159s.048-1.641.048-3.278-.353-1.633-.353-3.268.087-1.633.087-3.268-.227-1.64-.227-3.28.081-1.635.081-3.273.037-1.64.037-3.278.3-1.642.3-3.283-.19-1.637-.19-3.278,0-1.642,0-3.285.112-1.645.112-3.29-1.527-2.138-.1-3.28c1.478-1.184,2.041.2,4.1.2s2.056-.023,4.111-.023,2.058.049,4.116.049,2.061-.433,4.125-.433,2.064.228,4.13.228,2.061,0,4.125,0,2.059.065,4.119.065,2.059.1,4.117.1,2.058-.333,4.116-.333,2.061-.049,4.122-.049,2.063.1,4.127.1,2.068.077,4.132.077,2.064.167,4.128.167,2.061-.077,4.122-.077,2.064.075,4.125.075,2.066-.056,4.133-.056,2.065-.1,4.132-.1,2.063-.039,4.127-.039,2.064.163,4.132.163,2.066-.2,4.133-.2,2.067-.025,4.13-.025,2.07.281,4.136.281,2.067-.2,4.133-.2,2.067.089,4.136.089,2.065-.267,4.126-.267,2.064.126,4.125.126,2.07.179,4.139.179,2.066.109,4.134.109,2.069-.17,4.135-.17,2.072-.058,4.145-.058,2.066-.035,4.136-.035,2.072.079,4.144.079,2.078-.107,4.153-.107,2.694-1.145,4.2.042c1.431,1.129-.233,1.677-.233,3.315s.353,1.638.353,3.278.113,1.633.113,3.268-.306,1.633-.306,3.269.241,1.64.241,3.28.048,1.635.048,3.273.008,1.638.008,3.277-.143,1.643-.143,3.283-.318,1.638-.318,3.278.467,1.642.467,3.285-.809,1.7-.378,3.31C2826,1545.376,2827.112,1545.8,2825.687,1546.946Z" transform="translate(-2684.589 -1506.984)" fill="#ece5db"/>
          <path id="Path_3963" data-name="Path 3963" d="M2825.687,1546.946c-1.482,1.184-2.1.093-4.154.093s-2.057-.175-4.114-.175-2.057.119-4.116.119-2.061-.181-4.121-.181-2.067,0-4.134,0-2.062.247-4.122.247h-4.119c-2.062,0-2.062-.289-4.12-.289s-2.058.14-4.116.14-2.061.172-4.122.172-2.064-.3-4.128-.3-2.063-.04-4.131-.04-2.064.089-4.125.089-2.063.177-4.125.177-2.061-.323-4.124-.323-2.067.23-4.131.23-2.067.068-4.133.068-2.063-.086-4.127-.086-2.064.03-4.128.03-2.07-.216-4.136-.216-2.066.183-4.13.183-2.067.149-4.136.149-2.068-.351-4.134-.351-2.066.309-4.135.309-2.061.1-4.125.1-2.061-.27-4.125-.27-2.069.312-4.139.312-2.067-.433-4.133-.433-2.067.2-4.137.2h-4.141c-2.069,0-2.069.156-4.136.156s-2.074.056-4.147.056-2.075-.219-4.153-.219-2.515,1.077-4.021-.109c-1.429-1.128.084-1.521.084-3.159s.048-1.641.048-3.278-.353-1.633-.353-3.268.087-1.633.087-3.268-.227-1.64-.227-3.28.081-1.635.081-3.273.037-1.64.037-3.278.3-1.642.3-3.283-.19-1.637-.19-3.278,0-1.642,0-3.285.112-1.645.112-3.29-1.527-2.138-.1-3.28c1.478-1.184,2.041.2,4.1.2s2.056-.023,4.111-.023,2.058.049,4.116.049,2.061-.433,4.125-.433,2.064.228,4.13.228,2.061,0,4.125,0,2.059.065,4.119.065,2.059.1,4.117.1,2.058-.333,4.116-.333,2.061-.049,4.122-.049,2.063.1,4.127.1,2.068.077,4.132.077,2.064.167,4.128.167,2.061-.077,4.122-.077,2.064.075,4.125.075,2.066-.056,4.133-.056,2.065-.1,4.132-.1,2.063-.039,4.127-.039,2.064.163,4.132.163,2.066-.2,4.133-.2,2.067-.025,4.13-.025,2.07.281,4.136.281,2.067-.2,4.133-.2,2.067.089,4.136.089,2.065-.267,4.126-.267,2.064.126,4.125.126,2.07.179,4.139.179,2.066.109,4.134.109,2.069-.17,4.135-.17,2.072-.058,4.145-.058,2.066-.035,4.136-.035,2.072.079,4.144.079,2.078-.107,4.153-.107,2.694-1.145,4.2.042c1.431,1.129-.233,1.677-.233,3.315s.353,1.638.353,3.278.113,1.633.113,3.268-.306,1.633-.306,3.269.241,1.64.241,3.28.048,1.635.048,3.273.008,1.638.008,3.277-.143,1.643-.143,3.283-.318,1.638-.318,3.278.467,1.642.467,3.285-.809,1.7-.378,3.31C2826,1545.376,2827.112,1545.8,2825.687,1546.946Z" transform="translate(-2684.64 -1506.984)" fill="none" stroke="#998863" stroke-linecap="round" stroke-linejoin="round" stroke-width="0.53"/>
        </g>
      </g>
    </g>
    <text id="INTERVIEW" transform="translate(47.922 33.11)" font-size="14" font-family="Lato-Heavy, Lato" font-weight="800" letter-spacing="0.1em"><tspan x="0" y="0">INTERVIEW</tspan></text>
    <g id="Group_6774" data-name="Group 6774" transform="translate(3.438 5.49)">
      <path id="Path_3964" data-name="Path 3964" d="M2677.163,1506.095h10.117" transform="translate(-2676.742 -1506.095)" fill="none" stroke="#998863" stroke-linecap="round" stroke-miterlimit="10" stroke-width="0.5"/>
      <path id="Path_3965" data-name="Path 3965" d="M2677.948,1507.907h10.118" transform="translate(-2675.701 -1503.692)" fill="none" stroke="#998863" stroke-linecap="round" stroke-miterlimit="10" stroke-width="0.5"/>
      <path id="Path_3966" data-name="Path 3966" d="M2678.794,1509.9h10.117" transform="translate(-2674.579 -1501.048)" fill="none" stroke="#998863" stroke-linecap="round" stroke-miterlimit="10" stroke-width="0.5"/>
      <g id="Group_6773" data-name="Group 6773" transform="translate(0 21.218)">
        <path id="Path_3967" data-name="Path 3967" d="M2689.213,1515.216H2679.1" transform="translate(-2674.178 -1515.216)" fill="none" stroke="#998863" stroke-linecap="round" stroke-miterlimit="10" stroke-width="0.5"/>
        <path id="Path_3968" data-name="Path 3968" d="M2688.99,1517.028h-11.1" transform="translate(-2675.78 -1512.813)" fill="none" stroke="#998863" stroke-linecap="round" stroke-miterlimit="10" stroke-width="0.5"/>
        <path id="Path_3969" data-name="Path 3969" d="M2688.223,1519.021h-11.241" transform="translate(-2676.982 -1510.169)" fill="none" stroke="#998863" stroke-linecap="round" stroke-miterlimit="10" stroke-width="0.5"/>
      </g>
    </g>
    <g id="Group_6776" data-name="Group 6776" transform="translate(141.798 5.49)">
      <path id="Path_3970" data-name="Path 3970" d="M2748.509,1506.095h-10.118" transform="translate(-2733.894 -1506.095)" fill="none" stroke="#998863" stroke-linecap="round" stroke-miterlimit="10" stroke-width="0.5"/>
      <path id="Path_3971" data-name="Path 3971" d="M2747.724,1507.907h-10.118" transform="translate(-2734.935 -1503.692)" fill="none" stroke="#998863" stroke-linecap="round" stroke-miterlimit="10" stroke-width="0.5"/>
      <path id="Path_3972" data-name="Path 3972" d="M2746.877,1509.9H2736.76" transform="translate(-2736.058 -1501.048)" fill="none" stroke="#998863" stroke-linecap="round" stroke-miterlimit="10" stroke-width="0.5"/>
      <g id="Group_6775" data-name="Group 6775" transform="translate(0 21.218)">
        <path id="Path_3973" data-name="Path 3973" d="M2736.458,1515.216h10.117" transform="translate(-2736.458 -1515.216)" fill="none" stroke="#998863" stroke-linecap="round" stroke-miterlimit="10" stroke-width="0.5"/>
        <path id="Path_3974" data-name="Path 3974" d="M2737.243,1517.028h11.1" transform="translate(-2735.417 -1512.813)" fill="none" stroke="#998863" stroke-linecap="round" stroke-miterlimit="10" stroke-width="0.5"/>
        <path id="Path_3975" data-name="Path 3975" d="M2738.089,1519.021h11.241" transform="translate(-2734.295 -1510.169)" fill="none" stroke="#998863" stroke-linecap="round" stroke-miterlimit="10" stroke-width="0.5"/>
      </g>
    </g>
  </g>
</svg>
