<svg xmlns="http://www.w3.org/2000/svg" width="120.281" height="36.443" viewBox="0 0 120.281 36.443">
  <g id="ribon_pickup" transform="translate(0.23 0.217)">
    <g id="Group_6772" data-name="Group 6772">
      <g id="Group_6771" data-name="Group 6771">
        <g id="Group_6766" data-name="Group 6766">
          <path id="Path_3954" data-name="Path 3954" d="M2706.077,1504.256c-1.264,0-1.264-.045-2.528-.045s-1.264.045-2.528.045l-2.523,0c-1.261,0-1.261-.091-2.522-.091s-1.265.08-2.53.08-1.264.005-2.526.005-1.265-.087-2.53-.087-1.267.01-2.531.01-1.265.067-2.53.067-1.266,0-2.534,0-1.269.038-2.539.038-1.9-1.157-2.573-.078c-.655,1.052.653,1.1,1.246,2.185s.589,1.092,1.182,2.183.52,1.133,1.112,2.223.677,1.045,1.269,2.136.573,1.1,1.165,2.193.615,1.085,1.209,2.179,1.2.962,1.149,2.206c-.057,1.343-.663,1.162-1.355,2.314s-.732,1.129-1.424,2.28-.691,1.153-1.381,2.3-.638,1.186-1.331,2.341-.693,1.155-1.386,2.31-2.075,1.113-1.453,2.31c.6,1.148,1.325-.017,2.62-.017s1.295-.044,2.591-.044,1.293.077,2.587.077,1.3.01,2.593.01,1.3-.023,2.6-.023,1.3-.047,2.6-.047" transform="translate(-2675.504 -1503.735)" fill="#ece5db"/>
          <path id="Path_3955" data-name="Path 3955" d="M2706.077,1504.256c-1.264,0-1.264-.045-2.528-.045s-1.264.045-2.528.045l-2.523,0c-1.261,0-1.261-.091-2.522-.091s-1.265.08-2.53.08-1.264.005-2.526.005-1.265-.087-2.53-.087-1.267.01-2.531.01-1.265.067-2.53.067-1.266,0-2.534,0-1.269.038-2.539.038-1.9-1.157-2.573-.078c-.655,1.052.653,1.1,1.246,2.185s.589,1.092,1.182,2.183.52,1.133,1.112,2.223.677,1.045,1.269,2.136.573,1.1,1.165,2.193.615,1.085,1.209,2.179,1.2.962,1.149,2.206c-.057,1.343-.663,1.162-1.355,2.314s-.732,1.129-1.424,2.28-.691,1.153-1.381,2.3-.638,1.186-1.331,2.341-.693,1.155-1.386,2.31-2.075,1.113-1.453,2.31c.6,1.148,1.325-.017,2.62-.017s1.295-.044,2.591-.044,1.293.077,2.587.077,1.3.01,2.593.01,1.3-.023,2.6-.023,1.3-.047,2.6-.047" transform="translate(-2675.504 -1503.735)" fill="none" stroke="#998863" stroke-linecap="round" stroke-linejoin="round" stroke-width="0.53"/>
        </g>
        <g id="Group_6767" data-name="Group 6767" transform="translate(89.312 0.004)">
          <path id="Path_3956" data-name="Path 3956" d="M2726.77,1504.249c1.265,0,1.265-.037,2.527-.037s1.265.007,2.528.007,1.261-.042,2.522-.042,1.262.01,2.523.01,1.265.057,2.53.057,1.263-.064,2.526-.064,1.265.087,2.53.087,1.267-.047,2.531-.047,1.264,0,2.529,0,1.267.016,2.534.016,1.268-.077,2.539-.077,1.829-1,2.5.082c.655,1.052-.547,1.068-1.139,2.157s-.57,1.1-1.162,2.194-.634,1.069-1.229,2.162-.536,1.118-1.13,2.209-.6,1.088-1.2,2.18-.634,1.073-1.23,2.167-1.2.946-1.146,2.192c.057,1.341.685,1.132,1.376,2.283s.613,1.2,1.307,2.352.76,1.11,1.451,2.262.7,1.15,1.39,2.3.619,1.2,1.312,2.355,2.016,1.066,1.4,2.263c-.6,1.148-1.255.041-2.549.041h-2.59c-1.293,0-1.293.038-2.587.038s-1.3-.1-2.593-.1-1.3.071-2.6.071-1.3-.005-2.6-.005" transform="translate(-2726.77 -1503.737)" fill="#ece5db"/>
          <path id="Path_3957" data-name="Path 3957" d="M2726.77,1504.249c1.265,0,1.265-.037,2.527-.037s1.265.007,2.528.007,1.261-.042,2.522-.042,1.262.01,2.523.01,1.265.057,2.53.057,1.263-.064,2.526-.064,1.265.087,2.53.087,1.267-.047,2.531-.047,1.264,0,2.529,0,1.267.016,2.534.016,1.268-.077,2.539-.077,1.829-1,2.5.082c.655,1.052-.547,1.068-1.139,2.157s-.57,1.1-1.162,2.194-.634,1.069-1.229,2.162-.536,1.118-1.13,2.209-.6,1.088-1.2,2.18-.634,1.073-1.23,2.167-1.2.946-1.146,2.192c.057,1.341.685,1.132,1.376,2.283s.613,1.2,1.307,2.352.76,1.11,1.451,2.262.7,1.15,1.39,2.3.619,1.2,1.312,2.355,2.016,1.066,1.4,2.263c-.6,1.148-1.255.041-2.549.041h-2.59c-1.293,0-1.293.038-2.587.038s-1.3-.1-2.593-.1-1.3.071-2.6.071-1.3-.005-2.6-.005" transform="translate(-2726.77 -1503.737)" fill="none" stroke="#998863" stroke-linecap="round" stroke-linejoin="round" stroke-width="0.53"/>
        </g>
        <g id="Group_6768" data-name="Group 6768" transform="translate(16.794 0.235)">
          <path id="Path_3958" data-name="Path 3958" d="M2685.144,1509.616c1.147-.458,1.147-.456,2.293-.915s1.161-.423,2.308-.883,1.129-.5,2.276-.957,1.151-.449,2.3-.909,1.146-.468,2.3-.93,1.332-1.671,2.3-.9c1.077.858.019,1.375.026,2.753s-.014,1.38-.007,2.758" transform="translate(-2685.144 -1503.87)" fill="#af977d"/>
          <path id="Path_3959" data-name="Path 3959" d="M2685.144,1509.616c1.147-.458,1.147-.456,2.293-.915s1.161-.423,2.308-.883,1.129-.5,2.276-.957,1.151-.449,2.3-.909,1.146-.468,2.3-.93,1.332-1.671,2.3-.9c1.077.858.019,1.375.026,2.753s-.014,1.38-.007,2.758" transform="translate(-2685.144 -1503.87)" fill="none" stroke="#998863" stroke-linecap="round" stroke-linejoin="round" stroke-width="0.53"/>
        </g>
        <g id="Group_6769" data-name="Group 6769" transform="translate(88.845 0.232)">
          <path id="Path_3960" data-name="Path 3960" d="M2740.862,1509.533c-1.156-.451-1.16-.439-2.317-.89s-1.15-.47-2.306-.921-1.166-.424-2.321-.873-1.157-.454-2.316-.906-1.151-.472-2.312-.924-1.354-1.686-2.311-.888c-1.084.906.014,1.4.023,2.812s-.032,1.413-.025,2.824" transform="translate(-2726.502 -1503.869)" fill="#af977d"/>
          <path id="Path_3961" data-name="Path 3961" d="M2740.862,1509.533c-1.156-.451-1.16-.439-2.317-.89s-1.15-.47-2.306-.921-1.166-.424-2.321-.873-1.157-.454-2.316-.906-1.151-.472-2.312-.924-1.354-1.686-2.311-.888c-1.084.906.014,1.4.023,2.812s-.032,1.413-.025,2.824" transform="translate(-2726.502 -1503.869)" fill="none" stroke="#998863" stroke-linecap="round" stroke-linejoin="round" stroke-width="0.53"/>
        </g>
        <g id="Group_6770" data-name="Group 6770" transform="translate(15.916 5.643)">
          <path id="Path_3962" data-name="Path 3962" d="M2772.388,1536.911c-.922.887-1.307.07-2.584.07s-1.28-.131-2.56-.131-1.28.089-2.561.089-1.282-.136-2.563-.136-1.286,0-2.572,0-1.283.185-2.565.185h-2.562c-1.283,0-1.283-.216-2.563-.216s-1.28.1-2.561.1-1.282.129-2.564.129-1.284-.223-2.568-.223-1.283-.03-2.57-.03-1.284.066-2.566.066-1.284.132-2.566.132-1.282-.242-2.566-.242-1.286.172-2.57.172-1.286.051-2.572.051-1.283-.065-2.568-.065-1.284.022-2.568.022-1.287-.162-2.573-.162-1.285.137-2.57.137-1.286.112-2.573.112-1.286-.263-2.572-.263-1.286.232-2.573.232-1.282.073-2.566.073-1.282-.2-2.566-.2-1.287.234-2.575.234-1.285-.324-2.571-.324-1.286.153-2.574.153h-2.576c-1.287,0-1.287.117-2.574.117s-1.29.042-2.58.042-1.291-.164-2.583-.164-1.564.807-2.5-.082c-.888-.845.052-1.139.052-2.366s.029-1.229.029-2.455-.219-1.223-.219-2.448.054-1.223.054-2.448-.142-1.228-.142-2.456.05-1.225.05-2.451.023-1.228.023-2.455.188-1.23.188-2.458-.119-1.226-.119-2.455,0-1.23,0-2.46.07-1.232.07-2.463-.95-1.6-.063-2.456c.92-.887,1.27.146,2.549.146s1.279-.017,2.558-.017,1.281.036,2.561.036,1.282-.324,2.566-.324,1.284.171,2.569.171l2.566,0c1.281,0,1.281.049,2.563.049s1.281.073,2.561.073,1.281-.249,2.562-.249,1.282-.037,2.564-.037,1.283.078,2.567.078,1.286.058,2.57.058,1.284.125,2.568.125,1.282-.057,2.564-.057,1.284.056,2.566.056,1.285-.042,2.571-.042,1.285-.075,2.57-.075,1.283-.029,2.567-.029,1.285.122,2.571.122,1.285-.148,2.571-.148,1.286-.019,2.57-.019,1.288.211,2.573.211,1.286-.153,2.571-.153,1.286.066,2.573.066,1.285-.2,2.567-.2,1.284.094,2.566.094,1.288.134,2.575.134,1.285.082,2.572.082,1.287-.127,2.573-.127,1.289-.044,2.579-.044,1.285-.026,2.573-.026,1.289.059,2.579.059,1.293-.08,2.584-.08,1.676-.857,2.611.031c.89.845-.145,1.256-.145,2.483s.219,1.226.219,2.455.07,1.223.07,2.448-.19,1.223-.19,2.448.15,1.229.15,2.457.03,1.225.03,2.451.006,1.226.006,2.454-.089,1.23-.089,2.458-.2,1.227-.2,2.455.291,1.23.291,2.46-.5,1.275-.235,2.479C2772.586,1535.736,2773.276,1536.056,2772.388,1536.911Z" transform="translate(-2684.557 -1506.976)" fill="#ece5db"/>
          <path id="Path_3963" data-name="Path 3963" d="M2772.388,1536.911c-.922.887-1.307.07-2.584.07s-1.28-.131-2.56-.131-1.28.089-2.561.089-1.282-.136-2.563-.136-1.286,0-2.572,0-1.283.185-2.565.185h-2.562c-1.283,0-1.283-.216-2.563-.216s-1.28.1-2.561.1-1.282.129-2.564.129-1.284-.223-2.568-.223-1.283-.03-2.57-.03-1.284.066-2.566.066-1.284.132-2.566.132-1.282-.242-2.566-.242-1.286.172-2.57.172-1.286.051-2.572.051-1.283-.065-2.568-.065-1.284.022-2.568.022-1.287-.162-2.573-.162-1.285.137-2.57.137-1.286.112-2.573.112-1.286-.263-2.572-.263-1.286.232-2.573.232-1.282.073-2.566.073-1.282-.2-2.566-.2-1.287.234-2.575.234-1.285-.324-2.571-.324-1.286.153-2.574.153h-2.576c-1.287,0-1.287.117-2.574.117s-1.29.042-2.58.042-1.291-.164-2.583-.164-1.564.807-2.5-.082c-.888-.845.052-1.139.052-2.366s.029-1.229.029-2.455-.219-1.223-.219-2.448.054-1.223.054-2.448-.142-1.228-.142-2.456.05-1.225.05-2.451.023-1.228.023-2.455.188-1.23.188-2.458-.119-1.226-.119-2.455,0-1.23,0-2.46.07-1.232.07-2.463-.95-1.6-.063-2.456c.92-.887,1.27.146,2.549.146s1.279-.017,2.558-.017,1.281.036,2.561.036,1.282-.324,2.566-.324,1.284.171,2.569.171l2.566,0c1.281,0,1.281.049,2.563.049s1.281.073,2.561.073,1.281-.249,2.562-.249,1.282-.037,2.564-.037,1.283.078,2.567.078,1.286.058,2.57.058,1.284.125,2.568.125,1.282-.057,2.564-.057,1.284.056,2.566.056,1.285-.042,2.571-.042,1.285-.075,2.57-.075,1.283-.029,2.567-.029,1.285.122,2.571.122,1.285-.148,2.571-.148,1.286-.019,2.57-.019,1.288.211,2.573.211,1.286-.153,2.571-.153,1.286.066,2.573.066,1.285-.2,2.567-.2,1.284.094,2.566.094,1.288.134,2.575.134,1.285.082,2.572.082,1.287-.127,2.573-.127,1.289-.044,2.579-.044,1.285-.026,2.573-.026,1.289.059,2.579.059,1.293-.08,2.584-.08,1.676-.857,2.611.031c.89.845-.145,1.256-.145,2.483s.219,1.226.219,2.455.07,1.223.07,2.448-.19,1.223-.19,2.448.15,1.229.15,2.457.03,1.225.03,2.451.006,1.226.006,2.454-.089,1.23-.089,2.458-.2,1.227-.2,2.455.291,1.23.291,2.46-.5,1.275-.235,2.479C2772.586,1535.736,2773.276,1536.056,2772.388,1536.911Z" transform="translate(-2684.64 -1506.968)" fill="none" stroke="#998863" stroke-linecap="round" stroke-linejoin="round" stroke-width="0.53"/>
        </g>
      </g>
    </g>
    <text id="PICK_UP" data-name="PICK UP" transform="translate(33 25.652)" font-size="12" font-family="Lato-Heavy, Lato" font-weight="800" letter-spacing="0.1em"><tspan x="0" y="0">PICK UP</tspan></text>
    <g id="Group_6774" data-name="Group 6774" transform="translate(2.575 4.111)">
      <path id="Path_3964" data-name="Path 3964" d="M2677.163,1506.095h7.577" transform="translate(-2676.848 -1506.095)" fill="none" stroke="#998863" stroke-linecap="round" stroke-miterlimit="10" stroke-width="0.5"/>
      <path id="Path_3965" data-name="Path 3965" d="M2677.948,1507.907h7.577" transform="translate(-2676.265 -1504.75)" fill="none" stroke="#998863" stroke-linecap="round" stroke-miterlimit="10" stroke-width="0.5"/>
      <path id="Path_3966" data-name="Path 3966" d="M2678.794,1509.9h7.577" transform="translate(-2675.637 -1503.271)" fill="none" stroke="#998863" stroke-linecap="round" stroke-miterlimit="10" stroke-width="0.5"/>
      <g id="Group_6773" data-name="Group 6773" transform="translate(0 15.89)">
        <path id="Path_3967" data-name="Path 3967" d="M2686.673,1515.216H2679.1" transform="translate(-2675.413 -1515.216)" fill="none" stroke="#998863" stroke-linecap="round" stroke-miterlimit="10" stroke-width="0.5"/>
        <path id="Path_3968" data-name="Path 3968" d="M2686.2,1517.028h-8.314" transform="translate(-2676.309 -1513.871)" fill="none" stroke="#998863" stroke-linecap="round" stroke-miterlimit="10" stroke-width="0.5"/>
        <path id="Path_3969" data-name="Path 3969" d="M2685.4,1519.021h-8.418" transform="translate(-2676.982 -1512.392)" fill="none" stroke="#998863" stroke-linecap="round" stroke-miterlimit="10" stroke-width="0.5"/>
      </g>
    </g>
    <g id="Group_6776" data-name="Group 6776" transform="translate(106.192 4.111)">
      <path id="Path_3970" data-name="Path 3970" d="M2745.969,1506.095h-7.577" transform="translate(-2735.024 -1506.095)" fill="none" stroke="#998863" stroke-linecap="round" stroke-miterlimit="10" stroke-width="0.5"/>
      <path id="Path_3971" data-name="Path 3971" d="M2745.183,1507.907h-7.577" transform="translate(-2735.606 -1504.75)" fill="none" stroke="#998863" stroke-linecap="round" stroke-miterlimit="10" stroke-width="0.5"/>
      <path id="Path_3972" data-name="Path 3972" d="M2744.337,1509.9h-7.577" transform="translate(-2736.234 -1503.271)" fill="none" stroke="#998863" stroke-linecap="round" stroke-miterlimit="10" stroke-width="0.5"/>
      <g id="Group_6775" data-name="Group 6775" transform="translate(0 15.89)">
        <path id="Path_3973" data-name="Path 3973" d="M2736.458,1515.216h7.576" transform="translate(-2736.458 -1515.216)" fill="none" stroke="#998863" stroke-linecap="round" stroke-miterlimit="10" stroke-width="0.5"/>
        <path id="Path_3974" data-name="Path 3974" d="M2737.243,1517.028h8.313" transform="translate(-2735.876 -1513.871)" fill="none" stroke="#998863" stroke-linecap="round" stroke-miterlimit="10" stroke-width="0.5"/>
        <path id="Path_3975" data-name="Path 3975" d="M2738.089,1519.021h8.418" transform="translate(-2735.247 -1512.392)" fill="none" stroke="#998863" stroke-linecap="round" stroke-miterlimit="10" stroke-width="0.5"/>
      </g>
    </g>
  </g>
</svg>
