<svg xmlns="http://www.w3.org/2000/svg" width="160.428" height="48.482" viewBox="0 0 160.428 48.482">
  <g id="グループ_6996" data-name="グループ 6996" transform="translate(-90.784 -1162.731)">
    <g id="グループ_6772" data-name="グループ 6772" transform="translate(91 1162.93)">
      <g id="グループ_6771" data-name="グループ 6771">
        <g id="グループ_6766" data-name="グループ 6766">
          <path id="パス_3954" data-name="パス 3954" d="M2716.328,1504.431c-1.688,0-1.688-.061-3.375-.061s-1.688.061-3.376.061-1.684,0-3.368,0-1.684-.121-3.368-.121-1.689.107-3.378.107-1.687.007-3.373.007-1.689-.116-3.378-.116-1.691.014-3.38.014-1.689.089-3.377.089-1.691,0-3.385,0-1.694.051-3.389.051-2.541-1.544-3.437-.1c-.875,1.405.872,1.464,1.664,2.918s.786,1.458,1.578,2.915.693,1.512,1.486,2.968.9,1.4,1.694,2.852.765,1.472,1.556,2.929.821,1.449,1.615,2.91,1.6,1.284,1.535,2.945c-.076,1.793-.886,1.552-1.81,3.089s-.978,1.507-1.9,3.045-.923,1.54-1.845,3.075-.852,1.584-1.777,3.126l-1.852,3.085c-.926,1.545-2.771,1.487-1.94,3.085.8,1.533,1.77-.023,3.5-.023s1.728-.058,3.459-.058,1.726.1,3.454.1,1.73.014,3.462.014,1.732-.03,3.466-.03,1.736-.062,3.468-.062" transform="translate(-2675.504 -1503.735)" fill="#ece5db"/>
          <path id="パス_3955" data-name="パス 3955" d="M2716.328,1504.431c-1.688,0-1.688-.061-3.375-.061s-1.688.061-3.376.061-1.684,0-3.368,0-1.684-.121-3.368-.121-1.689.107-3.378.107-1.687.007-3.373.007-1.689-.116-3.378-.116-1.691.014-3.38.014-1.689.089-3.377.089-1.691,0-3.385,0-1.694.051-3.389.051-2.541-1.544-3.437-.1c-.875,1.405.872,1.464,1.664,2.918s.786,1.458,1.578,2.915.693,1.512,1.486,2.968.9,1.4,1.694,2.852.765,1.472,1.556,2.929.821,1.449,1.615,2.91,1.6,1.284,1.535,2.945c-.076,1.793-.886,1.552-1.81,3.089s-.978,1.507-1.9,3.045-.923,1.54-1.845,3.075-.852,1.584-1.777,3.126l-1.852,3.085c-.926,1.545-2.771,1.487-1.94,3.085.8,1.533,1.77-.023,3.5-.023s1.728-.058,3.459-.058,1.726.1,3.454.1,1.73.014,3.462.014,1.732-.03,3.466-.03,1.736-.062,3.468-.062" transform="translate(-2675.504 -1503.735)" fill="none" stroke="#998863" stroke-linecap="round" stroke-linejoin="round" stroke-width="0.53"/>
        </g>
        <g id="グループ_6767" data-name="グループ 6767" transform="translate(119.259 0.005)">
          <path id="パス_3956" data-name="パス 3956" d="M2726.769,1504.421c1.689,0,1.689-.049,3.375-.049s1.689.01,3.376.01,1.685-.056,3.368-.056,1.685.014,3.368.014,1.689.077,3.378.077,1.687-.086,3.373-.086,1.69.116,3.378.116,1.691-.063,3.38-.063,1.689,0,3.378,0,1.691.021,3.385.021,1.693-.1,3.39-.1,2.443-1.331,3.338.109c.875,1.405-.731,1.426-1.521,2.88s-.761,1.473-1.552,2.929-.846,1.428-1.64,2.887-.716,1.494-1.51,2.95-.8,1.452-1.6,2.91-.847,1.433-1.643,2.894-1.6,1.263-1.531,2.927c.077,1.791.914,1.512,1.838,3.049s.819,1.6,1.745,3.141,1.014,1.482,1.938,3.02.93,1.535,1.856,3.078.826,1.6,1.752,3.145,2.691,1.424,1.864,3.022c-.8,1.533-1.676.055-3.4.055s-1.728,0-3.459,0-1.727.051-3.455.051-1.731-.13-3.461-.13-1.734.095-3.469.095-1.733-.007-3.466-.007" transform="translate(-2726.769 -1503.737)" fill="#ece5db"/>
          <path id="パス_3957" data-name="パス 3957" d="M2726.769,1504.421c1.689,0,1.689-.049,3.375-.049s1.689.01,3.376.01,1.685-.056,3.368-.056,1.685.014,3.368.014,1.689.077,3.378.077,1.687-.086,3.373-.086,1.69.116,3.378.116,1.691-.063,3.38-.063,1.689,0,3.378,0,1.691.021,3.385.021,1.693-.1,3.39-.1,2.443-1.331,3.338.109c.875,1.405-.731,1.426-1.521,2.88s-.761,1.473-1.552,2.929-.846,1.428-1.64,2.887-.716,1.494-1.51,2.95-.8,1.452-1.6,2.91-.847,1.433-1.643,2.894-1.6,1.263-1.531,2.927c.077,1.791.914,1.512,1.838,3.049s.819,1.6,1.745,3.141,1.014,1.482,1.938,3.02.93,1.535,1.856,3.078.826,1.6,1.752,3.145,2.691,1.424,1.864,3.022c-.8,1.533-1.676.055-3.4.055s-1.728,0-3.459,0-1.727.051-3.455.051-1.731-.13-3.461-.13-1.734.095-3.469.095-1.733-.007-3.466-.007" transform="translate(-2726.769 -1503.737)" fill="none" stroke="#998863" stroke-linecap="round" stroke-linejoin="round" stroke-width="0.53"/>
        </g>
        <g id="グループ_6768" data-name="グループ 6768" transform="translate(22.426 0.314)">
          <path id="パス_3958" data-name="パス 3958" d="M2685.144,1511.542c1.531-.612,1.531-.609,3.062-1.221s1.551-.565,3.082-1.179,1.507-.665,3.038-1.277,1.538-.6,3.071-1.215,1.531-.625,3.066-1.242,1.779-2.231,3.075-1.206c1.439,1.145.025,1.836.034,3.676s-.018,1.842-.009,3.682" transform="translate(-2685.144 -1503.87)" fill="#af977d"/>
          <path id="パス_3959" data-name="パス 3959" d="M2685.144,1511.542c1.531-.612,1.531-.609,3.062-1.221s1.551-.565,3.082-1.179,1.507-.665,3.038-1.277,1.538-.6,3.071-1.215,1.531-.625,3.066-1.242,1.779-2.231,3.075-1.206c1.439,1.145.025,1.836.034,3.676s-.018,1.842-.009,3.682" transform="translate(-2685.144 -1503.87)" fill="none" stroke="#998863" stroke-linecap="round" stroke-linejoin="round" stroke-width="0.53"/>
        </g>
        <g id="グループ_6769" data-name="グループ 6769" transform="translate(118.636 0.31)">
          <path id="パス_3960" data-name="パス 3960" d="M2745.677,1511.433c-1.544-.6-1.549-.586-3.094-1.189s-1.536-.628-3.08-1.231-1.557-.565-3.1-1.166-1.545-.607-3.092-1.209-1.537-.631-3.087-1.233-1.808-2.252-3.086-1.186c-1.448,1.209.019,1.868.031,3.755s-.044,1.886-.033,3.771" transform="translate(-2726.502 -1503.868)" fill="#af977d"/>
          <path id="パス_3961" data-name="パス 3961" d="M2745.677,1511.433c-1.544-.6-1.549-.586-3.094-1.189s-1.536-.628-3.08-1.231-1.557-.565-3.1-1.166-1.545-.607-3.092-1.209-1.537-.631-3.087-1.233-1.808-2.252-3.086-1.186c-1.448,1.209.019,1.868.031,3.755s-.044,1.886-.033,3.771" transform="translate(-2726.502 -1503.868)" fill="none" stroke="#998863" stroke-linecap="round" stroke-linejoin="round" stroke-width="0.53"/>
        </g>
        <g id="グループ_6770" data-name="グループ 6770" transform="translate(21.252 7.557)">
          <path id="パス_3962" data-name="パス 3962" d="M2801.811,1546.946c-1.231,1.184-1.745.093-3.45.093s-1.709-.175-3.417-.175-1.709.119-3.42.119-1.712-.181-3.424-.181-1.717,0-3.434,0-1.713.247-3.424.247h-3.422c-1.712,0-1.712-.289-3.422-.289s-1.71.14-3.42.14-1.712.172-3.424.172-1.715-.3-3.429-.3-1.714-.04-3.431-.04-1.714.089-3.427.089-1.714.177-3.427.177-1.712-.323-3.426-.323-1.717.23-3.431.23-1.717.068-3.434.068-1.714-.086-3.429-.086-1.715.03-3.429.03-1.719-.216-3.436-.216-1.716.183-3.431.183-1.717.149-3.436.149-1.718-.351-3.434-.351-1.717.309-3.435.309-1.712.1-3.427.1-1.712-.27-3.427-.27-1.719.312-3.438.312-1.717-.433-3.433-.433-1.717.2-3.437.2h-3.44c-1.719,0-1.719.156-3.436.156s-1.723.056-3.445.056-1.724-.219-3.45-.219-2.089,1.077-3.34-.109c-1.187-1.128.07-1.521.07-3.159s.04-1.641.04-3.278-.293-1.633-.293-3.268.073-1.633.073-3.268-.189-1.64-.189-3.28.067-1.635.067-3.273.031-1.64.031-3.278.251-1.642.251-3.283-.158-1.637-.158-3.278,0-1.642,0-3.285.093-1.645.093-3.29-1.269-2.138-.084-3.28c1.228-1.184,1.7.2,3.4.2s1.708-.023,3.416-.023,1.709.049,3.42.049,1.712-.433,3.427-.433,1.715.228,3.431.228,1.712,0,3.427,0,1.711.065,3.422.065,1.71.1,3.42.1,1.71-.333,3.42-.333,1.712-.049,3.425-.049,1.714.1,3.428.1,1.718.077,3.432.077,1.715.167,3.429.167,1.712-.077,3.424-.077,1.715.075,3.427.075,1.716-.056,3.433-.056,1.715-.1,3.432-.1,1.714-.039,3.428-.039,1.715.163,3.432.163,1.716-.2,3.433-.2,1.717-.025,3.431-.025,1.719.281,3.436.281,1.717-.2,3.433-.2,1.717.089,3.436.089,1.716-.267,3.427-.267,1.715.126,3.427.126,1.719.179,3.439.179,1.717.109,3.434.109,1.719-.17,3.435-.17,1.721-.058,3.443-.058,1.716-.035,3.436-.035,1.721.079,3.443.079,1.727-.107,3.45-.107,2.238-1.145,3.487.042c1.189,1.129-.193,1.677-.193,3.315s.293,1.638.293,3.278.094,1.633.094,3.268-.254,1.633-.254,3.269.2,1.64.2,3.28.04,1.635.04,3.273.007,1.638.007,3.277-.119,1.643-.119,3.283-.264,1.638-.264,3.278.388,1.642.388,3.285-.672,1.7-.314,3.31C2802.073,1545.376,2803,1545.8,2801.811,1546.946Z" transform="translate(-2684.598 -1506.984)" fill="#ece5db"/>
          <path id="パス_3963" data-name="パス 3963" d="M2801.811,1546.946c-1.231,1.184-1.745.093-3.45.093s-1.709-.175-3.417-.175-1.709.119-3.42.119-1.712-.181-3.424-.181-1.717,0-3.434,0-1.713.247-3.424.247h-3.422c-1.712,0-1.712-.289-3.422-.289s-1.71.14-3.42.14-1.712.172-3.424.172-1.715-.3-3.429-.3-1.714-.04-3.431-.04-1.714.089-3.427.089-1.714.177-3.427.177-1.712-.323-3.426-.323-1.717.23-3.431.23-1.717.068-3.434.068-1.714-.086-3.429-.086-1.715.03-3.429.03-1.719-.216-3.436-.216-1.716.183-3.431.183-1.717.149-3.436.149-1.718-.351-3.434-.351-1.717.309-3.435.309-1.712.1-3.427.1-1.712-.27-3.427-.27-1.719.312-3.438.312-1.717-.433-3.433-.433-1.717.2-3.437.2h-3.44c-1.719,0-1.719.156-3.436.156s-1.723.056-3.445.056-1.724-.219-3.45-.219-2.089,1.077-3.34-.109c-1.187-1.128.07-1.521.07-3.159s.04-1.641.04-3.278-.293-1.633-.293-3.268.073-1.633.073-3.268-.189-1.64-.189-3.28.067-1.635.067-3.273.031-1.64.031-3.278.251-1.642.251-3.283-.158-1.637-.158-3.278,0-1.642,0-3.285.093-1.645.093-3.29-1.269-2.138-.084-3.28c1.228-1.184,1.7.2,3.4.2s1.708-.023,3.416-.023,1.709.049,3.42.049,1.712-.433,3.427-.433,1.715.228,3.431.228,1.712,0,3.427,0,1.711.065,3.422.065,1.71.1,3.42.1,1.71-.333,3.42-.333,1.712-.049,3.425-.049,1.714.1,3.428.1,1.718.077,3.432.077,1.715.167,3.429.167,1.712-.077,3.424-.077,1.715.075,3.427.075,1.716-.056,3.433-.056,1.715-.1,3.432-.1,1.714-.039,3.428-.039,1.715.163,3.432.163,1.716-.2,3.433-.2,1.717-.025,3.431-.025,1.719.281,3.436.281,1.717-.2,3.433-.2,1.717.089,3.436.089,1.716-.267,3.427-.267,1.715.126,3.427.126,1.719.179,3.439.179,1.717.109,3.434.109,1.719-.17,3.435-.17,1.721-.058,3.443-.058,1.716-.035,3.436-.035,1.721.079,3.443.079,1.727-.107,3.45-.107,2.238-1.145,3.487.042c1.189,1.129-.193,1.677-.193,3.315s.293,1.638.293,3.278.094,1.633.094,3.268-.254,1.633-.254,3.269.2,1.64.2,3.28.04,1.635.04,3.273.007,1.638.007,3.277-.119,1.643-.119,3.283-.264,1.638-.264,3.278.388,1.642.388,3.285-.672,1.7-.314,3.31C2802.073,1545.376,2803,1545.8,2801.811,1546.946Z" transform="translate(-2684.64 -1506.984)" fill="none" stroke="#998863" stroke-linecap="round" stroke-linejoin="round" stroke-width="0.53"/>
        </g>
      </g>
    </g>
    <text id="PICK_UP" data-name="PICK UP" transform="translate(138.922 1196.039)" font-size="14" font-family="Lato-Heavy, Lato" font-weight="800" letter-spacing="0.1em"><tspan x="0" y="0">PICK UP</tspan></text>
    <g id="グループ_6774" data-name="グループ 6774" transform="translate(94.438 1168.422)">
      <path id="パス_3964" data-name="パス 3964" d="M2677.163,1506.095h10.117" transform="translate(-2676.742 -1506.095)" fill="none" stroke="#998863" stroke-linecap="round" stroke-miterlimit="10" stroke-width="0.5"/>
      <path id="パス_3965" data-name="パス 3965" d="M2677.948,1507.907h10.118" transform="translate(-2675.701 -1503.692)" fill="none" stroke="#998863" stroke-linecap="round" stroke-miterlimit="10" stroke-width="0.5"/>
      <path id="パス_3966" data-name="パス 3966" d="M2678.794,1509.9h10.117" transform="translate(-2674.579 -1501.048)" fill="none" stroke="#998863" stroke-linecap="round" stroke-miterlimit="10" stroke-width="0.5"/>
      <g id="グループ_6773" data-name="グループ 6773" transform="translate(0 21.218)">
        <path id="パス_3967" data-name="パス 3967" d="M2689.213,1515.216H2679.1" transform="translate(-2674.178 -1515.216)" fill="none" stroke="#998863" stroke-linecap="round" stroke-miterlimit="10" stroke-width="0.5"/>
        <path id="パス_3968" data-name="パス 3968" d="M2688.99,1517.028h-11.1" transform="translate(-2675.78 -1512.813)" fill="none" stroke="#998863" stroke-linecap="round" stroke-miterlimit="10" stroke-width="0.5"/>
        <path id="パス_3969" data-name="パス 3969" d="M2688.223,1519.021h-11.241" transform="translate(-2676.982 -1510.169)" fill="none" stroke="#998863" stroke-linecap="round" stroke-miterlimit="10" stroke-width="0.5"/>
      </g>
    </g>
    <g id="グループ_6776" data-name="グループ 6776" transform="translate(232.797 1168.422)">
      <path id="パス_3970" data-name="パス 3970" d="M2748.509,1506.095h-10.118" transform="translate(-2733.894 -1506.095)" fill="none" stroke="#998863" stroke-linecap="round" stroke-miterlimit="10" stroke-width="0.5"/>
      <path id="パス_3971" data-name="パス 3971" d="M2747.724,1507.907h-10.118" transform="translate(-2734.935 -1503.692)" fill="none" stroke="#998863" stroke-linecap="round" stroke-miterlimit="10" stroke-width="0.5"/>
      <path id="パス_3972" data-name="パス 3972" d="M2746.877,1509.9H2736.76" transform="translate(-2736.058 -1501.048)" fill="none" stroke="#998863" stroke-linecap="round" stroke-miterlimit="10" stroke-width="0.5"/>
      <g id="グループ_6775" data-name="グループ 6775" transform="translate(0 21.218)">
        <path id="パス_3973" data-name="パス 3973" d="M2736.458,1515.216h10.117" transform="translate(-2736.458 -1515.216)" fill="none" stroke="#998863" stroke-linecap="round" stroke-miterlimit="10" stroke-width="0.5"/>
        <path id="パス_3974" data-name="パス 3974" d="M2737.243,1517.028h11.1" transform="translate(-2735.417 -1512.813)" fill="none" stroke="#998863" stroke-linecap="round" stroke-miterlimit="10" stroke-width="0.5"/>
        <path id="パス_3975" data-name="パス 3975" d="M2738.089,1519.021h11.241" transform="translate(-2734.295 -1510.169)" fill="none" stroke="#998863" stroke-linecap="round" stroke-miterlimit="10" stroke-width="0.5"/>
      </g>
    </g>
  </g>
</svg>
