<svg xmlns="http://www.w3.org/2000/svg" xmlns:xlink="http://www.w3.org/1999/xlink" width="110.595" height="108.776" viewBox="0 0 110.595 108.776"><defs><linearGradient id="a" x1="0.232" y1="1.199" x2="0.932" y2="0.117" gradientUnits="objectBoundingBox"><stop offset="0" stop-color="#d19525"/><stop offset="1" stop-color="#ffcd49"/></linearGradient><linearGradient id="b" x1="0.62" y1="4.293" x2="0.457" y2="-0.866" gradientUnits="objectBoundingBox"><stop offset="0" stop-color="#ab7a1e"/><stop offset="1" stop-color="#f5c546"/></linearGradient></defs><g transform="translate(-3795.67 -571.467)"><path d="M3826.685,602.854c-1.923-.828.063,7.994,7.349,12.234,7.8,4.538,13.192,2.695,19.575,10.923" transform="translate(5.283 5.458)" fill="none" stroke="#999" stroke-linecap="round" stroke-miterlimit="10" stroke-width="1"/><path d="M3846.948,599.312c-.044-1.469,4.856-.261,5.281,7.683s3.263,10.5,6.667,13.475" transform="translate(8.933 4.757)" fill="none" stroke="#999" stroke-linecap="round" stroke-miterlimit="10" stroke-width="1"/><path d="M3894.851,670.058l-39.518-16.805L3879,629.581l16.806,39.518A.732.732,0,0,1,3894.851,670.058Z" transform="translate(10.394 10.124)" fill="url(#a)"/><g transform="translate(3818.608 638.268)"><path d="M3816.611,633.284c1.77.887,3.612-2.793,5.38-1.908l1.982.992c-1.77-.885-3.612,2.793-5.38,1.908Z" transform="translate(-3814.96 -627.855)" fill="#d66e7d"/><path d="M3815.2,628.357c1.768.885-.074,4.565,1.7,5.451l1.981.992c-1.768-.885.074-4.565-1.7-5.451Z" transform="translate(-3815.205 -628.357)" fill="#ff8195"/><path d="M3822.562,636.264c1.77.885,3.612-2.795,5.38-1.909l1.982.992c-1.77-.885-3.612,2.793-5.38,1.908Z" transform="translate(-3813.923 -627.336)" fill="#d66e7d"/><path d="M3821.156,631.336c1.768.885-.074,4.565,1.7,5.451l1.98.992c-1.768-.885.074-4.565-1.695-5.451Z" transform="translate(-3814.168 -627.838)" fill="#ff8195"/><path d="M3828.513,639.243c1.77.885,3.612-2.795,5.38-1.909l1.981.992c-1.769-.885-3.611,2.793-5.379,1.908Z" transform="translate(-3812.887 -626.817)" fill="#d66e7d"/><path d="M3827.105,634.315c1.77.887-.073,4.565,1.7,5.451l1.981.992c-1.769-.885.073-4.565-1.7-5.451Z" transform="translate(-3813.131 -627.319)" fill="#ff8195"/><path d="M3834.464,642.222c1.77.885,3.611-2.795,5.38-1.909l1.981.992c-1.768-.885-3.611,2.795-5.379,1.908Z" transform="translate(-3811.849 -626.298)" fill="#d66e7d"/><path d="M3833.056,637.294c1.77.887-.072,4.565,1.7,5.451l1.981.992c-1.768-.885.073-4.565-1.7-5.451Z" transform="translate(-3812.094 -626.8)" fill="#ff8195"/><path d="M3840.415,645.2c1.77.885,3.611-2.794,5.38-1.909l1.98.992c-1.768-.885-3.611,2.795-5.38,1.908Z" transform="translate(-3810.813 -625.779)" fill="#d66e7d"/><path d="M3839.008,640.273c1.77.887-.072,4.565,1.7,5.452l1.981.991c-1.768-.885.073-4.565-1.7-5.451Z" transform="translate(-3811.058 -626.281)" fill="#ff8195"/></g><ellipse cx="9.646" cy="11.819" rx="9.646" ry="11.819" transform="translate(3837.125 584.543) rotate(-26.313)" fill="#f09c9c"/><rect width="3.94" height="1.912" transform="translate(3854.33 602.017) rotate(-26.313)" fill="#999"/><path d="M3851.372,598.851l-4.821,2.384-.2-2.033,3.531-1.746Z" transform="translate(8.83 4.528)" fill="#f09c9c"/><g transform="translate(3802.85 575.287)"><ellipse cx="11.868" cy="14.541" rx="11.868" ry="14.541" transform="matrix(0.831, -0.556, 0.556, 0.831, 0, 13.197)" fill="#89d3ca"/><rect width="4.847" height="2.352" transform="matrix(0.831, -0.556, 0.556, 0.831, 23.782, 31.762)" fill="#999"/><path d="M3829.224,602.6l-5.5,3.679-.572-2.447,4.029-2.695Z" transform="translate(-3798.063 -570.117)" fill="#89d3ca"/></g><path d="M3871.378,612.369a4.956,4.956,0,0,1,0,7.009" transform="translate(13.19 7.126)" fill="none" stroke="#fcd746" stroke-miterlimit="10" stroke-width="1"/><path d="M3804.489,630.147a6.015,6.015,0,0,1,0-8.5" transform="translate(1.23 8.741)" fill="none" stroke="#fcd746" stroke-miterlimit="10" stroke-width="1"/><path d="M3857.881,623.387l3.556,2.037a.4.4,0,0,1-.017.7l-3.99,2.038a.4.4,0,0,1-.572-.393l.434-4.076A.4.4,0,0,1,3857.881,623.387Z" transform="translate(10.66 9.036)" fill="#ff6100"/><path d="M3868.624,606.979l2.549-.648a.254.254,0,0,1,.3.328l-.93,2.721a.253.253,0,0,1-.439.074l-1.619-2.073A.253.253,0,0,1,3868.624,606.979Z" transform="translate(12.676 6.072)" fill="#ff6100"/><g transform="translate(3845.508 632.975)"><line x2="0.96" y2="0.96" transform="translate(0.987 0.987)" fill="none" stroke="#89d9fe" stroke-linecap="round" stroke-miterlimit="10" stroke-width="1"/><line x2="0.96" y2="0.96" transform="translate(4.794 4.794)" fill="none" stroke="#89d9fe" stroke-linecap="round" stroke-miterlimit="10" stroke-width="1"/><line x2="1.358" transform="translate(0 3.371)" fill="none" stroke="#89d9fe" stroke-linecap="round" stroke-miterlimit="10" stroke-width="1"/><line x2="1.358" transform="translate(5.384 3.371)" fill="none" stroke="#89d9fe" stroke-linecap="round" stroke-miterlimit="10" stroke-width="1"/><line y1="0.96" x2="0.96" transform="translate(0.987 4.794)" fill="none" stroke="#89d9fe" stroke-linecap="round" stroke-miterlimit="10" stroke-width="1"/><line y1="0.96" x2="0.96" transform="translate(4.794 0.987)" fill="none" stroke="#89d9fe" stroke-linecap="round" stroke-miterlimit="10" stroke-width="1"/><line y1="1.358" transform="translate(3.371 5.384)" fill="none" stroke="#89d9fe" stroke-linecap="round" stroke-miterlimit="10" stroke-width="1"/><line y1="1.358" transform="translate(3.371)" fill="none" stroke="#89d9fe" stroke-linecap="round" stroke-miterlimit="10" stroke-width="1"/></g><g transform="translate(3854.583 615.216)"><line x2="0.614" y2="0.614" transform="translate(0.632 0.632)" fill="none" stroke="#ff6100" stroke-linecap="round" stroke-miterlimit="10" stroke-width="0.5"/><line x2="0.614" y2="0.614" transform="translate(3.068 3.068)" fill="none" stroke="#ff6100" stroke-linecap="round" stroke-miterlimit="10" stroke-width="0.5"/><line x2="0.869" transform="translate(0 2.157)" fill="none" stroke="#ff6100" stroke-linecap="round" stroke-miterlimit="10" stroke-width="0.5"/><line x2="0.869" transform="translate(3.445 2.157)" fill="none" stroke="#ff6100" stroke-linecap="round" stroke-miterlimit="10" stroke-width="0.5"/><line y1="0.614" x2="0.614" transform="translate(0.632 3.068)" fill="none" stroke="#ff6100" stroke-linecap="round" stroke-miterlimit="10" stroke-width="0.5"/><line y1="0.614" x2="0.614" transform="translate(3.068 0.632)" fill="none" stroke="#ff6100" stroke-linecap="round" stroke-miterlimit="10" stroke-width="0.5"/><line y1="0.869" transform="translate(2.157 3.445)" fill="none" stroke="#ff6100" stroke-linecap="round" stroke-miterlimit="10" stroke-width="0.5"/><line y1="0.869" transform="translate(2.157)" fill="none" stroke="#ff6100" stroke-linecap="round" stroke-miterlimit="10" stroke-width="0.5"/></g><g transform="translate(3833.623 660.7)" fill="none" stroke="#ff6100" stroke-linecap="round" stroke-miterlimit="10" stroke-width="1"><circle cx="2.787" cy="2.787" r="2.787" stroke="none"/><circle cx="2.787" cy="2.787" r="2.287" fill="none"/></g><rect width="4.059" height="4.059" transform="translate(3871.524 584.523) rotate(-45)" fill="#c9bc70"/><rect width="2.03" height="2.03" transform="translate(3819.568 654.165) rotate(-45)" fill="#c9bc70"/><rect width="2.628" height="2.628" transform="translate(3849.314 665.834) rotate(-45)" fill="#c9bc70"/><circle cx="1.229" cy="1.229" r="1.229" transform="translate(3826.557 654.509)" fill="#134951"/><circle cx="1.049" cy="1.049" r="1.049" transform="translate(3858.553 663.754)" fill="#134951"/><circle cx="1.049" cy="1.049" r="1.049" transform="translate(3835.18 584.209)" fill="#134951"/><circle cx="1.049" cy="1.049" r="1.049" transform="translate(3878.696 639.072)" fill="#134951"/><circle cx="1.229" cy="1.229" r="1.229" transform="translate(3855.11 644.947)" fill="#ff6100"/><circle cx="1.229" cy="1.229" r="1.229" transform="translate(3884.265 598.539)" fill="#134951"/><path d="M3802.067,610.271l4.312-4.31s19.577,9.594,33.075,23.093C3839.454,629.054,3818.045,614.96,3802.067,610.271Z" transform="translate(1.115 6.009)" fill="#ffc400"/><path d="M3810.316,621.626l2.372.44,1.214-2.178.252,2.45,2.372.439-2.216,1.075.252,2.45-1.622-1.786-2.215,1.074,1.213-2.178Z" transform="translate(2.552 8.435)" fill="#fcc6be"/><path d="M3836.521,572.5l1.047,1,1.272-.688-.625,1.3,1.048,1-1.434-.191-.624,1.3-.262-1.422-1.434-.191,1.271-.688Z" transform="translate(6.94 0.179)" fill="#fcc6be"/><g transform="translate(3860.529 571.467)"><path d="M3851.362,571.467l4.442,1.268a12.707,12.707,0,0,0,1.9,15.019S3848.824,582.89,3851.362,571.467Z" transform="translate(-3850.906 -571.467)" fill="#e52525"/><path d="M3856.658,585.306s10.47,7.72,9.518,17.134-1.375,18.932,5.817,27.6l-2.009,2.01s-6.294-9.75-5.553-21.153C3865.224,598.685,3864.166,592.6,3856.658,585.306Z" transform="translate(-3849.905 -569.056)" fill="#e52525"/></g><rect width="1.442" height="1.442" transform="translate(3832.934 620.097)" fill="#f5b9b9"/><path d="M3858.088,635.621c-1.4.983-1.521,1.443-.821,3.62a.052.052,0,0,1-.033.067.05.05,0,0,1-.063-.025c-1.137-1.983-1.56-2.205-3.229-1.832a.053.053,0,0,1-.063-.039.054.054,0,0,1,.021-.055c1.4-.982,1.522-1.443.822-3.62a.053.053,0,0,1,.033-.067.052.052,0,0,1,.063.025c1.137,1.984,1.56,2.205,3.228,1.832a.053.053,0,0,1,.063.04A.051.051,0,0,1,3858.088,635.621Z" transform="translate(10.142 10.836)" fill="#7498ae"/><path d="M3807.676,616.432c-.819,1.226-.773,1.633.467,3.164a.045.045,0,0,1-.006.065.046.046,0,0,1-.059,0c-1.531-1.24-1.94-1.287-3.165-.467a.044.044,0,0,1-.062-.012.047.047,0,0,1,0-.051c.82-1.225.773-1.633-.467-3.164a.046.046,0,0,1,.064-.064c1.531,1.24,1.94,1.287,3.165.467a.046.046,0,0,1,.063.012A.044.044,0,0,1,3807.676,616.432Z" transform="translate(1.517 7.739)" fill="#7498ae"/><path d="M3795.669,593.2a3.926,3.926,0,0,1,.086,4.391l3.1,1.033a5.073,5.073,0,0,0-.431-5.081Z" transform="translate(0 3.786)" fill="#7498ae"/><path d="M3808,635.277a2.591,2.591,0,0,1,1.282,2.6l2.142-.251a3.345,3.345,0,0,0-1.681-2.913Z" transform="translate(2.149 11.018)" fill="#7498ae"/><path d="M3823.142,576.435a3.926,3.926,0,0,0,4.338-.683l1.56,2.871a5.071,5.071,0,0,1-5.078.465Z" transform="translate(4.786 0.746)" fill="#f94b1b"/><path d="M3838.371,601.715a2.94,2.94,0,0,0,3.163.907l.151,2.444a3.8,3.8,0,0,1-3.595-1.289Z" transform="translate(7.391 5.27)" fill="#f94b1b"/><path d="M3828.732,628.531a2.941,2.941,0,0,0,3.163.908l.152,2.443a3.8,3.8,0,0,1-3.6-1.289Z" transform="translate(5.711 9.941)" fill="#f94b1b"/><g transform="translate(3872.453 642.402)"><path d="M3866.5,640.44l-5.437,15.021,3.938,1.675,8.621-23.819Z" transform="translate(-3861.06 -631.627)" fill="#d19524"/><path d="M3877.9,631.878l-9.656,27.423,3.941,1.676,8.194-23.271Z" transform="translate(-3859.808 -631.878)" fill="#d19524"/><path d="M3882.021,642.664l-6.5,18.39,3.94,1.676,5.036-14.246Z" transform="translate(-3858.542 -629.999)" fill="#d19524"/><path d="M3882.782,662.812l3.94,1.676,1.866-5.277-2.476-5.821Z" transform="translate(-3857.276 -628.13)" fill="#d19524"/></g><g transform="translate(3862.886 660.536) rotate(-45)" stroke="#d19524" stroke-miterlimit="10" stroke-width="0.5" fill="url(#b)"><ellipse cx="16.738" cy="4.051" rx="16.738" ry="4.051" stroke="none"/><ellipse cx="16.738" cy="4.051" rx="16.488" ry="3.801" fill="none"/></g><g transform="translate(3857.59 651.664)"><circle cx="1.124" cy="1.124" r="1.124" transform="translate(0 0.963)" fill="#e0e0e0"/><circle cx="1.124" cy="1.124" r="1.124" transform="translate(3.425 1.483)" fill="#e0e0e0"/><circle cx="1.494" cy="1.494" r="1.494" transform="translate(0.91 1.498)" fill="#e0e0e0"/><circle cx="1.494" cy="1.494" r="1.494" transform="translate(1.552)" fill="#e0e0e0"/></g><g transform="translate(3866.385 607.359)"><circle cx="1.504" cy="1.504" r="1.504" transform="translate(1.825)" fill="#e0e0e0"/><circle cx="1.504" cy="1.504" r="1.504" transform="translate(1.518 4.627)" fill="#e0e0e0"/><circle cx="2" cy="2" r="2" transform="translate(2.144 1.439)" fill="#e0e0e0"/><circle cx="2" cy="2" r="2" transform="translate(0 1.847)" fill="#e0e0e0"/></g></g></svg>