<svg xmlns="http://www.w3.org/2000/svg" width="225" height="143.502" viewBox="0 0 225 143.502"><path d="M286.667,358.549c-7.235-45.478-8.111-129.587-8.111-129.587l-.032-.284c-38.938,9.68-74.953,5.378-95,1.316,0,0,4.963,71.918-1.6,100.772q-2.866,12.6-6.728,24.956s52.367,17.518,111.466,2.827" transform="translate(-98.785 -222.114)" fill="#f4f4f4"/><path d="M286.667,358.549c-7.235-45.478-8.111-129.587-8.111-129.587l-.032-.284c-38.938,9.68-74.953,5.378-95,1.316,0,0,4.963,71.918-1.6,100.772q-2.866,12.6-6.728,24.956s52.367,17.518,111.466,2.827" transform="translate(-98.785 -222.114)" fill="none"/><path d="M231.761,385.086c23.405,2.269,27.511,1.777,46.955-.432l14.092-1.6" transform="translate(-116.033 -269.191)" fill="none" stroke="#c6c6c6" stroke-miterlimit="10" stroke-width="0.6"/><path d="M249.092,360.271c12.195.752,18.121.064,32.857-1.61l14.091-1.6" transform="translate(-121.318 -261.265)" fill="none" stroke="#c6c6c6" stroke-miterlimit="10" stroke-width="0.6"/><path d="M260.5,373.518c8.107.136,14.252-.571,25.92-1.9l6.1-.693" transform="translate(-124.798 -265.493)" fill="none" stroke="#c6c6c6" stroke-miterlimit="10" stroke-width="0.6"/><g transform="translate(118.384 52.806)"><path d="M269.542,295.208a3.471,3.471,0,0,1-6.942,0" transform="translate(-243.822 -295.208)" fill="none" stroke="#5b4c3f" stroke-linecap="round" stroke-miterlimit="10" stroke-width="1"/><path d="M242.525,295.208a3.471,3.471,0,0,1-6.942,0" transform="translate(-235.583 -295.208)" fill="none" stroke="#5b4c3f" stroke-linecap="round" stroke-miterlimit="10" stroke-width="1"/></g><g transform="translate(155.971 72.365)"><path d="M320.627,323.35s-.468,18.9-13.246,25.849" transform="translate(-295.065 -323.35)" fill="none" stroke="#939393" stroke-miterlimit="10" stroke-width="1"/><path d="M296.1,366.746c2.652-.787,7.223-4.482,6.436-7.134s-6.634-3.254-9.285-2.467a5.008,5.008,0,1,0,2.849,9.6Z" transform="translate(-289.661 -333.558)" fill="#c6c6c6"/></g><g transform="translate(86.718 72.365)"><path d="M190.024,323.35s.467,18.9,13.245,25.849" transform="translate(-190.024 -323.35)" fill="none" stroke="#939393" stroke-miterlimit="10" stroke-width="1"/><path d="M214.68,366.746c-2.651-.787-7.223-4.482-6.436-7.134s6.634-3.254,9.286-2.467a5.008,5.008,0,0,1-2.85,9.6Z" transform="translate(-195.553 -333.558)" fill="#c6c6c6"/></g><path d="M257.406,312.159c0,1.456-2.65,2.636-5.919,2.636s-5.918-1.18-5.918-2.636,2.65-3.611,5.918-3.611S257.406,310.7,257.406,312.159Z" transform="translate(-120.244 -246.471)" fill="#f28c8c"/><line x2="11.126" transform="translate(136.207 42.049)" fill="none" stroke="#5b4c3f" stroke-linecap="round" stroke-miterlimit="10" stroke-width="1"/><g transform="translate(34.592 8.328)"><path d="M115.254,269.111,131.273,232a1.2,1.2,0,0,1,2.255,0l15.9,37.164-17.093,9.92Z" transform="translate(-115.096 -231.217)" fill="#f9ebb2"/><g transform="translate(9.495)"><path d="M144.253,247.5,137.625,232a1.2,1.2,0,0,0-2.255,0l-6.682,15.48q3.8.378,7.741.392Q140.4,247.879,144.253,247.5Z" transform="translate(-128.688 -231.217)" fill="#7dc3ea"/></g><g transform="translate(0 37.894)"><path d="M149.2,380.943l-1.777-22.793a331.933,331.933,0,0,1,.51-57.5l1.424-14.857h-.083a78.835,78.835,0,0,1-34.088-.056L116.75,300.6a332.011,332.011,0,0,1,.32,57.5l-2.043,23.025a78.864,78.864,0,0,0,34.088.056Z" transform="translate(-115.027 -285.737)" fill="#abe1f4"/><path d="M149.2,380.943l-1.777-22.793a331.933,331.933,0,0,1,.51-57.5l1.424-14.857h-.083a78.835,78.835,0,0,1-34.088-.056L116.75,300.6a332.011,332.011,0,0,1,.32,57.5l-2.043,23.025a78.864,78.864,0,0,0,34.088.056Z" transform="translate(-115.027 -285.737)" fill="none"/><g transform="translate(15.688 38.215)"><path d="M157.12,340.718s-.06,7.044-6.082,14.089" transform="translate(-141.697 -340.718)" fill="none" stroke="#939393" stroke-miterlimit="10" stroke-width="1"/><path d="M143.222,366.533c1.964-.931,5.066-4.354,4.135-6.317s-5.545-1.725-7.509-.794a3.935,3.935,0,1,0,3.374,7.111Z" transform="translate(-137.598 -346.209)" fill="#c6c6c6"/></g><g transform="translate(3.477 38.264)"><path d="M120.029,340.789s.059,7.044,6.082,14.089" transform="translate(-120.029 -340.789)" fill="none" stroke="#939393" stroke-miterlimit="10" stroke-width="1"/><path d="M132.239,366.6c-1.964-.932-5.066-4.354-4.135-6.318s5.545-1.725,7.509-.793a3.935,3.935,0,1,1-3.374,7.111Z" transform="translate(-122.44 -346.28)" fill="#c6c6c6"/></g></g><path d="M141.583,329.02c0,.815-1.484,1.476-3.315,1.476s-3.315-.661-3.315-1.476S136.438,327,138.268,327,141.583,328.2,141.583,329.02Z" transform="translate(-121.103 -260.425)" fill="#f28c8c"/><g transform="translate(10.102 59.471)"><path d="M148.037,316.78a2.2,2.2,0,1,1-4.405,0" transform="translate(-133.852 -316.78)" fill="none" stroke="#5b4c3f" stroke-linecap="round" stroke-miterlimit="10" stroke-width="1"/><path d="M133.966,316.78a2.2,2.2,0,1,1-4.405,0" transform="translate(-129.561 -316.78)" fill="none" stroke="#5b4c3f" stroke-linecap="round" stroke-miterlimit="10" stroke-width="1"/></g><line x2="5.562" transform="translate(8.585 53.816)" fill="none" stroke="#5b4c3f" stroke-linecap="round" stroke-miterlimit="10" stroke-width="1"/></g><g transform="translate(0 24.031)"><path d="M83.606,271.3a9.543,9.543,0,0,1-5.337-17.455q-.441-.032-.891-.032A12.119,12.119,0,1,0,88.9,269.692,9.5,9.5,0,0,1,83.606,271.3Z" transform="translate(-65.259 -253.809)" fill="#f2e479"/></g><g transform="translate(209.187)"><path d="M373.464,232.125l7.679-12.89h-14.05v4.114H373.9l-7.679,12.89h15.814v-4.114Z" transform="translate(-366.225 -219.234)" fill="#6acc92"/></g><g transform="translate(191.507 15.667)"><path d="M353.952,241.775h-12.7v4.114h5.466l-5.926,9.947h13.03v-4.114h-5.791Z" transform="translate(-340.788 -241.775)" fill="#8fd1aa"/></g><g transform="translate(205.088 32.75)"><path d="M367.567,272.649l3.751-6.3H360.7v4.114h3.376l-3.751,6.3h11.138v-4.114Z" transform="translate(-360.328 -266.354)" fill="#afd8bf"/></g><circle cx="1.97" cy="1.97" r="1.97" transform="translate(16.622 55.994)" fill="#afd8bf"/><circle cx="1.478" cy="1.478" r="1.478" transform="translate(22.836 64.953)" fill="#afd8bf"/><circle cx="2.882" cy="2.882" r="2.882" transform="translate(189.688 46.781)" fill="#afd8bf"/><circle cx="1.921" cy="1.921" r="1.921" transform="translate(178.964 56.321)" fill="#afd8bf"/></svg>