<svg xmlns="http://www.w3.org/2000/svg" width="164.123" height="150" viewBox="0 0 164.123 150"><path d="M294.751,226l-2.947,2.932.2,2.6,38.825,38.511a7.025,7.025,0,0,1,5.161-3.021Z" transform="translate(-179.808 -186.374)" fill="#a9c3ea"/><path d="M294.751,226l-2.947,2.932.2,2.6,38.825,38.511a7.025,7.025,0,0,1,5.161-3.021Z" transform="translate(-179.806 -185.898)" fill="#a9c3ea"/><g transform="translate(94.499 93.626)"><line x2="2.651" y2="9.66" transform="translate(7.22 1.852)" fill="none" stroke="#edce1b" stroke-linecap="round" stroke-linejoin="round" stroke-width="1" stroke-dasharray="2"/><line x2="5.156" y2="7.763" transform="translate(13.968 0)" fill="#e595c5" stroke="#edce1b" stroke-linecap="round" stroke-linejoin="round" stroke-width="1"/><line y1="9.307" x2="0.471" transform="translate(0 3.704)" fill="#e595c5" stroke="#edce1b" stroke-linecap="round" stroke-linejoin="round" stroke-width="1"/></g><path d="M319.251,418.778c-3.058-4.76-10.279-7.611-16.046-7.611H270.35c-5.768,0-12.989,2.851-16.047,7.611l-.489.761H319.74Z" transform="translate(-161.609 -274.588)" fill="#cddcfe"/><path d="M319.528,429.073l-1.181-1.839H252.422l-1.182,1.839a2.084,2.084,0,0,0,1.753,3.211h64.781A2.084,2.084,0,0,0,319.528,429.073Z" transform="translate(-160.216 -282.283)" fill="#a9c3ea"/><path d="M346.211,329.973c-.174.013-.349.027-.526.027a7.011,7.011,0,0,1-4.947-2.036L310.71,371.315h6.429Z" transform="translate(-188.86 -234.735)" fill="#a9c3ea"/><ellipse cx="7.294" cy="7.294" rx="7.294" ry="7.294" transform="translate(149.534 80.923)" fill="#c3cfe2"/><circle cx="3.126" cy="3.126" r="3.126" transform="translate(153.702 85.091)" fill="#85a2cc"/><g transform="translate(0 11.78)"><path d="M216.934,302.8a2.9,2.9,0,1,1-2.9,2.9A2.9,2.9,0,0,1,216.934,302.8Z" transform="translate(-142.556 -234.465)" fill="#efb27f"/><path d="M161.908,188a19.06,19.06,0,0,0-26.773-11.09,15.264,15.264,0,0,0-17.918-1.287,18.83,18.83,0,0,0-10.772-3.959q-.428-.02-.862-.019a19.316,19.316,0,0,0-1.951.1,18.966,18.966,0,0,0-3.725.76q-.449.139-.887.3a19.055,19.055,0,0,0-12.369,20.341,19.19,19.19,0,0,0-7.095,6.873,18.945,18.945,0,0,0-2,4.632q-.174.617-.306,1.25a19.09,19.09,0,0,0,28.033,20.565,19.081,19.081,0,0,0,27.829-.8,18.994,18.994,0,0,0,6.952,2.885,5.13,5.13,0,1,0,7.393,0,19.1,19.1,0,0,0,15.1-15.395A13.125,13.125,0,0,0,161.908,188Z" transform="translate(-76.847 -171.642)" fill="#efb27f"/><g transform="translate(32.367 23.695)"><line x2="27.204" fill="none" stroke="#fff" stroke-linecap="round" stroke-miterlimit="10" stroke-width="2"/><line x2="27.204" transform="translate(0 13.792)" fill="none" stroke="#fff" stroke-linecap="round" stroke-miterlimit="10" stroke-width="2"/><line x2="27.204" transform="translate(0 6.896)" fill="none" stroke="#fff" stroke-linecap="round" stroke-miterlimit="10" stroke-width="2" stroke-dasharray="4"/></g></g><g transform="translate(59.789 15.689)"><path d="M227.954,282.615c-19.478-5.926-35.575-9.718-36.328-7.241s14.728,8.293,34.205,14.218,35.575,9.719,36.328,7.241h0C262.913,294.356,247.431,288.541,227.954,282.615Z" transform="translate(-191.599 -224.868)" fill="#a9c3ea"/><circle cx="11.276" cy="11.276" r="11.276" transform="translate(24.25 48.187)" fill="#f4d862"/><path d="M248.054,202.247l3.467-11.3a9.142,9.142,0,1,0-17.492-5.322L229.4,200.917l-19.912,8.693a32.045,32.045,0,0,0-17.837,20.042h0c.753-2.477,16.851,1.315,36.328,7.241s34.959,11.741,34.205,14.218h0a32.046,32.046,0,0,0-3.653-26.581l-10.294-16.115-1.4-2.195Z" transform="translate(-191.624 -179.145)" fill="#cddcfe"/><g transform="translate(30.539 39.704)"><path d="M254.325,255.594a2.948,2.948,0,1,0,1.5,3.878A2.934,2.934,0,0,0,254.325,255.594Z" transform="translate(-250.213 -255.348)" fill="#5b4c3f"/><path d="M254.207,256.723a1.042,1.042,0,1,0,.531,1.371A1.038,1.038,0,0,0,254.207,256.723Z" transform="translate(-251.43 -255.965)" fill="#fff"/><path d="M276.588,265.294a2.93,2.93,0,1,0,3.863-1.524A2.945,2.945,0,0,0,276.588,265.294Z" transform="translate(-262.727 -259.264)" fill="#5b4c3f"/><path d="M280.334,264.9a1.042,1.042,0,1,0,.531,1.371A1.038,1.038,0,0,0,280.334,264.9Z" transform="translate(-263.943 -259.881)" fill="#fff"/></g><g transform="translate(29.632 30.384)"><path d="M248.472,239.89c1.754-2.28,4.687-3.592,7.748-1.018" transform="translate(-248.472 -237.46)" fill="none" stroke="#5b4c3f" stroke-linecap="round" stroke-miterlimit="10" stroke-width="1"/><path d="M292.187,260.149c-.135-2.089-1.377-4.071-4.27-3.755" transform="translate(-267.365 -246.513)" fill="none" stroke="#5b4c3f" stroke-linecap="round" stroke-miterlimit="10" stroke-width="1"/></g></g><g transform="translate(60.026)"><path d="M194.647,196.548a3.813,3.813,0,1,1,4.757-2.472A3.631,3.631,0,0,1,194.647,196.548Z" transform="translate(-192.054 -168.218)" fill="#8fd1aa"/><path d="M207.024,164.078a7.205,7.205,0,0,0-3.637,4.335l-.229.713-5.3-1.707.291-1.048a9.218,9.218,0,0,1,4.371-5.5c1.762-1.109,3.212-2.049,3.649-3.4.449-1.394-.177-2.607-2.148-3.327a7.862,7.862,0,0,0-4.326-.073l.043-4.789a14.376,14.376,0,0,1,7.181.514c5.267,1.7,6.72,5.373,5.654,8.684C211.6,161.5,209.082,162.891,207.024,164.078Z" transform="translate(-194.832 -149.032)" fill="#8fd1aa"/></g><g transform="translate(73.434 12.614)"><path d="M218.569,202.326a2.839,2.839,0,1,1,3.99.11A2.7,2.7,0,0,1,218.569,202.326Z" transform="translate(-217.785 -184.877)" fill="#8fd1aa"/><path d="M233.9,185.513a5.362,5.362,0,0,0-3.934,1.508l-.407.381-2.836-3.029.568-.577a6.863,6.863,0,0,1,4.834-2c1.547-.085,2.831-.173,3.606-.9.8-.745.827-1.762-.195-2.942a5.851,5.851,0,0,0-2.79-1.611l1.758-3.1a10.708,10.708,0,0,1,4.489,2.931c2.816,3.007,2.432,5.926.541,7.7C237.806,185.488,235.668,185.485,233.9,185.513Z" transform="translate(-222.065 -173.242)" fill="#8fd1aa"/></g></svg>