<svg xmlns="http://www.w3.org/2000/svg" xmlns:xlink="http://www.w3.org/1999/xlink" width="130.822" height="150.333" viewBox="0 0 130.822 150.333">
  <defs>
    <linearGradient id="linear-gradient" x1="0.232" y1="1.199" x2="0.932" y2="0.117" gradientUnits="objectBoundingBox">
      <stop offset="0" stop-color="#d19525"/>
      <stop offset="1" stop-color="#ffcd49"/>
    </linearGradient>
    <linearGradient id="linear-gradient-2" x1="0.62" y1="4.293" x2="0.457" y2="-0.866" gradientUnits="objectBoundingBox">
      <stop offset="0" stop-color="#ab7a1e"/>
      <stop offset="1" stop-color="#f5c546"/>
    </linearGradient>
  </defs>
  <g id="Group_8656" data-name="Group 8656" transform="translate(-684 -415)">
    <g id="_00" data-name="00" transform="translate(684 415)">
      <path id="Path_4258" data-name="Path 4258" d="M3826.812,602.864c-2.275-.979.075,9.456,8.693,14.472,9.229,5.368,15.605,3.188,23.156,12.92" transform="translate(-3783.876 -559.278)" fill="none" stroke="#999" stroke-linecap="round" stroke-miterlimit="10" stroke-width="1"/>
      <path id="Path_4259" data-name="Path 4259" d="M3846.948,599.411c-.052-1.738,5.744-.308,6.247,9.088s3.86,12.416,7.887,15.94" transform="translate(-3775.726 -560.844)" fill="none" stroke="#999" stroke-linecap="round" stroke-miterlimit="10" stroke-width="1"/>
      <path id="多角形_28" data-name="多角形 28" d="M3902.079,677.462l-46.746-19.879,28-28,19.88,46.746A.866.866,0,0,1,3902.079,677.462Z" transform="translate(-3772.464 -548.861)" fill="url(#linear-gradient)"/>
      <g id="Group_7396" data-name="Group 7396" transform="translate(27.133 79.019)">
        <path id="Path_4260" data-name="Path 4260" d="M3816.611,633.658c2.093,1.049,4.273-3.3,6.364-2.257l2.344,1.174c-2.093-1.047-4.272,3.3-6.364,2.257Z" transform="translate(-3814.658 -627.237)" fill="#d66e7d"/>
        <path id="Path_4261" data-name="Path 4261" d="M3815.205,628.357c2.091,1.047-.087,5.4,2.005,6.448l2.343,1.174c-2.091-1.047.087-5.4-2.005-6.448Z" transform="translate(-3815.205 -628.357)" fill="#ff8195"/>
        <path id="Path_4262" data-name="Path 4262" d="M3822.562,636.638c2.094,1.047,4.272-3.306,6.364-2.259l2.345,1.174c-2.094-1.047-4.272,3.3-6.365,2.257Z" transform="translate(-3812.343 -626.078)" fill="#d66e7d"/>
        <path id="Path_4263" data-name="Path 4263" d="M3821.156,631.336c2.091,1.047-.087,5.4,2.006,6.448l2.343,1.174c-2.092-1.047.088-5.4-2-6.448Z" transform="translate(-3812.89 -627.198)" fill="#ff8195"/>
        <path id="Path_4264" data-name="Path 4264" d="M3828.513,639.617c2.093,1.047,4.272-3.306,6.365-2.259l2.343,1.174c-2.093-1.047-4.271,3.3-6.363,2.257Z" transform="translate(-3810.029 -624.919)" fill="#d66e7d"/>
        <path id="Path_4265" data-name="Path 4265" d="M3827.105,634.315c2.093,1.049-.086,5.4,2.007,6.448l2.343,1.174c-2.092-1.047.086-5.4-2.006-6.448Z" transform="translate(-3810.575 -626.039)" fill="#ff8195"/>
        <path id="Path_4266" data-name="Path 4266" d="M3834.464,642.6c2.093,1.047,4.271-3.306,6.364-2.259l2.344,1.174c-2.091-1.047-4.271,3.306-6.362,2.257Z" transform="translate(-3807.713 -623.76)" fill="#d66e7d"/>
        <path id="Path_4267" data-name="Path 4267" d="M3833.057,637.294c2.094,1.049-.085,5.4,2.007,6.448l2.343,1.174c-2.091-1.047.086-5.4-2.005-6.448Z" transform="translate(-3808.261 -624.881)" fill="#ff8195"/>
        <path id="Path_4268" data-name="Path 4268" d="M3840.415,645.575c2.094,1.047,4.271-3.306,6.365-2.258l2.342,1.174c-2.091-1.047-4.271,3.306-6.364,2.257Z" transform="translate(-3805.399 -622.602)" fill="#d66e7d"/>
        <path id="Path_4269" data-name="Path 4269" d="M3839.008,640.273c2.093,1.049-.085,5.4,2.007,6.449l2.343,1.172c-2.091-1.047.086-5.4-2.005-6.448Z" transform="translate(-3805.946 -623.722)" fill="#ff8195"/>
      </g>
      <ellipse id="Ellipse_2980" data-name="Ellipse 2980" cx="11.41" cy="13.98" rx="11.41" ry="13.98" transform="translate(49.038 15.468) rotate(-26.313)" fill="#f09c9c"/>
      <rect id="Rectangle_6043" data-name="Rectangle 6043" width="4.66" height="2.262" transform="translate(69.39 36.138) rotate(-26.313)" fill="#999"/>
      <path id="Path_4270" data-name="Path 4270" d="M3852.291,599.106l-5.7,2.82-.24-2.4,4.177-2.066Z" transform="translate(-3775.958 -561.358)" fill="#f09c9c"/>
      <g id="Group_7397" data-name="Group 7397" transform="translate(8.493 4.519)">
        <ellipse id="Ellipse_2981" data-name="Ellipse 2981" cx="14.038" cy="17.2" rx="14.038" ry="17.2" transform="matrix(0.831, -0.556, 0.556, 0.831, 0, 15.611)" fill="#89d3ca"/>
        <rect id="Rectangle_6044" data-name="Rectangle 6044" width="5.733" height="2.782" transform="matrix(0.831, -0.556, 0.556, 0.831, 28.131, 37.572)" fill="#999"/>
        <path id="Path_4271" data-name="Path 4271" d="M3830.335,602.871l-6.506,4.352-.677-2.895,4.766-3.188Z" transform="translate(-3793.474 -564.443)" fill="#89d3ca"/>
      </g>
      <path id="Path_4272" data-name="Path 4272" d="M3871.378,612.369a5.862,5.862,0,0,1,0,8.291" transform="translate(-3766.22 -555.557)" fill="none" stroke="#fcd746" stroke-miterlimit="10" stroke-width="1"/>
      <path id="Path_4273" data-name="Path 4273" d="M3804.811,631.7a7.114,7.114,0,0,1,0-10.06" transform="translate(-3792.925 -551.948)" fill="none" stroke="#fcd746" stroke-miterlimit="10" stroke-width="1"/>
      <path id="Path_4274" data-name="Path 4274" d="M3858.068,623.4l4.206,2.41a.468.468,0,0,1-.02.822l-4.72,2.411a.467.467,0,0,1-.677-.465l.513-4.821A.468.468,0,0,1,3858.068,623.4Z" transform="translate(-3771.871 -551.292)" fill="#ff6100"/>
      <path id="Path_4275" data-name="Path 4275" d="M3868.659,607.1l3.016-.767a.3.3,0,0,1,.358.388l-1.1,3.218a.3.3,0,0,1-.52.088l-1.915-2.452A.3.3,0,0,1,3868.659,607.1Z" transform="translate(-3767.367 -557.909)" fill="#ff6100"/>
      <g id="Group_7398" data-name="Group 7398" transform="translate(58.954 72.759)">
        <line id="Line_1775" data-name="Line 1775" x2="1.136" y2="1.136" transform="translate(1.168 1.168)" fill="none" stroke="#89d9fe" stroke-linecap="round" stroke-miterlimit="10" stroke-width="1"/>
        <line id="Line_1776" data-name="Line 1776" x2="1.136" y2="1.136" transform="translate(5.671 5.671)" fill="none" stroke="#89d9fe" stroke-linecap="round" stroke-miterlimit="10" stroke-width="1"/>
        <line id="Line_1777" data-name="Line 1777" x2="1.606" transform="translate(0 3.987)" fill="none" stroke="#89d9fe" stroke-linecap="round" stroke-miterlimit="10" stroke-width="1"/>
        <line id="Line_1778" data-name="Line 1778" x2="1.606" transform="translate(6.368 3.987)" fill="none" stroke="#89d9fe" stroke-linecap="round" stroke-miterlimit="10" stroke-width="1"/>
        <line id="Line_1779" data-name="Line 1779" y1="1.136" x2="1.136" transform="translate(1.168 5.671)" fill="none" stroke="#89d9fe" stroke-linecap="round" stroke-miterlimit="10" stroke-width="1"/>
        <line id="Line_1780" data-name="Line 1780" y1="1.136" x2="1.136" transform="translate(5.671 1.168)" fill="none" stroke="#89d9fe" stroke-linecap="round" stroke-miterlimit="10" stroke-width="1"/>
        <line id="Line_1781" data-name="Line 1781" y1="1.606" transform="translate(3.988 6.368)" fill="none" stroke="#89d9fe" stroke-linecap="round" stroke-miterlimit="10" stroke-width="1"/>
        <line id="Line_1782" data-name="Line 1782" y1="1.606" transform="translate(3.988)" fill="none" stroke="#89d9fe" stroke-linecap="round" stroke-miterlimit="10" stroke-width="1"/>
      </g>
      <g id="Group_7399" data-name="Group 7399" transform="translate(69.688 51.751)">
        <line id="Line_1783" data-name="Line 1783" x2="0.727" y2="0.727" transform="translate(0.747 0.747)" fill="none" stroke="#ff6100" stroke-linecap="round" stroke-miterlimit="10" stroke-width="0.5"/>
        <line id="Line_1784" data-name="Line 1784" x2="0.727" y2="0.727" transform="translate(3.629 3.629)" fill="none" stroke="#ff6100" stroke-linecap="round" stroke-miterlimit="10" stroke-width="0.5"/>
        <line id="Line_1785" data-name="Line 1785" x2="1.028" transform="translate(0 2.551)" fill="none" stroke="#ff6100" stroke-linecap="round" stroke-miterlimit="10" stroke-width="0.5"/>
        <line id="Line_1786" data-name="Line 1786" x2="1.028" transform="translate(4.075 2.551)" fill="none" stroke="#ff6100" stroke-linecap="round" stroke-miterlimit="10" stroke-width="0.5"/>
        <line id="Line_1787" data-name="Line 1787" y1="0.727" x2="0.727" transform="translate(0.747 3.629)" fill="none" stroke="#ff6100" stroke-linecap="round" stroke-miterlimit="10" stroke-width="0.5"/>
        <line id="Line_1788" data-name="Line 1788" y1="0.727" x2="0.727" transform="translate(3.629 0.747)" fill="none" stroke="#ff6100" stroke-linecap="round" stroke-miterlimit="10" stroke-width="0.5"/>
        <line id="Line_1789" data-name="Line 1789" y1="1.028" transform="translate(2.552 4.075)" fill="none" stroke="#ff6100" stroke-linecap="round" stroke-miterlimit="10" stroke-width="0.5"/>
        <line id="Line_1790" data-name="Line 1790" y1="1.028" transform="translate(2.552)" fill="none" stroke="#ff6100" stroke-linecap="round" stroke-miterlimit="10" stroke-width="0.5"/>
      </g>
      <g id="Ellipse_2982" data-name="Ellipse 2982" transform="translate(44.893 105.553)" fill="none" stroke="#ff6100" stroke-linecap="round" stroke-miterlimit="10" stroke-width="1">
        <ellipse cx="3.297" cy="3.297" rx="3.297" ry="3.297" stroke="none"/>
        <ellipse cx="3.297" cy="3.297" rx="2.797" ry="2.797" fill="none"/>
      </g>
      <rect id="Rectangle_6045" data-name="Rectangle 6045" width="4.801" height="4.801" transform="translate(89.727 15.444) rotate(-45)" fill="#c9bc70"/>
      <rect id="Rectangle_6046" data-name="Rectangle 6046" width="2.401" height="2.401" transform="translate(28.268 97.824) rotate(-45)" fill="#c9bc70"/>
      <rect id="Rectangle_6047" data-name="Rectangle 6047" width="3.108" height="3.108" transform="translate(63.454 111.627) rotate(-45)" fill="#c9bc70"/>
      <ellipse id="Ellipse_2983" data-name="Ellipse 2983" cx="1.454" cy="1.454" rx="1.454" ry="1.454" transform="translate(36.534 98.231)" fill="#134951"/>
      <ellipse id="Ellipse_2984" data-name="Ellipse 2984" cx="1.241" cy="1.241" rx="1.241" ry="1.241" transform="translate(74.385 109.167)" fill="#134951"/>
      <ellipse id="Ellipse_2985" data-name="Ellipse 2985" cx="1.241" cy="1.241" rx="1.241" ry="1.241" transform="translate(46.737 15.073)" fill="#134951"/>
      <ellipse id="Ellipse_2986" data-name="Ellipse 2986" cx="1.241" cy="1.241" rx="1.241" ry="1.241" transform="translate(98.211 79.971)" fill="#134951"/>
      <ellipse id="Ellipse_2987" data-name="Ellipse 2987" cx="1.454" cy="1.454" rx="1.454" ry="1.454" transform="translate(70.312 86.92)" fill="#ff6100"/>
      <ellipse id="Ellipse_2988" data-name="Ellipse 2988" cx="1.454" cy="1.454" rx="1.454" ry="1.454" transform="translate(104.799 32.024)" fill="#134951"/>
      <path id="Path_4276" data-name="Path 4276" d="M3802.068,611.06l5.1-5.1s23.158,11.349,39.125,27.317C3846.292,633.278,3820.968,616.606,3802.068,611.06Z" transform="translate(-3793.18 -558.049)" fill="#ffc400"/>
      <path id="Path_4277" data-name="Path 4277" d="M3810.316,621.944l2.806.52,1.436-2.577.3,2.9,2.805.52-2.621,1.271.3,2.9-1.919-2.112-2.621,1.271,1.436-2.577Z" transform="translate(-3789.973 -552.632)" fill="#fcc6be"/>
      <path id="Path_4278" data-name="Path 4278" d="M3836.706,572.5l1.239,1.179,1.5-.814-.739,1.543,1.24,1.179-1.7-.225-.738,1.543-.31-1.683-1.7-.226,1.5-.814Z" transform="translate(-3780.174 -571.066)" fill="#fcc6be"/>
      <g id="Group_7400" data-name="Group 7400" transform="translate(76.72)">
        <path id="Path_4279" data-name="Path 4279" d="M3851.446,571.467l5.254,1.5a15.032,15.032,0,0,0,2.251,17.767S3848.443,584.979,3851.446,571.467Z" transform="translate(-3850.906 -571.467)" fill="#e52525"/>
        <path id="Path_4280" data-name="Path 4280" d="M3856.658,585.306s12.385,9.132,11.258,20.268-1.626,22.394,6.881,32.654l-2.376,2.378s-7.445-11.534-6.568-25.022C3866.791,601.132,3865.54,593.938,3856.658,585.306Z" transform="translate(-3848.67 -566.084)" fill="#e52525"/>
      </g>
      <rect id="長方形_4780" data-name="長方形 4780" width="1.705" height="1.705" transform="translate(44.08 57.526)" fill="#f5b9b9"/>
      <path id="パス_2806" data-name="パス 2806" d="M3858.858,635.978c-1.656,1.163-1.8,1.707-.971,4.282a.061.061,0,0,1-.039.079.059.059,0,0,1-.074-.029c-1.345-2.346-1.845-2.609-3.819-2.167a.062.062,0,0,1-.075-.046.064.064,0,0,1,.025-.065c1.658-1.161,1.8-1.707.972-4.282a.062.062,0,0,1,.114-.05c1.345,2.347,1.845,2.608,3.818,2.167a.062.062,0,0,1,.074.047A.06.06,0,0,1,3858.858,635.978Z" transform="translate(-3773.028 -547.272)" fill="#7498ae"/>
      <path id="パス_2806-2" data-name="パス 2806" d="M3808.28,616.531c-.969,1.45-.915,1.932.553,3.743a.054.054,0,0,1-.007.076.054.054,0,0,1-.069,0c-1.811-1.467-2.3-1.522-3.744-.553a.053.053,0,0,1-.074-.014.057.057,0,0,1,0-.06c.97-1.449.915-1.932-.552-3.743a.054.054,0,0,1,.077-.076c1.811,1.467,2.295,1.522,3.743.553a.054.054,0,0,1,.074.014A.052.052,0,0,1,3808.28,616.531Z" transform="translate(-3792.285 -554.185)" fill="#7498ae"/>
      <path id="Path_4281" data-name="Path 4281" d="M3795.67,593.2a4.644,4.644,0,0,1,.1,5.195l3.667,1.222s1.629-3.26-.509-6.01Z" transform="translate(-3795.67 -563.015)" fill="#7498ae"/>
      <path id="Path_4282" data-name="Path 4282" d="M3808.005,635.38a3.065,3.065,0,0,1,1.517,3.074l2.533-.3a3.956,3.956,0,0,0-1.989-3.446Z" transform="translate(-3790.872 -546.866)" fill="#7498ae"/>
      <path id="Path_4283" data-name="Path 4283" d="M3823.142,576.56a4.644,4.644,0,0,0,5.132-.808l1.845,3.4s-2.924,2.175-6.006.55Z" transform="translate(-3784.985 -569.8)" fill="#f94b1b"/>
      <path id="Path_4284" data-name="Path 4284" d="M3838.422,601.715a3.479,3.479,0,0,0,3.742,1.073l.179,2.891a4.493,4.493,0,0,1-4.252-1.525Z" transform="translate(-3779.168 -559.701)" fill="#f94b1b"/>
      <path id="Path_4285" data-name="Path 4285" d="M3828.784,628.531a3.478,3.478,0,0,0,3.741,1.074l.18,2.89a4.5,4.5,0,0,1-4.255-1.525Z" transform="translate(-3782.919 -549.27)" fill="#f94b1b"/>
      <g id="Group_7402" data-name="Group 7402" transform="translate(90.825 83.909)">
        <g id="Group_7401" data-name="Group 7401">
          <path id="Path_4286" data-name="Path 4286" d="M3867.492,641.743l-6.432,17.768,4.659,1.982,10.2-28.176Z" transform="translate(-3861.06 -631.317)" fill="#d19524"/>
          <path id="Path_4287" data-name="Path 4287" d="M3879.668,631.878l-11.422,32.439,4.662,1.983,9.692-27.527Z" transform="translate(-3858.264 -631.878)" fill="#d19524"/>
          <path id="Path_4288" data-name="Path 4288" d="M3883.21,642.664l-7.69,21.754,4.661,1.982,5.958-16.851Z" transform="translate(-3855.436 -627.682)" fill="#d19524"/>
          <path id="Path_4289" data-name="Path 4289" d="M3882.782,664.535l4.661,1.983,2.207-6.243-2.928-6.885Z" transform="translate(-3852.612 -623.51)" fill="#d19524"/>
        </g>
      </g>
      <g id="Ellipse_2989" data-name="Ellipse 2989" transform="translate(79.509 105.361) rotate(-45)" stroke="#d19524" stroke-miterlimit="10" stroke-width="0.5" fill="url(#linear-gradient-2)">
        <ellipse cx="19.8" cy="4.792" rx="19.8" ry="4.792" stroke="none"/>
        <ellipse cx="19.8" cy="4.792" rx="19.55" ry="4.542" fill="none"/>
      </g>
      <g id="Group_7403" data-name="Group 7403" transform="translate(73.243 94.866)">
        <ellipse id="Ellipse_2990" data-name="Ellipse 2990" cx="1.329" cy="1.329" rx="1.329" ry="1.329" transform="translate(0 1.139)" fill="#e0e0e0"/>
        <ellipse id="Ellipse_2991" data-name="Ellipse 2991" cx="1.329" cy="1.329" rx="1.329" ry="1.329" transform="translate(4.051 1.755)" fill="#e0e0e0"/>
        <ellipse id="Ellipse_2992" data-name="Ellipse 2992" cx="1.767" cy="1.767" rx="1.767" ry="1.767" transform="translate(1.076 1.772)" fill="#e0e0e0"/>
        <ellipse id="Ellipse_2993" data-name="Ellipse 2993" cx="1.767" cy="1.767" rx="1.767" ry="1.767" transform="translate(1.836)" fill="#e0e0e0"/>
      </g>
      <g id="Group_7404" data-name="Group 7404" transform="translate(83.649 42.458)">
        <ellipse id="Ellipse_2994" data-name="Ellipse 2994" cx="1.78" cy="1.78" rx="1.78" ry="1.78" transform="translate(2.158)" fill="#e0e0e0"/>
        <ellipse id="Ellipse_2995" data-name="Ellipse 2995" cx="1.78" cy="1.78" rx="1.78" ry="1.78" transform="translate(1.796 5.474)" fill="#e0e0e0"/>
        <ellipse id="Ellipse_2996" data-name="Ellipse 2996" cx="2.366" cy="2.366" rx="2.366" ry="2.366" transform="translate(2.536 1.702)" fill="#e0e0e0"/>
        <ellipse id="Ellipse_2997" data-name="Ellipse 2997" cx="2.366" cy="2.366" rx="2.366" ry="2.366" transform="translate(0 2.184)" fill="#e0e0e0"/>
      </g>
    </g>
    <path id="Path_6760" data-name="Path 6760" d="M-46.068-.748a.349.349,0,0,1,.254.111l.69.748A3.788,3.788,0,0,1-46.533,1.2a4.854,4.854,0,0,1-2.007.377,4.743,4.743,0,0,1-1.883-.358,4.151,4.151,0,0,1-1.428-1A4.358,4.358,0,0,1-52.759-1.3a5.715,5.715,0,0,1-.316-1.932,5.379,5.379,0,0,1,.338-1.942,4.464,4.464,0,0,1,.953-1.519,4.314,4.314,0,0,1,1.467-.992,4.866,4.866,0,0,1,1.887-.355A4.634,4.634,0,0,1-46.6-7.7a4.348,4.348,0,0,1,1.356.885L-45.834-6a.531.531,0,0,1-.133.137.378.378,0,0,1-.224.059.429.429,0,0,1-.2-.055q-.1-.055-.228-.137t-.286-.179a2.357,2.357,0,0,0-.377-.179,3.08,3.08,0,0,0-.5-.137,3.438,3.438,0,0,0-.654-.055,2.9,2.9,0,0,0-1.155.224,2.509,2.509,0,0,0-.9.651,3,3,0,0,0-.586,1.041,4.362,4.362,0,0,0-.208,1.4,4.121,4.121,0,0,0,.224,1.412A3.1,3.1,0,0,0-50.453-.78a2.6,2.6,0,0,0,.9.647A2.8,2.8,0,0,0-48.43.091a4.874,4.874,0,0,0,.647-.039,2.748,2.748,0,0,0,.533-.124,2.368,2.368,0,0,0,.462-.218,2.886,2.886,0,0,0,.433-.329.617.617,0,0,1,.137-.094A.33.33,0,0,1-46.068-.748Zm10.917-2.485a5.259,5.259,0,0,1-.342,1.916A4.5,4.5,0,0,1-36.459.209a4.39,4.39,0,0,1-1.5,1.005,5.088,5.088,0,0,1-1.952.361,5.07,5.07,0,0,1-1.945-.361A4.424,4.424,0,0,1-43.365.209a4.514,4.514,0,0,1-.973-1.526,5.215,5.215,0,0,1-.345-1.916,5.215,5.215,0,0,1,.345-1.916,4.514,4.514,0,0,1,.973-1.526A4.424,4.424,0,0,1-41.859-7.68a5.07,5.07,0,0,1,1.945-.361,5.28,5.28,0,0,1,1.347.166,4.728,4.728,0,0,1,1.158.468,4.281,4.281,0,0,1,.947.735,4.469,4.469,0,0,1,.712.966A4.735,4.735,0,0,1-35.3-4.547,5.51,5.51,0,0,1-35.151-3.233Zm-1.789,0a4.318,4.318,0,0,0-.208-1.389,2.977,2.977,0,0,0-.592-1.044,2.535,2.535,0,0,0-.934-.657,3.212,3.212,0,0,0-1.239-.228,3.212,3.212,0,0,0-1.239.228,2.565,2.565,0,0,0-.937.657,2.95,2.95,0,0,0-.6,1.044,4.318,4.318,0,0,0-.208,1.389,4.318,4.318,0,0,0,.208,1.389A2.916,2.916,0,0,0-42.09-.8a2.583,2.583,0,0,0,.937.654,3.212,3.212,0,0,0,1.239.228,3.212,3.212,0,0,0,1.239-.228A2.553,2.553,0,0,0-37.74-.8a2.943,2.943,0,0,0,.592-1.041A4.318,4.318,0,0,0-36.94-3.233Zm11.262-4.7V1.471h-.9a.79.79,0,0,1-.348-.068.814.814,0,0,1-.27-.231L-32.106-5.1q.039.429.039.794V1.471h-1.542V-7.937h.917a1.636,1.636,0,0,1,.192.01.461.461,0,0,1,.143.039.469.469,0,0,1,.12.085,1.356,1.356,0,0,1,.13.146l4.932,6.3q-.02-.228-.033-.449t-.013-.41V-7.937Zm9.85,4.691V.56a4.986,4.986,0,0,1-1.526.771,5.983,5.983,0,0,1-1.734.244,5.786,5.786,0,0,1-2.085-.358,4.668,4.668,0,0,1-1.594-1A4.361,4.361,0,0,1-23.785-1.3a5.107,5.107,0,0,1-.358-1.932A5.314,5.314,0,0,1-23.8-5.178,4.389,4.389,0,0,1-22.819-6.7,4.371,4.371,0,0,1-21.28-7.69a5.567,5.567,0,0,1,2.03-.351,5.947,5.947,0,0,1,1.07.091,5.418,5.418,0,0,1,.924.25,4,4,0,0,1,.777.387,4.639,4.639,0,0,1,.644.5l-.5.794a.478.478,0,0,1-.306.231.547.547,0,0,1-.41-.094l-.429-.247a2.77,2.77,0,0,0-.478-.215,3.925,3.925,0,0,0-.592-.15,4.359,4.359,0,0,0-.758-.059,3.247,3.247,0,0,0-1.259.234,2.663,2.663,0,0,0-.96.67A3.021,3.021,0,0,0-22.139-4.6a4.1,4.1,0,0,0-.215,1.366,4.194,4.194,0,0,0,.231,1.441,3.032,3.032,0,0,0,.651,1.073,2.773,2.773,0,0,0,1.012.67A3.607,3.607,0,0,0-19.14.183a3.577,3.577,0,0,0,.93-.111,4.574,4.574,0,0,0,.8-.3v-1.7h-1.184a.356.356,0,0,1-.263-.094.314.314,0,0,1-.094-.231v-.989Zm4.535-.215a2.709,2.709,0,0,0,.862-.124,1.667,1.667,0,0,0,.605-.342,1.372,1.372,0,0,0,.355-.517A1.788,1.788,0,0,0-9.355-5.1a1.336,1.336,0,0,0-.472-1.1,2.256,2.256,0,0,0-1.441-.384h-1.119v3.123Zm4.5,4.932H-8.373a.693.693,0,0,1-.651-.351L-11-1.893a.694.694,0,0,0-.244-.241.855.855,0,0,0-.394-.072h-.748V1.471h-1.75V-7.937h2.869a5.965,5.965,0,0,1,1.643.2A3.143,3.143,0,0,1-8.5-7.182a2.176,2.176,0,0,1,.647.856,2.813,2.813,0,0,1,.208,1.1,2.841,2.841,0,0,1-.14.9,2.6,2.6,0,0,1-.4.768,2.718,2.718,0,0,1-.651.605,3.263,3.263,0,0,1-.882.41,1.711,1.711,0,0,1,.312.231A1.642,1.642,0,0,1-9.147-2ZM-.8-2.082-1.945-5.211q-.085-.208-.176-.494T-2.3-6.323q-.085.332-.176.621t-.176.5L-3.792-2.082Zm3.09,3.552H.937a.578.578,0,0,1-.371-.114.709.709,0,0,1-.215-.283l-.7-1.919h-3.9l-.7,1.919a.624.624,0,0,1-.2.273.563.563,0,0,1-.371.124H-6.889l3.7-9.408H-1.4ZM8.92-6.5H6.084v7.97H4.334V-6.5H1.5V-7.937H8.92ZM13.943.059A2.311,2.311,0,0,0,14.85-.11a1.86,1.86,0,0,0,.673-.475,2.1,2.1,0,0,0,.42-.742A3.054,3.054,0,0,0,16.09-2.3V-7.937h1.75V-2.3a4.344,4.344,0,0,1-.27,1.552A3.531,3.531,0,0,1,16.8.479a3.513,3.513,0,0,1-1.226.807,4.339,4.339,0,0,1-1.626.29,4.357,4.357,0,0,1-1.633-.29A3.513,3.513,0,0,1,11.083.479a3.531,3.531,0,0,1-.774-1.23,4.344,4.344,0,0,1-.27-1.552V-7.937h1.75v5.628a3.054,3.054,0,0,0,.146.976,2.108,2.108,0,0,0,.423.745,1.873,1.873,0,0,0,.677.478A2.311,2.311,0,0,0,13.943.059ZM25.328.026V1.471H19.818V-7.937h1.75V.026Zm6.22-2.108L30.4-5.211q-.085-.208-.176-.494t-.182-.618q-.085.332-.176.621t-.176.5L28.555-2.082Zm3.09,3.552H33.285a.578.578,0,0,1-.371-.114.709.709,0,0,1-.215-.283L32-.845H28.1l-.7,1.919a.624.624,0,0,1-.2.273.563.563,0,0,1-.371.124H25.458l3.7-9.408h1.783Zm6.63-7.97H38.431v7.97h-1.75V-6.5H33.845V-7.937h7.423Zm2.993,7.97H42.5V-7.937h1.757Zm11.073-4.7a5.259,5.259,0,0,1-.342,1.916A4.5,4.5,0,0,1,54.026.209a4.39,4.39,0,0,1-1.5,1.005,5.088,5.088,0,0,1-1.952.361,5.07,5.07,0,0,1-1.945-.361A4.424,4.424,0,0,1,47.12.209a4.514,4.514,0,0,1-.973-1.526A5.214,5.214,0,0,1,45.8-3.233a5.214,5.214,0,0,1,.345-1.916,4.514,4.514,0,0,1,.973-1.526A4.424,4.424,0,0,1,48.626-7.68a5.07,5.07,0,0,1,1.945-.361,5.28,5.28,0,0,1,1.347.166,4.728,4.728,0,0,1,1.158.468,4.281,4.281,0,0,1,.947.735,4.469,4.469,0,0,1,.712.966,4.735,4.735,0,0,1,.446,1.158A5.51,5.51,0,0,1,55.334-3.233Zm-1.789,0a4.318,4.318,0,0,0-.208-1.389,2.977,2.977,0,0,0-.592-1.044,2.535,2.535,0,0,0-.934-.657,3.212,3.212,0,0,0-1.239-.228,3.212,3.212,0,0,0-1.239.228,2.565,2.565,0,0,0-.937.657,2.95,2.95,0,0,0-.6,1.044,4.318,4.318,0,0,0-.208,1.389A4.318,4.318,0,0,0,47.8-1.844,2.916,2.916,0,0,0,48.4-.8a2.583,2.583,0,0,0,.937.654,3.212,3.212,0,0,0,1.239.228,3.212,3.212,0,0,0,1.239-.228A2.553,2.553,0,0,0,52.744-.8a2.943,2.943,0,0,0,.592-1.041A4.318,4.318,0,0,0,53.545-3.233Zm11.262-4.7V1.471h-.9A.79.79,0,0,1,63.56,1.4a.814.814,0,0,1-.27-.231L58.378-5.1q.039.429.039.794V1.471H56.876V-7.937h.917a1.636,1.636,0,0,1,.192.01.461.461,0,0,1,.143.039.469.469,0,0,1,.12.085,1.355,1.355,0,0,1,.13.146l4.932,6.3q-.02-.228-.033-.449t-.013-.41V-7.937Zm7.1,1.711a.6.6,0,0,1-.166.2.369.369,0,0,1-.218.062.562.562,0,0,1-.3-.1q-.159-.1-.381-.224a3.135,3.135,0,0,0-.517-.224,2.174,2.174,0,0,0-.7-.1A2.088,2.088,0,0,0,69-6.528a1.339,1.339,0,0,0-.459.244.975.975,0,0,0-.277.374,1.228,1.228,0,0,0-.091.478.831.831,0,0,0,.185.553,1.548,1.548,0,0,0,.491.377,4.559,4.559,0,0,0,.7.28q.39.124.8.263a7.538,7.538,0,0,1,.8.325,2.762,2.762,0,0,1,.7.468,2.123,2.123,0,0,1,.491.693,2.406,2.406,0,0,1,.185,1A3.243,3.243,0,0,1,72.3-.283a2.754,2.754,0,0,1-.638.969,3,3,0,0,1-1.025.651,3.772,3.772,0,0,1-1.386.237,4.468,4.468,0,0,1-.885-.088,4.658,4.658,0,0,1-.836-.25,4.479,4.479,0,0,1-.751-.39,3.623,3.623,0,0,1-.625-.507L66.667-.5a.549.549,0,0,1,.169-.153.426.426,0,0,1,.221-.062.621.621,0,0,1,.351.133q.189.133.449.3a3.534,3.534,0,0,0,.608.3A2.339,2.339,0,0,0,69.3.144,1.716,1.716,0,0,0,70.46-.211a1.273,1.273,0,0,0,.41-1.018.945.945,0,0,0-.185-.605,1.5,1.5,0,0,0-.491-.394,3.667,3.667,0,0,0-.7-.27q-.39-.111-.794-.241a6.845,6.845,0,0,1-.794-.312,2.571,2.571,0,0,1-.7-.475,2.161,2.161,0,0,1-.491-.732,2.789,2.789,0,0,1-.185-1.083,2.564,2.564,0,0,1,.2-1,2.587,2.587,0,0,1,.6-.865,2.916,2.916,0,0,1,.963-.605,3.536,3.536,0,0,1,1.314-.228,4.388,4.388,0,0,1,1.535.26,3.466,3.466,0,0,1,1.2.729Z" transform="translate(739.074 563.758)" fill="#f09c9c"/>
  </g>
</svg>