<svg xmlns="http://www.w3.org/2000/svg" width="147.862" height="150" viewBox="0 0 147.862 150"><g transform="translate(1.126)"><g transform="translate(0 0)"><path d="M656.005,221.373l-2.988,2.973.207,2.632,22.449,36.4a7.123,7.123,0,0,1,5.233-3.063Z" transform="translate(-555.121 -187.029)" fill="#a9c3ea"/><path d="M682.376,422.26c-3.1-4.825-10.422-7.717-16.27-7.717H632.795c-5.848,0-13.17,2.891-16.27,7.717l-.5.771h66.843Z" transform="translate(-537.674 -278.151)" fill="#cddcfe"/><path d="M682.7,432.474l-1.2-1.864H614.657l-1.2,1.864a2.113,2.113,0,0,0,1.778,3.256H680.92A2.113,2.113,0,0,0,682.7,432.474Z" transform="translate(-536.301 -285.73)" fill="#a9c3ea"/><path d="M691.475,320.369c-.177.013-.353.027-.534.027a7.108,7.108,0,0,1-5.016-2.064l-13,50.827h6.518Z" transform="translate(-564.512 -232.767)" fill="#a9c3ea"/><circle cx="7.396" cy="7.396" r="7.396" transform="translate(119.038 73.089)" fill="#c3cfe2"/><circle cx="3.17" cy="3.17" r="3.17" transform="translate(123.265 77.314)" fill="#85a2cc"/><g transform="translate(50.431)"><g transform="translate(0 0)"><path d="M576.529,193.533c-4.871-20.059-9.86-36.068-12.412-35.449s.355,17.134,5.226,37.193,9.86,36.068,12.412,35.449h0C584.307,230.107,581.4,213.593,576.529,193.533Z" transform="translate(-563.171 -157.167)" fill="#a9c3ea"/><circle cx="11.433" cy="11.433" r="11.433" transform="translate(0 25.095)" fill="#f4d862"/><path d="M617.972,192.39l11.65-2.8a9.269,9.269,0,0,0-4.374-18.014l-15.735,3.841-17.857-12.9a32.493,32.493,0,0,0-26.7-5.237h0c2.552-.62,7.541,15.389,12.412,35.449s7.778,36.574,5.226,37.193h0a32.493,32.493,0,0,0,21.321-16.9l8.76-17.3,1.193-2.356Z" transform="translate(-564.015 -156.363)" fill="#cddcfe"/><g transform="translate(22.063 23.092)"><path d="M610.888,202.684a2.989,2.989,0,1,0-2.61,3.312A2.974,2.974,0,0,0,610.888,202.684Zm-2.457.925a1.044,1.044,0,0,1-1.174-.916,1.074,1.074,0,0,1,.931-1.184,1.044,1.044,0,0,1,1.174.916A1.074,1.074,0,0,1,608.431,203.609Z" transform="translate(-604.933 -200.075)" fill="#5b4c3f"/><path d="M611.44,203.693a1.057,1.057,0,1,0-.923,1.171A1.052,1.052,0,0,0,611.44,203.693Z" transform="translate(-607.009 -201.347)" fill="#fff"/><path d="M613.813,226.751a2.971,2.971,0,1,0,3.323,2.586A2.985,2.985,0,0,0,613.813,226.751Zm.866,3.512a1.044,1.044,0,0,1-1.174-.916,1.074,1.074,0,0,1,.931-1.184,1.044,1.044,0,0,1,1.174.916A1.074,1.074,0,0,1,614.679,230.262Z" transform="translate(-607.88 -212.648)" fill="#5b4c3f"/><path d="M617.688,230.346a1.057,1.057,0,1,0-.923,1.171A1.052,1.052,0,0,0,617.688,230.346Z" transform="translate(-609.957 -213.92)" fill="#fff"/></g><path d="M636.076,221.275c2.665.914,4.375,4.881,1.081,8.61" transform="translate(-597.561 -186.983)" fill="none" stroke="#5b4c3f" stroke-linecap="round" stroke-miterlimit="10" stroke-width="1"/></g></g><g transform="translate(0 5.558)"><line x1="23.162" y2="14.033" transform="translate(26.497 61.227)" fill="none" stroke="#f2e479" stroke-linecap="round" stroke-miterlimit="10" stroke-width="2"/><line x1="24.861" y1="10.021" transform="translate(14.067)" fill="none" stroke="#f2e479" stroke-linecap="round" stroke-miterlimit="10" stroke-width="2"/><line x1="24.275" y1="3.766" transform="translate(10.542 18.774)" fill="none" stroke="#f09c9c" stroke-linecap="round" stroke-miterlimit="10" stroke-width="2" stroke-dasharray="4"/><line y1="8.022" x2="22.35" transform="translate(16.867 50.334)" fill="none" stroke="#f09c9c" stroke-linecap="round" stroke-miterlimit="10" stroke-width="2" stroke-dasharray="4"/><line x1="42.218" y2="5.772" transform="translate(0 36.439)" fill="none" stroke="#f2e479" stroke-linecap="round" stroke-miterlimit="10" stroke-width="2"/></g></g></g></svg>