<svg xmlns="http://www.w3.org/2000/svg" width="117.795" height="171.007" viewBox="0 0 117.795 171.007"><path d="M569.224,230l2.929,2.907-.2,2.574-41.7,24.228a6.983,6.983,0,0,0-5.13-3Z" transform="translate(-517.238 -183.476)" fill="#a9c3ea"/><g transform="translate(102.688 12.863)"><line y1="3.81" x2="9.195" transform="translate(2.668 8.636)" fill="none" stroke="#edce1b" stroke-linecap="round" stroke-linejoin="round" stroke-width="1" stroke-dasharray="2"/><line y1="0.695" x2="9.236" transform="translate(5.336 18.159)" fill="#e595c5" stroke="#edce1b" stroke-linecap="round" stroke-linejoin="round" stroke-width="1"/><line x1="7.011" y2="6.038" transform="translate(0)" fill="#e595c5" stroke="#edce1b" stroke-linecap="round" stroke-linejoin="round" stroke-width="1"/></g><path d="M522.9,306.942c.173.013.346.026.522.026a6.975,6.975,0,0,0,4.917-2.019l37.1,37.816h-6.39Z" transform="translate(-516.164 -219.701)" fill="#a9c3ea"/><g transform="translate(16.968 114.184)"><path d="M543.628,388.124c.992-5.521,6.534-10.879,11.827-13.072l12.223-5.064,5.9-2.445,12.032-4.986c5.294-2.193,13.009-2.329,17.63.866l.738.511-60.51,25.073Z" transform="translate(-543.052 -360.959)" fill="#cddcfe"/><path d="M542.7,393.922l.383-2.133,60.51-25.073,1.786,1.234a2.064,2.064,0,0,1-.385,3.607L545.53,396.2A2.07,2.07,0,0,1,542.7,393.922Z" transform="translate(-542.663 -363.742)" fill="#a9c3ea"/></g><ellipse cx="7.25" cy="7.233" rx="7.25" ry="7.233" transform="translate(0 73.047)" fill="#c3cfe2"/><ellipse cx="3.107" cy="3.1" rx="3.107" ry="3.1" transform="translate(4.143 77.18)" fill="#85a2cc"/><g transform="translate(26.08)"><path d="M668.861,176.492c-4.039-19.781-6.284-36.026-3.762-36.538s6.826,15.314,10.865,35.095,6.284,36.026,3.762,36.538h0C677.2,212.1,672.9,196.272,668.861,176.492Z" transform="translate(-610.297 -139.942)" fill="#a9c3ea"/><ellipse cx="11.207" cy="11.181" rx="11.207" ry="11.181" transform="translate(49.133 24.712)" fill="#f4d862"/><path d="M586.711,192.251l2.04,1.589,14.981,11.668a31.907,31.907,0,0,0,25.958,6.09h0c-2.522.513-6.826-15.314-10.865-35.095s-6.284-36.026-3.762-36.538h0a31.846,31.846,0,0,0-21.5,15.735L583.1,174.544l-15.561,3.143a9.065,9.065,0,1,0,3.627,17.764l11.5-2.367Z" transform="translate(-560.26 -139.953)" fill="#cddcfe"/><g transform="translate(40.967 29.387)"><path d="M643.215,202.489a2.906,2.906,0,1,0-3.7-1.847A2.908,2.908,0,0,0,643.215,202.489Zm-2.464-2.72a1.036,1.036,0,1,1,1.307.653A1.028,1.028,0,0,1,640.751,199.769Z" transform="translate(-639.372 -196.823)" fill="#5b4c3f"/><path d="M642.007,201.274a1.032,1.032,0,1,1,1.3.656A1.029,1.029,0,0,1,642.007,201.274Z" transform="translate(-640.618 -198.321)" fill="#fff"/><path d="M645.2,227.422a2.929,2.929,0,1,0,1.87-3.671A2.928,2.928,0,0,0,645.2,227.422Zm1.232-.873a1.035,1.035,0,1,1,1.307.653A1.027,1.027,0,0,1,646.429,226.549Z" transform="translate(-642.11 -209.768)" fill="#5b4c3f"/><path d="M647.685,228.054a1.032,1.032,0,1,1,1.3.656A1.031,1.031,0,0,1,647.685,228.054Z" transform="translate(-643.355 -211.266)" fill="#fff"/></g><path d="M631.176,232.228c-1.234-2.5-1.2-6.045,2.816-7.549" transform="translate(-594.109 -180.901)" fill="none" stroke="#5b4c3f" stroke-linecap="round" stroke-miterlimit="10" stroke-width="1"/></g><g transform="translate(45.229 138.549)"><line x2="10.452" y2="16.576" transform="translate(9.187 0.176)" fill="none" stroke="#f2e479" stroke-linecap="round" stroke-miterlimit="10" stroke-width="2" stroke-dasharray="4"/><g transform="translate(5.977)"><line x2="7.334" y2="9.158" transform="translate(10.259)" fill="none" stroke="#c9c9c9" stroke-linecap="round" stroke-linejoin="round" stroke-width="2"/><line x2="4.274" y2="11.079" transform="translate(0 6.439)" fill="none" stroke="#c9c9c9" stroke-linecap="round" stroke-linejoin="round" stroke-width="2"/></g><path d="M601.164,424.812a8.38,8.38,0,1,0,10.51,12.89A10.352,10.352,0,0,0,628.8,426.955a8.375,8.375,0,1,0-7.1-15.033" transform="translate(-597.239 -409.335)" fill="none" stroke="#c9c9c9" stroke-linecap="round" stroke-linejoin="round" stroke-width="2"/></g></svg>