<svg xmlns="http://www.w3.org/2000/svg" width="200" height="143.069" viewBox="0 0 200 143.069"><g transform="translate(0 0)"><g transform="translate(62.761 79.528)"><path d="M173.879,341.952,157.4,359.842s9.737,9.94,19.728,7.148" transform="translate(-157.4 -341.952)" fill="none" stroke="#939393" stroke-miterlimit="10" stroke-width="1"/><path d="M179.551,379.835,166.1,387.992a3.085,3.085,0,0,0,.725,5.592C171.172,394.9,177.071,393.742,179.551,379.835Z" transform="translate(-159.805 -354.576)" fill="#c6c6c6"/></g><g transform="translate(168.078 20.453)"><line y1="30.363" x2="15.011" transform="translate(0 8.491)" fill="none" stroke="#939393" stroke-miterlimit="10" stroke-width="1"/><path d="M341.981,260.351c-1.153,2.452-5.409,6.336-7.861,5.183s-2.174-6.908-1.02-9.361a4.907,4.907,0,0,1,8.881,4.178Z" transform="translate(-320.98 -253.353)" fill="#c6c6c6"/></g><path d="M282.413,342.974c-15.791-41.258-33.258-120.036-33.258-120.036l-.086-.26c-34.635,16.792-69.293,19.881-88.91,20.034,0,0,18.892,66.525,18.439,94.909q-.2,12.39-1.376,24.758s52.623,6.08,105.19-19.406" transform="translate(-95.559 -222.678)" fill="#f4f4f4"/><path d="M282.413,342.974c-15.791-41.258-33.258-120.036-33.258-120.036l-.086-.26c-34.635,16.792-69.293,19.881-88.91,20.034,0,0,18.892,66.525,18.439,94.909q-.2,12.39-1.376,24.758s52.623,6.08,105.19-19.406" transform="translate(-95.559 -222.678)" fill="none"/><path d="M235.839,388.6c22.418-2.5,26.175-3.777,43.99-9.7l12.911-4.291" transform="translate(-120.777 -273.307)" fill="none" stroke="#c6c6c6" stroke-miterlimit="10" stroke-width="0.6"/><path d="M247.784,362.092c11.6-1.707,17.023-3.526,30.523-8.013l12.911-4.291" transform="translate(-124.758 -265.035)" fill="none" stroke="#c6c6c6" stroke-miterlimit="10" stroke-width="0.6"/><path d="M261.623,374.2c7.637-1.476,13.265-3.357,23.955-6.91l5.593-1.859" transform="translate(-129.369 -270.248)" fill="none" stroke="#c6c6c6" stroke-miterlimit="10" stroke-width="0.6"/><line y1="0.247" x2="10.635" transform="translate(120.319 37.53)" fill="none" stroke="#5b4c3f" stroke-linecap="round" stroke-miterlimit="10" stroke-width="1"/><g transform="translate(109.71 59.445)"><path d="M244.473,311.869a1.7,1.7,0,0,1,2.034,1.7,9.7,9.7,0,0,1-18.54,3.885,1.7,1.7,0,0,1,1.181-2.372Z" transform="translate(-227.813 -311.832)" fill="#f28c8c"/></g><g transform="translate(103.97 47.856)"><path d="M246.635,299.894a4.136,4.136,0,1,1,7.85-2.61" transform="translate(-228.274 -294.452)" fill="none" stroke="#5b4c3f" stroke-linecap="round" stroke-miterlimit="10" stroke-width="1"/><path d="M219.416,306.832a4.136,4.136,0,0,1,7.851-2.609" transform="translate(-219.204 -296.764)" fill="none" stroke="#5b4c3f" stroke-linecap="round" stroke-miterlimit="10" stroke-width="1"/></g><g transform="translate(20.529 15.232)"><g transform="translate(0)"><path d="M126.531,278.306,148.1,246.085a1.153,1.153,0,0,1,2.126.4l8.529,37.826-17.851,6.383Z" transform="translate(-104.882 -245.523)" fill="#f9ebb2"/><g transform="translate(34.223)"><path d="M160.07,262.251l-3.556-15.77a1.153,1.153,0,0,0-2.126-.4l-9,13.441q3.523,1.02,7.236,1.717Q156.372,261.941,160.07,262.251Z" transform="translate(-145.389 -245.522)" fill="#7dc3ea"/></g><g transform="translate(0 31.843)"><g transform="translate(0 15.897)"><path d="M114.152,344.153s-10.937-2.037-13.663-12.658" transform="translate(-96.204 -321.911)" fill="none" stroke="#939393" stroke-miterlimit="10" stroke-width="1"/><path d="M94.065,321.054c.087,2.084,1.946,6.106,4.03,6.019s3.6-4.251,3.514-6.334a3.775,3.775,0,1,0-7.544.315Z" transform="translate(-94.062 -317.121)" fill="#c6c6c6"/></g><path d="M134.132,389.016l2.29-21.813a318.545,318.545,0,0,1,10.49-54.155l3.93-13.768-.079-.015a75.635,75.635,0,0,1-32.149-5.986l-1.109,14.292a318.468,318.468,0,0,1-9.707,54.3l-5.936,21.365a75.614,75.614,0,0,0,32.148,5.987Z" transform="translate(-96.661 -293.279)" fill="#abe1f4"/><path d="M144.55,339.863a.946.946,0,0,1,.7,1.306,4.971,4.971,0,0,1-9.5-1.77.947.947,0,0,1,1.122-.967Z" transform="translate(-107.951 -308.32)" fill="#f28c8c"/><g transform="translate(44.452 27.053)"><path d="M160.729,354.306s10.937,2.037,17.3-6.89" transform="translate(-160.729 -338.372)" fill="none" stroke="#939393" stroke-miterlimit="10" stroke-width="1"/><path d="M191.732,339.134c-.831,1.912-4.014,5-5.926,4.165s-1.83-5.262-1-7.174a3.775,3.775,0,1,1,6.925,3.009Z" transform="translate(-168.566 -333.853)" fill="#c6c6c6"/></g></g><g transform="translate(27.118 55.255)"><path d="M148.114,332.51a2,2,0,1,1,3.979.4" transform="translate(-139.192 -329.165)" fill="none" stroke="#5b4c3f" stroke-linecap="round" stroke-miterlimit="10" stroke-width="1"/><path d="M134.733,330.193a2,2,0,0,1,3.979.4" transform="translate(-134.733 -328.393)" fill="none" stroke="#5b4c3f" stroke-linecap="round" stroke-miterlimit="10" stroke-width="1"/></g></g><line y1="0.236" x2="5.197" transform="translate(26.241 50.263)" fill="none" stroke="#5b4c3f" stroke-linecap="round" stroke-miterlimit="10" stroke-width="1"/></g><g transform="translate(0 4.78)"><path d="M86.09,243.86c-4.9-2.364-8.855-8.919-11.222-13.817l-.094-.2-.093.194c-2.371,4.907-6.335,11.466-11.246,13.83l-.162.077h0l.187.089c4.9,2.367,8.86,8.925,11.226,13.829l.088.184.08-.168c2.368-4.917,6.336-11.484,11.252-13.853l.169-.081Z" transform="translate(-63.272 -229.847)" fill="#f2e479"/><path d="M106.345,281.108c-2.67-1.288-4.825-4.86-6.116-7.529l-.051-.107-.051.105c-1.292,2.674-3.453,6.249-6.128,7.537l-.089.042h0l.1.049c2.672,1.29,4.829,4.864,6.118,7.536l.048.1.043-.091c1.291-2.68,3.453-6.259,6.132-7.55l.092-.044Z" transform="translate(-73.482 -244.384)" fill="#efb27f"/></g><g transform="translate(175.663 71.505)"><path d="M337.893,340.265c3.617-1.746,6.538-6.584,8.285-10.2.023-.049.047-.1.069-.146.023.048.045.1.069.143,1.75,3.623,4.677,8.465,8.3,10.211l.12.057h0l-.138.066c-3.62,1.748-6.541,6.589-8.288,10.209l-.065.136-.059-.124c-1.749-3.629-4.677-8.479-8.307-10.227l-.125-.06Z" transform="translate(-330.402 -329.919)" fill="#f2e479"/><path d="M326.8,367.764c1.971-.951,3.563-3.589,4.515-5.559l.038-.079c.012.026.025.052.037.078.953,1.974,2.549,4.613,4.525,5.564l.065.031h0l-.075.036c-1.972.952-3.565,3.591-4.517,5.564l-.035.074-.032-.068c-.953-1.978-2.549-4.62-4.527-5.573l-.068-.033Z" transform="translate(-326.727 -340.651)" fill="#efb27f"/></g></g></svg>