<svg xmlns="http://www.w3.org/2000/svg" width="237.074" height="162.509" viewBox="0 0 237.074 162.509"><g transform="translate(2.125 2.509)"><g transform="translate(0 0)"><path d="M88.244,236.892s10.311-4.765-3.756-13.017c0,0,14.956-7.2,2.012-16.38,0,0,14.669-.651,13.162-12.933,0,0,11.651,9.718,17.366-5.133,0,0,5.144,10.6,15.045,3.539" transform="translate(-84.488 -189.428)" fill="none" stroke="#f2e479" stroke-linecap="round" stroke-miterlimit="10" stroke-width="2"/><circle cx="4.463" cy="4.463" r="4.463" transform="translate(5.356 63.366)" fill="none" stroke="#88b5e2" stroke-miterlimit="10" stroke-width="2"/><circle cx="1.902" cy="1.902" r="1.902" transform="translate(18.463 73.127)" fill="#b3d0e5"/><g transform="translate(77.507 10.687)"><path d="M301.153,354.669c7.338-43.843,32.356-121.09,32.356-121.09l.055-.27c-38.607-3.093-70.248-18.087-87.345-27.954,0,0-17.532,67.344-32.4,91.739q-6.49,10.647-13.819,20.776s42.55,32.107,101.149,36.8" transform="translate(-200.004 -205.355)" fill="#f4f4f4"/><path d="M301.153,354.669c7.338-43.843,32.356-121.09,32.356-121.09l.055-.27c-38.607-3.093-70.248-18.087-87.345-27.954,0,0-17.532,67.344-32.4,91.739q-6.49,10.647-13.819,20.776s42.55,32.107,101.149,36.8" transform="translate(-200.004 -205.355)" fill="none"/><path d="M261.733,366.871c20.723,9.262,24.634,10.07,43.107,14.013l13.39,2.865" transform="translate(-220.315 -258.502)" fill="none" stroke="#c6c6c6" stroke-miterlimit="10" stroke-width="0.6"/><path d="M285.891,349.344c10.929,4.432,16.568,5.62,30.567,8.613l13.39,2.86" transform="translate(-228.264 -252.733)" fill="none" stroke="#c6c6c6" stroke-miterlimit="10" stroke-width="0.6"/><path d="M292.582,365.273c7.379,2.614,13.219,3.852,24.305,6.219l5.8,1.243" transform="translate(-230.468 -257.975)" fill="none" stroke="#c6c6c6" stroke-miterlimit="10" stroke-width="0.6"/><g transform="translate(115.394 71.65)"><path d="M371.988,334.776s17.783,4.117,27.355-6.159" transform="translate(-371.988 -317.562)" fill="none" stroke="#939393" stroke-miterlimit="10" stroke-width="1"/><path d="M420.362,319.466c-1.375,2.287-5.931,5.67-8.215,4.3s-1.448-6.986-.073-9.275a4.834,4.834,0,0,1,8.288,4.978Z" transform="translate(-384.735 -312.142)" fill="#c6c6c6"/></g><path d="M296.988,285.289a5.764,5.764,0,0,1-2.463-5.647c.452-2.456,3.358-3.646,5.729-2.849a3.619,3.619,0,0,1,2.28,4.583,2.9,2.9,0,0,1-3.669,1.825,2.324,2.324,0,0,1-1.46-2.936,1.857,1.857,0,0,1,2.349-1.167" transform="translate(-231.081 -228.778)" fill="none" stroke="#5b4c3f" stroke-linecap="round" stroke-miterlimit="10" stroke-width="1"/><path d="M322.507,293.849a5.772,5.772,0,0,1-2.465-5.648c.455-2.456,3.361-3.646,5.73-2.851a3.618,3.618,0,0,1,2.282,4.583,2.9,2.9,0,0,1-3.667,1.828,2.317,2.317,0,0,1-1.46-2.933,1.849,1.849,0,0,1,2.344-1.167" transform="translate(-239.475 -231.597)" fill="none" stroke="#5b4c3f" stroke-linecap="round" stroke-miterlimit="10" stroke-width="1"/><path d="M343.4,274.869c-4.989.923-9.38-2.163-8.773-6.664" transform="translate(-244.284 -226.034)" fill="none" stroke="#5b4c3f" stroke-linecap="round" stroke-miterlimit="10" stroke-width="1"/><path d="M311.926,305.915c-.553,2.216-2.063,3.9-4.48,3.251-2.013-.535-3.365-2.326-5.346-2.922-2.227-.667-4.784,0-6.966-.829-5.6-2.107-3.815-8.252,1.574-8.313,2.872-.034,3.767,2.435,8.2,4.779C306.791,302.881,313.105,301.179,311.926,305.915Z" transform="translate(-230.177 -235.544)" fill="#f28c8c"/><g transform="translate(5.48 25.85)"><path d="M232.821,283.6s-16.668-7.438-18.112-21.406" transform="translate(-210.322 -249.908)" fill="none" stroke="#939393" stroke-miterlimit="10" stroke-width="1"/><path d="M208.2,248.2c-.283,2.655,1.309,8.1,3.966,8.384s5.362-4.7,5.647-7.356A4.834,4.834,0,0,0,208.2,248.2Z" transform="translate(-208.171 -243.882)" fill="#c6c6c6"/></g></g><g transform="translate(29.849 33.723)"><g transform="translate(0 0)"><g transform="translate(0 35.871)"><g transform="translate(0 25.226)"><path d="M131.494,338.121c1.976.708,6.431.5,7.138-1.48s-2.6-4.967-4.578-5.67a3.8,3.8,0,1,0-2.56,7.151Z" transform="translate(-128.974 -330.746)" fill="#c6c6c6"/><line x2="15.526" y2="5.555" transform="translate(9.657 5.895)" fill="none" stroke="#939393" stroke-miterlimit="10" stroke-width="1"/></g><g transform="translate(49.48)"><path d="M215.763,298.231c-.706,1.974-3.7,5.284-5.673,4.576s-2.189-5.161-1.48-7.135a3.8,3.8,0,1,1,7.153,2.559Z" transform="translate(-204.535 -293.15)" fill="#c6c6c6"/><line x1="5.555" y2="15.526" transform="translate(0 9.657)" fill="none" stroke="#939393" stroke-miterlimit="10" stroke-width="1"/></g></g><path d="M138.176,279.947l-1.339-39a1.16,1.16,0,0,1,1.969-.925L168.02,265.89,157.2,281.6Z" transform="translate(-131.559 -239.688)" fill="#f9ebb2"/><g transform="translate(5.273)"><path d="M150.986,250.807l-12.179-10.783a1.16,1.16,0,0,0-1.969.925l.559,16.268c2.316-.827,4.628-1.775,6.918-2.856A75.563,75.563,0,0,0,150.986,250.807Z" transform="translate(-136.833 -239.688)" fill="#7dc3ea"/></g><g transform="translate(6.616 26.204)"><path d="M207.815,361.834,196.854,342.68a320.589,320.589,0,0,1-23.288-50.388l-4.889-13.55-.073.032a76.13,76.13,0,0,1-29.77,14.02l7.5,12.323a320.5,320.5,0,0,1,24.014,50.045l7.721,20.936a76.15,76.15,0,0,0,29.771-14.02Z" transform="translate(-138.834 -278.742)" fill="#abe1f4"/><path d="M207.815,361.834,196.854,342.68a320.589,320.589,0,0,1-23.288-50.388l-4.889-13.55-.073.032a76.13,76.13,0,0,1-29.77,14.02l7.5,12.323a320.5,320.5,0,0,1,24.014,50.045l7.721,20.936a76.15,76.15,0,0,0,29.771-14.02Z" transform="translate(-138.834 -278.742)" fill="none"/></g></g><path d="M172.571,327.872c.2,1.517,2.5,1.218,3.463.027.747-.923,3.326-.932,4.105-1.423,1.958-1.245,1.426-4.087-1.156-3.459-1.494.363-1.231,1.234-3.262,2.641C174.858,326.259,172.263,325.5,172.571,327.872Z" transform="translate(-143.311 -267.078)" fill="#f28c8c"/><g transform="translate(24.557 48.136)"><g transform="translate(7.156)" fill="#fff" stroke="#5b4c3f" stroke-miterlimit="10" stroke-width="1"><ellipse cx="2.653" cy="2.653" rx="2.653" ry="2.653" stroke="none"/><ellipse cx="2.653" cy="2.653" rx="2.153" ry="2.153" fill="none"/></g><g transform="translate(0 4.608)" fill="#fff" stroke="#5b4c3f" stroke-miterlimit="10" stroke-width="1"><ellipse cx="1.823" cy="1.823" rx="1.823" ry="1.823" stroke="none"/><ellipse cx="1.823" cy="1.823" rx="1.323" ry="1.323" fill="none"/></g><g transform="translate(8.84 1.684)" fill="#5b4c3f" stroke="#5b4c3f" stroke-miterlimit="10" stroke-width="1"><ellipse cx="0.969" cy="0.969" rx="0.969" ry="0.969" stroke="none"/><ellipse cx="0.969" cy="0.969" rx="0.469" ry="0.469" fill="none"/></g></g><path d="M158.379,313c2.664-.258,4.615-2.207,3.782-4.473" transform="translate(-138.65 -262.338)" fill="none" stroke="#5b4c3f" stroke-linecap="round" stroke-miterlimit="10" stroke-width="1"/></g><g transform="translate(197.635 1.81)"><path d="M390.645,196.975c3.9-4.464,9.28-6.152,12-3.77s1.768,7.934-2.143,12.4c-3,3.431-14.754,10.987-20.036,14.3a.928.928,0,0,1-1.339-1.17C381.712,213.062,387.643,200.406,390.645,196.975Z" transform="translate(-379.044 -192.124)" fill="#88b5e2"/></g><g transform="translate(213.207 22.686)"><path d="M415.592,223.6c3.459-.939,6.73.009,7.306,2.12s-1.773,4.585-5.232,5.524c-2.659.722-11.1.59-14.868.489a.559.559,0,0,1-.279-1.035C405.714,228.707,412.933,224.323,415.592,223.6Z" transform="translate(-402.253 -223.239)" fill="none" stroke="#b3d0e5" stroke-miterlimit="10" stroke-width="2"/></g></g></g></svg>