<svg xmlns="http://www.w3.org/2000/svg" width="156.692" height="140" viewBox="0 0 156.692 140"><g transform="translate(0.001)"><g transform="translate(17.844)"><path d="M248.278,209.992l-3,2.986.207,2.643,34.753,36.026a7.151,7.151,0,0,1,5.256-3.075Z" transform="translate(-178.15 -185.601)" fill="#a9c3ea"/><g transform="translate(0 47.434)"><line x1="9.731" y2="3.056" transform="translate(1.892 6.931)" fill="none" stroke="#edce1b" stroke-linecap="round" stroke-linejoin="round" stroke-width="1" stroke-dasharray="2"/><line x1="7.707" y2="5.534" transform="translate(6.05 13.729)" fill="#e595c5" stroke="#edce1b" stroke-linecap="round" stroke-linejoin="round" stroke-width="1"/><line x2="9.487" y2="0.134" fill="#e595c5" stroke="#edce1b" stroke-linecap="round" stroke-linejoin="round" stroke-width="1"/></g><path d="M273.914,409.91c-3.114-4.845-10.466-7.749-16.338-7.749H224.125c-5.873,0-13.225,2.9-16.338,7.749l-.5.775h67.123Z" transform="translate(-160.313 -275.826)" fill="#cddcfe"/><path d="M274.248,420.1l-1.2-1.872H205.923l-1.2,1.872a2.122,2.122,0,0,0,1.785,3.269h65.958A2.122,2.122,0,0,0,274.248,420.1Z" transform="translate(-158.948 -283.37)" fill="#a9c3ea"/><path d="M295.552,308c-.177.013-.355.027-.536.027a7.138,7.138,0,0,1-5.037-2.073l-25.8,51.039h6.546Z" transform="translate(-187.026 -230.654)" fill="#a9c3ea"/><circle cx="7.427" cy="7.427" r="7.427" transform="translate(100.568 62.767)" fill="#c3cfe2"/><circle cx="3.183" cy="3.183" r="3.183" transform="translate(104.812 67.011)" fill="#85a2cc"/><g transform="translate(6.311)"><path d="M160,229.151c-14.657-14.657-27.3-25.779-29.165-23.914s9.257,14.507,23.914,29.165,27.3,25.779,29.165,23.915h0C185.782,256.451,174.66,243.809,160,229.151Z" transform="translate(-130.634 -183.273)" fill="#a9c3ea"/><circle cx="11.481" cy="11.481" r="11.481" transform="translate(16.322 35.542)" fill="#f4d862"/><path d="M194.822,188.39l8.529-8.487a9.308,9.308,0,1,0-13.163-13.163L178.7,178.255l-22.053-1.733a32.627,32.627,0,0,0-25.629,9.457h0c1.864-1.865,14.507,9.257,29.165,23.914s25.779,27.3,23.914,29.165h0a32.629,32.629,0,0,0,9.457-25.629l-1.526-19.41-.208-2.643Z" transform="translate(-130.815 -164.014)" fill="#cddcfe"/><g transform="translate(31.022 27.943)"><path d="M194.457,217.83a2.966,2.966,0,0,0-4.2-.486,3.049,3.049,0,0,0-.507,4.247,2.966,2.966,0,0,0,4.2.486A3.049,3.049,0,0,0,194.457,217.83Zm-1.623,2.065a1.049,1.049,0,0,1-1.485-.172,1.078,1.078,0,0,1,.179-1.5,1.049,1.049,0,0,1,1.485.172A1.078,1.078,0,0,1,192.834,219.895Z" transform="translate(-189.111 -216.687)" fill="#5b4c3f"/><path d="M194.794,219.546a1.049,1.049,0,0,0-1.485-.172,1.078,1.078,0,0,0-.179,1.5,1.049,1.049,0,0,0,1.485.172A1.078,1.078,0,0,0,194.794,219.546Z" transform="translate(-190.892 -217.84)" fill="#fff"/><path d="M209.459,236.853a3.049,3.049,0,0,0-.507,4.247,2.965,2.965,0,0,0,4.2.486,3.048,3.048,0,0,0,.508-4.247A2.966,2.966,0,0,0,209.459,236.853Zm2.578,2.552a1.049,1.049,0,0,1-1.485-.172,1.078,1.078,0,0,1,.179-1.5,1.049,1.049,0,0,1,1.485.172A1.078,1.078,0,0,1,212.037,239.406Z" transform="translate(-198.127 -225.847)" fill="#5b4c3f"/><path d="M214,239.057a1.049,1.049,0,0,0-1.485-.172,1.078,1.078,0,0,0-.179,1.5,1.049,1.049,0,0,0,1.485.172A1.078,1.078,0,0,0,214,239.057Z" transform="translate(-199.908 -227)" fill="#fff"/></g><path d="M225.84,233.4c0-2.858-1.639-6.112-6.015-5.677" transform="translate(-172.51 -193.909)" fill="none" stroke="#5b4c3f" stroke-linecap="round" stroke-miterlimit="10" stroke-width="1"/></g><g transform="translate(6.311)"><path d="M160,229.151c-14.657-14.657-27.3-25.779-29.165-23.914s9.257,14.507,23.914,29.165,27.3,25.779,29.165,23.915h0C185.782,256.451,174.66,243.809,160,229.151Z" transform="translate(-130.634 -183.273)" fill="#a9c3ea"/><circle cx="11.481" cy="11.481" r="11.481" transform="translate(16.322 35.542)" fill="#f4d862"/><path d="M194.822,188.39l8.529-8.487a9.308,9.308,0,1,0-13.163-13.163L178.7,178.255l-22.053-1.733a32.627,32.627,0,0,0-25.629,9.457h0c1.864-1.865,14.507,9.257,29.165,23.914s25.779,27.3,23.914,29.165h0a32.629,32.629,0,0,0,9.457-25.629l-1.526-19.41-.208-2.643Z" transform="translate(-130.815 -164.014)" fill="#cddcfe"/><g transform="translate(30.028 27.819)"><g transform="translate(10.932 10.932)"><path d="M207.845,238.166a3.793,3.793,0,0,1,5.364,5.364" transform="translate(-207.845 -237.061)" fill="none" stroke="#5b4c3f" stroke-linecap="round" stroke-miterlimit="10" stroke-width="1"/></g><path d="M187.237,217.559a3.793,3.793,0,0,1,5.364,5.364" transform="translate(-187.237 -216.454)" fill="none" stroke="#5b4c3f" stroke-linecap="round" stroke-miterlimit="10" stroke-width="1"/></g><line x2="6.592" y2="2.789" transform="translate(48.311 33.179)" fill="none" stroke="#5b4c3f" stroke-linecap="round" stroke-miterlimit="10" stroke-width="1"/></g></g><g transform="translate(10.016 93.184)"><path d="M125.732,346.707a5.271,5.271,0,0,0-4.885.772,5.36,5.36,0,1,0-8.974.867,5.224,5.224,0,1,0,.219,8.847,5.64,5.64,0,1,0,10.242-.5,5.276,5.276,0,0,0,3.4-9.99ZM114.1,354.673a5.225,5.225,0,0,0-.773-5.053,5.358,5.358,0,0,0,6.009-.335,5.2,5.2,0,0,0-.059,4.719A5.637,5.637,0,0,0,114.1,354.673Z" transform="translate(-103.981 -339.669)" fill="#f09c9c"/><circle cx="4.002" cy="4.002" r="4.002" transform="translate(8.569 8.613)" fill="#f2e479"/></g><g transform="translate(123.091 24.312)"><path d="M335.382,215.885a4.341,4.341,0,0,0-4.1.663,4.682,4.682,0,0,0-.819-5.357,4.427,4.427,0,0,0-6.361,0,4.679,4.679,0,0,0-.349,6.1,4.308,4.308,0,0,0-5.337.681,4.559,4.559,0,0,0,0,6.344,4.312,4.312,0,0,0,5.521.569,4.894,4.894,0,0,0,2.139,6.06,4.679,4.679,0,0,0,6.414-1.955,4.934,4.934,0,0,0,.039-4.531,4.4,4.4,0,0,0,5.6-2.82A4.556,4.556,0,0,0,335.382,215.885Zm-9.763,6.838a4.568,4.568,0,0,0-.649-4.337,4.412,4.412,0,0,0,5.041-.288,4.543,4.543,0,0,0-.049,4.051A4.639,4.639,0,0,0,325.619,222.722Z" transform="translate(-317.133 -209.843)" fill="#efb27f"/><ellipse cx="3.357" cy="3.435" rx="3.357" ry="3.435" transform="translate(7.189 7.393)" fill="#f2e479"/></g><path d="M369.343,181.552c-2.654-1.281-4.8-4.832-6.079-7.485q-.026-.053-.051-.107l-.05.105c-1.284,2.658-3.432,6.212-6.093,7.493l-.088.042h0l.1.048c2.656,1.283,4.8,4.835,6.082,7.492l.047.1.043-.091c1.283-2.664,3.432-6.222,6.1-7.5l.092-.044Z" transform="translate(-212.751 -168.684)" fill="#f2e479"/><path d="M94.994,315.171c-2.125-1.025-3.839-3.867-4.866-5.99l-.041-.085-.04.084c-1.028,2.128-2.747,4.972-4.876,6l-.071.033h0l.081.039c2.126,1.026,3.842,3.87,4.868,6l.038.08.034-.073c1.027-2.132,2.747-4.98,4.879-6.007l.073-.035Z" transform="translate(-85.102 -232.131)" fill="#efb27f"/><ellipse cx="2.299" cy="2.299" rx="2.299" ry="2.299" transform="translate(46.079 96.622)" fill="#f2e479"/><ellipse cx="2.299" cy="2.299" rx="2.299" ry="2.299" transform="translate(113.811 15.49)" fill="#f09c9c"/></g></svg>