<svg xmlns="http://www.w3.org/2000/svg" xmlns:xlink="http://www.w3.org/1999/xlink" width="227.522" height="146.55" viewBox="0 0 227.522 146.55"><defs><clipPath id="a"><path d="M485.364,389.495l4.781-22.674a336.506,336.506,0,0,0,7.042-57.852l.521-15.118.085.011a79.886,79.886,0,0,0,34.265,4.423l-3.526,14.73a336.508,336.508,0,0,0-7.878,57.745l-.971,23.408a79.9,79.9,0,0,1-34.265-4.422Z" transform="translate(-485.364 -293.851)" fill="none"/></clipPath></defs><g transform="translate(1.344)"><g transform="translate(82.071)"><g transform="translate(102.086 47.569)"><path d="M704.69,324.213s14.834,1.915,22.712-10.546" transform="translate(-704.69 -301.369)" fill="none" stroke="#939393" stroke-miterlimit="10" stroke-width="1"/><path d="M743.8,303.047c-.972,2.629-5.014,7.007-7.643,6.034s-2.85-6.926-1.878-9.555a5.075,5.075,0,1,1,9.521,3.521Z" transform="translate(-713.28 -296.21)" fill="#c6c6c6"/></g><path d="M566.432,369.946c2.083-46.627-6.659-131.429-6.659-131.429v-.29c40.32,5.293,76.1-3.159,95.815-9.543,0,0,3.23,72.993,13.142,101.3q4.326,12.356,9.631,24.363s-50.733,23.633-111.929,15.6" transform="translate(-559.774 -228.684)" fill="#f4f4f4"/><path d="M566.432,369.946c2.083-46.627-6.659-131.429-6.659-131.429v-.29c40.32,5.293,76.1-3.159,95.815-9.543,0,0,3.23,72.993,13.142,101.3q4.326,12.356,9.631,24.363s-50.733,23.633-111.929,15.6" transform="translate(-559.774 -228.684)" fill="none"/><path d="M643.147,388.13c-23.31,4.962-27.5,4.936-47.335,4.936H581.438" transform="translate(-566.177 -275.808)" fill="none" stroke="#c6c6c6" stroke-miterlimit="10" stroke-width="0.6"/><path d="M629.084,365.943c-12.194,2.153-18.241,2.138-33.272,2.138H581.438" transform="translate(-566.177 -269.251)" fill="none" stroke="#c6c6c6" stroke-miterlimit="10" stroke-width="0.6"/><path d="M625.549,380.122c-8.148,1.065-14.417,1.055-26.319,1.055H593" transform="translate(-569.595 -273.441)" fill="none" stroke="#c6c6c6" stroke-miterlimit="10" stroke-width="0.6"/><g transform="translate(40.491 45.865)"><g transform="translate(20.199)"><circle cx="3.522" cy="3.522" r="3.522" fill="#5b4c3f"/><circle cx="1.245" cy="1.245" r="1.245" transform="translate(2.752 1.678)" fill="#fff"/></g><g transform="translate(0 2.32)"><circle cx="3.522" cy="3.522" r="3.522" fill="#5b4c3f"/><circle cx="1.245" cy="1.245" r="1.245" transform="translate(2.752 1.678)" fill="#fff"/></g></g><g transform="translate(5.855 61.667)"><path d="M568.085,344.225s14.833,1.915,22.711-10.546" transform="translate(-568.085 -321.382)" fill="none" stroke="#939393" stroke-miterlimit="10" stroke-width="1"/><path d="M607.2,323.06c-.972,2.629-5.014,7.007-7.643,6.034s-2.85-6.925-1.877-9.555a5.075,5.075,0,0,1,9.521,3.521Z" transform="translate(-576.674 -316.223)" fill="#c6c6c6"/></g><path d="M638.645,324.928c-2.9.251-5.541-2.943-5.9-7.136s1.689-7.795,4.586-8.046,5.54,2.943,5.9,7.136-1.689,7.795-4.586,8.046" transform="translate(-581.327 -252.637)" fill="#f28c8c"/><path d="M608.359,287.233c.7-5.281,5.214-11.052,10.427-5.909" transform="translate(-574.133 -243.649)" fill="none" stroke="#5b4c3f" stroke-linecap="round" stroke-miterlimit="10" stroke-width="1"/></g><g transform="translate(26.967 9.995)"><path d="M537.236,283.217l-11.223-39.4a1.218,1.218,0,0,0-2.266-.292l-20.86,35.259L518.761,291Z" transform="translate(-487.856 -242.871)" fill="#f9ebb2"/><g transform="translate(27.194)"><path d="M520.153,258.225l8.7-14.7a1.218,1.218,0,0,1,2.266.292l4.682,16.436q-3.874-.119-7.831-.624Q523.971,259.113,520.153,258.225Z" transform="translate(-520.153 -242.871)" fill="#7dc3ea"/></g><g transform="translate(0 35.913)"><path d="M485.364,389.495l4.781-22.674a336.506,336.506,0,0,0,7.042-57.852l.521-15.118.085.011a79.886,79.886,0,0,0,34.265,4.423l-3.526,14.73a336.508,336.508,0,0,0-7.878,57.745l-.971,23.408a79.9,79.9,0,0,1-34.265-4.422Z" transform="translate(-482.678 -293.851)" fill="#abe1f4"/><path d="M520.232,342.515c1.6.139,3.068-1.63,3.269-3.951s-.936-4.316-2.54-4.456-3.068,1.63-3.269,3.951.935,4.316,2.539,4.456" transform="translate(-492.225 -305.747)" fill="#f28c8c"/><path d="M485.364,389.495l4.781-22.674a336.506,336.506,0,0,0,7.042-57.852l.521-15.118.085.011a79.886,79.886,0,0,0,34.265,4.423l-3.526,14.73a336.508,336.508,0,0,0-7.878,57.745l-.971,23.408a79.9,79.9,0,0,1-34.265-4.422Z" transform="translate(-482.678 -293.851)" fill="none"/><g transform="translate(32.907 23.493)"><circle cx="1.914" cy="1.914" r="1.914" fill="#5b4c3f"/><circle cx="0.702" cy="0.702" r="0.702" transform="translate(1.066 0.771)" fill="#fff"/></g><g transform="translate(22.387 22.135)"><circle cx="1.914" cy="1.914" r="1.914" fill="#5b4c3f"/><circle cx="0.702" cy="0.702" r="0.702" transform="translate(1.066 0.771)" fill="#fff"/></g><g transform="translate(0 18.098)"><path d="M496.54,345.047s-4.077.1-7.579-10.942" transform="translate(-483.741 -323.846)" fill="none" stroke="#939393" stroke-miterlimit="10" stroke-width="1"/><path d="M481.57,323.919c.214,2.192,2.413,6.326,4.6,6.112s3.548-4.7,3.334-6.888a3.989,3.989,0,1,0-7.939.776Z" transform="translate(-481.551 -319.542)" fill="#c6c6c6"/></g><g transform="translate(2.686)"><g clip-path="url(#a)"><g transform="translate(15.084 27.384)"><path d="M532.989,354.73s-13.218,5.638-17.143-8.287" transform="translate(-509.457 -336.779)" fill="none" stroke="#939393" stroke-miterlimit="10" stroke-width="1"/><path d="M507.026,338.1c.764,2.066,3.94,5.506,6.006,4.742s2.24-5.443,1.476-7.509a3.989,3.989,0,1,0-7.482,2.767Z" transform="translate(-506.777 -332.724)" fill="#c6c6c6"/></g></g></g></g><line y1="0.228" x2="5.106" transform="translate(34.675 54.027)" fill="none" stroke="#5b4c3f" stroke-linecap="round" stroke-miterlimit="10" stroke-width="1"/></g><g transform="translate(188.465 4.975)"><line y1="5.984" x2="29.796" transform="translate(6.74 25.023)" fill="none" stroke="#f09c9c" stroke-linecap="round" stroke-miterlimit="10" stroke-width="2"/><line y1="12.819" x2="14.846" fill="none" stroke="#f09c9c" stroke-linecap="round" stroke-miterlimit="10" stroke-width="2"/><line y1="14.025" x2="27.628" transform="translate(5.384 7.445)" fill="none" stroke="#f2e479" stroke-linecap="round" stroke-miterlimit="10" stroke-width="2" stroke-dasharray="4"/></g><g transform="translate(0 16.958)"><line x1="22.747" y1="2.46" transform="translate(3.525 36.301)" fill="none" stroke="#f2e479" stroke-linecap="round" stroke-miterlimit="10" stroke-width="2"/><line x1="24.01" y1="20.573" transform="translate(9.002 0)" fill="none" stroke="#f2e479" stroke-linecap="round" stroke-miterlimit="10" stroke-width="2"/><line x1="27.628" y1="14.025" transform="translate(0 15.199)" fill="none" stroke="#8fd1aa" stroke-linecap="round" stroke-miterlimit="10" stroke-width="2" stroke-dasharray="4"/></g></g></svg>