<svg xmlns="http://www.w3.org/2000/svg" width="179.615" height="160" viewBox="0 0 179.615 160"><g transform="translate(0)"><path d="M345.434,195.928l3.231,3.214-.223,2.846-57.423,38.789a7.7,7.7,0,0,0-5.658-3.312Z" transform="translate(-272.997 -175.677)" fill="#a9c3ea"/><g transform="translate(99.979 74.079)"><line x2="9.002" y2="6.29" transform="translate(4.394 6.289)" fill="none" stroke="#edce1b" stroke-linecap="round" stroke-linejoin="round" stroke-width="1" stroke-dasharray="2"/><line x2="6.121" y2="8.179" transform="translate(0 12.577)" fill="#e595c5" stroke="#edce1b" stroke-linecap="round" stroke-linejoin="round" stroke-width="1"/><line x1="9.785" y1="2.936" transform="translate(8.789)" fill="#e595c5" stroke="#edce1b" stroke-linecap="round" stroke-linejoin="round" stroke-width="1"/></g><path d="M267.16,394.439c3.352-5.218,11.268-8.343,17.591-8.343h36.017c6.323,0,14.239,3.126,17.591,8.343l.536.834H266.624Z" transform="translate(-264.963 -257.224)" fill="#cddcfe"/><path d="M264.082,404.179l1.295-2.016h72.272l1.295,2.016a2.285,2.285,0,0,1-1.922,3.52H266A2.285,2.285,0,0,1,264.082,404.179Z" transform="translate(-263.716 -264.113)" fill="#a9c3ea"/><path d="M283.132,294.088c.191.014.382.029.577.029a7.685,7.685,0,0,0,5.423-2.232L313.477,345.7h-7.048Z" transform="translate(-272.042 -216.825)" fill="#a9c3ea"/><circle cx="7.997" cy="7.997" r="7.997" transform="translate(3.665 61.571)" fill="#c3cfe2"/><circle cx="3.427" cy="3.427" r="3.427" transform="translate(8.234 66.141)" fill="#85a2cc"/><g transform="translate(44.173)"><path d="M381.083,269.132c21.827-4.66,39.763-7.3,40.355-4.528s-16.86,7.687-38.686,12.347-39.763,7.3-40.355,4.528h0C341.8,278.7,359.257,273.792,381.083,269.132Z" transform="translate(-341.622 -204.64)" fill="#a9c3ea"/><ellipse cx="12.362" cy="12.362" rx="12.362" ry="12.362" transform="translate(27.845 54.081)" fill="#f4d862"/><path d="M362.771,189.706l-1.736,2.266L348.29,208.617a35.134,35.134,0,0,0-6.464,28.695h0c-.593-2.777,16.86-7.687,38.686-12.347s39.763-7.3,40.355-4.528h0a35.132,35.132,0,0,0-17.619-23.553l-20.941-11.348-3.635-17.13a10.022,10.022,0,0,0-19.6,4.185l2.736,12.663Z" transform="translate(-341.052 -160.473)" fill="#cddcfe"/><g transform="translate(25.533 45.037)"><g transform="translate(0 3.386)"><path d="M387.933,245.422a3.212,3.212,0,1,0,4.075,2.008A3.212,3.212,0,0,0,387.933,245.422Z" transform="translate(-385.753 -245.25)" fill="#5b4c3f"/><path d="M392.086,249.637a1.136,1.136,0,1,1-.71,1.441A1.136,1.136,0,0,1,392.086,249.637Z" transform="translate(-388.138 -247.105)" fill="#fff"/></g><g transform="translate(15.266)"><path d="M414.659,239.493a3.212,3.212,0,1,0,4.075,2.008A3.212,3.212,0,0,0,414.659,239.493Z" transform="translate(-412.479 -239.322)" fill="#5b4c3f"/><path d="M418.812,243.709a1.136,1.136,0,1,1-.71,1.441A1.137,1.137,0,0,1,418.812,243.709Z" transform="translate(-414.864 -241.177)" fill="#fff"/></g></g><line x2="7.449" y2="0.895" transform="translate(23.788 42.675)" fill="none" stroke="#5b4c3f" stroke-linecap="round" stroke-miterlimit="10" stroke-width="1"/></g><path d="M458.47,374.024" transform="translate(-347.229 -252.047)" fill="none" stroke="#fff" stroke-linecap="round" stroke-miterlimit="10" stroke-width="1"/><path d="M537.689,422.86" transform="translate(-381.199 -272.988)" fill="none" stroke="#fff" stroke-linecap="round" stroke-miterlimit="10" stroke-width="1"/><path d="M578.174,440.592" transform="translate(-398.56 -280.592)" fill="none" stroke="#fff" stroke-linecap="round" stroke-miterlimit="10" stroke-width="1"/><g transform="translate(85.682 102.005)"><path d="M498.777,353.825l-35.006-14.766-50.048,31.123,38.743,17.79Z" transform="translate(-413.723 -339.058)" fill="#f09c9c"/><line x1="21.211" y1="9.491" transform="translate(47.815 7.8)" fill="none" stroke="#fff" stroke-linecap="round" stroke-miterlimit="10" stroke-width="1"/><line x1="21.211" y1="9.491" transform="translate(33.974 16.409)" fill="none" stroke="#fff" stroke-linecap="round" stroke-miterlimit="10" stroke-width="1"/><line x1="12.931" y1="5.786" transform="translate(41.35 12.007)" fill="none" stroke="#fff" stroke-linecap="round" stroke-miterlimit="10" stroke-width="1"/><line x1="12.931" y1="5.786" transform="translate(25.757 21.564)" fill="none" stroke="#fff" stroke-linecap="round" stroke-miterlimit="10" stroke-width="1"/><path d="M487.7,357.9" transform="translate(-445.446 -347.14)" fill="none" stroke="#fff" stroke-linecap="round" stroke-miterlimit="10" stroke-width="1"/><path d="M501.957,392.756" transform="translate(-451.559 -362.085)" fill="none" stroke="#fff" stroke-linecap="round" stroke-miterlimit="10" stroke-width="1"/><path d="M479.83,363.277" transform="translate(-442.07 -349.444)" fill="none" stroke="#fff" stroke-linecap="round" stroke-miterlimit="10" stroke-width="1"/><path d="M511.463,377.621" transform="translate(-455.635 -355.595)" fill="none" stroke="#fff" stroke-linecap="round" stroke-miterlimit="10" stroke-width="1"/><path d="M489.025,357.9" transform="translate(-446.013 -347.14)" fill="none" stroke="#fff" stroke-linecap="round" stroke-miterlimit="10" stroke-width="1"/><path d="M509.394,367.5" transform="translate(-454.748 -351.254)" fill="none" stroke="#fff" stroke-linecap="round" stroke-miterlimit="10" stroke-width="1"/><path d="M470.622,368.506" transform="translate(-438.122 -351.686)" fill="none" stroke="#fff" stroke-linecap="round" stroke-miterlimit="10" stroke-width="1"/><path d="M490.991,378.1" transform="translate(-446.856 -355.8)" fill="none" stroke="#fff" stroke-linecap="round" stroke-miterlimit="10" stroke-width="1"/></g><g transform="translate(69.453 85.686)"><path d="M0,0H9.169a0,0,0,0,1,0,0V30.291a4.585,4.585,0,0,1-4.585,4.585h0A4.585,4.585,0,0,1,0,30.291V0A0,0,0,0,1,0,0Z" transform="translate(30.105 25.972) rotate(138.133)" fill="#abe1f4"/><g transform="translate(23.276 25.972)"><path d="M426.061,362.077l6.924,3.677,2.8-2.513-2.9-7.284Z" transform="translate(-426.061 -355.958)" fill="#f9ebb2"/><path d="M443.006,373.784l-2.02-5.074-2.8,2.513Z" transform="translate(-431.259 -361.426)" fill="#abe1f4"/></g></g></g></svg>