<svg xmlns="http://www.w3.org/2000/svg" width="228.257" height="160.511" viewBox="0 0 228.257 160.511"><g transform="translate(0 0.511)"><g transform="translate(9.238)"><path d="M284.046,123.518c.834-1.385-10.933,15.832-29.591,29.421-10.224,7.446-24.862,16.137-43.093,20.655" transform="translate(-211.361 -123.44)" fill="none" stroke="#7c7c7c" stroke-linecap="round" stroke-linejoin="round" stroke-width="1" fill-rule="evenodd"/><g transform="translate(6.92 33.973)"><path d="M234.572,211.572c-.01.624-.022,1.209-.035,1.767s-.029,1.085-.046,1.594-.036,1-.055,1.478-.043.951-.066,1.422-.049.941-.076,1.422-.058.973-.091,1.484-.072,1.042-.113,1.6-.088,1.152-.141,1.783c-.457-.439-.883-.853-1.286-1.248s-.782-.77-1.145-1.132-.711-.713-1.049-1.057-.669-.682-1-1.02-.656-.679-.988-1.027-.669-.7-1.017-1.076-.71-.76-1.087-1.169-.773-.842-1.193-1.306c.634-.211,1.214-.409,1.757-.6s1.049-.369,1.539-.546.958-.35,1.427-.526.937-.354,1.423-.543.985-.386,1.52-.6S233.954,211.831,234.572,211.572Z" transform="translate(-225.187 -201.559)" fill="#f09c9c" fill-rule="evenodd"/><path d="M254.758,202.22c.042.623.079,1.208.111,1.765s.061,1.084.086,1.592.047,1,.067,1.479.038.951.054,1.422.03.943.042,1.425.023.974.032,1.487.016,1.045.021,1.608.008,1.156.008,1.79c-.494-.4-.953-.777-1.388-1.136s-.844-.7-1.238-1.032-.768-.65-1.136-.965-.725-.623-1.081-.933-.711-.622-1.071-.941-.728-.646-1.107-.986-.771-.7-1.182-1.074-.843-.775-1.3-1.2c.616-.263,1.177-.509,1.7-.743s1.018-.457,1.491-.674.929-.43,1.383-.644.907-.433,1.377-.661.953-.468,1.468-.728S254.162,202.53,254.758,202.22Z" transform="translate(-235.421 -196.875)" fill="#f2e479" fill-rule="evenodd"/><path d="M273.7,191.51c.093.618.176,1.2.253,1.751s.148,1.077.214,1.582.126.993.185,1.47.114.947.168,1.415.106.939.157,1.418.1.97.15,1.481.1,1.041.151,1.6.1,1.152.15,1.784c-.525-.357-1.016-.695-1.478-1.017s-.9-.629-1.321-.927-.82-.585-1.213-.868-.775-.561-1.156-.841-.761-.561-1.148-.849-.778-.584-1.185-.893-.827-.631-1.269-.973-.9-.7-1.395-1.092c.594-.313,1.136-.6,1.644-.881s.981-.541,1.437-.8.894-.506,1.331-.759.872-.507,1.323-.774.915-.547,1.411-.849S273.127,191.87,273.7,191.51Z" transform="translate(-245.055 -191.51)" fill="#f09c9c" fill-rule="evenodd"/></g><g transform="translate(36.175 4.245)"><path d="M291.98,179.136c.142.609.271,1.182.393,1.727s.234,1.063.341,1.563.207.98.3,1.452.189.935.281,1.4.181.928.271,1.4.179.961.27,1.466.184,1.031.279,1.587.194,1.142.295,1.769c-.555-.311-1.074-.607-1.562-.889s-.953-.551-1.4-.813-.868-.514-1.284-.763-.82-.495-1.224-.741-.807-.5-1.217-.75-.826-.517-1.258-.79-.877-.56-1.347-.864-.961-.625-1.483-.971c.569-.363,1.088-.7,1.574-1.02s.937-.622,1.374-.917.854-.582,1.27-.872.832-.58,1.261-.886.872-.624,1.344-.969S291.437,179.545,291.98,179.136Z" transform="translate(-283.643 -155.584)" fill="#8fd1aa" fill-rule="evenodd"/><path d="M309.874,164.743c.192.6.37,1.157.536,1.691s.322,1.042.47,1.532.288.961.423,1.424.268.918.4,1.374.257.912.386,1.378.259.944.392,1.441.269,1.014.411,1.561.288,1.125.441,1.742c-.581-.262-1.124-.511-1.638-.748s-1-.466-1.464-.687-.913-.436-1.348-.647-.863-.421-1.287-.631-.849-.422-1.28-.64-.869-.442-1.324-.677-.925-.48-1.419-.742-1.014-.538-1.565-.836c.538-.414,1.03-.8,1.49-1.159s.888-.706,1.3-1.04.807-.658,1.2-.985.785-.656,1.19-1,.822-.7,1.267-1.091S309.365,165.2,309.874,164.743Z" transform="translate(-292.815 -148.374)" fill="#f09c9c" fill-rule="evenodd"/><path d="M326.516,148.886c.242.58.465,1.126.675,1.646s.407,1.014.6,1.491.367.936.541,1.388.342.895.509,1.339.332.89.5,1.346.336.922.509,1.407.352.991.538,1.526.38,1.1.584,1.7c-.6-.209-1.168-.408-1.7-.6s-1.038-.375-1.522-.554-.95-.352-1.4-.524-.9-.342-1.341-.514-.883-.346-1.333-.525-.907-.363-1.382-.556-.967-.4-1.483-.614-1.059-.447-1.636-.7c.506-.462.967-.89,1.4-1.3s.833-.787,1.218-1.158.756-.733,1.124-1.1.734-.728,1.111-1.11.766-.78,1.18-1.21S326.043,149.393,326.516,148.886Z" transform="translate(-301.386 -140.431)" fill="#f2e479" fill-rule="evenodd"/><path d="M341.953,131.946c.282.561.544,1.09.791,1.594s.478.982.7,1.444.433.908.64,1.346.405.868.6,1.3.395.864.594,1.307.4.9.61,1.368.423.963.647,1.484.458,1.07.7,1.658c-.617-.165-1.194-.323-1.741-.476s-1.062-.3-1.558-.444-.972-.284-1.438-.423-.92-.276-1.375-.417-.906-.282-1.367-.428-.931-.3-1.419-.456-.993-.327-1.523-.507-1.088-.37-1.681-.577c.471-.5.9-.957,1.3-1.392s.774-.844,1.132-1.242.7-.785,1.042-1.173.68-.779,1.028-1.187.708-.833,1.09-1.291S341.518,132.485,341.953,131.946Z" transform="translate(-309.367 -131.946)" fill="#8fd1aa" fill-rule="evenodd"/><path d="M341.566,131.96c.287.56.554,1.087.805,1.591s.487.981.713,1.443.442.907.652,1.344.413.867.616,1.3.4.863.606,1.3.409.895.621,1.367.431.962.66,1.482.467,1.07.718,1.657c-.621-.155-1.2-.3-1.753-.446s-1.071-.282-1.57-.417-.98-.268-1.449-.4-.927-.262-1.385-.394-.913-.267-1.377-.4-.939-.282-1.429-.434-1-.31-1.535-.481-1.1-.352-1.695-.55c.471-.509.9-.98,1.3-1.425s.772-.865,1.13-1.273.7-.8,1.039-1.2.679-.8,1.027-1.216.708-.854,1.089-1.322S341.13,132.512,341.566,131.96Z" transform="translate(-309.179 -131.953)" fill="none" fill-rule="evenodd"/></g><g transform="translate(135.731)"><path d="M485.255,123.518c-.834-1.385,10.933,15.832,29.591,29.421,10.224,7.446,24.862,16.137,43.093,20.655" transform="translate(-483.889 -123.44)" fill="none" stroke="#7c7c7c" stroke-linecap="round" stroke-linejoin="round" stroke-width="1" fill-rule="evenodd"/><g transform="translate(37.061 33.973)"><path d="M597.95,211.572c.01.624.022,1.209.036,1.767s.029,1.085.046,1.594.036,1,.055,1.478.043.951.066,1.422.049.941.076,1.422.058.973.091,1.484.072,1.042.113,1.6.088,1.152.141,1.783c.457-.439.883-.853,1.286-1.248s.782-.77,1.145-1.132.711-.713,1.05-1.057.669-.682,1-1.02.656-.679.988-1.027.669-.7,1.017-1.076.71-.76,1.087-1.169.773-.842,1.192-1.306c-.634-.211-1.213-.409-1.757-.6s-1.049-.369-1.539-.546-.958-.35-1.427-.526-.938-.354-1.423-.543-.986-.386-1.52-.6S598.568,211.831,597.95,211.572Z" transform="translate(-577.266 -201.559)" fill="#f09c9c" fill-rule="evenodd"/><path d="M577.648,202.22c-.042.623-.079,1.208-.111,1.765s-.06,1.084-.087,1.592-.046,1-.067,1.479-.038.951-.053,1.422-.029.943-.042,1.425-.022.974-.032,1.487-.017,1.045-.021,1.608-.008,1.156-.007,1.79c.494-.4.952-.777,1.388-1.136s.844-.7,1.238-1.032.768-.65,1.135-.965.724-.623,1.081-.933.711-.622,1.071-.941.728-.646,1.107-.986.771-.7,1.182-1.074.842-.775,1.3-1.2c-.616-.263-1.177-.509-1.7-.743s-1.018-.457-1.492-.674-.929-.43-1.383-.644-.907-.433-1.376-.661-.953-.468-1.468-.728S578.244,202.53,577.648,202.22Z" transform="translate(-566.914 -196.875)" fill="#f2e479" fill-rule="evenodd"/><path d="M558.048,191.51c-.093.618-.177,1.2-.253,1.751s-.148,1.077-.214,1.582-.126.993-.185,1.47-.114.947-.168,1.415-.105.939-.157,1.418-.1.97-.15,1.481-.1,1.041-.151,1.6-.1,1.152-.15,1.784c.525-.357,1.015-.695,1.478-1.017s.9-.629,1.321-.927.821-.585,1.213-.868.775-.561,1.156-.841.761-.561,1.148-.849.778-.584,1.185-.893.827-.631,1.268-.973.9-.7,1.4-1.092c-.594-.313-1.136-.6-1.644-.881s-.981-.541-1.437-.8-.894-.506-1.331-.759-.872-.507-1.323-.774-.915-.547-1.411-.849S558.618,191.87,558.048,191.51Z" transform="translate(-556.62 -191.51)" fill="#f09c9c" fill-rule="evenodd"/></g><g transform="translate(0 4.245)"><path d="M539.159,179.136c-.142.609-.272,1.182-.393,1.727s-.234,1.063-.341,1.563-.206.98-.3,1.452-.19.935-.281,1.4-.182.928-.271,1.4-.179.961-.27,1.466-.184,1.031-.279,1.587-.194,1.142-.295,1.769c.555-.311,1.073-.607,1.562-.889s.953-.551,1.4-.813.868-.514,1.284-.763.819-.495,1.223-.741.807-.5,1.217-.75.827-.517,1.258-.79.877-.56,1.348-.864.961-.625,1.483-.971c-.569-.363-1.088-.7-1.573-1.02s-.938-.622-1.374-.917-.854-.582-1.27-.872-.832-.58-1.261-.886-.872-.624-1.343-.969S539.7,179.545,539.159,179.136Z" transform="translate(-509.62 -155.584)" fill="#8fd1aa" fill-rule="evenodd"/><path d="M520.709,164.743c-.192.6-.369,1.157-.536,1.691s-.322,1.042-.47,1.532-.288.961-.423,1.424-.268.918-.4,1.374-.257.912-.386,1.378-.26.944-.392,1.441-.269,1.014-.411,1.561-.288,1.125-.441,1.742c.582-.262,1.125-.511,1.639-.748s1-.466,1.464-.687.913-.436,1.348-.647.863-.421,1.287-.631.849-.422,1.28-.64.87-.442,1.325-.677.925-.48,1.419-.742,1.014-.538,1.565-.836c-.539-.414-1.031-.8-1.49-1.159s-.888-.706-1.3-1.04-.807-.658-1.2-.985-.786-.656-1.19-1-.822-.7-1.267-1.091S521.219,165.2,520.709,164.743Z" transform="translate(-499.893 -148.374)" fill="#f09c9c" fill-rule="evenodd"/><path d="M503.592,148.886c-.242.58-.465,1.126-.675,1.646s-.407,1.014-.6,1.491-.367.936-.542,1.388-.342.895-.508,1.339-.332.89-.5,1.346-.336.922-.509,1.407-.352.991-.538,1.526-.38,1.1-.584,1.7c.6-.209,1.168-.408,1.7-.6s1.038-.375,1.523-.554.95-.352,1.4-.524.9-.342,1.342-.514.883-.346,1.333-.525.907-.363,1.382-.556.966-.4,1.483-.614,1.059-.447,1.635-.7c-.505-.462-.967-.89-1.4-1.3s-.832-.787-1.218-1.158-.756-.733-1.124-1.1-.734-.728-1.111-1.11-.766-.78-1.18-1.21S504.065,149.393,503.592,148.886Z" transform="translate(-490.847 -140.431)" fill="#f2e479" fill-rule="evenodd"/><path d="M487.856,131.946c-.283.561-.544,1.09-.791,1.594s-.479.982-.7,1.444-.433.908-.64,1.346-.405.868-.6,1.3-.395.864-.594,1.307-.4.9-.61,1.368-.423.963-.647,1.484-.458,1.07-.7,1.658c.617-.165,1.194-.323,1.74-.476s1.063-.3,1.559-.444.972-.284,1.438-.423.92-.276,1.375-.417.906-.282,1.368-.428.931-.3,1.419-.456.992-.327,1.523-.507,1.088-.37,1.681-.577c-.471-.5-.9-.957-1.3-1.392s-.774-.844-1.132-1.242-.7-.785-1.042-1.173-.68-.779-1.028-1.187-.708-.833-1.09-1.291S488.292,132.485,487.856,131.946Z" transform="translate(-482.567 -131.946)" fill="#8fd1aa" fill-rule="evenodd"/><path d="M488.154,131.96c-.287.56-.555,1.087-.806,1.591s-.487.981-.713,1.443-.441.907-.651,1.344-.413.867-.616,1.3-.4.863-.606,1.3-.409.895-.621,1.367-.431.962-.66,1.482-.467,1.07-.719,1.657c.622-.155,1.2-.3,1.753-.446s1.07-.282,1.57-.417.98-.268,1.449-.4.927-.262,1.385-.394.912-.267,1.377-.4.94-.282,1.43-.434,1-.31,1.535-.481,1.1-.352,1.695-.55c-.471-.509-.9-.98-1.3-1.425s-.772-.865-1.13-1.273-.7-.8-1.039-1.2-.679-.8-1.027-1.216-.708-.854-1.089-1.322S488.589,132.512,488.154,131.96Z" transform="translate(-482.665 -131.953)" fill="none" fill-rule="evenodd"/></g></g></g><g transform="translate(0 22.469)"><g transform="translate(125.017)"><path d="M560.369,214.446l-2.831,2.809.2,2.487,32.786,33.893a6.749,6.749,0,0,1,4.958-2.894Z" transform="translate(-500.065 -191.494)" fill="#a9c3ea"/><g transform="translate(11.079 64.365)"><line x1="1.88" y2="9.411" transform="translate(9.122 1.31)" fill="none" stroke="#edce1b" stroke-linecap="round" stroke-linejoin="round" stroke-width="1" stroke-dasharray="2"/><line x2="1.087" y2="8.86" transform="translate(17.594 2.62)" fill="#e595c5" stroke="#edce1b" stroke-linecap="round" stroke-linejoin="round" stroke-width="1"/><line y1="7.768" x2="4.409" fill="#e595c5" stroke="#edce1b" stroke-linecap="round" stroke-linejoin="round" stroke-width="1"/></g><path d="M582.4,413.906c-2.938-4.559-9.874-7.29-15.414-7.29H535.432c-5.54,0-12.476,2.731-15.414,7.29l-.469.729h63.324Z" transform="translate(-481.089 -287.754)" fill="#cddcfe"/><path d="M582.555,424.444l-1.135-1.761H518.1l-1.135,1.761a2,2,0,0,0,1.684,3.075h62.226A2,2,0,0,0,582.555,424.444Z" transform="translate(-479.635 -295.802)" fill="#a9c3ea"/><path d="M606.037,312.329c-.167.012-.335.025-.505.025a6.74,6.74,0,0,1-4.752-1.95l-24.336,48.019h6.176Z" transform="translate(-509.509 -239.56)" fill="#a9c3ea"/><ellipse cx="7.007" cy="6.987" rx="7.007" ry="6.987" transform="translate(89.021 59.057)" fill="#c3cfe2"/><ellipse cx="3.003" cy="2.995" rx="3.003" ry="2.995" transform="translate(93.024 63.049)" fill="#85a2cc"/><path d="M470.408,232.168c-13.828-13.79-25.755-24.253-27.514-22.5s8.733,13.649,22.561,27.439,25.756,24.253,27.515,22.5h0C494.728,257.853,484.236,245.958,470.408,232.168Z" transform="translate(-442.701 -189.006)" fill="#a9c3ea"/><ellipse cx="10.831" cy="10.801" rx="10.831" ry="10.801" transform="translate(15.398 33.438)" fill="#f4d862"/><path d="M503.279,191.392l8.046-7.984a8.769,8.769,0,0,0-12.419-12.384L488.07,181.857l-20.806-1.631a30.83,30.83,0,0,0-24.178,8.9h0c1.759-1.754,13.686,8.709,27.514,22.5s24.32,25.684,22.561,27.439h0a30.649,30.649,0,0,0,8.921-24.112l-1.439-18.261-.2-2.487Z" transform="translate(-442.893 -168.459)" fill="#cddcfe"/><g transform="translate(29.257 26.28)"><path d="M506.2,222.178a2.829,2.829,0,1,0-.479,3.956A2.824,2.824,0,0,0,506.2,222.178Zm-1.532,1.954a.992.992,0,0,1-1.4-.162,1.012,1.012,0,0,1,.17-1.412.991.991,0,0,1,1.4.162A1.012,1.012,0,0,1,504.672,224.132Z" transform="translate(-501.16 -221.114)" fill="#5b4c3f"/><path d="M506.737,223.945a1,1,0,1,0-.17,1.4A1,1,0,0,0,506.737,223.945Z" transform="translate(-503.055 -222.344)" fill="#fff"/><path d="M527.871,245.06c-.268-.2-5.607-1.874-5.607-1.874l2.364,5.109" transform="translate(-511.702 -232.17)" fill="none" stroke="#5b4c3f" stroke-linecap="round" stroke-linejoin="round" stroke-width="1"/></g><path d="M541.672,231.054c2.659-.226,5.659,2.549,4.233,7.029" transform="translate(-492.14 -199.807)" fill="none" stroke="#5b4c3f" stroke-linecap="round" stroke-miterlimit="10" stroke-width="1"/></g><g transform="translate(0 30.999)"><g transform="translate(11.097)"><path d="M336.992,320.621c-11.844-30.886-24.938-89.856-24.938-89.856l-.065-.195c-26,12.562-52.015,14.866-66.739,14.977,0,0,14.166,49.8,13.821,71.046q-.151,9.274-1.038,18.532s39.5,4.562,78.959-14.5" transform="translate(-230.149 -230.57)" fill="#f4f4f4"/><path d="M336.992,320.621c-11.844-30.886-24.938-89.856-24.938-89.856l-.065-.195c-26,12.562-52.015,14.866-66.739,14.977,0,0,14.166,49.8,13.821,71.046q-.151,9.274-1.038,18.532s39.5,4.562,78.959-14.5" transform="translate(-230.149 -230.57)" fill="none"/><path d="M320.889,392.971c16.828-1.869,19.648-2.822,33.021-7.25l9.691-3.21" transform="translate(-267.932 -306.678)" fill="none" stroke="#c6c6c6" stroke-miterlimit="10" stroke-width="0.6"/><path d="M332.842,366.886c8.7-1.275,12.778-2.636,22.912-5.992l9.692-3.209" transform="translate(-273.903 -294.243)" fill="none" stroke="#c6c6c6" stroke-miterlimit="10" stroke-width="0.6"/><path d="M346.678,379.885c5.732-1.1,9.957-2.509,17.982-5.167l4.2-1.39" transform="translate(-280.815 -302.079)" fill="none" stroke="#c6c6c6" stroke-miterlimit="10" stroke-width="0.6"/><g transform="translate(93.164 22.513)"><path d="M401.228,308.248s12.991-4.059,15.267-14.254" transform="translate(-401.228 -284.852)" fill="none" stroke="#939393" stroke-miterlimit="10" stroke-width="1"/><path d="M432.357,279.308c-.019,1.986-1.671,5.872-3.662,5.853s-3.568-3.936-3.549-5.922a3.606,3.606,0,0,1,7.211.069Z" transform="translate(-413.175 -275.678)" fill="#c6c6c6"/></g><path d="M343.493,279.113c-1.961-3.229-5.858-4.138-8.068-1.576" transform="translate(-275.193 -253.354)" fill="none" stroke="#5b4c3f" stroke-linecap="round" stroke-miterlimit="10" stroke-width="1"/><g transform="translate(0 44.585)"><path d="M247.06,343.934s-13.529,1.509-19.734-6.9" transform="translate(-221.195 -328.481)" fill="none" stroke="#939393" stroke-miterlimit="10" stroke-width="1"/><path d="M215.4,324.98c.82,1.81,3.9,4.7,5.717,3.884s1.674-5.037.854-6.847a3.6,3.6,0,0,0-6.571,2.962Z" transform="translate(-215.076 -319.902)" fill="#c6c6c6"/></g><g transform="translate(50.279 44.187)"><path d="M327.927,319.141a1.273,1.273,0,0,1,1.564,1.225,7.282,7.282,0,0,1-13.822,3.325,1.27,1.27,0,0,1,.832-1.8Z" transform="translate(-315.538 -319.105)" fill="#f28c8c"/></g><path d="M302.914,305.674c.448-.035,7.829,1.878,7.829,1.878l-6.332,4.309" transform="translate(-258.953 -268.19)" fill="none" stroke="#5b4c3f" stroke-linecap="round" stroke-linejoin="round" stroke-width="1"/><path d="M338.427,295.634c-.415.173-6.109,5.232-6.109,5.232l7.606.955" transform="translate(-273.641 -263.161)" fill="none" stroke="#5b4c3f" stroke-linecap="round" stroke-linejoin="round" stroke-width="1"/><g transform="translate(102.941 2.243)"><path d="M424.018,248.524l15.709-10.193L421.085,236.4Z" transform="translate(-420.924 -235.734)" fill="#f09c9c"/><line x2="8.15" y2="33.688" fill="none" stroke="#7c7c7c" stroke-linecap="round" stroke-linejoin="round" stroke-width="1"/></g></g><g transform="translate(0 11.804)"><g transform="translate(4.653 31.003)"><path d="M202.5,320.435c.7,1.394,3.218,3.566,4.616,2.865s1.151-4.009.447-5.4a2.832,2.832,0,0,0-5.063,2.538Z" transform="translate(-202.199 -316.34)" fill="#c6c6c6"/><line x2="5.525" y2="10.959" transform="translate(4.918 6.961)" fill="none" stroke="#939393" stroke-miterlimit="10" stroke-width="1"/><g transform="translate(29.476 13.787)"><path d="M288.337,349.315c-1.4.7-4.715.948-5.419-.447s1.475-3.9,2.873-4.6a2.828,2.828,0,1,1,2.545,5.05Z" transform="translate(-271.929 -343.964)" fill="#c6c6c6"/><line x1="10.99" y2="5.509" transform="translate(0 4.905)" fill="none" stroke="#939393" stroke-miterlimit="10" stroke-width="1"/></g></g><path d="M236.234,276.23l19.347-21.685a.866.866,0,0,1,1.54.511l2.46,28.921-13.928,2.906Z" transform="translate(-214.548 -254.22)" fill="#f9ebb2"/><g transform="translate(32.963)"><path d="M269.4,267.114l-1.026-12.058a.866.866,0,0,0-1.54-.511l-8.07,9.046q2.515,1.117,5.2,2.013Q266.685,266.505,269.4,267.114Z" transform="translate(-258.766 -254.22)" fill="#7dc3ea"/></g><g transform="translate(0 22.009)"><path d="M216.3,370.9l3.941-15.939A237.933,237.933,0,0,1,233.6,315.873l4.335-9.806-.057-.019a56.881,56.881,0,0,1-23.29-7.729L212.3,308.8a237.942,237.942,0,0,1-12.789,39.271L192.9,363.31a56.871,56.871,0,0,0,23.289,7.728Z" transform="translate(-192.903 -298.319)" fill="#abe1f4"/><path d="M216.3,370.9l3.941-15.939A237.933,237.933,0,0,1,233.6,315.873l4.335-9.806-.057-.019a56.881,56.881,0,0,1-23.29-7.729L212.3,308.8a237.942,237.942,0,0,1-12.789,39.271L192.9,363.31a56.871,56.871,0,0,0,23.289,7.728Z" transform="translate(-192.903 -298.319)" fill="none"/></g><path d="M237.314,321.994c1.464-1.353,3.516-1.477,4.368.105" transform="translate(-215.088 -287.644)" fill="none" stroke="#5b4c3f" stroke-linecap="round" stroke-miterlimit="10" stroke-width="1"/><g transform="translate(23.095 38.521)"><path d="M246.589,344.105a.3.3,0,0,1,.2.4,3.6,3.6,0,0,1-6.837-2.14.3.3,0,0,1,.387-.213Z" transform="translate(-239.456 -336.778)" fill="#f28c8c"/><g transform="translate(7.311 2.522)"><ellipse cx="1.36" cy="1.356" rx="1.36" ry="1.356" fill="#5b4c3f"/><ellipse cx="0.499" cy="0.497" rx="0.499" ry="0.497" transform="translate(1.102 0.634)" fill="#fff"/></g><path d="M239.892,331.4c.142.083,1.959,2.191,1.959,2.191l-2.8-.022" transform="translate(-239.049 -331.402)" fill="none" stroke="#5b4c3f" stroke-linecap="round" stroke-linejoin="round" stroke-width="1"/></g><g transform="translate(0.97 16.339)"><path d="M205.176,295.939l-10.335-8.859,13.622.4Z" transform="translate(-194.841 -287.019)" fill="#f2e479"/><line x1="9.136" y2="23.495" transform="translate(4.667)" fill="none" stroke="#7c7c7c" stroke-linecap="round" stroke-linejoin="round" stroke-width="1"/></g></g></g></g><path d="M376.188,191.568a3.2,3.2,0,0,0-1.288-1.014,3.226,3.226,0,1,0,1.7,4.233l0-.009h0l3.43-8.3,8.288,1.329-2.211,5.354a3.193,3.193,0,0,0-1.287-1.017,3.226,3.226,0,1,0,1.7,4.232l0-.009h0l4.065-9.832-11.57-1.852Z" transform="translate(-281.564 -154.117)" fill="#f2e479"/><path d="M355.583,232.321a2.516,2.516,0,0,0,3.223-1.5,2.486,2.486,0,0,0-.085-1.919l-1.983-4.231,2.555.926.573-1.573-6.361-2.3,2.7,5.759a2.469,2.469,0,0,0-2.126,1.628,2.506,2.506,0,0,0,1.505,3.215Z" transform="translate(-273.128 -172.669)" fill="#f09c9c"/></g></svg>