<svg xmlns="http://www.w3.org/2000/svg" width="27.33" height="44.057" viewBox="0 0 27.33 44.057">
  <g id="Group_8355" data-name="Group 8355" transform="translate(0 0)">
    <path id="Path_6348" data-name="Path 6348" d="M8.973,17.068l2.773-5.618,6.2-.9L13.46,6.175,14.519,0,8.973,2.916,3.428,0,4.487,6.175,0,10.549l6.2.9Z" transform="matrix(-0.966, -0.259, 0.259, -0.966, 22.913, 32.014)" fill="#fdd846"/>
    <path id="Path_6349" data-name="Path 6349" d="M3.99,7.59l1.233-2.5,2.757-.4-2-1.945L6.456,0,3.99,1.3,1.524,0,2,2.746,0,4.691l2.757.4Z" transform="matrix(-0.966, 0.259, -0.259, -0.966, 9.673, 35.341)" fill="#89dcee"/>
    <path id="Path_6350" data-name="Path 6350" d="M672.9,116.805l-.612,1.241-1.369.2.991.966-.234,1.364,1.225-.644,1.225.644-.234-1.364.991-.966-1.369-.2Z" transform="translate(-669.512 -104.513)" fill="#c7bf6a"/>
    <path id="Path_6351" data-name="Path 6351" d="M661.566,141.264l-.586,1.187-1.31.19.948.924-.224,1.3,1.172-.616,1.172.616-.224-1.3.948-.924-1.31-.19Z" transform="translate(-646.33 -106.922)" fill="#89d3ca"/>
    <path id="Path_6352" data-name="Path 6352" d="M4.553,8.66,5.96,5.809l3.146-.457L6.829,3.133,7.367,0,4.553,1.479,1.739,0l.537,3.133L0,5.352l3.146.457Z" transform="matrix(-0.966, 0.259, -0.259, -0.966, 15.454, 8.365)" fill="#f5beff"/>
    <path id="Path_6353" data-name="Path 6353" d="M649.365,113.634l2.534,2.534,2.534-2.534L651.9,111.1l-2.534,2.534" transform="translate(-630.516 -106.579)" fill="#fca605"/>
    <path id="Path_6354" data-name="Path 6354" d="M672.665,128.957l1.4,1.4,1.4-1.4-1.4-1.4-1.4,1.4" transform="translate(-672.665 -106.172)" fill="#f09c9c"/>
    <path id="Path_6355" data-name="Path 6355" d="M671.024,148.22l2.009,2.009,2.009-2.009-2.009-2.009-2.009,2.009" transform="translate(-665.369 -106.172)" fill="#ed7048"/>
  </g>
</svg>
