<svg xmlns="http://www.w3.org/2000/svg" width="27.33" height="44.057" viewBox="0 0 27.33 44.057">
  <g id="Group_8354" data-name="Group 8354" transform="translate(-646.952 -106.172)">
    <path id="Path_6348" data-name="Path 6348" d="M661.294,118.086l2.773,5.618,6.2.9-4.487,4.373,1.059,6.175-5.546-2.916-5.546,2.916,1.059-6.175-4.487-4.373,6.2-.9Z" transform="matrix(0.966, -0.259, 0.259, 0.966, -13.704, 176.47)" fill="#fdd846"/>
    <path id="Path_6349" data-name="Path 6349" d="M671.445,135.085l1.233,2.5,2.757.4-2,1.945.471,2.746-2.466-1.3-2.466,1.3.471-2.746-2-1.945,2.757-.4Z" transform="matrix(0.966, 0.259, -0.259, 0.966, 56.824, -169.05)" fill="#89dcee"/>
    <path id="Path_6350" data-name="Path 6350" d="M672.9,116.805l.612,1.241,1.369.2-.991.966.234,1.364-1.225-.644-1.225.644.234-1.364-.991-.966,1.369-.2Z" transform="translate(-2.001 1.659)" fill="#c7bf6a"/>
    <path id="Path_6351" data-name="Path 6351" d="M661.566,141.264l.586,1.187,1.31.19-.948.924.224,1.3-1.172-.616-1.172.616.224-1.3-.948-.924,1.31-.19Z" transform="translate(-2.521 -0.75)" fill="#89d3ca"/>
    <path id="Path_6352" data-name="Path 6352" d="M666.346,105.841l1.407,2.851,3.146.457-2.276,2.219.537,3.133-2.814-1.479-2.814,1.479.537-3.133-2.276-2.219,3.146-.457Z" transform="matrix(0.966, 0.259, -0.259, 0.966, 49.219, -167.347)" fill="#f5beff"/>
    <path id="Path_6353" data-name="Path 6353" d="M654.433,113.635l-2.534,2.534-2.534-2.534L651.9,111.1l2.534,2.534" transform="translate(1 -0.408)" fill="#fca605"/>
    <path id="Path_6354" data-name="Path 6354" d="M675.473,128.957l-1.4,1.4-1.4-1.4,1.4-1.4,1.4,1.4" transform="translate(-1.192)" fill="#f09c9c"/>
    <path id="Path_6355" data-name="Path 6355" d="M675.043,148.22l-2.009,2.009-2.009-2.009,2.009-2.009,2.009,2.009" transform="translate(-6.417)" fill="#ed7048"/>
  </g>
</svg>
