<svg xmlns="http://www.w3.org/2000/svg" width="214.729" height="48.585" viewBox="0 0 214.729 48.585">
  <g id="グループ_6609" data-name="グループ 6609" transform="translate(0.442 0.265)">
    <g id="グループ_6608" data-name="グループ 6608">
      <g id="グループ_6607" data-name="グループ 6607">
        <g id="グループ_6602" data-name="グループ 6602">
          <path id="パス_3845" data-name="パス 3845" d="M2303.455,1503.045h-41.6l11.387,20.946-11.387,18.966h21.312" transform="translate(-2261.851 -1503.045)" fill="#fcd746"/>
          <path id="パス_3846" data-name="パス 3846" d="M2303.455,1503.045h-41.6l11.387,20.946-11.387,18.966h22.45" transform="translate(-2261.851 -1503.045)" fill="none" stroke="#998863" stroke-miterlimit="10" stroke-width="0.5"/>
        </g>
        <g id="グループ_6603" data-name="グループ 6603" transform="translate(172.242)">
          <path id="パス_3847" data-name="パス 3847" d="M2334,1503.045h41.6l-11.387,20.946,11.387,18.966h-21.312" transform="translate(-2333.997 -1503.045)" fill="#fcd746"/>
          <path id="パス_3848" data-name="パス 3848" d="M2334,1503.045h41.6l-11.387,20.947,11.387,18.966h-22.45" transform="translate(-2333.997 -1503.045)" fill="none" stroke="#998863" stroke-miterlimit="10" stroke-width="0.5"/>
        </g>
        <g id="グループ_6604" data-name="グループ 6604" transform="translate(22.73)">
          <path id="パス_3849" data-name="パス 3849" d="M2271.372,1510.6l18.874-7.555.04,7.555" transform="translate(-2271.372 -1503.045)" fill="#af977d"/>
          <path id="パス_3850" data-name="パス 3850" d="M2271.372,1510.6l18.874-7.555.04,7.555" transform="translate(-2271.372 -1503.045)" fill="none" stroke="#998863" stroke-linecap="round" stroke-linejoin="round" stroke-width="0.53"/>
        </g>
        <g id="グループ_6605" data-name="グループ 6605" transform="translate(172.242)">
          <path id="パス_3851" data-name="パス 3851" d="M2353.036,1510.462,2334,1503.045l.047,7.743" transform="translate(-2333.997 -1503.045)" fill="#af977d"/>
          <path id="パス_3852" data-name="パス 3852" d="M2353.036,1510.462,2334,1503.045l.047,7.743" transform="translate(-2333.997 -1503.045)" fill="none" stroke="#998863" stroke-linecap="round" stroke-linejoin="round" stroke-width="0.53"/>
        </g>
        <g id="グループ_6606" data-name="グループ 6606" transform="translate(22.026 7.69)">
          <rect id="長方形_5059" data-name="長方形 5059" width="169.845" height="40.38" transform="translate(-0.025 -0.477)" fill="#fcd746"/>
          <rect id="長方形_5060" data-name="長方形 5060" width="169.845" height="40.38" fill="none" stroke="#998863" stroke-miterlimit="10" stroke-width="0.5"/>
        </g>
      </g>
    </g>
    <text id="THANK_YOU_" data-name="THANK  YOU!!" transform="translate(52 33.214)" font-size="14" font-family="Lato-Heavy, Lato" font-weight="800" letter-spacing="0.1em"><tspan x="0" y="0" xml:space="preserve">THANK  YOU!!</tspan></text>
  </g>
</svg>
