<svg xmlns="http://www.w3.org/2000/svg" width="101.004" height="43.522" viewBox="0 0 101.004 43.522">
  <g id="logo-sw" transform="translate(0.5 0.5)">
    <path id="Path_6321" data-name="Path 6321" d="M18.79,58.173a1.8,1.8,0,0,0,2.037,2.037q2.737,0,6.6-3.952a28.5,28.5,0,0,0,5.336-7.191A14.027,14.027,0,0,0,34.6,43.488a3.115,3.115,0,0,0-.061-.609,1.992,1.992,0,0,1-1.369-.7v.03a1,1,0,0,1-.456-.745.764.764,0,0,1,.3-.623,1.227,1.227,0,0,1,.791-.243.706.706,0,0,1,.684.38,2.747,2.747,0,0,0,.5.684q.3.3.274.426a.629.629,0,0,0,.563.274A1.512,1.512,0,0,0,36.7,42a1.467,1.467,0,0,1,.775-.365q.289,0,.289.182,0,.335-.578.639a1.288,1.288,0,0,1-.73.274h-.973a7.383,7.383,0,0,1,.365,1.794q0,2.433-2.326,6.324a26.594,26.594,0,0,1-5.974,6.9q-3.679,3.1-6.674,3.1T17.878,57.93a17.7,17.7,0,0,1,1.946-6.6l2.189-4.773-2.98,2.311q-1.4,1.156-2.843,2.539t-5.032,5.7L7.631,61.427a2.277,2.277,0,0,1-1.52.973q-.517,0-.517-.669A4.059,4.059,0,0,1,6.141,60l5.868-8.452q5.32-7.814,5.321-9.912,0-1.155-2.129-1.155-2.584,0-7.206,3.162a18.045,18.045,0,0,0-4.378,4.272,7.885,7.885,0,0,0-1.885,4.257q0,1.688,2.25,1.687A6.662,6.662,0,0,0,8.3,51.91a3.708,3.708,0,0,1,.913-.669c.081,0,.111.071.091.213q-.335,1.156-2.478,2.2A8.827,8.827,0,0,1,3.04,54.707a3.516,3.516,0,0,1-.578-.03h-.03Q0,54.16,0,52.275t2.1-4.53a22.248,22.248,0,0,1,9.547-6.963A14.535,14.535,0,0,1,16.6,39.627q2.4,0,2.4,1.581,0,3.284-8.27,14.259-2.767,3.679-2.8,3.679.091,0,3.178-3.436a70.873,70.873,0,0,1,5.853-5.868q1.064-.942,3.678-3.466a21.825,21.825,0,0,1,2.949-2.31,2.193,2.193,0,0,1,1.14-.243,1.119,1.119,0,0,1,1.019.426,40.14,40.14,0,0,0-4.88,7.768q-2.083,4.3-2.083,6.157" transform="translate(0 -19.878)" fill="#585e58" stroke="rgba(0,0,0,0)" stroke-miterlimit="10" stroke-width="1"/>
    <path id="Path_6322" data-name="Path 6322" d="M79.325,55.058q-2.28,0-2.281-2.524a7,7,0,0,1,.669-2.8,12.434,12.434,0,0,1,1.459-2.554,2.074,2.074,0,0,1-.4.03q-.73,0-1.216-1.034L75.312,49.1q-1.885,2.342-2.189,2.341c-.1,0-.152-.04-.152-.122a1.64,1.64,0,0,1,.517-.882,28.566,28.566,0,0,0,3.74-5.2q.7-2.645,1.763-2.645.7,0,.7.608a2.763,2.763,0,0,1-.76,1.55l-.73.973q0,.638.942.638a2.437,2.437,0,0,0,1.216-.4l.79-.486a.9.9,0,0,1,.3-.03.746.746,0,0,1,.517.3.54.54,0,0,1,.182.547l-2.1,2.645q-1.946,2.494-1.946,3.938t1.338,1.444a6.289,6.289,0,0,0,3.436-1.49A14.739,14.739,0,0,0,85.1,50.862a6.77,6.77,0,0,1,1.034-1.094c.142,0,.213.076.213.228a.863.863,0,0,1-.274.532L85.1,51.622a17.981,17.981,0,0,1-1.824,1.642,7.292,7.292,0,0,1-3.953,1.794" transform="translate(-36.604 -21.365)" fill="#585e58" stroke="rgba(0,0,0,0)" stroke-miterlimit="10" stroke-width="1"/>
    <path id="Path_6323" data-name="Path 6323" d="M97.2,55.148q-1.55,0-1.55-2.006A9.718,9.718,0,0,1,97.441,48.6q1.793-2.9,2.889-2.934a1.308,1.308,0,0,1,.684.243q.38.244.38.486-.153.213-.365.471t-.456.563q-.244.3-.669.866t-.821,1.079q-2.28,2.949-2.28,4.059t.76,1.11a3.592,3.592,0,0,0,1.733-.7,15.421,15.421,0,0,0,4.044-3.466q.546-.7.745-.7c.132,0,.2.081.2.243s-.233.486-.7.973l-1.11,1.156q-.41.425-.563.562c-.1.091-.289.264-.563.517a7.18,7.18,0,0,1-.623.532q-.213.152-.608.456a3.683,3.683,0,0,1-.7.441q-.3.136-.7.319a3.844,3.844,0,0,1-1.52.274m6.37-12.45a.83.83,0,0,1,.411.684.844.844,0,0,1-.38.684,1.35,1.35,0,0,1-.836.289,1.235,1.235,0,0,1-.836-.334.991.991,0,0,1-.38-.76q0-.851,1.155-.852a1.483,1.483,0,0,1,.867.289" transform="translate(-47.979 -21.274)" fill="#585e58" stroke="rgba(0,0,0,0)" stroke-miterlimit="10" stroke-width="1"/>
    <path id="Path_6324" data-name="Path 6324" d="M118.662,44.81l4.378-.061q.091.061.091.091,0,.274-3.785.76t-4.09.578a17.629,17.629,0,0,0-2.128,3.086,8.763,8.763,0,0,0-1.551,3.755q0,1.125,1.551,1.125a5.666,5.666,0,0,0,1.915-.456,11.335,11.335,0,0,0,1.825-.851,19.114,19.114,0,0,0,3.649-3.132q.425-.425.578-.426.091,0,.091.182a1.748,1.748,0,0,1-.456.73,13.6,13.6,0,0,1-3.557,3.132,8.685,8.685,0,0,1-4.53,1.459,2.641,2.641,0,0,1-1.535-.41,1.9,1.9,0,0,1-.593-1.657,8.345,8.345,0,0,1,1.094-3.42q1.1-2.174,1.673-3.238a3.571,3.571,0,0,1-.73.091q-.882,0-.882-.7,0-.517.73-.73a1.807,1.807,0,0,0,.274-.03h1.763q.547-.7,1.246-1.611.851-1.1,1.156-1.095a1.713,1.713,0,0,1,.76.243q.456.244.456.578a6.506,6.506,0,0,1-1.459,1.976q.79.031,2.067.03" transform="translate(-55.437 -21.059)" fill="#585e58" stroke="rgba(0,0,0,0)" stroke-miterlimit="10" stroke-width="1"/>
    <path id="Path_6325" data-name="Path 6325" d="M131,58.024a1.917,1.917,0,0,1-.609-.091q-1.945-.547-1.946-2.189,0-2.128,2.676-4.926t4.8-2.8a1.686,1.686,0,0,1,1.14.38,1.182,1.182,0,0,1,.441.927q0,1.7-2.569,3.253a8.788,8.788,0,0,1-4.18,1.55,1.337,1.337,0,0,1-.426-.061,3.517,3.517,0,0,0-.457,1.733q0,1.582,1.505,1.581t3.907-2.037a19.424,19.424,0,0,0,3.162-3.162q.274-.365.471-.365c.132,0,.2.061.2.183a1.029,1.029,0,0,1-.243.517,18.709,18.709,0,0,1-3.953,3.831A7.191,7.191,0,0,1,131,58.024m5.746-8.756q0-.365-.775-.365a4.147,4.147,0,0,0-2.2,1.186,13.572,13.572,0,0,0-2.979,3.314,1.232,1.232,0,0,0,.4.061,6.36,6.36,0,0,0,3.086-1.231,5.427,5.427,0,0,0,2.417-2.691.749.749,0,0,0,.061-.274" transform="translate(-64.43 -24.089)" fill="#585e58" stroke="rgba(0,0,0,0)" stroke-miterlimit="10" stroke-width="1"/>
    <path id="Path_6326" data-name="Path 6326" d="M148.857,55.715c.212,2.767,3.613,2.644,5.425,1.493.481-.306-.712-.127-.916,0a2.159,2.159,0,0,1-3.3-1.82c-.014-.176-1.232.027-1.209.324" transform="translate(-74.67 -27.753)" fill="#585e58" stroke="rgba(0,0,0,0)" stroke-miterlimit="10" stroke-width="1"/>
    <path id="Path_6327" data-name="Path 6327" d="M159.158,38.128c3.122-7.911,7.111-15.184,14.186-20.215.457-.324-.25-.447-.517-.257-7.22,5.135-11.309,12.491-14.5,20.573-.108.275.719.179.83-.1" transform="translate(-79.417 -8.812)" fill="#585e58" stroke="rgba(0,0,0,0)" stroke-miterlimit="10" stroke-width="1"/>
    <path id="Path_6328" data-name="Path 6328" d="M160.318,29.343a7.924,7.924,0,0,1-.471-3.016l-.566.321.832.158c.228.043.594-.129.563-.4a5.111,5.111,0,0,1,.243-3.169,22.95,22.95,0,0,1,4.177-6.367,22.693,22.693,0,0,1,14.222-6.989c.445-.053.651-.636.084-.569a23.968,23.968,0,0,0-14.743,7.076,23.456,23.456,0,0,0-4.527,6.773,5.457,5.457,0,0,0-.285,3.466l.562-.4-.832-.159c-.193-.036-.535.1-.567.321a8.241,8.241,0,0,0,.479,3.164c.1.358.927.137.829-.222" transform="translate(-79.747 -4.672)" fill="#585e58" stroke="rgba(0,0,0,0)" stroke-miterlimit="10" stroke-width="1"/>
    <path id="Path_6329" data-name="Path 6329" d="M180.228,32.286l-2.89,4.4c-.223.34.613.294.778.042l2.89-4.4c.223-.34-.613-.294-.778-.042" transform="translate(-88.939 -16.095)" fill="#585e58" stroke="rgba(0,0,0,0)" stroke-miterlimit="10" stroke-width="1"/>
    <path id="Path_6330" data-name="Path 6330" d="M192.131,11.959l-4.947,7.26c-.227.334.61.29.779.042L192.909,12c.228-.334-.61-.29-.778-.042" transform="translate(-93.877 -5.9)" fill="#585e58" stroke="rgba(0,0,0,0)" stroke-miterlimit="10" stroke-width="1"/>
    <path id="Path_6331" data-name="Path 6331" d="M168.368,43.019l-2.117.987c-.165.077-.411.31-.095.379l1.4.3.094-.379-2.773,1.348c-.23.112-.38.387,0,.387h1.7l-.167-.288a7.346,7.346,0,0,1-4.538,1.657c-.3,0-.884.458-.327.453a8.916,8.916,0,0,0,5.526-1.987c.192-.158.014-.288-.167-.288h-1.7c0,.129,0,.258,0,.387l2.773-1.347c.162-.079.413-.31.095-.379l-1.4-.3-.094.379,2.117-.987c.522-.244.042-.492-.322-.322" transform="translate(-80.922 -21.551)" fill="#585e58" stroke="rgba(0,0,0,0)" stroke-miterlimit="10" stroke-width="1"/>
    <path id="Path_6332" data-name="Path 6332" d="M183.99,26.179c-.565.008-1.41.177-1.976.186-.227,0-.662.312-.36.526.373.265,1.027.368,1.4.632l.36-.526c-.668.061-1.616.284-2.285.345-.188.017-.7.339-.36.526.47.257,1.221.351,1.691.608l.36-.526c-.716.085-1.713.332-2.429.417-.2.024-.688.313-.361.526.433.282,1.146.4,1.578.685.294.192,1.028-.216.642-.467-.433-.282-1.146-.4-1.578-.685l-.361.526c.717-.085,1.713-.332,2.43-.417.183-.021.709-.336.361-.526-.47-.256-1.222-.351-1.691-.608l-.361.526c.668-.061,1.617-.284,2.285-.345.217-.02.672-.306.361-.526-.373-.265-1.028-.368-1.4-.632l-.361.527c.565-.008,1.41-.178,1.976-.186.464-.007.644-.594.079-.586" transform="translate(-90.254 -13.132)" fill="#585e58" stroke="rgba(0,0,0,0)" stroke-miterlimit="10" stroke-width="1"/>
    <path id="Path_6333" data-name="Path 6333" d="M74.126,15.9c-3.92,0-5.638-1.3-5.638-1.3V10.373h.33c.352,2,1.476,5.2,5.308,5.2,2.841,0,3.436-3.457.793-5.352l-3.5-2.246C68.8,6.3,67.211,4.207,68.972,1.7c0,0,1.079-1.7,4.36-1.7a11.5,11.5,0,0,1,5.33,1.058v3.7h-.33c-.308-1.674-1.409-4.427-5-4.427-2.378,0-3.722,3-.638,5l3.523,2.312c2.929,1.938,3.788,4.338,2.378,6.452,0,0-.991,1.806-4.47,1.806" transform="translate(-34.225)" fill="#64606e" stroke="rgba(0,0,0,0)" stroke-miterlimit="10" stroke-width="1"/>
    <path id="Path_6334" data-name="Path 6334" d="M98.433,21.264a4.755,4.755,0,0,1-2.664-.749v5.537c0,1.211.11,1.7.9,1.894v.33H92.553v-.33c.837-.242.881-.771.881-1.894V12.984c0-.77-.2-.969-1.1-1.211v-.33l3.436-.749v1.74a3.873,3.873,0,0,1,3.3-1.74c2.709,0,4.647,2.114,4.647,5.373,0,3.48-2.269,5.2-5.286,5.2m-.286-9.822a2.431,2.431,0,0,0-2.378,2.466v4.074c.154,2.114,1.365,2.951,2.62,2.951,1.541,0,2.621-1.167,2.621-4.6,0-3.523-1.013-4.889-2.863-4.889" transform="translate(-46.317 -5.364)" fill="#64606e" stroke="rgba(0,0,0,0)" stroke-miterlimit="10" stroke-width="1"/>
    <path id="Path_6335" data-name="Path 6335" d="M123.7,21.265a4.943,4.943,0,0,1-5.153-5.286,5.166,5.166,0,1,1,10.328,0,4.949,4.949,0,0,1-5.175,5.286m0-10.241c-1.63,0-2.4.969-2.4,4.955s.77,4.955,2.4,4.955c1.652,0,2.4-.969,2.4-4.955s-.749-4.955-2.4-4.955" transform="translate(-59.465 -5.364)" fill="#64606e" stroke="rgba(0,0,0,0)" stroke-miterlimit="10" stroke-width="1"/>
    <path id="Path_6336" data-name="Path 6336" d="M148.158,16.024a3.273,3.273,0,0,1-2.929,2c-1.652,0-2.665-.7-2.665-3.369V7.986h-1.1l-.066-.33h1.167V4.616l2.334-.374V7.655h2.62l-.088.33H144.9v6.607c0,1.5.573,2.114,1.652,2.114a1.517,1.517,0,0,0,1.321-.859Z" transform="translate(-70.929 -2.128)" fill="#64606e" stroke="rgba(0,0,0,0)" stroke-miterlimit="10" stroke-width="1"/>
    <rect id="Rectangle_6531" data-name="Rectangle 6531" width="100" height="42.522" transform="translate(0)" fill="none"/>
  </g>
</svg>
