<svg id="Icon_help" data-name="Icon/help" xmlns="http://www.w3.org/2000/svg" width="16" height="16" viewBox="0 0 16 16">
  <g id="Path_789" data-name="Path 789" fill="none">
    <path d="M8,0A8,8,0,1,1,0,8,8,8,0,0,1,8,0Z" stroke="none"/>
    <path d="M 8 1 C 4.140190124511719 1 1 4.140190124511719 1 8 C 1 11.85980987548828 4.140190124511719 15 8 15 C 11.85980987548828 15 15 11.85980987548828 15 8 C 15 4.140190124511719 11.85980987548828 1 8 1 M 8 0 C 12.41827964782715 0 16 3.581720352172852 16 8 C 16 12.41827964782715 12.41827964782715 16 8 16 C 3.581720352172852 16 0 12.41827964782715 0 8 C 0 3.581720352172852 3.581720352172852 0 8 0 Z" stroke="none" fill="#7e8195"/>
  </g>
  <g id="Group_1435" data-name="Group 1435" transform="translate(-150 -294)">
    <line id="Line_401" data-name="Line 401" y2="5.154" transform="translate(158 297.426)" fill="none" stroke="#7e8195" stroke-linecap="round" stroke-linejoin="round" stroke-width="1"/>
    <circle id="Ellipse_231" data-name="Ellipse 231" cx="0.902" cy="0.902" r="0.902" transform="translate(157.098 304.77)" fill="#7e8195"/>
  </g>
</svg>
