<svg xmlns="http://www.w3.org/2000/svg" width="243.427" height="176.018" viewBox="0 0 243.427 176.018"><defs><style>.a{fill:#7e8195;}</style></defs><g transform="translate(-577.077 -687.694)"><circle class="a" cx="1.562" cy="1.562" r="1.562" transform="translate(817.38 687.694)"/><circle class="a" cx="1.562" cy="1.562" r="1.562" transform="translate(777.415 687.694)"/><circle class="a" cx="1.562" cy="1.562" r="1.562" transform="translate(781.855 687.694)"/><circle class="a" cx="1.562" cy="1.562" r="1.562" transform="translate(786.296 687.694)"/><circle class="a" cx="1.562" cy="1.562" r="1.562" transform="translate(790.736 687.694)"/><circle class="a" cx="1.562" cy="1.562" r="1.562" transform="translate(795.177 687.694)"/><circle class="a" cx="1.562" cy="1.562" r="1.562" transform="translate(799.618 687.694)"/><circle class="a" cx="1.562" cy="1.562" r="1.562" transform="translate(804.058 687.694)"/><circle class="a" cx="1.562" cy="1.562" r="1.562" transform="translate(808.499 687.694)"/><circle class="a" cx="1.562" cy="1.562" r="1.562" transform="translate(812.939 687.694)"/><circle class="a" cx="1.562" cy="1.562" r="1.562" transform="translate(763.979 687.694)"/><circle class="a" cx="1.562" cy="1.562" r="1.562" transform="translate(768.429 687.694)"/><circle class="a" cx="1.562" cy="1.562" r="1.562" transform="translate(772.974 687.694)"/><circle class="a" cx="1.562" cy="1.562" r="1.562" transform="translate(817.38 692.486)"/><circle class="a" cx="1.562" cy="1.562" r="1.562" transform="translate(777.415 692.486)"/><circle class="a" cx="1.562" cy="1.562" r="1.562" transform="translate(781.855 692.486)"/><circle class="a" cx="1.562" cy="1.562" r="1.562" transform="translate(786.296 692.486)"/><circle class="a" cx="1.562" cy="1.562" r="1.562" transform="translate(790.736 692.486)"/><circle class="a" cx="1.562" cy="1.562" r="1.562" transform="translate(795.177 692.486)"/><circle class="a" cx="1.562" cy="1.562" r="1.562" transform="translate(799.618 692.486)"/><circle class="a" cx="1.562" cy="1.562" r="1.562" transform="translate(804.058 692.486)"/><circle class="a" cx="1.562" cy="1.562" r="1.562" transform="translate(808.499 692.486)"/><circle class="a" cx="1.562" cy="1.562" r="1.562" transform="translate(812.939 692.486)"/><circle class="a" cx="1.562" cy="1.562" r="1.562" transform="translate(763.979 692.486)"/><circle class="a" cx="1.562" cy="1.562" r="1.562" transform="translate(768.429 692.486)"/><circle class="a" cx="1.562" cy="1.562" r="1.562" transform="translate(772.974 692.486)"/><circle class="a" cx="1.562" cy="1.562" r="1.562" transform="translate(817.38 697.279)"/><circle class="a" cx="1.562" cy="1.562" r="1.562" transform="translate(777.415 697.279)"/><circle class="a" cx="1.562" cy="1.562" r="1.562" transform="translate(781.855 697.279)"/><circle class="a" cx="1.562" cy="1.562" r="1.562" transform="translate(786.296 697.279)"/><circle class="a" cx="1.562" cy="1.562" r="1.562" transform="translate(790.736 697.279)"/><circle class="a" cx="1.562" cy="1.562" r="1.562" transform="translate(795.177 697.279)"/><circle class="a" cx="1.562" cy="1.562" r="1.562" transform="translate(799.618 697.279)"/><circle class="a" cx="1.562" cy="1.562" r="1.562" transform="translate(804.058 697.279)"/><circle class="a" cx="1.562" cy="1.562" r="1.562" transform="translate(808.499 697.279)"/><circle class="a" cx="1.562" cy="1.562" r="1.562" transform="translate(812.939 697.279)"/><circle class="a" cx="1.562" cy="1.562" r="1.562" transform="translate(763.979 697.279)"/><circle class="a" cx="1.562" cy="1.562" r="1.562" transform="translate(768.429 697.279)"/><circle class="a" cx="1.562" cy="1.562" r="1.562" transform="translate(772.974 697.279)"/><circle class="a" cx="1.562" cy="1.562" r="1.562" transform="translate(817.38 702.071)"/><circle class="a" cx="1.562" cy="1.562" r="1.562" transform="translate(777.415 702.071)"/><circle class="a" cx="1.562" cy="1.562" r="1.562" transform="translate(781.855 702.071)"/><circle class="a" cx="1.562" cy="1.562" r="1.562" transform="translate(786.296 702.071)"/><circle class="a" cx="1.562" cy="1.562" r="1.562" transform="translate(790.736 702.071)"/><circle class="a" cx="1.562" cy="1.562" r="1.562" transform="translate(795.177 702.071)"/><circle class="a" cx="1.562" cy="1.562" r="1.562" transform="translate(799.618 702.071)"/><circle class="a" cx="1.562" cy="1.562" r="1.562" transform="translate(804.058 702.071)"/><circle class="a" cx="1.562" cy="1.562" r="1.562" transform="translate(808.499 702.071)"/><circle class="a" cx="1.562" cy="1.562" r="1.562" transform="translate(812.939 702.071)"/><circle class="a" cx="1.562" cy="1.562" r="1.562" transform="translate(763.979 702.071)"/><circle class="a" cx="1.562" cy="1.562" r="1.562" transform="translate(768.429 702.071)"/><circle class="a" cx="1.562" cy="1.562" r="1.562" transform="translate(772.974 702.071)"/><circle class="a" cx="1.562" cy="1.562" r="1.562" transform="translate(817.38 706.863)"/><circle class="a" cx="1.562" cy="1.562" r="1.562" transform="translate(777.415 706.863)"/><circle class="a" cx="1.562" cy="1.562" r="1.562" transform="translate(781.855 706.863)"/><circle class="a" cx="1.562" cy="1.562" r="1.562" transform="translate(786.296 706.863)"/><circle class="a" cx="1.562" cy="1.562" r="1.562" transform="translate(790.736 706.863)"/><circle class="a" cx="1.562" cy="1.562" r="1.562" transform="translate(795.177 706.863)"/><circle class="a" cx="1.562" cy="1.562" r="1.562" transform="translate(799.618 706.863)"/><circle class="a" cx="1.562" cy="1.562" r="1.562" transform="translate(804.058 706.863)"/><circle class="a" cx="1.562" cy="1.562" r="1.562" transform="translate(808.499 706.863)"/><circle class="a" cx="1.562" cy="1.562" r="1.562" transform="translate(812.939 706.863)"/><circle class="a" cx="1.562" cy="1.562" r="1.562" transform="translate(763.979 706.863)"/><circle class="a" cx="1.562" cy="1.562" r="1.562" transform="translate(768.429 706.863)"/><circle class="a" cx="1.562" cy="1.562" r="1.562" transform="translate(772.974 706.863)"/><circle class="a" cx="1.562" cy="1.562" r="1.562" transform="translate(817.38 711.655)"/><circle class="a" cx="1.562" cy="1.562" r="1.562" transform="translate(777.415 711.655)"/><circle class="a" cx="1.562" cy="1.562" r="1.562" transform="translate(781.855 711.655)"/><circle class="a" cx="1.562" cy="1.562" r="1.562" transform="translate(786.296 711.655)"/><circle class="a" cx="1.562" cy="1.562" r="1.562" transform="translate(790.736 711.655)"/><circle class="a" cx="1.562" cy="1.562" r="1.562" transform="translate(795.177 711.655)"/><circle class="a" cx="1.562" cy="1.562" r="1.562" transform="translate(799.618 711.655)"/><circle class="a" cx="1.562" cy="1.562" r="1.562" transform="translate(804.058 711.655)"/><circle class="a" cx="1.562" cy="1.562" r="1.562" transform="translate(808.499 711.655)"/><circle class="a" cx="1.562" cy="1.562" r="1.562" transform="translate(812.939 711.655)"/><circle class="a" cx="1.562" cy="1.562" r="1.562" transform="translate(763.979 711.655)"/><circle class="a" cx="1.562" cy="1.562" r="1.562" transform="translate(768.429 711.655)"/><circle class="a" cx="1.562" cy="1.562" r="1.562" transform="translate(772.974 711.655)"/><circle class="a" cx="1.562" cy="1.562" r="1.562" transform="translate(817.38 716.448)"/><circle class="a" cx="1.562" cy="1.562" r="1.562" transform="translate(777.415 716.448)"/><circle class="a" cx="1.562" cy="1.562" r="1.562" transform="translate(781.855 716.448)"/><circle class="a" cx="1.562" cy="1.562" r="1.562" transform="translate(786.296 716.448)"/><circle class="a" cx="1.562" cy="1.562" r="1.562" transform="translate(790.736 716.448)"/><circle class="a" cx="1.562" cy="1.562" r="1.562" transform="translate(795.177 716.448)"/><circle class="a" cx="1.562" cy="1.562" r="1.562" transform="translate(799.618 716.448)"/><circle class="a" cx="1.562" cy="1.562" r="1.562" transform="translate(804.058 716.448)"/><circle class="a" cx="1.562" cy="1.562" r="1.562" transform="translate(808.499 716.448)"/><circle class="a" cx="1.562" cy="1.562" r="1.562" transform="translate(812.939 716.448)"/><circle class="a" cx="1.562" cy="1.562" r="1.562" transform="translate(763.979 716.448)"/><circle class="a" cx="1.562" cy="1.562" r="1.562" transform="translate(768.429 716.448)"/><circle class="a" cx="1.562" cy="1.562" r="1.562" transform="translate(772.974 716.448)"/><circle class="a" cx="1.562" cy="1.562" r="1.562" transform="translate(817.38 721.312)"/><circle class="a" cx="1.562" cy="1.562" r="1.562" transform="translate(777.415 721.312)"/><circle class="a" cx="1.562" cy="1.562" r="1.562" transform="translate(781.855 721.312)"/><circle class="a" cx="1.562" cy="1.562" r="1.562" transform="translate(786.296 721.312)"/><circle class="a" cx="1.562" cy="1.562" r="1.562" transform="translate(790.736 721.312)"/><circle class="a" cx="1.562" cy="1.562" r="1.562" transform="translate(795.177 721.312)"/><circle class="a" cx="1.562" cy="1.562" r="1.562" transform="translate(799.618 721.312)"/><circle class="a" cx="1.562" cy="1.562" r="1.562" transform="translate(804.058 721.312)"/><circle class="a" cx="1.562" cy="1.562" r="1.562" transform="translate(808.499 721.312)"/><circle class="a" cx="1.562" cy="1.562" r="1.562" transform="translate(812.939 721.312)"/><circle class="a" cx="1.562" cy="1.562" r="1.562" transform="translate(763.979 721.312)"/><circle class="a" cx="1.562" cy="1.562" r="1.562" transform="translate(768.429 721.312)"/><circle class="a" cx="1.562" cy="1.562" r="1.562" transform="translate(772.974 721.312)"/><circle class="a" cx="1.562" cy="1.562" r="1.562" transform="translate(817.38 726.115)"/><circle class="a" cx="1.562" cy="1.562" r="1.562" transform="translate(777.415 726.115)"/><circle class="a" cx="1.562" cy="1.562" r="1.562" transform="translate(781.855 726.115)"/><circle class="a" cx="1.562" cy="1.562" r="1.562" transform="translate(786.296 726.115)"/><circle class="a" cx="1.562" cy="1.562" r="1.562" transform="translate(790.736 726.115)"/><circle class="a" cx="1.562" cy="1.562" r="1.562" transform="translate(795.177 726.115)"/><circle class="a" cx="1.562" cy="1.562" r="1.562" transform="translate(799.618 726.115)"/><circle class="a" cx="1.562" cy="1.562" r="1.562" transform="translate(804.058 726.115)"/><circle class="a" cx="1.562" cy="1.562" r="1.562" transform="translate(808.499 726.115)"/><circle class="a" cx="1.562" cy="1.562" r="1.562" transform="translate(812.939 726.115)"/><circle class="a" cx="1.562" cy="1.562" r="1.562" transform="translate(763.979 726.115)"/><circle class="a" cx="1.562" cy="1.562" r="1.562" transform="translate(768.429 726.115)"/><circle class="a" cx="1.562" cy="1.562" r="1.562" transform="translate(772.974 726.115)"/><circle class="a" cx="1.562" cy="1.562" r="1.562" transform="translate(817.38 730.917)"/><circle class="a" cx="1.562" cy="1.562" r="1.562" transform="translate(777.415 730.917)"/><circle class="a" cx="1.562" cy="1.562" r="1.562" transform="translate(781.855 730.917)"/><circle class="a" cx="1.562" cy="1.562" r="1.562" transform="translate(786.296 730.917)"/><circle class="a" cx="1.562" cy="1.562" r="1.562" transform="translate(790.736 730.917)"/><circle class="a" cx="1.562" cy="1.562" r="1.562" transform="translate(795.177 730.917)"/><circle class="a" cx="1.562" cy="1.562" r="1.562" transform="translate(799.618 730.917)"/><circle class="a" cx="1.562" cy="1.562" r="1.562" transform="translate(804.058 730.917)"/><circle class="a" cx="1.562" cy="1.562" r="1.562" transform="translate(808.499 730.917)"/><circle class="a" cx="1.562" cy="1.562" r="1.562" transform="translate(812.939 730.917)"/><circle class="a" cx="1.562" cy="1.562" r="1.562" transform="translate(763.979 730.917)"/><circle class="a" cx="1.562" cy="1.562" r="1.562" transform="translate(768.429 730.917)"/><circle class="a" cx="1.562" cy="1.562" r="1.562" transform="translate(772.974 730.917)"/><circle class="a" cx="1.562" cy="1.562" r="1.562" transform="translate(777.415 735.72)"/><circle class="a" cx="1.562" cy="1.562" r="1.562" transform="translate(781.855 735.72)"/><circle class="a" cx="1.562" cy="1.562" r="1.562" transform="translate(786.296 735.72)"/><circle class="a" cx="1.562" cy="1.562" r="1.562" transform="translate(790.736 735.72)"/><circle class="a" cx="1.562" cy="1.562" r="1.562" transform="translate(763.979 735.72)"/><circle class="a" cx="1.562" cy="1.562" r="1.562" transform="translate(768.429 735.72)"/><circle class="a" cx="1.562" cy="1.562" r="1.562" transform="translate(772.974 735.72)"/><circle class="a" cx="1.562" cy="1.562" r="1.562" transform="translate(777.415 750.127)"/><circle class="a" cx="1.562" cy="1.562" r="1.562" transform="translate(781.855 750.127)"/><circle class="a" cx="1.562" cy="1.562" r="1.562" transform="translate(786.296 750.127)"/><circle class="a" cx="1.562" cy="1.562" r="1.562" transform="translate(790.736 750.127)"/><circle class="a" cx="1.562" cy="1.562" r="1.562" transform="translate(795.177 750.127)"/><circle class="a" cx="1.562" cy="1.562" r="1.562" transform="translate(799.618 750.127)"/><circle class="a" cx="1.562" cy="1.562" r="1.562" transform="translate(763.979 750.127)"/><circle class="a" cx="1.562" cy="1.562" r="1.562" transform="translate(768.429 750.127)"/><circle class="a" cx="1.562" cy="1.562" r="1.562" transform="translate(772.974 750.127)"/><circle class="a" cx="1.562" cy="1.562" r="1.562" transform="translate(777.415 754.93)"/><circle class="a" cx="1.562" cy="1.562" r="1.562" transform="translate(781.855 754.93)"/><circle class="a" cx="1.562" cy="1.562" r="1.562" transform="translate(786.296 754.93)"/><circle class="a" cx="1.562" cy="1.562" r="1.562" transform="translate(790.736 754.93)"/><circle class="a" cx="1.562" cy="1.562" r="1.562" transform="translate(795.177 754.93)"/><circle class="a" cx="1.562" cy="1.562" r="1.562" transform="translate(799.618 754.93)"/><circle class="a" cx="1.562" cy="1.562" r="1.562" transform="translate(763.979 754.93)"/><circle class="a" cx="1.562" cy="1.562" r="1.562" transform="translate(768.429 754.93)"/><circle class="a" cx="1.562" cy="1.562" r="1.562" transform="translate(772.974 754.93)"/><circle class="a" cx="1.562" cy="1.562" r="1.562" transform="translate(777.415 759.733)"/><circle class="a" cx="1.562" cy="1.562" r="1.562" transform="translate(781.855 759.733)"/><circle class="a" cx="1.562" cy="1.562" r="1.562" transform="translate(786.296 759.733)"/><circle class="a" cx="1.562" cy="1.562" r="1.562" transform="translate(790.736 759.733)"/><circle class="a" cx="1.562" cy="1.562" r="1.562" transform="translate(795.177 759.733)"/><circle class="a" cx="1.562" cy="1.562" r="1.562" transform="translate(799.618 759.733)"/><circle class="a" cx="1.562" cy="1.562" r="1.562" transform="translate(763.979 759.733)"/><circle class="a" cx="1.562" cy="1.562" r="1.562" transform="translate(768.429 759.733)"/><circle class="a" cx="1.562" cy="1.562" r="1.562" transform="translate(772.974 759.733)"/><circle class="a" cx="1.562" cy="1.562" r="1.562" transform="translate(777.415 764.535)"/><circle class="a" cx="1.562" cy="1.562" r="1.562" transform="translate(781.855 764.535)"/><circle class="a" cx="1.562" cy="1.562" r="1.562" transform="translate(786.296 764.535)"/><circle class="a" cx="1.562" cy="1.562" r="1.562" transform="translate(790.736 764.535)"/><circle class="a" cx="1.562" cy="1.562" r="1.562" transform="translate(795.177 764.535)"/><circle class="a" cx="1.562" cy="1.562" r="1.562" transform="translate(799.618 764.535)"/><circle class="a" cx="1.562" cy="1.562" r="1.562" transform="translate(763.979 764.535)"/><circle class="a" cx="1.562" cy="1.562" r="1.562" transform="translate(768.429 764.535)"/><circle class="a" cx="1.562" cy="1.562" r="1.562" transform="translate(772.974 764.535)"/><circle class="a" cx="1.562" cy="1.562" r="1.562" transform="translate(777.415 769.338)"/><circle class="a" cx="1.562" cy="1.562" r="1.562" transform="translate(781.855 769.338)"/><circle class="a" cx="1.562" cy="1.562" r="1.562" transform="translate(786.296 769.338)"/><circle class="a" cx="1.562" cy="1.562" r="1.562" transform="translate(790.736 769.338)"/><circle class="a" cx="1.562" cy="1.562" r="1.562" transform="translate(795.177 769.338)"/><circle class="a" cx="1.562" cy="1.562" r="1.562" transform="translate(799.618 769.338)"/><circle class="a" cx="1.562" cy="1.562" r="1.562" transform="translate(763.979 769.338)"/><circle class="a" cx="1.562" cy="1.562" r="1.562" transform="translate(768.429 769.338)"/><circle class="a" cx="1.562" cy="1.562" r="1.562" transform="translate(772.974 769.338)"/><circle class="a" cx="1.562" cy="1.562" r="1.562" transform="translate(777.415 774.14)"/><circle class="a" cx="1.562" cy="1.562" r="1.562" transform="translate(781.855 774.14)"/><circle class="a" cx="1.562" cy="1.562" r="1.562" transform="translate(786.296 774.14)"/><circle class="a" cx="1.562" cy="1.562" r="1.562" transform="translate(790.736 774.14)"/><circle class="a" cx="1.562" cy="1.562" r="1.562" transform="translate(795.177 774.14)"/><circle class="a" cx="1.562" cy="1.562" r="1.562" transform="translate(799.618 774.14)"/><circle class="a" cx="1.562" cy="1.562" r="1.562" transform="translate(763.979 774.14)"/><circle class="a" cx="1.562" cy="1.562" r="1.562" transform="translate(768.429 774.14)"/><circle class="a" cx="1.562" cy="1.562" r="1.562" transform="translate(772.974 774.14)"/><circle class="a" cx="1.562" cy="1.562" r="1.562" transform="translate(777.415 778.943)"/><circle class="a" cx="1.562" cy="1.562" r="1.562" transform="translate(781.855 778.943)"/><circle class="a" cx="1.562" cy="1.562" r="1.562" transform="translate(786.296 778.943)"/><circle class="a" cx="1.562" cy="1.562" r="1.562" transform="translate(790.736 778.943)"/><circle class="a" cx="1.562" cy="1.562" r="1.562" transform="translate(795.177 778.943)"/><circle class="a" cx="1.562" cy="1.562" r="1.562" transform="translate(799.618 778.943)"/><circle class="a" cx="1.562" cy="1.562" r="1.562" transform="translate(763.979 778.943)"/><circle class="a" cx="1.562" cy="1.562" r="1.562" transform="translate(768.429 778.943)"/><circle class="a" cx="1.562" cy="1.562" r="1.562" transform="translate(772.974 778.943)"/><circle class="a" cx="1.562" cy="1.562" r="1.562" transform="translate(777.415 783.746)"/><circle class="a" cx="1.562" cy="1.562" r="1.562" transform="translate(781.855 783.746)"/><circle class="a" cx="1.562" cy="1.562" r="1.562" transform="translate(786.296 783.746)"/><circle class="a" cx="1.562" cy="1.562" r="1.562" transform="translate(790.736 783.746)"/><circle class="a" cx="1.562" cy="1.562" r="1.562" transform="translate(795.177 783.746)"/><circle class="a" cx="1.562" cy="1.562" r="1.562" transform="translate(799.618 783.746)"/><circle class="a" cx="1.562" cy="1.562" r="1.562" transform="translate(763.979 783.746)"/><circle class="a" cx="1.562" cy="1.562" r="1.562" transform="translate(768.429 783.746)"/><circle class="a" cx="1.562" cy="1.562" r="1.562" transform="translate(772.974 783.746)"/><circle class="a" cx="1.562" cy="1.562" r="1.562" transform="translate(657.178 788.548)"/><circle class="a" cx="1.562" cy="1.562" r="1.562" transform="translate(661.628 788.548)"/><circle class="a" cx="1.562" cy="1.562" r="1.562" transform="translate(674.978 788.548)"/><circle class="a" cx="1.562" cy="1.562" r="1.562" transform="translate(679.428 788.548)"/><circle class="a" cx="1.562" cy="1.562" r="1.562" transform="translate(683.879 788.548)"/><circle class="a" cx="1.562" cy="1.562" r="1.562" transform="translate(688.329 788.548)"/><circle class="a" cx="1.562" cy="1.562" r="1.562" transform="translate(692.779 788.548)"/><circle class="a" cx="1.562" cy="1.562" r="1.562" transform="translate(617.043 788.548)"/><circle class="a" cx="1.562" cy="1.562" r="1.562" transform="translate(621.483 788.548)"/><circle class="a" cx="1.562" cy="1.562" r="1.562" transform="translate(634.928 788.548)"/><circle class="a" cx="1.562" cy="1.562" r="1.562" transform="translate(639.378 788.548)"/><circle class="a" cx="1.562" cy="1.562" r="1.562" transform="translate(643.828 788.548)"/><circle class="a" cx="1.562" cy="1.562" r="1.562" transform="translate(648.278 788.548)"/><circle class="a" cx="1.562" cy="1.562" r="1.562" transform="translate(652.728 788.548)"/><circle class="a" cx="1.562" cy="1.562" r="1.562" transform="translate(577.077 788.548)"/><circle class="a" cx="1.562" cy="1.562" r="1.562" transform="translate(581.518 788.548)"/><circle class="a" cx="1.562" cy="1.562" r="1.562" transform="translate(585.958 788.548)"/><circle class="a" cx="1.562" cy="1.562" r="1.562" transform="translate(590.399 788.548)"/><circle class="a" cx="1.562" cy="1.562" r="1.562" transform="translate(594.84 788.548)"/><circle class="a" cx="1.562" cy="1.562" r="1.562" transform="translate(599.28 788.548)"/><circle class="a" cx="1.562" cy="1.562" r="1.562" transform="translate(603.721 788.548)"/><circle class="a" cx="1.562" cy="1.562" r="1.562" transform="translate(608.161 788.548)"/><circle class="a" cx="1.562" cy="1.562" r="1.562" transform="translate(612.602 788.548)"/><circle class="a" cx="1.562" cy="1.562" r="1.562" transform="translate(777.415 788.548)"/><circle class="a" cx="1.562" cy="1.562" r="1.562" transform="translate(781.855 788.548)"/><circle class="a" cx="1.562" cy="1.562" r="1.562" transform="translate(786.296 788.548)"/><circle class="a" cx="1.562" cy="1.562" r="1.562" transform="translate(790.736 788.548)"/><circle class="a" cx="1.562" cy="1.562" r="1.562" transform="translate(795.177 788.548)"/><circle class="a" cx="1.562" cy="1.562" r="1.562" transform="translate(799.618 788.548)"/><circle class="a" cx="1.562" cy="1.562" r="1.562" transform="translate(737.279 788.548)"/><circle class="a" cx="1.562" cy="1.562" r="1.562" transform="translate(741.729 788.548)"/><circle class="a" cx="1.562" cy="1.562" r="1.562" transform="translate(746.179 788.548)"/><circle class="a" cx="1.562" cy="1.562" r="1.562" transform="translate(750.629 788.548)"/><circle class="a" cx="1.562" cy="1.562" r="1.562" transform="translate(763.979 788.548)"/><circle class="a" cx="1.562" cy="1.562" r="1.562" transform="translate(768.429 788.548)"/><circle class="a" cx="1.562" cy="1.562" r="1.562" transform="translate(772.974 788.548)"/><circle class="a" cx="1.562" cy="1.562" r="1.562" transform="translate(697.229 788.548)"/><circle class="a" cx="1.562" cy="1.562" r="1.562" transform="translate(701.679 788.548)"/><circle class="a" cx="1.562" cy="1.562" r="1.562" transform="translate(715.029 788.548)"/><circle class="a" cx="1.562" cy="1.562" r="1.562" transform="translate(719.479 788.548)"/><circle class="a" cx="1.562" cy="1.562" r="1.562" transform="translate(723.929 788.548)"/><circle class="a" cx="1.562" cy="1.562" r="1.562" transform="translate(728.379 788.548)"/><circle class="a" cx="1.562" cy="1.562" r="1.562" transform="translate(732.829 788.548)"/><circle class="a" cx="1.562" cy="1.562" r="1.562" transform="translate(657.178 793.351)"/><circle class="a" cx="1.562" cy="1.562" r="1.562" transform="translate(661.628 793.351)"/><circle class="a" cx="1.562" cy="1.562" r="1.562" transform="translate(674.978 793.351)"/><circle class="a" cx="1.562" cy="1.562" r="1.562" transform="translate(679.428 793.351)"/><circle class="a" cx="1.562" cy="1.562" r="1.562" transform="translate(683.879 793.351)"/><circle class="a" cx="1.562" cy="1.562" r="1.562" transform="translate(688.329 793.351)"/><circle class="a" cx="1.562" cy="1.562" r="1.562" transform="translate(692.779 793.351)"/><circle class="a" cx="1.562" cy="1.562" r="1.562" transform="translate(617.043 793.351)"/><circle class="a" cx="1.562" cy="1.562" r="1.562" transform="translate(621.483 793.351)"/><circle class="a" cx="1.562" cy="1.562" r="1.562" transform="translate(634.928 793.351)"/><circle class="a" cx="1.562" cy="1.562" r="1.562" transform="translate(639.378 793.351)"/><circle class="a" cx="1.562" cy="1.562" r="1.562" transform="translate(643.828 793.351)"/><circle class="a" cx="1.562" cy="1.562" r="1.562" transform="translate(648.278 793.351)"/><circle class="a" cx="1.562" cy="1.562" r="1.562" transform="translate(652.728 793.351)"/><circle class="a" cx="1.562" cy="1.562" r="1.562" transform="translate(577.077 793.351)"/><circle class="a" cx="1.562" cy="1.562" r="1.562" transform="translate(581.518 793.351)"/><circle class="a" cx="1.562" cy="1.562" r="1.562" transform="translate(585.958 793.351)"/><circle class="a" cx="1.562" cy="1.562" r="1.562" transform="translate(590.399 793.351)"/><circle class="a" cx="1.562" cy="1.562" r="1.562" transform="translate(594.84 793.351)"/><circle class="a" cx="1.562" cy="1.562" r="1.562" transform="translate(599.28 793.351)"/><circle class="a" cx="1.562" cy="1.562" r="1.562" transform="translate(603.721 793.351)"/><circle class="a" cx="1.562" cy="1.562" r="1.562" transform="translate(608.161 793.351)"/><circle class="a" cx="1.562" cy="1.562" r="1.562" transform="translate(612.602 793.351)"/><circle class="a" cx="1.562" cy="1.562" r="1.562" transform="translate(777.415 793.351)"/><circle class="a" cx="1.562" cy="1.562" r="1.562" transform="translate(781.855 793.351)"/><circle class="a" cx="1.562" cy="1.562" r="1.562" transform="translate(786.296 793.351)"/><circle class="a" cx="1.562" cy="1.562" r="1.562" transform="translate(790.736 793.351)"/><circle class="a" cx="1.562" cy="1.562" r="1.562" transform="translate(795.177 793.351)"/><circle class="a" cx="1.562" cy="1.562" r="1.562" transform="translate(799.618 793.351)"/><circle class="a" cx="1.562" cy="1.562" r="1.562" transform="translate(737.279 793.351)"/><circle class="a" cx="1.562" cy="1.562" r="1.562" transform="translate(741.729 793.351)"/><circle class="a" cx="1.562" cy="1.562" r="1.562" transform="translate(746.179 793.351)"/><circle class="a" cx="1.562" cy="1.562" r="1.562" transform="translate(750.629 793.351)"/><circle class="a" cx="1.562" cy="1.562" r="1.562" transform="translate(763.979 793.351)"/><circle class="a" cx="1.562" cy="1.562" r="1.562" transform="translate(768.429 793.351)"/><circle class="a" cx="1.562" cy="1.562" r="1.562" transform="translate(772.974 793.351)"/><circle class="a" cx="1.562" cy="1.562" r="1.562" transform="translate(697.229 793.351)"/><circle class="a" cx="1.562" cy="1.562" r="1.562" transform="translate(701.679 793.351)"/><circle class="a" cx="1.562" cy="1.562" r="1.562" transform="translate(715.029 793.351)"/><circle class="a" cx="1.562" cy="1.562" r="1.562" transform="translate(719.479 793.351)"/><circle class="a" cx="1.562" cy="1.562" r="1.562" transform="translate(723.929 793.351)"/><circle class="a" cx="1.562" cy="1.562" r="1.562" transform="translate(728.379 793.351)"/><circle class="a" cx="1.562" cy="1.562" r="1.562" transform="translate(732.829 793.351)"/><circle class="a" cx="1.562" cy="1.562" r="1.562" transform="translate(657.178 798.153)"/><circle class="a" cx="1.562" cy="1.562" r="1.562" transform="translate(661.628 798.153)"/><circle class="a" cx="1.562" cy="1.562" r="1.562" transform="translate(674.978 798.153)"/><circle class="a" cx="1.562" cy="1.562" r="1.562" transform="translate(679.428 798.153)"/><circle class="a" cx="1.562" cy="1.562" r="1.562" transform="translate(683.879 798.153)"/><circle class="a" cx="1.562" cy="1.562" r="1.562" transform="translate(688.329 798.153)"/><circle class="a" cx="1.562" cy="1.562" r="1.562" transform="translate(692.779 798.153)"/><circle class="a" cx="1.562" cy="1.562" r="1.562" transform="translate(617.043 798.153)"/><circle class="a" cx="1.562" cy="1.562" r="1.562" transform="translate(621.483 798.153)"/><circle class="a" cx="1.562" cy="1.562" r="1.562" transform="translate(634.928 798.153)"/><circle class="a" cx="1.562" cy="1.562" r="1.562" transform="translate(639.378 798.153)"/><circle class="a" cx="1.562" cy="1.562" r="1.562" transform="translate(643.828 798.153)"/><circle class="a" cx="1.562" cy="1.562" r="1.562" transform="translate(648.278 798.153)"/><circle class="a" cx="1.562" cy="1.562" r="1.562" transform="translate(652.728 798.153)"/><circle class="a" cx="1.562" cy="1.562" r="1.562" transform="translate(577.077 798.153)"/><circle class="a" cx="1.562" cy="1.562" r="1.562" transform="translate(581.518 798.153)"/><circle class="a" cx="1.562" cy="1.562" r="1.562" transform="translate(585.958 798.153)"/><circle class="a" cx="1.562" cy="1.562" r="1.562" transform="translate(590.399 798.153)"/><circle class="a" cx="1.562" cy="1.562" r="1.562" transform="translate(594.84 798.153)"/><circle class="a" cx="1.562" cy="1.562" r="1.562" transform="translate(599.28 798.153)"/><circle class="a" cx="1.562" cy="1.562" r="1.562" transform="translate(603.721 798.153)"/><circle class="a" cx="1.562" cy="1.562" r="1.562" transform="translate(608.161 798.153)"/><circle class="a" cx="1.562" cy="1.562" r="1.562" transform="translate(612.602 798.153)"/><circle class="a" cx="1.562" cy="1.562" r="1.562" transform="translate(777.415 798.153)"/><circle class="a" cx="1.562" cy="1.562" r="1.562" transform="translate(781.855 798.153)"/><circle class="a" cx="1.562" cy="1.562" r="1.562" transform="translate(786.296 798.153)"/><circle class="a" cx="1.562" cy="1.562" r="1.562" transform="translate(790.736 798.153)"/><circle class="a" cx="1.562" cy="1.562" r="1.562" transform="translate(795.177 798.153)"/><circle class="a" cx="1.562" cy="1.562" r="1.562" transform="translate(799.618 798.153)"/><circle class="a" cx="1.562" cy="1.562" r="1.562" transform="translate(737.279 798.153)"/><circle class="a" cx="1.562" cy="1.562" r="1.562" transform="translate(741.729 798.153)"/><circle class="a" cx="1.562" cy="1.562" r="1.562" transform="translate(746.179 798.153)"/><circle class="a" cx="1.562" cy="1.562" r="1.562" transform="translate(750.629 798.153)"/><circle class="a" cx="1.562" cy="1.562" r="1.562" transform="translate(763.979 798.153)"/><circle class="a" cx="1.562" cy="1.562" r="1.562" transform="translate(768.429 798.153)"/><circle class="a" cx="1.562" cy="1.562" r="1.562" transform="translate(772.974 798.153)"/><circle class="a" cx="1.562" cy="1.562" r="1.562" transform="translate(697.229 798.153)"/><circle class="a" cx="1.562" cy="1.562" r="1.562" transform="translate(701.679 798.153)"/><circle class="a" cx="1.562" cy="1.562" r="1.562" transform="translate(715.029 798.153)"/><circle class="a" cx="1.562" cy="1.562" r="1.562" transform="translate(719.479 798.153)"/><circle class="a" cx="1.562" cy="1.562" r="1.562" transform="translate(723.929 798.153)"/><circle class="a" cx="1.562" cy="1.562" r="1.562" transform="translate(728.379 798.153)"/><circle class="a" cx="1.562" cy="1.562" r="1.562" transform="translate(732.829 798.153)"/><circle class="a" cx="1.562" cy="1.562" r="1.562" transform="translate(657.178 802.956)"/><circle class="a" cx="1.562" cy="1.562" r="1.562" transform="translate(661.628 802.956)"/><circle class="a" cx="1.562" cy="1.562" r="1.562" transform="translate(674.978 802.956)"/><circle class="a" cx="1.562" cy="1.562" r="1.562" transform="translate(679.428 802.956)"/><circle class="a" cx="1.562" cy="1.562" r="1.562" transform="translate(683.879 802.956)"/><circle class="a" cx="1.562" cy="1.562" r="1.562" transform="translate(688.329 802.956)"/><circle class="a" cx="1.562" cy="1.562" r="1.562" transform="translate(692.779 802.956)"/><circle class="a" cx="1.562" cy="1.562" r="1.562" transform="translate(617.043 802.956)"/><circle class="a" cx="1.562" cy="1.562" r="1.562" transform="translate(621.483 802.956)"/><circle class="a" cx="1.562" cy="1.562" r="1.562" transform="translate(634.928 802.956)"/><circle class="a" cx="1.562" cy="1.562" r="1.562" transform="translate(639.378 802.956)"/><circle class="a" cx="1.562" cy="1.562" r="1.562" transform="translate(643.828 802.956)"/><circle class="a" cx="1.562" cy="1.562" r="1.562" transform="translate(648.278 802.956)"/><circle class="a" cx="1.562" cy="1.562" r="1.562" transform="translate(652.728 802.956)"/><circle class="a" cx="1.562" cy="1.562" r="1.562" transform="translate(577.077 802.956)"/><circle class="a" cx="1.562" cy="1.562" r="1.562" transform="translate(581.518 802.956)"/><circle class="a" cx="1.562" cy="1.562" r="1.562" transform="translate(585.958 802.956)"/><circle class="a" cx="1.562" cy="1.562" r="1.562" transform="translate(590.399 802.956)"/><circle class="a" cx="1.562" cy="1.562" r="1.562" transform="translate(594.84 802.956)"/><circle class="a" cx="1.562" cy="1.562" r="1.562" transform="translate(599.28 802.956)"/><circle class="a" cx="1.562" cy="1.562" r="1.562" transform="translate(603.721 802.956)"/><circle class="a" cx="1.562" cy="1.562" r="1.562" transform="translate(608.161 802.956)"/><circle class="a" cx="1.562" cy="1.562" r="1.562" transform="translate(612.602 802.956)"/><circle class="a" cx="1.562" cy="1.562" r="1.562" transform="translate(777.415 802.956)"/><circle class="a" cx="1.562" cy="1.562" r="1.562" transform="translate(781.855 802.956)"/><circle class="a" cx="1.562" cy="1.562" r="1.562" transform="translate(786.296 802.956)"/><circle class="a" cx="1.562" cy="1.562" r="1.562" transform="translate(790.736 802.956)"/><circle class="a" cx="1.562" cy="1.562" r="1.562" transform="translate(795.177 802.956)"/><circle class="a" cx="1.562" cy="1.562" r="1.562" transform="translate(799.618 802.956)"/><circle class="a" cx="1.562" cy="1.562" r="1.562" transform="translate(737.279 802.956)"/><circle class="a" cx="1.562" cy="1.562" r="1.562" transform="translate(741.729 802.956)"/><circle class="a" cx="1.562" cy="1.562" r="1.562" transform="translate(746.179 802.956)"/><circle class="a" cx="1.562" cy="1.562" r="1.562" transform="translate(750.629 802.956)"/><circle class="a" cx="1.562" cy="1.562" r="1.562" transform="translate(763.979 802.956)"/><circle class="a" cx="1.562" cy="1.562" r="1.562" transform="translate(768.429 802.956)"/><circle class="a" cx="1.562" cy="1.562" r="1.562" transform="translate(772.974 802.956)"/><circle class="a" cx="1.562" cy="1.562" r="1.562" transform="translate(697.229 802.956)"/><circle class="a" cx="1.562" cy="1.562" r="1.562" transform="translate(701.679 802.956)"/><circle class="a" cx="1.562" cy="1.562" r="1.562" transform="translate(715.029 802.956)"/><circle class="a" cx="1.562" cy="1.562" r="1.562" transform="translate(719.479 802.956)"/><circle class="a" cx="1.562" cy="1.562" r="1.562" transform="translate(723.929 802.956)"/><circle class="a" cx="1.562" cy="1.562" r="1.562" transform="translate(728.379 802.956)"/><circle class="a" cx="1.562" cy="1.562" r="1.562" transform="translate(732.829 802.956)"/><circle class="a" cx="1.562" cy="1.562" r="1.562" transform="translate(657.178 807.759)"/><circle class="a" cx="1.562" cy="1.562" r="1.562" transform="translate(661.628 807.759)"/><circle class="a" cx="1.562" cy="1.562" r="1.562" transform="translate(674.978 807.759)"/><circle class="a" cx="1.562" cy="1.562" r="1.562" transform="translate(679.428 807.759)"/><circle class="a" cx="1.562" cy="1.562" r="1.562" transform="translate(683.879 807.759)"/><circle class="a" cx="1.562" cy="1.562" r="1.562" transform="translate(688.329 807.759)"/><circle class="a" cx="1.562" cy="1.562" r="1.562" transform="translate(692.779 807.759)"/><circle class="a" cx="1.562" cy="1.562" r="1.562" transform="translate(617.043 807.759)"/><circle class="a" cx="1.562" cy="1.562" r="1.562" transform="translate(621.483 807.759)"/><circle class="a" cx="1.562" cy="1.562" r="1.562" transform="translate(634.928 807.759)"/><circle class="a" cx="1.562" cy="1.562" r="1.562" transform="translate(639.378 807.759)"/><circle class="a" cx="1.562" cy="1.562" r="1.562" transform="translate(643.828 807.759)"/><circle class="a" cx="1.562" cy="1.562" r="1.562" transform="translate(648.278 807.759)"/><circle class="a" cx="1.562" cy="1.562" r="1.562" transform="translate(652.728 807.759)"/><circle class="a" cx="1.562" cy="1.562" r="1.562" transform="translate(577.077 807.759)"/><circle class="a" cx="1.562" cy="1.562" r="1.562" transform="translate(581.518 807.759)"/><circle class="a" cx="1.562" cy="1.562" r="1.562" transform="translate(585.958 807.759)"/><circle class="a" cx="1.562" cy="1.562" r="1.562" transform="translate(590.399 807.759)"/><circle class="a" cx="1.562" cy="1.562" r="1.562" transform="translate(594.84 807.759)"/><circle class="a" cx="1.562" cy="1.562" r="1.562" transform="translate(599.28 807.759)"/><circle class="a" cx="1.562" cy="1.562" r="1.562" transform="translate(603.721 807.759)"/><circle class="a" cx="1.562" cy="1.562" r="1.562" transform="translate(608.161 807.759)"/><circle class="a" cx="1.562" cy="1.562" r="1.562" transform="translate(612.602 807.759)"/><circle class="a" cx="1.562" cy="1.562" r="1.562" transform="translate(777.415 807.759)"/><circle class="a" cx="1.562" cy="1.562" r="1.562" transform="translate(781.855 807.759)"/><circle class="a" cx="1.562" cy="1.562" r="1.562" transform="translate(786.296 807.759)"/><circle class="a" cx="1.562" cy="1.562" r="1.562" transform="translate(790.736 807.759)"/><circle class="a" cx="1.562" cy="1.562" r="1.562" transform="translate(795.177 807.759)"/><circle class="a" cx="1.562" cy="1.562" r="1.562" transform="translate(799.618 807.759)"/><circle class="a" cx="1.562" cy="1.562" r="1.562" transform="translate(737.279 807.759)"/><circle class="a" cx="1.562" cy="1.562" r="1.562" transform="translate(741.729 807.759)"/><circle class="a" cx="1.562" cy="1.562" r="1.562" transform="translate(746.179 807.759)"/><circle class="a" cx="1.562" cy="1.562" r="1.562" transform="translate(750.629 807.759)"/><circle class="a" cx="1.562" cy="1.562" r="1.562" transform="translate(763.979 807.759)"/><circle class="a" cx="1.562" cy="1.562" r="1.562" transform="translate(768.429 807.759)"/><circle class="a" cx="1.562" cy="1.562" r="1.562" transform="translate(772.974 807.759)"/><circle class="a" cx="1.562" cy="1.562" r="1.562" transform="translate(697.229 807.759)"/><circle class="a" cx="1.562" cy="1.562" r="1.562" transform="translate(701.679 807.759)"/><circle class="a" cx="1.562" cy="1.562" r="1.562" transform="translate(715.029 807.759)"/><circle class="a" cx="1.562" cy="1.562" r="1.562" transform="translate(719.479 807.759)"/><circle class="a" cx="1.562" cy="1.562" r="1.562" transform="translate(723.929 807.759)"/><circle class="a" cx="1.562" cy="1.562" r="1.562" transform="translate(728.379 807.759)"/><circle class="a" cx="1.562" cy="1.562" r="1.562" transform="translate(732.829 807.759)"/><circle class="a" cx="1.562" cy="1.562" r="1.562" transform="translate(657.178 812.561)"/><circle class="a" cx="1.562" cy="1.562" r="1.562" transform="translate(661.628 812.561)"/><circle class="a" cx="1.562" cy="1.562" r="1.562" transform="translate(674.978 812.561)"/><circle class="a" cx="1.562" cy="1.562" r="1.562" transform="translate(679.428 812.561)"/><circle class="a" cx="1.562" cy="1.562" r="1.562" transform="translate(683.879 812.561)"/><circle class="a" cx="1.562" cy="1.562" r="1.562" transform="translate(688.329 812.561)"/><circle class="a" cx="1.562" cy="1.562" r="1.562" transform="translate(692.779 812.561)"/><circle class="a" cx="1.562" cy="1.562" r="1.562" transform="translate(617.043 812.561)"/><circle class="a" cx="1.562" cy="1.562" r="1.562" transform="translate(621.483 812.561)"/><circle class="a" cx="1.562" cy="1.562" r="1.562" transform="translate(634.928 812.561)"/><circle class="a" cx="1.562" cy="1.562" r="1.562" transform="translate(639.378 812.561)"/><circle class="a" cx="1.562" cy="1.562" r="1.562" transform="translate(643.828 812.561)"/><circle class="a" cx="1.562" cy="1.562" r="1.562" transform="translate(648.278 812.561)"/><circle class="a" cx="1.562" cy="1.562" r="1.562" transform="translate(652.728 812.561)"/><circle class="a" cx="1.562" cy="1.562" r="1.562" transform="translate(577.077 812.561)"/><circle class="a" cx="1.562" cy="1.562" r="1.562" transform="translate(581.518 812.561)"/><circle class="a" cx="1.562" cy="1.562" r="1.562" transform="translate(585.958 812.561)"/><circle class="a" cx="1.562" cy="1.562" r="1.562" transform="translate(590.399 812.561)"/><circle class="a" cx="1.562" cy="1.562" r="1.562" transform="translate(594.84 812.561)"/><circle class="a" cx="1.562" cy="1.562" r="1.562" transform="translate(599.28 812.561)"/><circle class="a" cx="1.562" cy="1.562" r="1.562" transform="translate(603.721 812.561)"/><circle class="a" cx="1.562" cy="1.562" r="1.562" transform="translate(608.161 812.561)"/><circle class="a" cx="1.562" cy="1.562" r="1.562" transform="translate(612.602 812.561)"/><circle class="a" cx="1.562" cy="1.562" r="1.562" transform="translate(737.279 812.561)"/><circle class="a" cx="1.562" cy="1.562" r="1.562" transform="translate(741.729 812.561)"/><circle class="a" cx="1.562" cy="1.562" r="1.562" transform="translate(746.179 812.561)"/><circle class="a" cx="1.562" cy="1.562" r="1.562" transform="translate(750.629 812.561)"/><circle class="a" cx="1.562" cy="1.562" r="1.562" transform="translate(697.229 812.561)"/><circle class="a" cx="1.562" cy="1.562" r="1.562" transform="translate(701.679 812.561)"/><circle class="a" cx="1.562" cy="1.562" r="1.562" transform="translate(715.029 812.561)"/><circle class="a" cx="1.562" cy="1.562" r="1.562" transform="translate(719.479 812.561)"/><circle class="a" cx="1.562" cy="1.562" r="1.562" transform="translate(723.929 812.561)"/><circle class="a" cx="1.562" cy="1.562" r="1.562" transform="translate(728.379 812.561)"/><circle class="a" cx="1.562" cy="1.562" r="1.562" transform="translate(732.829 812.561)"/><circle class="a" cx="1.562" cy="1.562" r="1.562" transform="translate(657.178 817.364)"/><circle class="a" cx="1.562" cy="1.562" r="1.562" transform="translate(661.628 817.364)"/><circle class="a" cx="1.562" cy="1.562" r="1.562" transform="translate(674.978 817.364)"/><circle class="a" cx="1.562" cy="1.562" r="1.562" transform="translate(679.428 817.364)"/><circle class="a" cx="1.562" cy="1.562" r="1.562" transform="translate(683.879 817.364)"/><circle class="a" cx="1.562" cy="1.562" r="1.562" transform="translate(688.329 817.364)"/><circle class="a" cx="1.562" cy="1.562" r="1.562" transform="translate(692.779 817.364)"/><circle class="a" cx="1.562" cy="1.562" r="1.562" transform="translate(617.043 817.364)"/><circle class="a" cx="1.562" cy="1.562" r="1.562" transform="translate(621.483 817.364)"/><circle class="a" cx="1.562" cy="1.562" r="1.562" transform="translate(634.928 817.364)"/><circle class="a" cx="1.562" cy="1.562" r="1.562" transform="translate(639.378 817.364)"/><circle class="a" cx="1.562" cy="1.562" r="1.562" transform="translate(643.828 817.364)"/><circle class="a" cx="1.562" cy="1.562" r="1.562" transform="translate(648.278 817.364)"/><circle class="a" cx="1.562" cy="1.562" r="1.562" transform="translate(652.728 817.364)"/><circle class="a" cx="1.562" cy="1.562" r="1.562" transform="translate(577.077 817.364)"/><circle class="a" cx="1.562" cy="1.562" r="1.562" transform="translate(581.518 817.364)"/><circle class="a" cx="1.562" cy="1.562" r="1.562" transform="translate(585.958 817.364)"/><circle class="a" cx="1.562" cy="1.562" r="1.562" transform="translate(590.399 817.364)"/><circle class="a" cx="1.562" cy="1.562" r="1.562" transform="translate(594.84 817.364)"/><circle class="a" cx="1.562" cy="1.562" r="1.562" transform="translate(599.28 817.364)"/><circle class="a" cx="1.562" cy="1.562" r="1.562" transform="translate(603.721 817.364)"/><circle class="a" cx="1.562" cy="1.562" r="1.562" transform="translate(608.161 817.364)"/><circle class="a" cx="1.562" cy="1.562" r="1.562" transform="translate(612.602 817.364)"/><circle class="a" cx="1.562" cy="1.562" r="1.562" transform="translate(777.415 817.364)"/><circle class="a" cx="1.562" cy="1.562" r="1.562" transform="translate(781.855 817.364)"/><circle class="a" cx="1.562" cy="1.562" r="1.562" transform="translate(786.296 817.364)"/><circle class="a" cx="1.562" cy="1.562" r="1.562" transform="translate(790.736 817.364)"/><circle class="a" cx="1.562" cy="1.562" r="1.562" transform="translate(795.177 817.364)"/><circle class="a" cx="1.562" cy="1.562" r="1.562" transform="translate(799.618 817.364)"/><circle class="a" cx="1.562" cy="1.562" r="1.562" transform="translate(737.279 817.364)"/><circle class="a" cx="1.562" cy="1.562" r="1.562" transform="translate(741.729 817.364)"/><circle class="a" cx="1.562" cy="1.562" r="1.562" transform="translate(746.179 817.364)"/><circle class="a" cx="1.562" cy="1.562" r="1.562" transform="translate(750.629 817.364)"/><circle class="a" cx="1.562" cy="1.562" r="1.562" transform="translate(763.979 817.364)"/><circle class="a" cx="1.562" cy="1.562" r="1.562" transform="translate(768.429 817.364)"/><circle class="a" cx="1.562" cy="1.562" r="1.562" transform="translate(772.974 817.364)"/><circle class="a" cx="1.562" cy="1.562" r="1.562" transform="translate(697.229 817.364)"/><circle class="a" cx="1.562" cy="1.562" r="1.562" transform="translate(701.679 817.364)"/><circle class="a" cx="1.562" cy="1.562" r="1.562" transform="translate(715.029 817.364)"/><circle class="a" cx="1.562" cy="1.562" r="1.562" transform="translate(719.479 817.364)"/><circle class="a" cx="1.562" cy="1.562" r="1.562" transform="translate(723.929 817.364)"/><circle class="a" cx="1.562" cy="1.562" r="1.562" transform="translate(728.379 817.364)"/><circle class="a" cx="1.562" cy="1.562" r="1.562" transform="translate(732.829 817.364)"/><circle class="a" cx="1.562" cy="1.562" r="1.562" transform="translate(688.329 822.166)"/><circle class="a" cx="1.562" cy="1.562" r="1.562" transform="translate(692.779 822.166)"/><circle class="a" cx="1.562" cy="1.562" r="1.562" transform="translate(617.043 822.166)"/><circle class="a" cx="1.562" cy="1.562" r="1.562" transform="translate(621.483 822.166)"/><circle class="a" cx="1.562" cy="1.562" r="1.562" transform="translate(594.84 822.166)"/><circle class="a" cx="1.562" cy="1.562" r="1.562" transform="translate(599.28 822.166)"/><circle class="a" cx="1.562" cy="1.562" r="1.562" transform="translate(603.721 822.166)"/><circle class="a" cx="1.562" cy="1.562" r="1.562" transform="translate(608.161 822.166)"/><circle class="a" cx="1.562" cy="1.562" r="1.562" transform="translate(612.602 822.166)"/><circle class="a" cx="1.562" cy="1.562" r="1.562" transform="translate(777.415 822.166)"/><circle class="a" cx="1.562" cy="1.562" r="1.562" transform="translate(781.855 822.166)"/><circle class="a" cx="1.562" cy="1.562" r="1.562" transform="translate(786.296 822.166)"/><circle class="a" cx="1.562" cy="1.562" r="1.562" transform="translate(790.736 822.166)"/><circle class="a" cx="1.562" cy="1.562" r="1.562" transform="translate(795.177 822.166)"/><circle class="a" cx="1.562" cy="1.562" r="1.562" transform="translate(799.618 822.166)"/><circle class="a" cx="1.562" cy="1.562" r="1.562" transform="translate(737.279 822.166)"/><circle class="a" cx="1.562" cy="1.562" r="1.562" transform="translate(741.729 822.166)"/><circle class="a" cx="1.562" cy="1.562" r="1.562" transform="translate(746.179 822.166)"/><circle class="a" cx="1.562" cy="1.562" r="1.562" transform="translate(750.629 822.166)"/><circle class="a" cx="1.562" cy="1.562" r="1.562" transform="translate(763.979 822.166)"/><circle class="a" cx="1.562" cy="1.562" r="1.562" transform="translate(768.429 822.166)"/><circle class="a" cx="1.562" cy="1.562" r="1.562" transform="translate(772.974 822.166)"/><circle class="a" cx="1.562" cy="1.562" r="1.562" transform="translate(697.229 822.166)"/><circle class="a" cx="1.562" cy="1.562" r="1.562" transform="translate(701.679 822.166)"/><circle class="a" cx="1.562" cy="1.562" r="1.562" transform="translate(715.029 822.166)"/><circle class="a" cx="1.562" cy="1.562" r="1.562" transform="translate(719.479 822.166)"/><circle class="a" cx="1.562" cy="1.562" r="1.562" transform="translate(723.929 822.166)"/><circle class="a" cx="1.562" cy="1.562" r="1.562" transform="translate(728.379 822.166)"/><circle class="a" cx="1.562" cy="1.562" r="1.562" transform="translate(732.829 822.166)"/><circle class="a" cx="1.562" cy="1.562" r="1.562" transform="translate(657.178 826.969)"/><circle class="a" cx="1.562" cy="1.562" r="1.562" transform="translate(661.628 826.969)"/><circle class="a" cx="1.562" cy="1.562" r="1.562" transform="translate(666.078 826.969)"/><circle class="a" cx="1.562" cy="1.562" r="1.562" transform="translate(670.528 826.969)"/><circle class="a" cx="1.562" cy="1.562" r="1.562" transform="translate(674.978 826.969)"/><circle class="a" cx="1.562" cy="1.562" r="1.562" transform="translate(688.329 826.969)"/><circle class="a" cx="1.562" cy="1.562" r="1.562" transform="translate(692.779 826.969)"/><circle class="a" cx="1.562" cy="1.562" r="1.562" transform="translate(617.043 826.969)"/><circle class="a" cx="1.562" cy="1.562" r="1.562" transform="translate(621.483 826.969)"/><circle class="a" cx="1.562" cy="1.562" r="1.562" transform="translate(643.828 826.969)"/><circle class="a" cx="1.562" cy="1.562" r="1.562" transform="translate(648.278 826.969)"/><circle class="a" cx="1.562" cy="1.562" r="1.562" transform="translate(652.728 826.969)"/><circle class="a" cx="1.562" cy="1.562" r="1.562" transform="translate(594.84 826.969)"/><circle class="a" cx="1.562" cy="1.562" r="1.562" transform="translate(599.28 826.969)"/><circle class="a" cx="1.562" cy="1.562" r="1.562" transform="translate(603.721 826.969)"/><circle class="a" cx="1.562" cy="1.562" r="1.562" transform="translate(608.161 826.969)"/><circle class="a" cx="1.562" cy="1.562" r="1.562" transform="translate(612.602 826.969)"/><circle class="a" cx="1.562" cy="1.562" r="1.562" transform="translate(777.415 826.969)"/><circle class="a" cx="1.562" cy="1.562" r="1.562" transform="translate(781.855 826.969)"/><circle class="a" cx="1.562" cy="1.562" r="1.562" transform="translate(786.296 826.969)"/><circle class="a" cx="1.562" cy="1.562" r="1.562" transform="translate(790.736 826.969)"/><circle class="a" cx="1.562" cy="1.562" r="1.562" transform="translate(795.177 826.969)"/><circle class="a" cx="1.562" cy="1.562" r="1.562" transform="translate(799.618 826.969)"/><circle class="a" cx="1.562" cy="1.562" r="1.562" transform="translate(737.279 826.969)"/><circle class="a" cx="1.562" cy="1.562" r="1.562" transform="translate(741.729 826.969)"/><circle class="a" cx="1.562" cy="1.562" r="1.562" transform="translate(746.179 826.969)"/><circle class="a" cx="1.562" cy="1.562" r="1.562" transform="translate(750.629 826.969)"/><circle class="a" cx="1.562" cy="1.562" r="1.562" transform="translate(763.979 826.969)"/><circle class="a" cx="1.562" cy="1.562" r="1.562" transform="translate(768.429 826.969)"/><circle class="a" cx="1.562" cy="1.562" r="1.562" transform="translate(772.974 826.969)"/><circle class="a" cx="1.562" cy="1.562" r="1.562" transform="translate(697.229 826.969)"/><circle class="a" cx="1.562" cy="1.562" r="1.562" transform="translate(701.679 826.969)"/><circle class="a" cx="1.562" cy="1.562" r="1.562" transform="translate(715.029 826.969)"/><circle class="a" cx="1.562" cy="1.562" r="1.562" transform="translate(719.479 826.969)"/><circle class="a" cx="1.562" cy="1.562" r="1.562" transform="translate(723.929 826.969)"/><circle class="a" cx="1.562" cy="1.562" r="1.562" transform="translate(728.379 826.969)"/><circle class="a" cx="1.562" cy="1.562" r="1.562" transform="translate(732.829 826.969)"/><circle class="a" cx="1.562" cy="1.562" r="1.562" transform="translate(657.178 831.833)"/><circle class="a" cx="1.562" cy="1.562" r="1.562" transform="translate(661.628 831.833)"/><circle class="a" cx="1.562" cy="1.562" r="1.562" transform="translate(666.078 831.833)"/><circle class="a" cx="1.562" cy="1.562" r="1.562" transform="translate(670.528 831.833)"/><circle class="a" cx="1.562" cy="1.562" r="1.562" transform="translate(674.978 831.833)"/><circle class="a" cx="1.562" cy="1.562" r="1.562" transform="translate(688.329 831.833)"/><circle class="a" cx="1.562" cy="1.562" r="1.562" transform="translate(692.779 831.833)"/><circle class="a" cx="1.562" cy="1.562" r="1.562" transform="translate(617.043 831.833)"/><circle class="a" cx="1.562" cy="1.562" r="1.562" transform="translate(621.483 831.833)"/><circle class="a" cx="1.562" cy="1.562" r="1.562" transform="translate(643.828 831.833)"/><circle class="a" cx="1.562" cy="1.562" r="1.562" transform="translate(648.278 831.833)"/><circle class="a" cx="1.562" cy="1.562" r="1.562" transform="translate(652.728 831.833)"/><circle class="a" cx="1.562" cy="1.562" r="1.562" transform="translate(594.84 831.833)"/><circle class="a" cx="1.562" cy="1.562" r="1.562" transform="translate(599.28 831.833)"/><circle class="a" cx="1.562" cy="1.562" r="1.562" transform="translate(603.721 831.833)"/><circle class="a" cx="1.562" cy="1.562" r="1.562" transform="translate(608.161 831.833)"/><circle class="a" cx="1.562" cy="1.562" r="1.562" transform="translate(612.602 831.833)"/><circle class="a" cx="1.562" cy="1.562" r="1.562" transform="translate(777.415 831.833)"/><circle class="a" cx="1.562" cy="1.562" r="1.562" transform="translate(781.855 831.833)"/><circle class="a" cx="1.562" cy="1.562" r="1.562" transform="translate(786.296 831.833)"/><circle class="a" cx="1.562" cy="1.562" r="1.562" transform="translate(790.736 831.833)"/><circle class="a" cx="1.562" cy="1.562" r="1.562" transform="translate(795.177 831.833)"/><circle class="a" cx="1.562" cy="1.562" r="1.562" transform="translate(799.618 831.833)"/><circle class="a" cx="1.562" cy="1.562" r="1.562" transform="translate(737.279 831.833)"/><circle class="a" cx="1.562" cy="1.562" r="1.562" transform="translate(741.729 831.833)"/><circle class="a" cx="1.562" cy="1.562" r="1.562" transform="translate(746.179 831.833)"/><circle class="a" cx="1.562" cy="1.562" r="1.562" transform="translate(750.629 831.833)"/><circle class="a" cx="1.562" cy="1.562" r="1.562" transform="translate(763.979 831.833)"/><circle class="a" cx="1.562" cy="1.562" r="1.562" transform="translate(768.429 831.833)"/><circle class="a" cx="1.562" cy="1.562" r="1.562" transform="translate(772.974 831.833)"/><circle class="a" cx="1.562" cy="1.562" r="1.562" transform="translate(697.229 831.833)"/><circle class="a" cx="1.562" cy="1.562" r="1.562" transform="translate(701.679 831.833)"/><circle class="a" cx="1.562" cy="1.562" r="1.562" transform="translate(715.029 831.833)"/><circle class="a" cx="1.562" cy="1.562" r="1.562" transform="translate(719.479 831.833)"/><circle class="a" cx="1.562" cy="1.562" r="1.562" transform="translate(723.929 831.833)"/><circle class="a" cx="1.562" cy="1.562" r="1.562" transform="translate(728.379 831.833)"/><circle class="a" cx="1.562" cy="1.562" r="1.562" transform="translate(732.829 831.833)"/><circle class="a" cx="1.562" cy="1.562" r="1.562" transform="translate(657.178 836.625)"/><circle class="a" cx="1.562" cy="1.562" r="1.562" transform="translate(661.628 836.625)"/><circle class="a" cx="1.562" cy="1.562" r="1.562" transform="translate(666.078 836.625)"/><circle class="a" cx="1.562" cy="1.562" r="1.562" transform="translate(670.528 836.625)"/><circle class="a" cx="1.562" cy="1.562" r="1.562" transform="translate(674.978 836.625)"/><circle class="a" cx="1.562" cy="1.562" r="1.562" transform="translate(688.329 836.625)"/><circle class="a" cx="1.562" cy="1.562" r="1.562" transform="translate(692.779 836.625)"/><circle class="a" cx="1.562" cy="1.562" r="1.562" transform="translate(617.043 836.625)"/><circle class="a" cx="1.562" cy="1.562" r="1.562" transform="translate(621.483 836.625)"/><circle class="a" cx="1.562" cy="1.562" r="1.562" transform="translate(643.828 836.625)"/><circle class="a" cx="1.562" cy="1.562" r="1.562" transform="translate(648.278 836.625)"/><circle class="a" cx="1.562" cy="1.562" r="1.562" transform="translate(652.728 836.625)"/><circle class="a" cx="1.562" cy="1.562" r="1.562" transform="translate(594.84 836.625)"/><circle class="a" cx="1.562" cy="1.562" r="1.562" transform="translate(599.28 836.625)"/><circle class="a" cx="1.562" cy="1.562" r="1.562" transform="translate(603.721 836.625)"/><circle class="a" cx="1.562" cy="1.562" r="1.562" transform="translate(608.161 836.625)"/><circle class="a" cx="1.562" cy="1.562" r="1.562" transform="translate(612.602 836.625)"/><circle class="a" cx="1.562" cy="1.562" r="1.562" transform="translate(777.415 836.625)"/><circle class="a" cx="1.562" cy="1.562" r="1.562" transform="translate(781.855 836.625)"/><circle class="a" cx="1.562" cy="1.562" r="1.562" transform="translate(786.296 836.625)"/><circle class="a" cx="1.562" cy="1.562" r="1.562" transform="translate(790.736 836.625)"/><circle class="a" cx="1.562" cy="1.562" r="1.562" transform="translate(795.177 836.625)"/><circle class="a" cx="1.562" cy="1.562" r="1.562" transform="translate(799.618 836.625)"/><circle class="a" cx="1.562" cy="1.562" r="1.562" transform="translate(737.279 836.625)"/><circle class="a" cx="1.562" cy="1.562" r="1.562" transform="translate(741.729 836.625)"/><circle class="a" cx="1.562" cy="1.562" r="1.562" transform="translate(746.179 836.625)"/><circle class="a" cx="1.562" cy="1.562" r="1.562" transform="translate(750.629 836.625)"/><circle class="a" cx="1.562" cy="1.562" r="1.562" transform="translate(763.979 836.625)"/><circle class="a" cx="1.562" cy="1.562" r="1.562" transform="translate(768.429 836.625)"/><circle class="a" cx="1.562" cy="1.562" r="1.562" transform="translate(772.974 836.625)"/><circle class="a" cx="1.562" cy="1.562" r="1.562" transform="translate(697.229 836.625)"/><circle class="a" cx="1.562" cy="1.562" r="1.562" transform="translate(701.679 836.625)"/><circle class="a" cx="1.562" cy="1.562" r="1.562" transform="translate(715.029 836.625)"/><circle class="a" cx="1.562" cy="1.562" r="1.562" transform="translate(719.479 836.625)"/><circle class="a" cx="1.562" cy="1.562" r="1.562" transform="translate(723.929 836.625)"/><circle class="a" cx="1.562" cy="1.562" r="1.562" transform="translate(728.379 836.625)"/><circle class="a" cx="1.562" cy="1.562" r="1.562" transform="translate(732.829 836.625)"/><circle class="a" cx="1.562" cy="1.562" r="1.562" transform="translate(657.178 841.418)"/><circle class="a" cx="1.562" cy="1.562" r="1.562" transform="translate(661.628 841.418)"/><circle class="a" cx="1.562" cy="1.562" r="1.562" transform="translate(666.078 841.418)"/><circle class="a" cx="1.562" cy="1.562" r="1.562" transform="translate(670.528 841.418)"/><circle class="a" cx="1.562" cy="1.562" r="1.562" transform="translate(674.978 841.418)"/><circle class="a" cx="1.562" cy="1.562" r="1.562" transform="translate(688.329 841.418)"/><circle class="a" cx="1.562" cy="1.562" r="1.562" transform="translate(692.779 841.418)"/><circle class="a" cx="1.562" cy="1.562" r="1.562" transform="translate(617.043 841.418)"/><circle class="a" cx="1.562" cy="1.562" r="1.562" transform="translate(621.483 841.418)"/><circle class="a" cx="1.562" cy="1.562" r="1.562" transform="translate(643.828 841.418)"/><circle class="a" cx="1.562" cy="1.562" r="1.562" transform="translate(648.278 841.418)"/><circle class="a" cx="1.562" cy="1.562" r="1.562" transform="translate(652.728 841.418)"/><circle class="a" cx="1.562" cy="1.562" r="1.562" transform="translate(594.84 841.418)"/><circle class="a" cx="1.562" cy="1.562" r="1.562" transform="translate(599.28 841.418)"/><circle class="a" cx="1.562" cy="1.562" r="1.562" transform="translate(603.721 841.418)"/><circle class="a" cx="1.562" cy="1.562" r="1.562" transform="translate(608.161 841.418)"/><circle class="a" cx="1.562" cy="1.562" r="1.562" transform="translate(612.602 841.418)"/><circle class="a" cx="1.562" cy="1.562" r="1.562" transform="translate(777.415 841.418)"/><circle class="a" cx="1.562" cy="1.562" r="1.562" transform="translate(781.855 841.418)"/><circle class="a" cx="1.562" cy="1.562" r="1.562" transform="translate(786.296 841.418)"/><circle class="a" cx="1.562" cy="1.562" r="1.562" transform="translate(790.736 841.418)"/><circle class="a" cx="1.562" cy="1.562" r="1.562" transform="translate(795.177 841.418)"/><circle class="a" cx="1.562" cy="1.562" r="1.562" transform="translate(799.618 841.418)"/><circle class="a" cx="1.562" cy="1.562" r="1.562" transform="translate(737.279 841.418)"/><circle class="a" cx="1.562" cy="1.562" r="1.562" transform="translate(741.729 841.418)"/><circle class="a" cx="1.562" cy="1.562" r="1.562" transform="translate(746.179 841.418)"/><circle class="a" cx="1.562" cy="1.562" r="1.562" transform="translate(750.629 841.418)"/><circle class="a" cx="1.562" cy="1.562" r="1.562" transform="translate(763.979 841.418)"/><circle class="a" cx="1.562" cy="1.562" r="1.562" transform="translate(768.429 841.418)"/><circle class="a" cx="1.562" cy="1.562" r="1.562" transform="translate(772.974 841.418)"/><circle class="a" cx="1.562" cy="1.562" r="1.562" transform="translate(697.229 841.418)"/><circle class="a" cx="1.562" cy="1.562" r="1.562" transform="translate(701.679 841.418)"/><circle class="a" cx="1.562" cy="1.562" r="1.562" transform="translate(715.029 841.418)"/><circle class="a" cx="1.562" cy="1.562" r="1.562" transform="translate(719.479 841.418)"/><circle class="a" cx="1.562" cy="1.562" r="1.562" transform="translate(723.929 841.418)"/><circle class="a" cx="1.562" cy="1.562" r="1.562" transform="translate(728.379 841.418)"/><circle class="a" cx="1.562" cy="1.562" r="1.562" transform="translate(732.829 841.418)"/><circle class="a" cx="1.562" cy="1.562" r="1.562" transform="translate(657.178 846.21)"/><circle class="a" cx="1.562" cy="1.562" r="1.562" transform="translate(661.628 846.21)"/><circle class="a" cx="1.562" cy="1.562" r="1.562" transform="translate(666.078 846.21)"/><circle class="a" cx="1.562" cy="1.562" r="1.562" transform="translate(670.528 846.21)"/><circle class="a" cx="1.562" cy="1.562" r="1.562" transform="translate(674.978 846.21)"/><circle class="a" cx="1.562" cy="1.562" r="1.562" transform="translate(688.329 846.21)"/><circle class="a" cx="1.562" cy="1.562" r="1.562" transform="translate(692.779 846.21)"/><circle class="a" cx="1.562" cy="1.562" r="1.562" transform="translate(617.043 846.21)"/><circle class="a" cx="1.562" cy="1.562" r="1.562" transform="translate(621.483 846.21)"/><circle class="a" cx="1.562" cy="1.562" r="1.562" transform="translate(643.828 846.21)"/><circle class="a" cx="1.562" cy="1.562" r="1.562" transform="translate(648.278 846.21)"/><circle class="a" cx="1.562" cy="1.562" r="1.562" transform="translate(652.728 846.21)"/><circle class="a" cx="1.562" cy="1.562" r="1.562" transform="translate(577.077 846.21)"/><circle class="a" cx="1.562" cy="1.562" r="1.562" transform="translate(581.518 846.21)"/><circle class="a" cx="1.562" cy="1.562" r="1.562" transform="translate(585.958 846.21)"/><circle class="a" cx="1.562" cy="1.562" r="1.562" transform="translate(594.84 846.21)"/><circle class="a" cx="1.562" cy="1.562" r="1.562" transform="translate(599.28 846.21)"/><circle class="a" cx="1.562" cy="1.562" r="1.562" transform="translate(603.721 846.21)"/><circle class="a" cx="1.562" cy="1.562" r="1.562" transform="translate(608.161 846.21)"/><circle class="a" cx="1.562" cy="1.562" r="1.562" transform="translate(612.602 846.21)"/><circle class="a" cx="1.562" cy="1.562" r="1.562" transform="translate(777.415 846.21)"/><circle class="a" cx="1.562" cy="1.562" r="1.562" transform="translate(781.855 846.21)"/><circle class="a" cx="1.562" cy="1.562" r="1.562" transform="translate(786.296 846.21)"/><circle class="a" cx="1.562" cy="1.562" r="1.562" transform="translate(790.736 846.21)"/><circle class="a" cx="1.562" cy="1.562" r="1.562" transform="translate(795.177 846.21)"/><circle class="a" cx="1.562" cy="1.562" r="1.562" transform="translate(799.618 846.21)"/><circle class="a" cx="1.562" cy="1.562" r="1.562" transform="translate(737.279 846.21)"/><circle class="a" cx="1.562" cy="1.562" r="1.562" transform="translate(741.729 846.21)"/><circle class="a" cx="1.562" cy="1.562" r="1.562" transform="translate(746.179 846.21)"/><circle class="a" cx="1.562" cy="1.562" r="1.562" transform="translate(750.629 846.21)"/><circle class="a" cx="1.562" cy="1.562" r="1.562" transform="translate(763.979 846.21)"/><circle class="a" cx="1.562" cy="1.562" r="1.562" transform="translate(768.429 846.21)"/><circle class="a" cx="1.562" cy="1.562" r="1.562" transform="translate(772.974 846.21)"/><circle class="a" cx="1.562" cy="1.562" r="1.562" transform="translate(697.229 846.21)"/><circle class="a" cx="1.562" cy="1.562" r="1.562" transform="translate(701.679 846.21)"/><circle class="a" cx="1.562" cy="1.562" r="1.562" transform="translate(715.029 846.21)"/><circle class="a" cx="1.562" cy="1.562" r="1.562" transform="translate(719.479 846.21)"/><circle class="a" cx="1.562" cy="1.562" r="1.562" transform="translate(723.929 846.21)"/><circle class="a" cx="1.562" cy="1.562" r="1.562" transform="translate(728.379 846.21)"/><circle class="a" cx="1.562" cy="1.562" r="1.562" transform="translate(732.829 846.21)"/><circle class="a" cx="1.562" cy="1.562" r="1.562" transform="translate(617.043 851.002)"/><circle class="a" cx="1.562" cy="1.562" r="1.562" transform="translate(621.483 851.002)"/><circle class="a" cx="1.562" cy="1.562" r="1.562" transform="translate(577.077 851.002)"/><circle class="a" cx="1.562" cy="1.562" r="1.562" transform="translate(581.518 851.002)"/><circle class="a" cx="1.562" cy="1.562" r="1.562" transform="translate(585.958 851.002)"/><circle class="a" cx="1.562" cy="1.562" r="1.562" transform="translate(594.84 851.002)"/><circle class="a" cx="1.562" cy="1.562" r="1.562" transform="translate(599.28 851.002)"/><circle class="a" cx="1.562" cy="1.562" r="1.562" transform="translate(603.721 851.002)"/><circle class="a" cx="1.562" cy="1.562" r="1.562" transform="translate(608.161 851.002)"/><circle class="a" cx="1.562" cy="1.562" r="1.562" transform="translate(612.602 851.002)"/><circle class="a" cx="1.562" cy="1.562" r="1.562" transform="translate(777.415 851.002)"/><circle class="a" cx="1.562" cy="1.562" r="1.562" transform="translate(781.855 851.002)"/><circle class="a" cx="1.562" cy="1.562" r="1.562" transform="translate(786.296 851.002)"/><circle class="a" cx="1.562" cy="1.562" r="1.562" transform="translate(790.736 851.002)"/><circle class="a" cx="1.562" cy="1.562" r="1.562" transform="translate(795.177 851.002)"/><circle class="a" cx="1.562" cy="1.562" r="1.562" transform="translate(799.618 851.002)"/><circle class="a" cx="1.562" cy="1.562" r="1.562" transform="translate(737.279 851.002)"/><circle class="a" cx="1.562" cy="1.562" r="1.562" transform="translate(741.729 851.002)"/><circle class="a" cx="1.562" cy="1.562" r="1.562" transform="translate(746.179 851.002)"/><circle class="a" cx="1.562" cy="1.562" r="1.562" transform="translate(750.629 851.002)"/><circle class="a" cx="1.562" cy="1.562" r="1.562" transform="translate(763.979 851.002)"/><circle class="a" cx="1.562" cy="1.562" r="1.562" transform="translate(768.429 851.002)"/><circle class="a" cx="1.562" cy="1.562" r="1.562" transform="translate(772.974 851.002)"/><circle class="a" cx="1.562" cy="1.562" r="1.562" transform="translate(715.029 851.002)"/><circle class="a" cx="1.562" cy="1.562" r="1.562" transform="translate(719.479 851.002)"/><circle class="a" cx="1.562" cy="1.562" r="1.562" transform="translate(723.929 851.002)"/><circle class="a" cx="1.562" cy="1.562" r="1.562" transform="translate(728.379 851.002)"/><circle class="a" cx="1.562" cy="1.562" r="1.562" transform="translate(732.829 851.002)"/><circle class="a" cx="1.562" cy="1.562" r="1.562" transform="translate(617.043 855.795)"/><circle class="a" cx="1.562" cy="1.562" r="1.562" transform="translate(621.483 855.795)"/><circle class="a" cx="1.562" cy="1.562" r="1.562" transform="translate(577.077 855.795)"/><circle class="a" cx="1.562" cy="1.562" r="1.562" transform="translate(581.518 855.795)"/><circle class="a" cx="1.562" cy="1.562" r="1.562" transform="translate(585.958 855.795)"/><circle class="a" cx="1.562" cy="1.562" r="1.562" transform="translate(594.84 855.795)"/><circle class="a" cx="1.562" cy="1.562" r="1.562" transform="translate(599.28 855.795)"/><circle class="a" cx="1.562" cy="1.562" r="1.562" transform="translate(603.721 855.795)"/><circle class="a" cx="1.562" cy="1.562" r="1.562" transform="translate(608.161 855.795)"/><circle class="a" cx="1.562" cy="1.562" r="1.562" transform="translate(612.602 855.795)"/><circle class="a" cx="1.562" cy="1.562" r="1.562" transform="translate(777.415 855.795)"/><circle class="a" cx="1.562" cy="1.562" r="1.562" transform="translate(781.855 855.795)"/><circle class="a" cx="1.562" cy="1.562" r="1.562" transform="translate(786.296 855.795)"/><circle class="a" cx="1.562" cy="1.562" r="1.562" transform="translate(790.736 855.795)"/><circle class="a" cx="1.562" cy="1.562" r="1.562" transform="translate(795.177 855.795)"/><circle class="a" cx="1.562" cy="1.562" r="1.562" transform="translate(799.618 855.795)"/><circle class="a" cx="1.562" cy="1.562" r="1.562" transform="translate(737.279 855.795)"/><circle class="a" cx="1.562" cy="1.562" r="1.562" transform="translate(741.729 855.795)"/><circle class="a" cx="1.562" cy="1.562" r="1.562" transform="translate(746.179 855.795)"/><circle class="a" cx="1.562" cy="1.562" r="1.562" transform="translate(750.629 855.795)"/><circle class="a" cx="1.562" cy="1.562" r="1.562" transform="translate(763.979 855.795)"/><circle class="a" cx="1.562" cy="1.562" r="1.562" transform="translate(768.429 855.795)"/><circle class="a" cx="1.562" cy="1.562" r="1.562" transform="translate(772.974 855.795)"/><circle class="a" cx="1.562" cy="1.562" r="1.562" transform="translate(715.029 855.795)"/><circle class="a" cx="1.562" cy="1.562" r="1.562" transform="translate(719.479 855.795)"/><circle class="a" cx="1.562" cy="1.562" r="1.562" transform="translate(723.929 855.795)"/><circle class="a" cx="1.562" cy="1.562" r="1.562" transform="translate(728.379 855.795)"/><circle class="a" cx="1.562" cy="1.562" r="1.562" transform="translate(732.829 855.795)"/><circle class="a" cx="1.562" cy="1.562" r="1.562" transform="translate(617.043 860.587)"/><circle class="a" cx="1.562" cy="1.562" r="1.562" transform="translate(621.483 860.587)"/><circle class="a" cx="1.562" cy="1.562" r="1.562" transform="translate(577.077 860.587)"/><circle class="a" cx="1.562" cy="1.562" r="1.562" transform="translate(581.518 860.587)"/><circle class="a" cx="1.562" cy="1.562" r="1.562" transform="translate(585.958 860.587)"/><circle class="a" cx="1.562" cy="1.562" r="1.562" transform="translate(594.84 860.587)"/><circle class="a" cx="1.562" cy="1.562" r="1.562" transform="translate(599.28 860.587)"/><circle class="a" cx="1.562" cy="1.562" r="1.562" transform="translate(603.721 860.587)"/><circle class="a" cx="1.562" cy="1.562" r="1.562" transform="translate(608.161 860.587)"/><circle class="a" cx="1.562" cy="1.562" r="1.562" transform="translate(612.602 860.587)"/><circle class="a" cx="1.562" cy="1.562" r="1.562" transform="translate(777.415 860.587)"/><circle class="a" cx="1.562" cy="1.562" r="1.562" transform="translate(781.855 860.587)"/><circle class="a" cx="1.562" cy="1.562" r="1.562" transform="translate(786.296 860.587)"/><circle class="a" cx="1.562" cy="1.562" r="1.562" transform="translate(790.736 860.587)"/><circle class="a" cx="1.562" cy="1.562" r="1.562" transform="translate(795.177 860.587)"/><circle class="a" cx="1.562" cy="1.562" r="1.562" transform="translate(799.618 860.587)"/><circle class="a" cx="1.562" cy="1.562" r="1.562" transform="translate(737.279 860.587)"/><circle class="a" cx="1.562" cy="1.562" r="1.562" transform="translate(741.729 860.587)"/><circle class="a" cx="1.562" cy="1.562" r="1.562" transform="translate(746.179 860.587)"/><circle class="a" cx="1.562" cy="1.562" r="1.562" transform="translate(750.629 860.587)"/><circle class="a" cx="1.562" cy="1.562" r="1.562" transform="translate(763.979 860.587)"/><circle class="a" cx="1.562" cy="1.562" r="1.562" transform="translate(768.429 860.587)"/><circle class="a" cx="1.562" cy="1.562" r="1.562" transform="translate(772.974 860.587)"/><circle class="a" cx="1.562" cy="1.562" r="1.562" transform="translate(715.029 860.587)"/><circle class="a" cx="1.562" cy="1.562" r="1.562" transform="translate(719.479 860.587)"/><circle class="a" cx="1.562" cy="1.562" r="1.562" transform="translate(723.929 860.587)"/><circle class="a" cx="1.562" cy="1.562" r="1.562" transform="translate(728.379 860.587)"/><circle class="a" cx="1.562" cy="1.562" r="1.562" transform="translate(732.829 860.587)"/></g></svg>