<svg xmlns="http://www.w3.org/2000/svg" xmlns:xlink="http://www.w3.org/1999/xlink" width="48" height="30" viewBox="0 0 48 30"><defs><clipPath id="a"><rect width="48" height="30" fill="none"/></clipPath></defs><g clip-path="url(#a)"><path d="M34.579,18.54a9.515,9.515,0,0,1,3.57-7.435,9.54,9.54,0,1,0,0,14.87,9.515,9.515,0,0,1-3.57-7.435" transform="translate(-14.149 -5.625)" fill="#e60012"/><path d="M69.97,9A9.493,9.493,0,0,0,64,11.105a9.527,9.527,0,0,1,0,14.87A9.538,9.538,0,1,0,69.97,9" transform="translate(-40 -5.625)" fill="#ff9800"/><path d="M61.62,22.049a9.516,9.516,0,0,0-3.57-7.435,9.527,9.527,0,0,0,0,14.869,9.516,9.516,0,0,0,3.57-7.435" transform="translate(-34.05 -9.134)" fill="#ff6c00"/><path d="M31.087,64.732a1.817,1.817,0,0,1,.1.7v1.376H30.7V65.43a1.509,1.509,0,0,0-.052-.5.4.4,0,0,0-.165-.194.523.523,0,0,0-.287-.075.66.66,0,0,0-.381.117.686.686,0,0,0-.254.315,2.061,2.061,0,0,0-.084.7v1.009h-.483v-1.3a1.834,1.834,0,0,0-.052-.56.415.415,0,0,0-.167-.21.5.5,0,0,0-.287-.079.656.656,0,0,0-.372.115.689.689,0,0,0-.258.311,1.719,1.719,0,0,0-.087.634v1.085h-.483V64.273h.483v.27a1.053,1.053,0,0,1,1.155-.257.825.825,0,0,1,.3.2.845.845,0,0,1,.134.2,1.182,1.182,0,0,1,.343-.321,1.037,1.037,0,0,1,1.063-.02.828.828,0,0,1,.325.383m2.888-.459h.455v2.533h-.455v-.291a1.327,1.327,0,0,1-.322.227,1.283,1.283,0,0,1-1.476-.264,1.308,1.308,0,0,1-.38-.945,1.285,1.285,0,0,1,.383-.933,1.256,1.256,0,0,1,.923-.388,1.168,1.168,0,0,1,.871.364Zm-.846.387a.847.847,0,0,0-.75.439.89.89,0,0,0,0,.887.857.857,0,0,0,1.185.329A.813.813,0,0,0,33.883,66a.908.908,0,0,0,.111-.45.867.867,0,0,0-.25-.637.82.82,0,0,0-.615-.254m16.291-.387h.455v2.533H49.42v-.291a1.313,1.313,0,0,1-.322.227,1.283,1.283,0,0,1-1.476-.264,1.308,1.308,0,0,1-.38-.945,1.285,1.285,0,0,1,.383-.933,1.256,1.256,0,0,1,.923-.388,1.168,1.168,0,0,1,.871.364Zm-.846.387a.847.847,0,0,0-.75.439.89.89,0,0,0,0,.887.857.857,0,0,0,1.185.329A.813.813,0,0,0,49.328,66a.908.908,0,0,0,.112-.45.867.867,0,0,0-.25-.637.82.82,0,0,0-.615-.254m5.943-1.413h.455v3.56h-.455v-.291a1.322,1.322,0,0,1-.322.227,1.283,1.283,0,0,1-1.475-.264,1.306,1.306,0,0,1-.38-.945,1.285,1.285,0,0,1,.383-.933,1.255,1.255,0,0,1,.922-.388,1.168,1.168,0,0,1,.872.364Zm-.846,1.413a.847.847,0,0,0-.75.439.888.888,0,0,0,0,.887.873.873,0,0,0,.318.328.864.864,0,0,0,.867,0A.816.816,0,0,0,54.425,66a.908.908,0,0,0,.111-.45.865.865,0,0,0-.25-.637.82.82,0,0,0-.615-.254m-17.077.208.076.053.42-.313-.076-.053a1.728,1.728,0,0,0-.99-.343,1.236,1.236,0,0,0-.722.2.6.6,0,0,0-.289.506.574.574,0,0,0,.181.414,1.841,1.841,0,0,0,.645.352,1.9,1.9,0,0,1,.5.234.241.241,0,0,1,.094.186.267.267,0,0,1-.145.222.642.642,0,0,1-.363.1.949.949,0,0,1-.611-.239l-.079-.065-.4.331.054.05a1.323,1.323,0,0,0,.468.27,1.809,1.809,0,0,0,.59.1,1.329,1.329,0,0,0,.788-.225.665.665,0,0,0,.317-.551.582.582,0,0,0-.188-.42,2.063,2.063,0,0,0-.68-.363,1.65,1.65,0,0,1-.477-.232.231.231,0,0,1-.1-.172.211.211,0,0,1,.113-.174.8.8,0,0,1,.874.139m2.793,1.377a.711.711,0,0,1-.7.076.322.322,0,0,1-.159-.3V64.772h.932v-.493h-.932v-.772H38.04v.772h-.52v.493h.52v1.253a.812.812,0,0,0,.4.723.976.976,0,0,0,.49.125,1.191,1.191,0,0,0,.633-.2Zm2.786.1a1.253,1.253,0,0,1-.154.185,1.161,1.161,0,0,1-.375.247,1.229,1.229,0,0,1-.468.085,1.112,1.112,0,0,1-.911-.408,1.447,1.447,0,0,1-.05-1.767,1.117,1.117,0,0,1,.944-.48,1.154,1.154,0,0,1,.971.491,1.428,1.428,0,0,1,.263.861v.013a.946.946,0,0,0-.263.064H40.381a.892.892,0,0,0,.225.551.7.7,0,0,0,.544.241.842.842,0,0,0,.308-.058.8.8,0,0,0,.253-.154.824.824,0,0,0,.22-.228Zm-1.739-1.127h1.474a.864.864,0,0,0-.129-.268.74.74,0,0,0-.265-.215.792.792,0,0,0-.351-.082.718.718,0,0,0-.518.206.869.869,0,0,0-.211.359m3.043-.579v-.379h-.492v2.514h.492V65.193a.732.732,0,0,1,.917-.45l.154-.479a.791.791,0,0,0-1.071.379m7.646,0v-.379H50.63v2.514h.493V65.193a.732.732,0,0,1,.917-.45l.154-.479c-.688-.205-.966.151-1.071.379m-4.36,1.573a.953.953,0,0,1-.627.216.983.983,0,0,1-.48-.117.857.857,0,0,1-.333-.327.9.9,0,0,1-.122-.451.831.831,0,0,1,.264-.625.912.912,0,0,1,.669-.258.95.95,0,0,1,.629.211c.084-.136.171-.274.243-.386a1.347,1.347,0,0,0-.38-.19,1.533,1.533,0,0,0-.48-.076,1.48,1.48,0,0,0-.717.175,1.3,1.3,0,0,0-.507.491,1.329,1.329,0,0,0-.184.681,1.244,1.244,0,0,0,.395.928,1.374,1.374,0,0,0,.99.38,1.543,1.543,0,0,0,.689-.15A1.263,1.263,0,0,0,47,66.593c-.071-.111-.155-.244-.237-.376" transform="translate(-17.056 -39.529)"/></g></svg>