<svg xmlns="http://www.w3.org/2000/svg" xmlns:xlink="http://www.w3.org/1999/xlink" width="32" height="32" viewBox="0 0 32 32"><defs><clipPath id="a"><path d="M109.646,422.97l-15.787,6.546,3.659,2.439,10.686-7.766L98.48,432.6l5.776,3.722,5.391-13.35Z" transform="translate(-93.859 -422.97)" fill="none" clip-rule="evenodd"/></clipPath><clipPath id="b"><rect width="24" height="21" transform="translate(0.24 -0.027)" fill="none"/></clipPath><clipPath id="c"><rect width="16" height="13" transform="translate(-0.394 -0.18)" fill="none"/></clipPath><clipPath id="d"><path d="M97.4,439.222l2.817-2.294L97.4,435.051Z" transform="translate(-97.403 -435.051)" fill="none" clip-rule="evenodd"/></clipPath></defs><g transform="translate(-631 -422)"><circle cx="16" cy="16" r="16" transform="translate(631 422)" fill="#f09c9c"/><g transform="translate(639 431)"><g clip-path="url(#a)"><g transform="translate(-3.719 -3.922)" style="isolation:isolate"><g transform="translate(0 0)"><g transform="translate(0)" clip-path="url(#b)"><g transform="translate(3.634 4.153)"><g transform="translate(0 0)" clip-path="url(#c)"><rect width="23.757" height="21.319" transform="translate(-3.899 -4.215)" fill="#fff"/></g></g></g></g></g></g><g transform="translate(2.824 9.627)"><g clip-path="url(#d)"><rect width="10.786" height="12.14" transform="translate(-3.985 -3.985)" fill="#fff"/></g></g></g></g></svg>