<svg id="PPT" xmlns="http://www.w3.org/2000/svg" width="24" height="20" viewBox="0 0 24 20">
  <path id="Path_3159" data-name="Path 3159" d="M1268.675,977.882V963.648l-4.1-3.762h-9.9v18h14" transform="translate(-1249.738 -958.863)" fill="#fff"/>
  <path id="Path_3076" data-name="Path 3076" d="M978.407,515.039V501.2l-3.9-3.657h-9.432v17.5h13.332m0,1.25H965.075a1.292,1.292,0,0,1-1.333-1.25v-17.5a1.294,1.294,0,0,1,1.333-1.25h9.984l4.681,4.389v14.361A1.292,1.292,0,0,1,978.407,516.289Z" transform="translate(-959.742 -496.289)" fill="#eb6c05"/>
  <path id="パス_1034" data-name="パス 1034" d="M974.426,496.289V501.6h5.316Z" transform="translate(-959.742 -496.289)" fill="#eb6c05"/>
  <rect id="Rectangle_5152" data-name="Rectangle 5152" width="24" height="13" rx="2" transform="translate(0 7)" fill="#eb6c05"/>
  <g id="PPT-2" data-name="PPT" transform="translate(-199.505 -372.098)" style="isolation: isolate">
    <path id="Path_3142" data-name="Path 3142" d="M205.681,382.1a4,4,0,0,1,1.2.16,2.33,2.33,0,0,1,.846.452,1.8,1.8,0,0,1,.5.708,2.488,2.488,0,0,1,.163.919,2.394,2.394,0,0,1-.176.928,1.981,1.981,0,0,1-.514.728,2.349,2.349,0,0,1-.848.472,3.708,3.708,0,0,1-1.167.168h-1.11v2.645h-1.066V382.1Zm0,3.7a2.2,2.2,0,0,0,.712-.1,1.409,1.409,0,0,0,.515-.3,1.243,1.243,0,0,0,.313-.46,1.609,1.609,0,0,0,.105-.593,1.328,1.328,0,0,0-.408-1.029,1.775,1.775,0,0,0-1.237-.375h-1.11v2.86Z" fill="#fff"/>
    <path id="Path_3143" data-name="Path 3143" d="M211.73,382.1a4.013,4.013,0,0,1,1.2.16,2.317,2.317,0,0,1,.845.452,1.792,1.792,0,0,1,.5.708,2.509,2.509,0,0,1,.163.919,2.394,2.394,0,0,1-.176.928,1.98,1.98,0,0,1-.514.728,2.358,2.358,0,0,1-.848.472,3.715,3.715,0,0,1-1.168.168h-1.109v2.645h-1.066V382.1Zm0,3.7a2.208,2.208,0,0,0,.713-.1,1.417,1.417,0,0,0,.515-.3,1.243,1.243,0,0,0,.313-.46,1.63,1.63,0,0,0,.1-.593,1.328,1.328,0,0,0-.407-1.029,1.776,1.776,0,0,0-1.238-.375h-1.109v2.86Z" fill="#fff"/>
    <path id="Path_3144" data-name="Path 3144" d="M220.5,382.987h-2.279v6.29h-1.06v-6.29h-2.29v-.89H220.5Z" fill="#fff"/>
  </g>
</svg>
