<svg id="icon_setting_white" data-name="icon/setting_white" xmlns="http://www.w3.org/2000/svg" width="18" height="17.998" viewBox="0 0 18 17.998">
  <path id="パス_1582" data-name="パス 1582" d="M196.35,201.163l-1.907-.845a.338.338,0,0,1-.181-.2,6.945,6.945,0,0,0-.346-.827.341.341,0,0,1-.014-.271l.751-1.95a.341.341,0,0,0-.077-.365l-1.32-1.32a.342.342,0,0,0-.365-.077l-1.951.751a.335.335,0,0,1-.27-.013,7.184,7.184,0,0,0-.826-.343.337.337,0,0,1-.2-.181l-.847-1.911a.344.344,0,0,0-.313-.2h-1.868a.343.343,0,0,0-.312.2l-.847,1.911a.334.334,0,0,1-.2.181,7.259,7.259,0,0,0-.826.343.334.334,0,0,1-.27.013l-1.951-.751a.343.343,0,0,0-.365.077l-1.32,1.32a.345.345,0,0,0-.077.365l.751,1.95a.333.333,0,0,1-.014.271,7.115,7.115,0,0,0-.346.827.332.332,0,0,1-.181.2l-1.907.845a.343.343,0,0,0-.2.312v1.869a.341.341,0,0,0,.2.312l1.907.845a.337.337,0,0,1,.181.2,7.221,7.221,0,0,0,.346.827.333.333,0,0,1,.014.271l-.751,1.95a.341.341,0,0,0,.077.365l1.32,1.32a.341.341,0,0,0,.365.077l1.951-.751a.338.338,0,0,1,.27.013,7.083,7.083,0,0,0,.826.343.337.337,0,0,1,.2.181l.847,1.911a.34.34,0,0,0,.312.2h1.868a.34.34,0,0,0,.313-.2l.847-1.911a.34.34,0,0,1,.2-.181,7.011,7.011,0,0,0,.826-.343.339.339,0,0,1,.27-.013l1.951.751a.34.34,0,0,0,.365-.077l1.32-1.32a.341.341,0,0,0,.077-.365l-.751-1.95a.341.341,0,0,1,.014-.271,6.877,6.877,0,0,0,.346-.827.34.34,0,0,1,.181-.2l1.907-.845a.338.338,0,0,0,.2-.312v-1.869A.34.34,0,0,0,196.35,201.163Zm-8.8,4.449a3.2,3.2,0,1,1,3.2-3.2A3.2,3.2,0,0,1,187.55,205.612Z" transform="translate(-178.55 -193.41)" fill="#fff"/>
</svg>
