<svg xmlns="http://www.w3.org/2000/svg" width="28" height="28" viewBox="0 0 28 28"><rect width="28" height="28" fill="red" opacity="0"/><path d="M309,118.989H295a1,1,0,0,1-1-1.007V107.524a1.008,1.008,0,0,1,.555-.9l7.051-3.528a.991.991,0,0,1,.894,0l6.95,3.524a1.008,1.008,0,0,1,.55.9v10.461A1,1,0,0,1,309,118.989Z" transform="translate(-288 -96.989)" fill="none" stroke="#6a6d83" stroke-miterlimit="10" stroke-width="1"/><path d="M310,111.714l-7.7,2.89a1,1,0,0,1-.7,0l-7.6-2.889" transform="translate(-288 -96.989)" fill="none" stroke="#6a6d83" stroke-miterlimit="10" stroke-width="1"/><path d="M307.8,112.527v-4.892a.5.5,0,0,0-.5-.5H296.7a.5.5,0,0,0-.5.5v4.811" transform="translate(-288 -96.989)" fill="none" stroke="#6a6d83" stroke-miterlimit="10" stroke-width="1"/><g transform="translate(-288 -96.989)"><line x2="4.447" y2="5.193" transform="translate(304.777 113.796)" fill="none" stroke="#6a6d83" stroke-miterlimit="10" stroke-width="1"/><line x1="4.447" y2="5.193" transform="translate(294.776 113.796)" fill="none" stroke="#6a6d83" stroke-miterlimit="10" stroke-width="1"/></g><line x2="6.013" transform="translate(10.994 12.505)" fill="none" stroke="#6a6d83" stroke-linecap="round" stroke-miterlimit="10" stroke-width="1"/><line x2="6.013" transform="translate(10.994 14.761)" fill="none" stroke="#6a6d83" stroke-linecap="round" stroke-miterlimit="10" stroke-width="1"/></svg>