<svg xmlns="http://www.w3.org/2000/svg" width="74" height="42" viewBox="0 0 74 42">
  <g id="Group_8199" data-name="Group 8199" transform="translate(-808 -265)">
    <path id="Path_6327" data-name="Path 6327" d="M4,0H38a4,4,0,0,1,4,4V74L21,65,0,74V4A4,4,0,0,1,4,0Z" transform="translate(808 307) rotate(-90)" fill="#ffdb2e"/>
    <path id="Intersection_1" data-name="Intersection 1" d="M-4049.465-1050a3.982,3.982,0,0,1-.535-2h72.286l.857,2Z" transform="translate(4858 1355)" fill="#fff8d6"/>
    <path id="Intersection_2" data-name="Intersection 2" d="M-4050-1086a3.982,3.982,0,0,1,.535-2h72.608l-.857,2Z" transform="translate(4858 1355)" fill="#fff8d6"/>
    <text id="オススメ" transform="translate(815 292)" fill="#fff" font-size="14" font-family="YuGothicUI-Regular, Yu Gothic UI" letter-spacing="-0.06em" style="isolation: isolate"><tspan x="0" y="0">オ</tspan><tspan y="0" letter-spacing="-0.03em">ススメ</tspan></text>
  </g>
</svg>
