<svg id="TXT" xmlns="http://www.w3.org/2000/svg" width="24" height="20" viewBox="0 0 24 20">
  <path id="Path_3161" data-name="Path 3161" d="M1268.675,977.882V963.648l-4.1-3.762h-9.9v18h14" transform="translate(-1249.676 -958.863)" fill="#fff"/>
  <path id="Path_3076" data-name="Path 3076" d="M978.407,515.039V501.2l-3.9-3.657h-9.432v17.5h13.332m0,1.25H965.075a1.292,1.292,0,0,1-1.333-1.25v-17.5a1.294,1.294,0,0,1,1.333-1.25h9.984l4.681,4.389v14.361A1.292,1.292,0,0,1,978.407,516.289Z" transform="translate(-959.742 -496.289)" fill="#1b2a9b"/>
  <path id="パス_1034" data-name="パス 1034" d="M974.426,496.289V501.6h5.316Z" transform="translate(-959.742 -496.289)" fill="#1b2a9b"/>
  <rect id="Rectangle_5152" data-name="Rectangle 5152" width="24" height="13" rx="2" transform="translate(0 7)" fill="#1b2a9b"/>
  <g id="TXT-2" data-name="TXT" transform="translate(-243.771 -381.098)" style="isolation: isolate">
    <path id="Path_3148" data-name="Path 3148" d="M252.4,391.987h-2.279v6.29h-1.06v-6.29h-2.29v-.89H252.4Z" fill="#fff"/>
    <path id="Path_3149" data-name="Path 3149" d="M259.005,398.277H257.95a.268.268,0,0,1-.185-.063.576.576,0,0,1-.11-.132l-1.855-2.956a.987.987,0,0,1-.1.216l-1.805,2.74a.937.937,0,0,1-.115.132.226.226,0,0,1-.165.063h-.995l2.455-3.7-2.35-3.485h1.055a.327.327,0,0,1,.17.035.288.288,0,0,1,.1.105l1.815,2.815a1.009,1.009,0,0,1,.11-.24l1.7-2.555a.385.385,0,0,1,.1-.12.231.231,0,0,1,.141-.04h1.014l-2.365,3.44Z" fill="#fff"/>
    <path id="Path_3150" data-name="Path 3150" d="M264.87,391.987h-2.28v6.29h-1.06v-6.29h-2.29v-.89h5.63Z" fill="#fff"/>
  </g>
</svg>
