<svg xmlns="http://www.w3.org/2000/svg" width="20" height="15" viewBox="0 0 20 15">
  <g id="グループ_4745" data-name="グループ 4745" transform="translate(-302.099 -1700.453)">
    <path id="パス_1501" data-name="パス 1501" d="M305.576,1707.849l1.052.528h0Z" fill="none"/>
    <path id="パス_1502" data-name="パス 1502" d="M312.151,1700.453a.534.534,0,0,0-.194.046.533.533,0,0,1,.2-.045Z" fill="none"/>
    <path id="パス_1503" data-name="パス 1503" d="M312.151,1711.087h0a.537.537,0,0,1-.238-.056l-5.285-2.654h0l5.285,2.654A.536.536,0,0,0,312.151,1711.087Z" fill="#7e8195"/>
    <path id="パス_1504" data-name="パス 1504" d="M312.338,1711.042a.516.516,0,0,0,.053-.012l4.707-2.39-4.707,2.39A.516.516,0,0,1,312.338,1711.042Z" fill="#7e8195"/>
    <path id="パス_1505" data-name="パス 1505" d="M312.151,1712.087a1.528,1.528,0,0,1-.686-.163l-5.625-2.824v4.573h.017c.18.7,2.9,1.78,6.242,1.78s6.062-1.083,6.241-1.78h.018v-4.551l-5.515,2.8A1.527,1.527,0,0,1,312.151,1712.087Z" fill="#7e8195"/>
    <path id="パス_1506" data-name="パス 1506" d="M321.8,1705.289l-9.414-4.778a.488.488,0,0,0-.434-.012c-.014.006-.03,0-.043.011l-9.52,4.778a.541.541,0,0,0,0,.964l3.182,1.6,1.053.528,5.285,2.654a.537.537,0,0,0,.238.056.53.53,0,0,0,.186-.045.516.516,0,0,0,.053-.012l4.707-2.39.518-.263,4.189-2.127a.517.517,0,0,0,.22-.206A.541.541,0,0,0,321.8,1705.289Z" fill="#7e8195"/>
    <path id="パス_1507" data-name="パス 1507" d="M317.616,1708.377h0l4.189-2.127a.517.517,0,0,0,.22-.206.517.517,0,0,1-.22.206Z" fill="#fff"/>
    <path id="パス_1508" data-name="パス 1508" d="M321.8,1705.289l-9.414-4.778a.532.532,0,0,0-.239-.057.532.532,0,0,1,.239.057Z" fill="#fff"/>
    <path id="パス_1509" data-name="パス 1509" d="M311.957,1700.5c-.014.006-.03,0-.043.011l-9.52,4.778,9.52-4.778C311.927,1700.5,311.943,1700.505,311.957,1700.5Z" fill="#fff"/>
    <path id="パス_1510" data-name="パス 1510" d="M302.1,1705.77a.533.533,0,0,0,.3.482l3.182,1.6-3.182-1.6A.533.533,0,0,1,302.1,1705.77Z" fill="#fff"/>
    <path id="パス_1511" data-name="パス 1511" d="M312.338,1711.042a.53.53,0,0,1-.186.045A.53.53,0,0,0,312.338,1711.042Z" fill="#fff"/>
    <path id="パス_1512" data-name="パス 1512" d="M317.1,1708.64l.518-.263h0Z" fill="#fff"/>
    <g id="グループ_3218" data-name="グループ 3218">
      <line id="線_821" data-name="線 821" x1="0.842" y2="2.461" transform="translate(319.364 1710.489)" fill="none" stroke="#7e8195" stroke-linecap="round" stroke-miterlimit="10" stroke-width="0.539"/>
      <line id="線_822" data-name="線 822" x2="0.842" y2="2.461" transform="translate(320.302 1710.489)" fill="none" stroke="#7e8195" stroke-linecap="round" stroke-miterlimit="10" stroke-width="0.539"/>
    </g>
    <line id="線_823" data-name="線 823" y2="6.727" transform="translate(320.254 1706.37)" fill="none" stroke="#7e8195" stroke-linecap="round" stroke-miterlimit="10" stroke-width="0.539"/>
  </g>
</svg>
