<svg id="Icon_folder" data-name="Icon/folder" xmlns="http://www.w3.org/2000/svg" width="16" height="12" viewBox="0 0 16 12">
  <path id="Path_1707" data-name="Path 1707" d="M453.123,251.729h0a1.162,1.162,0,0,0-.739-.319h-.276v-.6a.545.545,0,0,0-.545-.544H444.12a.547.547,0,0,1-.4-.171l-.7-.741a.542.542,0,0,0-.4-.172h-3.4a.545.545,0,0,0-.545.544v1.679h-.276a1.162,1.162,0,0,0-.739.319h0a1.169,1.169,0,0,0-.274.756l.089,1.453.388,6.3a.944.944,0,0,0,.063.243,1,1,0,0,0,.951.709h13.017a1.052,1.052,0,0,0,1.014-.952l.388-6.3.09-1.453A1.178,1.178,0,0,0,453.123,251.729Zm-13.975-.819h12.335v.5H439.148Zm12.832,9.266c0,.215-13.01-.008-13.091.07a.074.074,0,0,1-.074-.07c-.076-1.23-.409-6.635-.478-7.748l.074-.078h13.973l.074.078C452.391,253.511,452.054,258.979,451.98,260.176Z" transform="translate(-437.398 -249.186)" fill="#7e8195"/>
</svg>
