<svg xmlns="http://www.w3.org/2000/svg" width="10.254" height="19.344" viewBox="0 0 10.254 19.344">
  <g id="Group_6692" data-name="Group 6692" transform="translate(-143 -2544.941)">
    <ellipse id="Ellipse_2049" data-name="Ellipse 2049" cx="1.218" cy="1.218" rx="1.218" ry="1.218" transform="translate(146.909 2544.941)" fill="#7e8195"/>
    <path id="Path_1401" data-name="Path 1401" d="M-63.192,1117.5-67,1111.52a1.47,1.47,0,0,0-1.251-.675h-.006a1.469,1.469,0,0,0-1.251.683l-3.744,5.974a.632.632,0,0,0,.2.871.628.628,0,0,0,.335.1.632.632,0,0,0,.536-.3l2.258-3.6-1.185,6.327h1.088l.468,5.523a.558.558,0,0,0,.556.511.558.558,0,0,0,.558-.558V1120.9H-68v5.476a.558.558,0,0,0,.558.558.558.558,0,0,0,.556-.511l.468-5.523c.644.005,1.091,0,1.091,0l-1.193-6.278,2.265,3.559a.632.632,0,0,0,.873.194A.632.632,0,0,0-63.192,1117.5Z" transform="translate(216.347 1437.354)" fill="#7e8195"/>
  </g>
</svg>
