<svg id="info_study" data-name="info/study" xmlns="http://www.w3.org/2000/svg" width="28" height="28" viewBox="0 0 28 28">
  <rect id="Rectangle_3983" data-name="Rectangle 3983" width="28" height="28" fill="red" opacity="0"/>
  <g id="Group_4808" data-name="Group 4808" transform="translate(0 -0.999)">
    <g id="Path_1282" data-name="Path 1282" transform="translate(-144.962 -192.139)" fill="none" stroke-miterlimit="10">
      <path d="M162.556,199.459l-10.092,10.064-1.478,4.906a.549.549,0,0,0,.689.683l4.872-1.511,10.091-10.063a1.1,1.1,0,0,0,0-1.558l-2.53-2.521A1.1,1.1,0,0,0,162.556,199.459Z" stroke="none"/>
      <path d="M 163.3320007324219 200.1380004882812 C 163.3049774169922 200.1380004882812 163.2815246582031 200.1477355957031 163.2621154785156 200.1670989990234 L 153.3487243652344 210.0529632568359 L 152.1879730224609 213.9059143066406 L 156.0153961181641 212.7188720703125 L 165.9317169189453 202.8300476074219 C 165.9513244628906 202.8105163574219 165.9612426757812 202.7866058349609 165.9612426757812 202.7590026855469 C 165.9612426757812 202.7313995361328 165.9513092041016 202.7074737548828 165.9321594238281 202.6883697509766 L 163.4017181396484 200.1669311523438 C 163.3824768066406 200.1477355957031 163.3590240478516 200.1380004882812 163.3320007324219 200.1380004882812 M 163.3320007324219 199.1380004882812 C 163.6127471923828 199.1380004882812 163.8934936523438 199.2450103759766 164.1080017089844 199.4589996337891 L 166.6380004882812 201.9799957275391 C 167.0690002441406 202.4100036621094 167.0690002441406 203.1080017089844 166.6380004882812 203.5379943847656 L 156.5469970703125 213.6009979248047 L 151.6750030517578 215.1119995117188 C 151.6188354492188 215.1294860839844 151.5631256103516 215.1376342773438 151.5090484619141 215.1376342773438 C 151.1578826904297 215.1376342773438 150.8759307861328 214.7938385009766 150.9859924316406 214.4290008544922 L 152.4640045166016 209.5229949951172 L 162.5559997558594 199.4589996337891 C 162.7704925537109 199.2450103759766 163.0512542724609 199.1380004882812 163.3320007324219 199.1380004882812 Z" stroke="none" fill="#90747f"/>
    </g>
    <line id="Line_734" data-name="Line 734" x2="3.699" y2="3.699" transform="translate(7.882 17.297)" fill="none" stroke="#90747f" stroke-miterlimit="10" stroke-width="1"/>
    <line id="Line_735" data-name="Line 735" x1="10.615" y2="10.615" transform="translate(9.027 8.076)" fill="none" stroke="#90747f" stroke-miterlimit="10" stroke-width="1"/>
    <line id="Line_736" data-name="Line 736" x1="10.615" y2="10.615" transform="translate(10.331 9.381)" fill="none" stroke="#90747f" stroke-miterlimit="10" stroke-width="1"/>
    <line id="Line_737" data-name="Line 737" x2="2.043" y2="2.043" transform="translate(7.298 19.666)" fill="none" stroke="#90747f" stroke-miterlimit="10" stroke-width="1"/>
    <line id="Line_1037" data-name="Line 1037" x2="15" transform="translate(6.5 22.5)" fill="none" stroke="#90747f" stroke-linecap="round" stroke-width="1"/>
  </g>
</svg>
