<svg xmlns="http://www.w3.org/2000/svg" width="17.216" height="17.183" viewBox="0 0 17.216 17.183">
  <path id="Path_1770" data-name="Path 1770" d="M-159.353,1346.943l-1.085-.535.578-1.111a5.371,5.371,0,0,0-4.793-.392l-.042.014v-.1a5.9,5.9,0,0,0-1.819-4.623l-.823.911-.835-.917a5.9,5.9,0,0,0-1.838,4.635v.1l-.048-.016a5.372,5.372,0,0,0-4.777.376l.576,1.1-1.094.545a5.678,5.678,0,0,0,3.657,3.256l.074.025-.072.1a6.012,6.012,0,0,0-1.133,4.856l1.179-.232.159,1.253a5.5,5.5,0,0,0,4.1-2.622l.044-.063.042.06a5.507,5.507,0,0,0,4.077,2.625l.152-1.242,1.192.23a6.009,6.009,0,0,0-1.124-4.877l-.068-.1.071-.024A5.679,5.679,0,0,0-159.353,1346.943Z" transform="translate(175.96 -1339.509)" fill="none" stroke="#90747f" stroke-width="1"/>
</svg>
