<svg id="Component_462_1" data-name="Component 462 – 1" xmlns="http://www.w3.org/2000/svg" width="24" height="18.005" viewBox="0 0 24 18.005">
  <g id="Icon_folder_l" data-name="Icon/folder_l">
    <path id="Path_3099" data-name="Path 3099" d="M308.977,415.448h0a1.75,1.75,0,0,0-1.109-.479h-.414v-.9a.819.819,0,0,0-.818-.816H295.472a.818.818,0,0,1-.6-.256l-1.05-1.112a.814.814,0,0,0-.6-.258h-5.1a.816.816,0,0,0-.817.816v2.519h-.414a1.737,1.737,0,0,0-1.109.478h0a1.748,1.748,0,0,0-.411,1.134l.134,2.18.582,9.45a1.356,1.356,0,0,0,.094.364,1.5,1.5,0,0,0,1.426,1.064h19.526a1.58,1.58,0,0,0,1.521-1.428l.582-9.45.135-2.179A1.774,1.774,0,0,0,308.977,415.448Z" transform="translate(-285.371 -411.627)" fill="#585e82"/>
    <rect id="Rectangle_5158" data-name="Rectangle 5158" width="18.5" height="0.75" transform="translate(2.75 2.5)" fill="#fff"/>
  </g>
  <g id="Icon_pulldown" data-name="Icon/pulldown" transform="translate(8 8.002)">
    <path id="Path_845" data-name="Path 845" d="M448.377,106.6l-3.639,5.295a.364.364,0,0,1-.6,0L440.5,106.6a.352.352,0,0,1,.3-.55h7.279A.352.352,0,0,1,448.377,106.6Z" transform="translate(-440.439 -106.046)" fill="#e6e8f5"/>
  </g>
</svg>
