<svg id="PDF" xmlns="http://www.w3.org/2000/svg" width="24" height="20" viewBox="0 0 24 20">
  <path id="Path_3156" data-name="Path 3156" d="M1268.675,977.882V963.648l-4.1-3.762h-9.9v18h14" transform="translate(-1249.738 -959.092)" fill="#fff"/>
  <path id="Path_3076" data-name="Path 3076" d="M978.407,515.039V501.2l-3.9-3.657h-9.432v17.5h13.332m0,1.25H965.075a1.292,1.292,0,0,1-1.333-1.25v-17.5a1.294,1.294,0,0,1,1.333-1.25h9.984l4.681,4.389v14.361A1.292,1.292,0,0,1,978.407,516.289Z" transform="translate(-959.742 -496.289)" fill="#d51230"/>
  <path id="パス_1034" data-name="パス 1034" d="M974.426,496.289V501.6h5.316Z" transform="translate(-959.742 -496.289)" fill="#d51230"/>
  <rect id="Rectangle_5152" data-name="Rectangle 5152" width="24" height="13" rx="2" transform="translate(0 7)" fill="#d51230"/>
  <g id="PDF-2" data-name="PDF" transform="translate(-200.988 -406.098)" style="isolation: isolate">
    <g id="Group_7677" data-name="Group 7677" style="isolation: isolate">
      <path id="Path_3151" data-name="Path 3151" d="M206.164,416.1a4.006,4.006,0,0,1,1.2.16,2.317,2.317,0,0,1,.845.452,1.792,1.792,0,0,1,.5.708,2.509,2.509,0,0,1,.163.919,2.394,2.394,0,0,1-.176.928,1.98,1.98,0,0,1-.514.728,2.358,2.358,0,0,1-.848.472,3.708,3.708,0,0,1-1.167.168h-1.11v2.645h-1.066V416.1Zm0,3.7a2.2,2.2,0,0,0,.712-.1,1.417,1.417,0,0,0,.515-.3,1.243,1.243,0,0,0,.313-.46,1.63,1.63,0,0,0,.105-.593,1.328,1.328,0,0,0-.408-1.029,1.775,1.775,0,0,0-1.237-.375h-1.11v2.86Z" fill="#fff"/>
      <path id="Path_3152" data-name="Path 3152" d="M216.3,419.687a4.02,4.02,0,0,1-.257,1.465,3.209,3.209,0,0,1-1.853,1.866,3.958,3.958,0,0,1-1.455.259h-2.7V416.1h2.7a3.9,3.9,0,0,1,1.455.26,3.2,3.2,0,0,1,1.853,1.867A4.028,4.028,0,0,1,216.3,419.687Zm-1.09,0a3.489,3.489,0,0,0-.175-1.147,2.439,2.439,0,0,0-.5-.861,2.125,2.125,0,0,0-.78-.537,2.714,2.714,0,0,0-1.023-.185h-1.63v5.459h1.63a2.713,2.713,0,0,0,1.023-.184,2.125,2.125,0,0,0,.78-.537,2.448,2.448,0,0,0,.5-.859A3.485,3.485,0,0,0,215.213,419.687Z" fill="#fff"/>
      <path id="Path_3153" data-name="Path 3153" d="M218.713,416.961v2.406h2.88v.865h-2.88v3.045h-1.07V416.1h4.45v.864Z" fill="#fff"/>
    </g>
  </g>
</svg>
