<svg xmlns="http://www.w3.org/2000/svg" width="18.928" height="22.764" viewBox="0 0 18.928 22.764">
  <g id="Group_4682" data-name="Group 4682" transform="translate(-157.106 -693.814)">
    <path id="Path_1875" data-name="Path 1875" d="M162.848,694.262v7.01a4.225,4.225,0,0,1-.479,1.942l-4.661,11.02a1.364,1.364,0,0,0,1.394,1.9h14.936a1.364,1.364,0,0,0,1.393-1.9l-4.66-11.02a4.212,4.212,0,0,1-.479-1.942v-7.01" fill="none" stroke="#7e8195" stroke-linecap="round" stroke-miterlimit="10" stroke-width="0.895"/>
    <g id="Group_4669" data-name="Group 4669">
      <path id="Path_1876" data-name="Path 1876" d="M173.547,713.878l-3.914-9.453a1,1,0,0,0-.924-.618H164.43a1,1,0,0,0-.924.618l-3.913,9.453a.682.682,0,0,0,.7.949H172.85A.682.682,0,0,0,173.547,713.878Z" fill="#7e8195"/>
    </g>
    <circle id="Ellipse_2317" data-name="Ellipse 2317" cx="1.087" cy="1.087" r="1.087" transform="translate(164.655 705.016)" fill="#fff"/>
    <circle id="Ellipse_2318" data-name="Ellipse 2318" cx="0.833" cy="0.833" r="0.833" transform="translate(167.748 708.834)" fill="#fff"/>
    <circle id="Ellipse_2319" data-name="Ellipse 2319" cx="0.833" cy="0.833" r="0.833" transform="translate(166.601 699.532)" fill="#7e8195"/>
    <circle id="Ellipse_2320" data-name="Ellipse 2320" cx="0.696" cy="0.696" r="0.696" transform="translate(164.865 711.931)" fill="#fff"/>
    <circle id="Ellipse_2321" data-name="Ellipse 2321" cx="0.696" cy="0.696" r="0.696" transform="translate(164.684 695.924)" fill="#7e8195"/>
  </g>
</svg>
