<svg id="icon_memo_s" data-name="icon memo_s" xmlns="http://www.w3.org/2000/svg" width="20" height="20" viewBox="0 0 20 20">
  <g id="グループ_3700" data-name="グループ 3700" transform="translate(-287.042 -410.056)">
    <path id="Path_3064" data-name="Path 3064" d="M298.733,416.721h-6.768a.472.472,0,1,1,0-.944h6.768a.472.472,0,1,1,0,.944Z" fill="#3c4557"/>
    <path id="Path_3065" data-name="Path 3065" d="M297.638,420.529h-5.673a.472.472,0,1,1,0-.944h5.673a.472.472,0,1,1,0,.944Z" fill="#3c4557"/>
    <path id="Path_3066" data-name="Path 3066" d="M295.081,424.338h-3.116a.472.472,0,1,1,0-.944h3.116a.472.472,0,1,1,0,.944Z" fill="#3c4557"/>
  </g>
  <path id="Path_3067" data-name="Path 3067" d="M300.9,430.056h-12.09a1.75,1.75,0,0,1-1.771-1.726V411.78a1.749,1.749,0,0,1,1.771-1.724H300.9a1.75,1.75,0,0,1,1.771,1.724v3.225a.556.556,0,0,1-1.111,0V411.78a.652.652,0,0,0-.66-.643H288.813a.652.652,0,0,0-.66.643v16.55a.652.652,0,0,0,.66.643H300.9a.652.652,0,0,0,.66-.643.556.556,0,0,1,1.112,0A1.751,1.751,0,0,1,300.9,430.056Z" transform="translate(-287.042 -410.056)" fill="#3c4557"/>
  <g id="グループ_3701" data-name="グループ 3701" transform="translate(-287.042 -410.056)">
    <path id="パス_1594" data-name="パス 1594" d="M295.475,424.9l-.388,1.94a.646.646,0,0,0,.516.762.716.716,0,0,0,.269,0l1.978-.409a.69.69,0,0,0,.149-.037l-2.481-2.426A.633.633,0,0,0,295.475,424.9Z" fill="#3c4557"/>
    <path id="長方形_2570" data-name="長方形 2570" d="M295.923,424.214l6.466-6.269,2.6,2.543-6.466,6.269Z" fill="#3c4557"/>
    <path id="パス_1595" data-name="パス 1595" d="M306.839,417.767l-1.67-1.621a.674.674,0,0,0-.933,0l-1.381,1.34,2.6,2.545,1.384-1.343a.632.632,0,0,0,.018-.911h0a.012.012,0,0,0-.011-.012Z" fill="#3c4557"/>
  </g>
</svg>
