<svg xmlns="http://www.w3.org/2000/svg" width="11" height="22" viewBox="0 0 11 22">
  <g id="Group_4711" data-name="Group 4711" transform="translate(-213.182 -692.017)">
    <path id="Path_1879" data-name="Path 1879" d="M224.114,703.819l-3.627-7.276a1.928,1.928,0,0,0-3.61,0l-3.626,7.276a.648.648,0,1,0,1.158.581l2.226-4.466-1.315,7.034a5.532,5.532,0,0,1,1.268-.071l.545,6.523a.65.65,0,0,0,1.3-.055v-6.477h.505v6.476a.65.65,0,0,0,1.3.055l.544-6.52,1.27.013-1.341-7.028,2.251,4.515a.648.648,0,1,0,1.158-.581Z" fill="#de8398"/>
    <path id="Path_1880" data-name="Path 1880" d="M218.772,694.89a1.437,1.437,0,1,0-1.431-1.437A1.434,1.434,0,0,0,218.772,694.89Z" fill="#de8398"/>
  </g>
</svg>
