<svg xmlns="http://www.w3.org/2000/svg" width="28" height="28" viewBox="0 0 28 28">
  <g id="Group_6693" data-name="Group 6693" transform="translate(-827 -853)">
    <g id="Component_191_1" data-name="Component 191 – 1" transform="translate(827 853)">
      <g id="Group_6692" data-name="Group 6692" transform="translate(-32 -1022)">
        <rect id="Rectangle_3985" data-name="Rectangle 3985" width="28" height="28" transform="translate(32 1022)" fill="red" opacity="0"/>
        <g id="Group_3263" data-name="Group 3263" transform="translate(-114.758 541)">
          <path id="Path_1541" data-name="Path 1541" d="M171.469,493.888H158.133a.293.293,0,0,1-.2-.508l6.724-6.3a.286.286,0,0,1,.394,0l6.612,6.3A.294.294,0,0,1,171.469,493.888Z" fill="none" stroke="#90747f" stroke-miterlimit="10" stroke-width="1"/>
          <path id="Path_1542" data-name="Path 1542" d="M152.836,501.253V503h1.434v-1.674a1.934,1.934,0,0,1-1.434-.073Z" fill="#7e8195" stroke="#90747f" stroke-width="1"/>
          <path id="Path_1543" data-name="Path 1543" d="M156.894,497.6a1.75,1.75,0,0,0-.826-.51,1.749,1.749,0,0,0,.216-.458,1.782,1.782,0,0,0,.077-.52h0a1.737,1.737,0,0,0-.328-1.025,1.737,1.737,0,0,0-.369-.377,1.756,1.756,0,0,0-.467-.252,2.077,2.077,0,0,0,.044-.264,1.453,1.453,0,0,0,.045-.265,1.76,1.76,0,0,0-1.059-1.62,1.688,1.688,0,0,0-.325-.1,1.744,1.744,0,0,0-.349-.035h0a1.737,1.737,0,0,0-.349.035,1.716,1.716,0,0,0-.62.265,1.735,1.735,0,0,0-.675,1.987,1.754,1.754,0,0,0-1.165,1.654h0a1.761,1.761,0,0,1-.986,2.668,1.721,1.721,0,0,0,.036.354,1.768,1.768,0,0,0,.26.629,1.716,1.716,0,0,0,1.437.775h0a1.632,1.632,0,0,0,.3-.027,1.736,1.736,0,0,0,.281-.077,1.784,1.784,0,0,0,.5-.285,1.992,1.992,0,0,0,.5.285,1.736,1.736,0,0,0,.281.077,1.629,1.629,0,0,0,.3.027h0a1.693,1.693,0,0,0,.525-.083c.037-.012.066-.037.1-.051a1.765,1.765,0,0,0,.358-.18,1.749,1.749,0,0,0,.461.231,1.693,1.693,0,0,0,.525.083h0a1.722,1.722,0,0,0,1.436-.775,1.771,1.771,0,0,0-.157-2.163Z" fill="none" stroke="#90747f" stroke-miterlimit="10" stroke-width="1"/>
          <path id="Path_1544" data-name="Path 1544" d="M159.6,495.392v6.161a.968.968,0,0,0,.967.97h8.469a.968.968,0,0,0,.967-.97v-6.22" fill="none" stroke="#90747f" stroke-linecap="round" stroke-miterlimit="10" stroke-width="1"/>
          <rect id="Rectangle_2001" data-name="Rectangle 2001" width="3.388" height="3.399" rx="0.505" transform="translate(163.107 495.652)" fill="none" stroke="#90747f" stroke-linecap="round" stroke-miterlimit="10" stroke-width="1"/>
        </g>
      </g>
    </g>
  </g>
</svg>
