<svg id="image" xmlns="http://www.w3.org/2000/svg" width="16" height="20" viewBox="0 0 16 20">
  <rect id="Rectangle_5160" data-name="Rectangle 5160" width="14" height="18" transform="translate(0.669 1)" fill="#fff"/>
  <path id="Path_3155" data-name="Path 3155" d="M1286.138,958.871h-12a2.006,2.006,0,0,0-2,2v16a2.007,2.007,0,0,0,2,2h12a2.006,2.006,0,0,0,2-2v-16A2.006,2.006,0,0,0,1286.138,958.871Zm.665,18.749h-13.331v-17.5H1286.8Z" transform="translate(-1272.138 -958.871)" fill="#18a9de"/>
  <path id="Op_component_3" data-name="Op component 3" d="M348.143,2871.51,346,2868.5l-3,4.5h12l-3.857-6Z" transform="translate(-341 -2858)" fill="#18a9de"/>
  <circle id="Ellipse_2396" data-name="Ellipse 2396" cx="1" cy="1" r="1" transform="translate(4 6)" fill="#18a9de"/>
</svg>
