<svg xmlns="http://www.w3.org/2000/svg" width="40" height="40" viewBox="0 0 40 40"><rect width="40" height="40" rx="15" fill="#f7f8fd"/><g transform="translate(11 12)"><path d="M245.772,117.649v-7.906l4.842-1.437" transform="translate(-244.561 -101.94)" fill="none" stroke="#7e8195" stroke-linecap="round" stroke-miterlimit="10" stroke-width="1.013"/><path d="M250.719,117.649V103.942l6.947-2,3.842,2.207V117.8" transform="translate(-244.561 -101.94)" fill="none" stroke="#7e8195" stroke-linecap="round" stroke-miterlimit="10" stroke-width="1.013"/><line y1="1.122" x2="3.895" transform="translate(7.684 3.177)" fill="none" stroke="#7e8195" stroke-linecap="round" stroke-miterlimit="10" stroke-width="1.013"/><line y1="0.405" x2="1.727" transform="translate(2.68 9.794)" fill="none" stroke="#7e8195" stroke-linecap="round" stroke-miterlimit="10" stroke-width="1.013"/><line y1="0.127" x2="1.727" transform="translate(2.68 13.222)" fill="none" stroke="#7e8195" stroke-linecap="round" stroke-miterlimit="10" stroke-width="1.013"/><line y1="0.221" x2="1.63" transform="translate(2.68 11.531)" fill="none" stroke="#7e8195" stroke-linecap="round" stroke-miterlimit="10" stroke-width="1.013"/><line y1="0.869" x2="3.895" transform="translate(7.684 5.693)" fill="none" stroke="#7e8195" stroke-linecap="round" stroke-miterlimit="10" stroke-width="1.013"/><line y1="0.613" x2="3.895" transform="translate(7.684 8.212)" fill="none" stroke="#7e8195" stroke-linecap="round" stroke-miterlimit="10" stroke-width="1.013"/><line y1="0.459" x2="3.895" transform="translate(7.684 10.679)" fill="none" stroke="#7e8195" stroke-linecap="round" stroke-miterlimit="10" stroke-width="1.013"/><line y1="0.279" x2="3.895" transform="translate(7.684 13.16)" fill="none" stroke="#7e8195" stroke-linecap="round" stroke-miterlimit="10" stroke-width="1.013"/><line y1="15.658" transform="translate(13.105 0.154)" fill="none" stroke="#7e8195" stroke-linecap="round" stroke-miterlimit="10" stroke-width="1.013"/><line x2="18" transform="translate(0 16)" fill="none" stroke="#7e8195" stroke-linecap="round" stroke-miterlimit="10" stroke-width="1.013"/></g></svg>