<svg xmlns="http://www.w3.org/2000/svg" width="11" height="22" viewBox="0 0 11 22">
  <g id="Group_4698" data-name="Group 4698" transform="translate(-196.575 -692.017)">
    <path id="Path_1877" data-name="Path 1877" d="M207.507,703.691l-3.627-7.2a1.936,1.936,0,0,0-3.61,0l-3.626,7.2a.64.64,0,0,0,.289.862.65.65,0,0,0,.869-.288l2.343-4.649v6.2h.006v7.36a.85.85,0,0,0,1.7,0v-7.36h.472v7.36a.85.85,0,0,0,1.7,0v-7.36h.008v-6.151l2.319,4.6a.65.65,0,0,0,.869.288A.64.64,0,0,0,207.507,703.691Z" fill="#7096bc"/>
    <path id="Path_1878" data-name="Path 1878" d="M202.165,694.858a1.421,1.421,0,1,0-1.432-1.42A1.426,1.426,0,0,0,202.165,694.858Z" fill="#7096bc"/>
  </g>
</svg>
