<svg xmlns="http://www.w3.org/2000/svg" width="30" height="30" viewBox="0 0 30 30">
  <path id="Path_2757" data-name="Path 2757" d="M-145.353,1352.855l-2.034-1,1.083-2.084s-3.485-2.6-8.987-.734l-.079.027v-.2c0-6.021-3.411-8.669-3.411-8.669l-1.543,1.708-1.565-1.719s-3.447,2.654-3.447,8.69v.192l-.091-.031c-5.489-1.861-8.957.705-8.957.705l1.08,2.059-2.05,1.021s1.354,4.24,6.857,6.105l.139.047-.134.193c-3.392,4.871-2.125,9.1-2.125,9.1l2.211-.436.3,2.35s4.284-.034,7.685-4.917l.082-.117.078.112c3.392,4.871,7.644,4.922,7.644,4.922l.286-2.328,2.234.431s1.293-4.261-2.108-9.144l-.127-.182.132-.045C-146.713,1357.057-145.353,1352.855-145.353,1352.855Z" transform="translate(175.353 -1340.186)" fill="#f09c9c"/>
</svg>
