<svg id="ZIP" xmlns="http://www.w3.org/2000/svg" width="24" height="20" viewBox="0 0 24 20">
  <path id="Path_3160" data-name="Path 3160" d="M1268.675,977.882V963.648l-4.1-3.762h-9.9v18h14" transform="translate(-1249.738 -958.863)" fill="#fff"/>
  <path id="Path_3076" data-name="Path 3076" d="M978.407,515.039V501.2l-3.9-3.657h-9.432v17.5h13.332m0,1.25H965.075a1.292,1.292,0,0,1-1.333-1.25v-17.5a1.294,1.294,0,0,1,1.333-1.25h9.984l4.681,4.389v14.361A1.292,1.292,0,0,1,978.407,516.289Z" transform="translate(-959.742 -496.289)" fill="#ef9b00"/>
  <path id="パス_1034" data-name="パス 1034" d="M974.426,496.289V501.6h5.316Z" transform="translate(-959.742 -496.289)" fill="#ef9b00"/>
  <rect id="Rectangle_5152" data-name="Rectangle 5152" width="24" height="13" rx="2" transform="translate(0 7)" fill="#ef9b00"/>
  <g id="ZIP-2" data-name="ZIP" transform="translate(-198.871 -385.098)" style="isolation: isolate">
    <path id="Path_3145" data-name="Path 3145" d="M209.341,395.492a.6.6,0,0,1-.111.344l-3.964,5.576h4v.865h-5.4v-.42a.468.468,0,0,1,.027-.16.705.705,0,0,1,.073-.145l3.975-5.591h-3.875V395.1h5.27Z" fill="#fff"/>
    <path id="Path_3146" data-name="Path 3146" d="M211.6,402.277h-1.07V395.1h1.07Z" fill="#fff"/>
    <path id="Path_3147" data-name="Path 3147" d="M215.551,395.1a4,4,0,0,1,1.2.16,2.322,2.322,0,0,1,.846.452,1.8,1.8,0,0,1,.5.708,2.488,2.488,0,0,1,.163.919,2.412,2.412,0,0,1-.175.928,1.994,1.994,0,0,1-.515.728,2.349,2.349,0,0,1-.848.472,3.708,3.708,0,0,1-1.167.168h-1.11v2.645h-1.066V395.1Zm0,3.7a2.2,2.2,0,0,0,.712-.1,1.409,1.409,0,0,0,.515-.3,1.22,1.22,0,0,0,.313-.46,1.609,1.609,0,0,0,.1-.593,1.328,1.328,0,0,0-.408-1.029,1.774,1.774,0,0,0-1.237-.375h-1.11v2.86Z" fill="#fff"/>
  </g>
</svg>
