<svg xmlns="http://www.w3.org/2000/svg" width="16" height="23.274" viewBox="0 0 16 23.274">
  <g id="Group_7714" data-name="Group 7714" transform="translate(-291.872 -412.636)">
    <path id="??_908" data-name="?? 908" d="M299.867,435.91l6.944-8.042a4.275,4.275,0,0,0,1.061-2.8V413.925a1.34,1.34,0,0,0-1.384-1.288,1.425,1.425,0,0,0-1.111.518l-5.51,6.864Z" fill="#179e98"/>
    <path id="??_909" data-name="?? 909" d="M299.867,435.91l-6.937-8.042a4.28,4.28,0,0,1-1.058-2.8V413.925a1.338,1.338,0,0,1,1.384-1.286,1.425,1.425,0,0,1,1.109.516l5.508,6.864Z" fill="#f7ee17"/>
  </g>
</svg>