<svg xmlns="http://www.w3.org/2000/svg" width="28" height="28" viewBox="0 0 28 28"><rect width="28" height="28" fill="#f41313" opacity="0"/><g transform="translate(-384 -239.289)"><path d="M391.117,253.273c.011-.1.025-.195.041-.291a6.733,6.733,0,0,1,3.422-4.792" fill="none" stroke="#7e8195" stroke-linecap="round" stroke-miterlimit="10" stroke-width="1.07"/><path d="M401.5,259.838a7.109,7.109,0,0,1-7.172-.1" fill="none" stroke="#7e8195" stroke-linecap="round" stroke-miterlimit="10" stroke-width="1.07"/><path d="M401.253,248.1a6.747,6.747,0,0,1,3.572,4.821c.024.14.043.281.058.424" fill="none" stroke="#7e8195" stroke-linecap="round" stroke-miterlimit="10" stroke-width="1.07"/></g><g transform="translate(-384 -239.289)"><ellipse cx="1.391" cy="1.311" rx="1.391" ry="1.311" transform="translate(396.607 245.289)" fill="#7e8195"/><path d="M396.04,251.356v-1.131a1.907,1.907,0,0,1,1.96-1.848h0a1.905,1.905,0,0,1,1.961,1.847v1.13Z" fill="#7e8195"/><ellipse cx="1.391" cy="1.311" rx="1.391" ry="1.311" transform="translate(389.568 255.222)" fill="#7e8195"/><path d="M389,261.289v-1.13a1.907,1.907,0,0,1,1.96-1.849h0a1.907,1.907,0,0,1,1.961,1.847v1.13Z" fill="#7e8195"/><ellipse cx="1.391" cy="1.311" rx="1.391" ry="1.311" transform="translate(403.646 255.222)" fill="#7e8195"/><path d="M403.079,261.289v-1.13a1.905,1.905,0,0,1,1.959-1.849h0A1.905,1.905,0,0,1,407,260.157v1.13Z" fill="#7e8195"/></g></svg>