<svg xmlns="http://www.w3.org/2000/svg" width="36" height="35.996" viewBox="0 0 36 35.996">
  <g id="icon_setting_l" data-name="icon/setting_l" transform="translate(0 0)">
    <path id="パス_1582" data-name="パス 1582" d="M385.138,523.661l-3.814-1.69a.675.675,0,0,1-.362-.4,13.916,13.916,0,0,0-.692-1.654.682.682,0,0,1-.028-.542l1.5-3.9a.681.681,0,0,0-.154-.73l-2.64-2.641a.685.685,0,0,0-.73-.154l-3.9,1.5a.673.673,0,0,1-.54-.026,14.333,14.333,0,0,0-1.652-.686.673.673,0,0,1-.4-.363l-1.694-3.822a.691.691,0,0,0-.626-.4h-3.737a.687.687,0,0,0-.624.4l-1.694,3.822a.668.668,0,0,1-.4.363,14.33,14.33,0,0,0-1.652.686.673.673,0,0,1-.54.026l-3.9-1.5a.687.687,0,0,0-.73.154l-2.64,2.641a.689.689,0,0,0-.154.73l1.5,3.9a.666.666,0,0,1-.028.542,14.156,14.156,0,0,0-.692,1.654.663.663,0,0,1-.362.4l-3.815,1.69a.688.688,0,0,0-.4.624v3.738a.683.683,0,0,0,.4.624l3.815,1.69a.68.68,0,0,1,.362.4,14.351,14.351,0,0,0,.692,1.655.665.665,0,0,1,.028.542l-1.5,3.9a.682.682,0,0,0,.154.73l2.64,2.64a.682.682,0,0,0,.73.154l3.9-1.5a.672.672,0,0,1,.54.026,14.33,14.33,0,0,0,1.652.686.675.675,0,0,1,.4.362l1.694,3.822a.681.681,0,0,0,.624.4h3.737a.679.679,0,0,0,.626-.4l1.694-3.822a.674.674,0,0,1,.4-.362,14.162,14.162,0,0,0,1.652-.686.677.677,0,0,1,.54-.026l3.9,1.5a.68.68,0,0,0,.73-.154l2.64-2.64a.682.682,0,0,0,.154-.73l-1.5-3.9a.682.682,0,0,1,.028-.542,13.609,13.609,0,0,0,.692-1.655.686.686,0,0,1,.362-.4l3.814-1.69a.675.675,0,0,0,.4-.624v-3.738A.679.679,0,0,0,385.138,523.661Zm-17.6,8.9a6.4,6.4,0,1,1,6.4-6.4h0A6.4,6.4,0,0,1,367.537,532.56Z" transform="translate(-349.538 -508.156)" fill="#676c81"/>
  </g>
</svg>
