<svg id="icon_upload" data-name="icon/upload" xmlns="http://www.w3.org/2000/svg" width="16" height="16.001" viewBox="0 0 16 16.001">
  <path id="Op_component_2" data-name="Op component 2" d="M0,0H16a0,0,0,0,1,0,0V.5a.5.5,0,0,1-.5.5H.5A.5.5,0,0,1,0,.5V0A0,0,0,0,1,0,0Z" transform="translate(0 15.001)" fill="#fff"/>
  <path id="Rectangle_5149" data-name="Rectangle 5149" d="M.5,0h0A.5.5,0,0,1,1,.5V3A0,0,0,0,1,1,3H0A0,0,0,0,1,0,3V.5A.5.5,0,0,1,.5,0Z" transform="translate(0 12.001)" fill="#fff"/>
  <path id="Rectangle_5150" data-name="Rectangle 5150" d="M.5,0h0A.5.5,0,0,1,1,.5V3A0,0,0,0,1,1,3H0A0,0,0,0,1,0,3V.5A.5.5,0,0,1,.5,0Z" transform="translate(15 12.001)" fill="#fff"/>
  <g id="Group_7654" data-name="Group 7654" transform="translate(-298.596 -420.357)">
    <path id="Path_3070" data-name="Path 3070" d="M311.13,425.816a.451.451,0,0,1-.315-.13l-4.22-4.151-4.22,4.151a.444.444,0,0,1-.658-.032.527.527,0,0,1,.029-.707l4.534-4.459a.443.443,0,0,1,.629,0l4.534,4.459a.527.527,0,0,1,.029.707A.449.449,0,0,1,311.13,425.816Z" fill="#fff"/>
    <path id="Path_3071" data-name="Path 3071" d="M306.968,433.357a.471.471,0,0,1-.5-.436v-11.97a.5.5,0,0,1,1,0v11.97A.471.471,0,0,1,306.968,433.357Z" transform="translate(-0.372 0)" fill="#fff"/>
  </g>
</svg>
