<svg id="icon_mobile" data-name="icon/mobile" xmlns="http://www.w3.org/2000/svg" width="8.838" height="16" viewBox="0 0 8.838 16">
  <path id="パス_1584" data-name="パス 1584" d="M707.769,987.385l-5.592-.022a1.6,1.6,0,0,0-1.6,1.591l-.05,12.783a1.6,1.6,0,0,0,1.591,1.6l5.592.022a1.6,1.6,0,0,0,1.6-1.592l.05-12.783A1.6,1.6,0,0,0,707.769,987.385Zm-4.356,1.469h0l3.057.013a.2.2,0,0,1,0,.4h0l-3.057-.013a.2.2,0,0,1,0-.4Zm1.527,13.2a.515.515,0,1,1,.517-.513A.515.515,0,0,1,704.94,1002.057Zm3.471-1.648-6.978-.027.041-10.389,6.978.027Z" transform="translate(-700.523 -987.363)" fill="#fff"/>
</svg>