<svg id="XLS" xmlns="http://www.w3.org/2000/svg" width="24" height="20" viewBox="0 0 24 20">
  <path id="Path_3158" data-name="Path 3158" d="M1268.675,977.882V963.648l-4.1-3.762h-9.9v18h14" transform="translate(-1249.738 -958.863)" fill="#fff"/>
  <path id="Path_3076" data-name="Path 3076" d="M978.407,515.039V501.2l-3.9-3.657h-9.432v17.5h13.332m0,1.25H965.075a1.292,1.292,0,0,1-1.333-1.25v-17.5a1.294,1.294,0,0,1,1.333-1.25h9.984l4.681,4.389v14.361A1.292,1.292,0,0,1,978.407,516.289Z" transform="translate(-959.742 -496.289)" fill="#4d9316"/>
  <path id="パス_1034" data-name="パス 1034" d="M974.426,496.289V501.6h5.316Z" transform="translate(-959.742 -496.289)" fill="#4d9316"/>
  <rect id="Rectangle_5152" data-name="Rectangle 5152" width="24" height="13" rx="2" transform="translate(0 7)" fill="#4d9316"/>
  <g id="XLS-2" data-name="XLS" transform="translate(-198.696 -361.018)" style="isolation: isolate">
    <path id="Path_3139" data-name="Path 3139" d="M209.076,378.277h-1.055a.269.269,0,0,1-.186-.063.546.546,0,0,1-.109-.132l-1.855-2.956a.987.987,0,0,1-.1.216l-1.8,2.74a1.015,1.015,0,0,1-.116.132.226.226,0,0,1-.165.063H202.7l2.454-3.7L202.8,371.1h1.054a.325.325,0,0,1,.17.035.29.29,0,0,1,.1.105l1.815,2.815a.969.969,0,0,1,.109-.24l1.7-2.555a.36.36,0,0,1,.1-.12.228.228,0,0,1,.14-.04H209l-2.364,3.44Z" fill="#fff"/>
    <path id="Path_3140" data-name="Path 3140" d="M214.156,377.382v.9h-4.111V371.1h1.066v6.285Z" fill="#fff"/>
    <path id="Path_3141" data-name="Path 3141" d="M218.911,372.267a.426.426,0,0,1-.1.125.239.239,0,0,1-.14.04.361.361,0,0,1-.206-.083c-.076-.055-.172-.116-.287-.184a2.272,2.272,0,0,0-.412-.186,1.779,1.779,0,0,0-.575-.082,1.69,1.69,0,0,0-.553.082,1.174,1.174,0,0,0-.4.226.933.933,0,0,0-.242.335,1.041,1.041,0,0,0-.082.417.757.757,0,0,0,.147.48,1.286,1.286,0,0,0,.387.325,3.061,3.061,0,0,0,.546.235c.2.067.411.135.625.208a6.345,6.345,0,0,1,.625.247,2.235,2.235,0,0,1,.545.352,1.638,1.638,0,0,1,.387.521,1.732,1.732,0,0,1,.147.752,2.426,2.426,0,0,1-.162.89,2.1,2.1,0,0,1-.472.725,2.187,2.187,0,0,1-.763.487,2.8,2.8,0,0,1-1.027.178,3.353,3.353,0,0,1-.67-.067,3.3,3.3,0,0,1-.616-.191,3.042,3.042,0,0,1-.542-.3,2.687,2.687,0,0,1-.452-.387l.3-.51a.41.41,0,0,1,.108-.1.256.256,0,0,1,.142-.04.411.411,0,0,1,.243.109c.092.075.205.155.34.244a2.638,2.638,0,0,0,.485.242,1.908,1.908,0,0,0,.688.11,1.83,1.83,0,0,0,.59-.088,1.2,1.2,0,0,0,.437-.25,1.1,1.1,0,0,0,.273-.392,1.335,1.335,0,0,0,.094-.51.86.86,0,0,0-.144-.515,1.178,1.178,0,0,0-.385-.335,2.834,2.834,0,0,0-.545-.23l-.625-.2a6.339,6.339,0,0,1-.625-.238,2.048,2.048,0,0,1-.545-.352,1.615,1.615,0,0,1-.386-.545,2.01,2.01,0,0,1-.145-.808,1.936,1.936,0,0,1,.15-.745,1.886,1.886,0,0,1,.438-.638,2.187,2.187,0,0,1,.707-.445,2.6,2.6,0,0,1,.961-.167,3.139,3.139,0,0,1,1.112.192,2.577,2.577,0,0,1,.882.553Z" fill="#fff"/>
  </g>
</svg>
