<svg xmlns="http://www.w3.org/2000/svg" width="28" height="28" viewBox="0 0 28 28"><g transform="translate(0 -966)"><rect width="28" height="28" transform="translate(0 966)" fill="none" opacity="0.116"/><g transform="translate(4.997 974)"><path d="M-2763.749-22898h-9.751a4.507,4.507,0,0,1-4.5-4.5,4.486,4.486,0,0,1,4.013-4.469A5.613,5.613,0,0,1-2769-22910a5.621,5.621,0,0,1,5.508,4.531,3.532,3.532,0,0,1,3.49,3.719A3.754,3.754,0,0,1-2763.749-22898Zm-5.318-11a4.347,4.347,0,0,0-3.254,1.393,7.741,7.741,0,0,0-1.179,1.633,3.487,3.487,0,0,0-3.5,3.535c0,1.992,1.654,3.438,3.933,3.438h8.67a3.234,3.234,0,0,0,3.329-3.121,2.512,2.512,0,0,0-1.374-1.984,3.391,3.391,0,0,0-1.412-.355,1.574,1.574,0,0,0-.543.086,3.624,3.624,0,0,0-.546-2.109A4.749,4.749,0,0,0-2769.067-22909Zm.793,8h-1.449v-2.57H-2771l2-3.426,2,3.426h-1.271v2.57Z" transform="translate(2778.002 22910)" fill="#7e8195" stroke="rgba(0,0,0,0)" stroke-miterlimit="10" stroke-width="1"/></g></g></svg>