<svg xmlns="http://www.w3.org/2000/svg" width="28" height="28" viewBox="0 0 28 28"><rect width="28" height="28" fill="#b57b7b" opacity="0"/><path d="M302.992,244.5v7.619h7.619A7.619,7.619,0,0,0,302.992,244.5Z" transform="translate(-288.611 -238.5)" fill="#7e8195"/><g transform="translate(-287.611 -238.5)" fill="none"><path d="M300.73,253.381v-7.119a7.121,7.121,0,1,0,7.119,7.119Z" stroke="none"/><path d="M 299.729736328125 247.343505859375 C 298.2796936035156 247.5820617675781 296.9584350585938 248.3356323242188 296.0056457519531 249.4912109375 C 294.8379821777344 250.9073791503906 294.3733520507812 252.7759552001953 294.7308654785156 254.6174621582031 C 295.1947937011719 257.0021362304688 297.1080627441406 258.91552734375 299.4918823242188 259.378662109375 C 299.9039306640625 259.458740234375 300.3204040527344 259.4993591308594 300.729736328125 259.4993591308594 C 303.7632141113281 259.4993591308594 306.2881774902344 257.2807006835938 306.7667846679688 254.3807525634766 L 300.729736328125 254.3807525634766 L 299.729736328125 254.3807525634766 L 299.729736328125 253.3807525634766 L 299.729736328125 247.343505859375 M 300.729736328125 246.2619934082031 L 300.729736328125 253.3807525634766 L 307.8484802246094 253.3807525634766 C 307.8484802246094 257.312744140625 304.6614685058594 260.4993591308594 300.729736328125 260.4993591308594 C 300.2628784179688 260.4993591308594 299.7848815917969 260.454345703125 299.3011169433594 260.3603210449219 C 296.526123046875 259.8211669921875 294.289306640625 257.5843811035156 293.749267578125 254.8084259033203 C 292.8644409179688 250.250732421875 296.3308410644531 246.2619934082031 300.729736328125 246.2619934082031 Z" stroke="none" fill="#7e8195"/></g></svg>