<svg id="DOC" xmlns="http://www.w3.org/2000/svg" width="24" height="20" viewBox="0 0 24 20">
  <path id="Path_3157" data-name="Path 3157" d="M1268.675,977.882V963.648l-4.1-3.762h-9.9v18h14" transform="translate(-1249.738 -958.863)" fill="#fff"/>
  <path id="Path_3076" data-name="Path 3076" d="M978.407,515.039V501.2l-3.9-3.657h-9.432v17.5h13.332m0,1.25H965.075a1.292,1.292,0,0,1-1.333-1.25v-17.5a1.294,1.294,0,0,1,1.333-1.25h9.984l4.681,4.389v14.361A1.292,1.292,0,0,1,978.407,516.289Z" transform="translate(-959.742 -496.289)" fill="#2863a5"/>
  <path id="パス_1034" data-name="パス 1034" d="M974.426,496.289V501.6h5.316Z" transform="translate(-959.742 -496.289)" fill="#2863a5"/>
  <rect id="Rectangle_5152" data-name="Rectangle 5152" width="24" height="13" rx="2" transform="translate(0 7)" fill="#2863a5"/>
  <g id="DOC-2" data-name="DOC" transform="translate(-201.115 -348.018)" style="isolation: isolate">
    <g id="Group_7672" data-name="Group 7672" style="isolation: isolate">
      <path id="Path_3136" data-name="Path 3136" d="M208.771,361.687a4,4,0,0,1-.258,1.465,3.2,3.2,0,0,1-1.852,1.865,3.921,3.921,0,0,1-1.455.26h-2.7V358.1h2.7a3.9,3.9,0,0,1,1.455.26,3.194,3.194,0,0,1,1.852,1.867A4.007,4.007,0,0,1,208.771,361.687Zm-1.09,0a3.489,3.489,0,0,0-.176-1.147,2.424,2.424,0,0,0-.5-.861,2.125,2.125,0,0,0-.78-.537,2.712,2.712,0,0,0-1.022-.185h-1.63v5.46h1.63a2.711,2.711,0,0,0,1.022-.185,2.125,2.125,0,0,0,.78-.537,2.432,2.432,0,0,0,.5-.859A3.484,3.484,0,0,0,207.681,361.687Z" fill="#fff"/>
      <path id="Path_3137" data-name="Path 3137" d="M216.8,361.687a4.1,4.1,0,0,1-.258,1.478,3.387,3.387,0,0,1-.728,1.16,3.283,3.283,0,0,1-1.125.757,4.047,4.047,0,0,1-2.907,0,3.264,3.264,0,0,1-1.125-.757,3.445,3.445,0,0,1-.727-1.16,4.31,4.31,0,0,1,0-2.954,3.454,3.454,0,0,1,.727-1.162,3.269,3.269,0,0,1,1.125-.759,4.006,4.006,0,0,1,2.907,0,3.288,3.288,0,0,1,1.125.759,3.4,3.4,0,0,1,.728,1.162A4.109,4.109,0,0,1,216.8,361.687Zm-1.091,0a3.544,3.544,0,0,0-.174-1.15,2.473,2.473,0,0,0-.5-.866,2.168,2.168,0,0,0-.78-.545,2.86,2.86,0,0,0-2.045,0,2.184,2.184,0,0,0-.782.545,2.431,2.431,0,0,0-.5.866,3.852,3.852,0,0,0,0,2.3,2.426,2.426,0,0,0,.5.863,2.143,2.143,0,0,0,.782.543,2.889,2.889,0,0,0,2.045,0,2.127,2.127,0,0,0,.78-.543,2.468,2.468,0,0,0,.5-.863A3.539,3.539,0,0,0,215.71,361.687Z" fill="#fff"/>
      <path id="Path_3138" data-name="Path 3138" d="M223.15,363.737a.206.206,0,0,1,.156.07l.42.46a3,3,0,0,1-1.073.8,3.69,3.69,0,0,1-1.523.285,3.545,3.545,0,0,1-1.412-.271,3.094,3.094,0,0,1-1.08-.754,3.414,3.414,0,0,1-.693-1.161,4.322,4.322,0,0,1-.244-1.484,4.127,4.127,0,0,1,.257-1.485,3.388,3.388,0,0,1,.723-1.16,3.244,3.244,0,0,1,1.112-.755,3.688,3.688,0,0,1,1.433-.27,3.474,3.474,0,0,1,1.359.25,3.417,3.417,0,0,1,1.036.665l-.35.495a.315.315,0,0,1-.088.09.24.24,0,0,1-.138.035.4.4,0,0,1-.222-.1,3.315,3.315,0,0,0-.335-.212,2.633,2.633,0,0,0-.512-.213,2.576,2.576,0,0,0-.761-.1,2.5,2.5,0,0,0-.98.188,2.16,2.16,0,0,0-.767.54,2.434,2.434,0,0,0-.5.865,3.528,3.528,0,0,0-.177,1.157,3.387,3.387,0,0,0,.185,1.165,2.559,2.559,0,0,0,.509.865,2.172,2.172,0,0,0,.765.54,2.435,2.435,0,0,0,.951.185,3.892,3.892,0,0,0,.557-.037,2.46,2.46,0,0,0,.455-.113,2.01,2.01,0,0,0,.392-.193,2.562,2.562,0,0,0,.366-.282.346.346,0,0,1,.085-.058A.216.216,0,0,1,223.15,363.737Z" fill="#fff"/>
    </g>
  </g>
</svg>
