<svg xmlns="http://www.w3.org/2000/svg" width="32" height="29.997" viewBox="0 0 32 29.997"><path d="M214.9,475.48v5.24a2.138,2.138,0,1,0,4.276,0V476.1l-2.76-.31A11.333,11.333,0,0,1,214.9,475.48Z" transform="translate(-208.471 -452.862)" fill="#676c81"/><path d="M210.81,458.538a9.2,9.2,0,0,0-1.718,2.8,9.037,9.037,0,0,0-.46,1.614,9.211,9.211,0,0,0,7.35,10.755c.216.041.432.074.65.1l2.538.284,10.859,1.216V454.03l-13.4,1.5A9.159,9.159,0,0,0,210.81,458.538Z" transform="translate(-208.471 -452.862)" fill="#676c81"/><path d="M232.033,453.806V475.53l8.438.944V452.862Z" transform="translate(-208.471 -452.862)" fill="#676c81"/></svg>