<svg xmlns="http://www.w3.org/2000/svg" width="28" height="28" viewBox="0 0 28 28"><rect width="28" height="28" fill="red" opacity="0"/><g transform="translate(-90.145 -431.17)"><ellipse cx="3.206" cy="3.378" rx="3.206" ry="3.378" transform="translate(100.939 437.17)" fill="none" stroke="#7e8195" stroke-linecap="round" stroke-miterlimit="10" stroke-width="1.001"/><path d="M109.145,453.17v-1.9a5.066,5.066,0,0,0-5-5.129h0c-.036,0-.072,0-.418.018a5,5,0,0,0-4.582,5.111v1.9" fill="none" stroke="#7e8195" stroke-linecap="round" stroke-miterlimit="10" stroke-width="1"/><path d="M105.1,453.334l-.972.528-.935-.528.432-5.161h1.044Z" fill="#7e8195"/><path d="M103.62,447.288v.6h1.049v-.612a3.834,3.834,0,0,0-.468-.054A3.731,3.731,0,0,0,103.62,447.288Z" fill="#7e8195"/><line x1="0.302" y2="6.155" transform="translate(106.79 447.103)" fill="none" stroke="#7e8195" stroke-linecap="round" stroke-miterlimit="10" stroke-width="0.971"/><line x2="0.302" y2="6.155" transform="translate(101.198 447.103)" fill="none" stroke="#7e8195" stroke-linecap="round" stroke-miterlimit="10" stroke-width="0.971"/></g></svg>