<svg id="label_childbox" data-name="label/childbox" xmlns="http://www.w3.org/2000/svg" width="25" height="9" viewBox="0 0 25 9">
  <rect id="Rectangle_5209" data-name="Rectangle 5209" width="25" height="9" rx="4" fill="#f5bc49"/>
  <g id="子BOX" transform="translate(-282.912 -415.096)" style="isolation: isolate">
    <path id="子" d="M288.341,418.989c0-.191-.007-.317-.018-.456h.311a5.22,5.22,0,0,0,1.02-.767h-2.393a5.924,5.924,0,0,0-.725.036V417.1a6.089,6.089,0,0,0,.719.036h2.717a2.528,2.528,0,0,0,.522-.03l.389.437c-.155.144-.155.144-.564.534a8.1,8.1,0,0,1-1.277.923v.258h1.47a6.715,6.715,0,0,0,.815-.036v.725a7.657,7.657,0,0,0-.815-.035h-1.47v1.751c0,.528-.2.659-1,.659-.12,0-.24,0-.672-.023a2.407,2.407,0,0,0-.186-.72,5.293,5.293,0,0,0,.87.072c.246,0,.288-.024.288-.156v-1.583h-1.613a7.99,7.99,0,0,0-.816.035v-.725a7.283,7.283,0,0,0,.834.036h1.6Z" transform="translate(0)" fill="#5c5953"/>
    <path id="B" d="M292.812,422c-.348,0-.522.006-.768.018a4.283,4.283,0,0,0,.054-.81v-3.256a5.72,5.72,0,0,0-.048-.738c.252.013.348.013.756.013h1.415c.929,0,1.451.419,1.451,1.169a1.071,1.071,0,0,1-.336.845,1.015,1.015,0,0,1-.474.252,1.1,1.1,0,0,1,.606.276,1.184,1.184,0,0,1,.372.918c0,.839-.558,1.313-1.553,1.313Zm1.325-2.818a.636.636,0,0,0,.725-.655.614.614,0,0,0-.155-.443.851.851,0,0,0-.576-.186H292.89v1.284Zm-1.247,2.14h1.289c.533,0,.833-.263.833-.75a.649.649,0,0,0-.192-.521.979.979,0,0,0-.653-.2H292.89Z" transform="translate(0.068)" fill="#5c5953"/>
    <path id="O" d="M300.22,417.73a2.585,2.585,0,0,1,.672,1.871,2.254,2.254,0,1,1-4.48,0,2.566,2.566,0,0,1,.684-1.871,2.075,2.075,0,0,1,1.547-.6A2.1,2.1,0,0,1,300.22,417.73Zm-.168,1.871a1.935,1.935,0,0,0-.474-1.4,1.287,1.287,0,0,0-.923-.366c-.864,0-1.409.683-1.409,1.769a1.979,1.979,0,0,0,.485,1.415,1.3,1.3,0,0,0,.93.366C299.519,421.388,300.052,420.7,300.052,419.6Z" transform="translate(0)" fill="#5c5953"/>
    <path id="X" d="M304.54,422c-.12-.223-.252-.438-.4-.666l-.846-1.283-.84,1.277c-.143.216-.294.474-.4.672H300.96c.354-.45.438-.564.564-.738l1.271-1.787-1.1-1.559c-.162-.228-.342-.462-.528-.689h1.073a4.741,4.741,0,0,0,.384.671l.684,1.019.666-1.019a3.928,3.928,0,0,0,.378-.671h1.067c-.168.21-.342.437-.521.689l-1.1,1.553,1.271,1.787c.138.2.282.384.576.744Z" transform="translate(-0.048)" fill="#5c5953"/>
  </g>
</svg>
