<svg xmlns="http://www.w3.org/2000/svg" width="29" height="33.045" viewBox="0 0 29 33.045">
  <g id="Icon_pass_l" data-name="Icon/pass_l" transform="translate(0.5 0.545)">
    <rect id="長方形_1370" data-name="長方形 1370" width="28" height="20.116" rx="2.254" transform="translate(0 11.883)" fill="none" stroke="#676c81" stroke-miterlimit="10" stroke-width="1"/>
    <path id="パス_1037" data-name="パス 1037" d="M312.416,424.655v-8.8a3.332,3.332,0,0,0-3.332-3.332h-9.16a3.332,3.332,0,0,0-3.332,3.332v8.8" transform="translate(-290.5 -412.523)" fill="none" stroke="#676c81" stroke-miterlimit="10" stroke-width="1.091"/>
    <circle id="楕円形_308" data-name="楕円形 308" cx="3.246" cy="3.246" r="3.246" transform="translate(10.754 16.909)" fill="#676c81"/>
    <path id="長方形_1371" data-name="長方形 1371" d="M304.5,433.541h0a1.658,1.658,0,0,1,1.658,1.658v2.724a1.658,1.658,0,0,1-1.658,1.658h0a1.658,1.658,0,0,1-1.658-1.658V435.2A1.658,1.658,0,0,1,304.5,433.541Z" transform="translate(-290.5 -412.523)" fill="#676c81"/>
  </g>
</svg>