<svg id="btn_tutorial" xmlns="http://www.w3.org/2000/svg" width="140" height="28" viewBox="0 0 140 28">
  <g id="Rectangle_5243" data-name="Rectangle 5243" fill="#f7f8fd" stroke="#e4e5ed" stroke-width="1">
    <rect width="140" height="28" rx="12" stroke="none"/>
    <rect x="0.5" y="0.5" width="139" height="27" rx="11.5" fill="none"/>
  </g>
  <g id="icon_question" data-name="icon/question" transform="translate(6 6)">
    <g id="Path_3028" data-name="Path 3028" fill="none">
      <path d="M8,0A8,8,0,1,1,0,8,8,8,0,0,1,8,0Z" stroke="none"/>
      <path d="M 8 1 C 4.140190124511719 1 1 4.140190124511719 1 8 C 1 11.85980987548828 4.140190124511719 15 8 15 C 11.85980987548828 15 15 11.85980987548828 15 8 C 15 4.140190124511719 11.85980987548828 1 8 1 M 8 0 C 12.41827964782715 0 16 3.581720352172852 16 8 C 16 12.41827964782715 12.41827964782715 16 8 16 C 3.581720352172852 16 0 12.41827964782715 0 8 C 0 3.581720352172852 3.581720352172852 0 8 0 Z" stroke="none" fill="#7e8195"/>
    </g>
    <g id="Group_6758" data-name="Group 6758" transform="translate(-150 -293.195)">
      <circle id="Ellipse_231" data-name="Ellipse 231" cx="0.902" cy="0.902" r="0.902" transform="translate(157.098 304.77)" fill="#7e8195"/>
      <path id="Op_component_4" data-name="Op component 4" d="M519.716,292.031a3.26,3.26,0,0,1,2.68,2.776c.216,1.528-.824,2.12-1.592,2.848a2.83,2.83,0,0,0-.264.272c-.008.008-.016.024-.024.032a2.19,2.19,0,0,0-.224.312c-.016.024-.024.048-.04.072a1.7,1.7,0,0,0-.224.856h-1.6a2.978,2.978,0,0,1,.16-1,.574.574,0,0,1,.016-.056c.008-.024.024-.04.032-.064a2.684,2.684,0,0,1,.2-.4c.008-.016.016-.024.024-.04s.008-.008.008-.016c.664-1,1.88-1.232,1.96-2.3a1.619,1.619,0,0,0-1.256-1.68,1.6,1.6,0,0,0-1.84,1.024.77.77,0,0,1-.7.536h-.16a.725.725,0,0,1-.7-.936,3.2,3.2,0,0,1,3.544-2.232Z" transform="translate(-361.228 4.201)" fill="#7e8195"/>
    </g>
  </g>
  <text id="操作方法を見る" transform="translate(28 20)" fill="#f09c9c" font-size="15" font-family="HiraKakuPro-W3, Hiragino Kaku Gothic Pro"><tspan x="0" y="0">操作方法を見る</tspan></text>
</svg>
